<svg width="162" height="162" viewBox="0 0 162 162" fill="none" xmlns="http://www.w3.org/2000/svg">
<path d="M81.1566 162C100.664 162.001 119.511 154.934 134.21 142.107L77.0648 84.9559C76.5249 84.4176 76.0964 83.778 75.804 83.0738C75.5117 82.3696 75.3611 81.6147 75.3609 80.8522V0C54.3974 1.48563 34.8293 11.0527 20.7807 26.685C6.73213 42.3172 -0.699556 62.7936 0.0519082 83.7985C0.803372 104.803 9.67929 124.696 24.809 139.284C39.9387 153.873 60.1405 162.017 81.1566 162Z" fill="white"/>
<path d="M86.952 0V75.0559H162C160.588 55.6172 152.228 37.3359 138.448 23.5544C124.668 9.77293 106.389 1.41193 86.952 0Z" fill="white"/>
<path d="M95.1473 86.6494L142.405 133.912C153.891 120.701 160.769 104.113 162 86.6494H95.1473Z" fill="white"/>
</svg>
