<svg width="128" height="128" viewBox="0 0 128 128" fill="none" xmlns="http://www.w3.org/2000/svg">
<path d="M15.5 11C14.61 11 13.74 11.2639 12.9999 11.7584C12.2599 12.2529 11.6831 12.9557 11.3425 13.7779C11.0019 14.6002 10.9128 15.505 11.0865 16.3779C11.2601 17.2508 11.6887 18.0526 12.318 18.682C12.9474 19.3113 13.7492 19.7399 14.6221 19.9135C15.495 20.0872 16.3998 19.9981 17.2221 19.6575C18.0443 19.3169 18.7471 18.7401 19.2416 18.0001C19.7361 17.26 20 16.39 20 15.5C19.9987 14.3069 19.5241 13.1631 18.6805 12.3195C17.8369 11.4759 16.6931 11.0013 15.5 11ZM15.5 17C15.2033 17 14.9133 16.912 14.6666 16.7472C14.42 16.5824 14.2277 16.3481 14.1142 16.074C14.0007 15.7999 13.9709 15.4983 14.0288 15.2074C14.0867 14.9164 14.2296 14.6491 14.4393 14.4393C14.6491 14.2296 14.9164 14.0867 15.2074 14.0288C15.4983 13.9709 15.7999 14.0006 16.074 14.1142C16.3481 14.2277 16.5824 14.42 16.7472 14.6666C16.912 14.9133 17 15.2033 17 15.5C17 15.8978 16.842 16.2794 16.5607 16.5607C16.2794 16.842 15.8978 17 15.5 17Z" fill="#000B44"/>
<path d="M47.5 11C46.61 11 45.74 11.2639 44.9999 11.7584C44.2599 12.2529 43.6831 12.9557 43.3425 13.7779C43.0019 14.6002 42.9128 15.505 43.0865 16.3779C43.2601 17.2508 43.6887 18.0526 44.318 18.682C44.9474 19.3113 45.7492 19.7399 46.6221 19.9135C47.495 20.0872 48.3998 19.9981 49.2221 19.6575C50.0443 19.3169 50.7471 18.7401 51.2416 18.0001C51.7361 17.26 52 16.39 52 15.5C51.9987 14.3069 51.5241 13.1631 50.6805 12.3195C49.8369 11.4759 48.6931 11.0013 47.5 11ZM47.5 17C47.2033 17 46.9133 16.912 46.6666 16.7472C46.42 16.5824 46.2277 16.3481 46.1142 16.074C46.0007 15.7999 45.9709 15.4983 46.0288 15.2074C46.0867 14.9164 46.2296 14.6491 46.4393 14.4393C46.6491 14.2296 46.9164 14.0867 47.2074 14.0288C47.4983 13.9709 47.7999 14.0006 48.074 14.1142C48.3481 14.2277 48.5824 14.42 48.7472 14.6666C48.912 14.9133 49 15.2033 49 15.5C49 15.8978 48.842 16.2794 48.5607 16.5607C48.2794 16.842 47.8978 17 47.5 17Z" fill="#000B44"/>
<path d="M31.5 11C30.61 11 29.74 11.2639 28.9999 11.7584C28.2599 12.2529 27.6831 12.9557 27.3425 13.7779C27.002 14.6002 26.9128 15.505 27.0865 16.3779C27.2601 17.2508 27.6887 18.0526 28.318 18.682C28.9474 19.3113 29.7492 19.7399 30.6221 19.9135C31.495 20.0872 32.3998 19.9981 33.2221 19.6575C34.0443 19.3169 34.7471 18.7401 35.2416 18.0001C35.7361 17.26 36 16.39 36 15.5C35.9987 14.3069 35.5241 13.1631 34.6805 12.3195C33.8369 11.4759 32.6931 11.0013 31.5 11ZM31.5 17C31.2033 17 30.9133 16.912 30.6666 16.7472C30.42 16.5824 30.2277 16.3481 30.1142 16.074C30.0007 15.7999 29.9709 15.4983 30.0288 15.2074C30.0867 14.9164 30.2296 14.6491 30.4393 14.4393C30.6491 14.2296 30.9164 14.0867 31.2074 14.0288C31.4983 13.9709 31.7999 14.0006 32.074 14.1142C32.3481 14.2277 32.5824 14.42 32.7472 14.6666C32.912 14.9133 33 15.2033 33 15.5C33 15.8978 32.842 16.2794 32.5607 16.5607C32.2794 16.842 31.8978 17 31.5 17Z" fill="#000B44"/>
<path d="M111.5 11H95.5C94.3065 11 93.1619 11.4741 92.318 12.318C91.4741 13.1619 91 14.3065 91 15.5C91 16.6935 91.4741 17.8381 92.318 18.682C93.1619 19.5259 94.3065 20 95.5 20H111.5C112.693 20 113.838 19.5259 114.682 18.682C115.526 17.8381 116 16.6935 116 15.5C116 14.3065 115.526 13.1619 114.682 12.318C113.838 11.4741 112.693 11 111.5 11ZM111.5 17H95.5C95.1022 17 94.7206 16.842 94.4393 16.5607C94.158 16.2794 94 15.8978 94 15.5C94 15.1022 94.158 14.7206 94.4393 14.4393C94.7206 14.158 95.1022 14 95.5 14H111.5C111.898 14 112.279 14.158 112.561 14.4393C112.842 14.7206 113 15.1022 113 15.5C113 15.8978 112.842 16.2794 112.561 16.5607C112.279 16.842 111.898 17 111.5 17Z" fill="#000B44"/>
<path d="M114.5 0H13.5C9.9208 0.00397028 6.48932 1.42756 3.95844 3.95844C1.42756 6.48932 0.00397028 9.9208 0 13.5L0 100.5C0.00397028 104.079 1.42756 107.511 3.95844 110.042C6.48932 112.572 9.9208 113.996 13.5 114H31.257L35.606 118.349C36.4867 119.235 37.6782 119.743 38.9275 119.765C40.1767 119.786 41.3851 119.32 42.296 118.465L44.262 116.63C47.3097 118.412 50.5857 119.771 54 120.67L54.092 123.352C54.1316 124.601 54.6565 125.785 55.5552 126.653C56.4539 127.521 57.6556 128.004 58.905 128H69.1C70.3492 128.004 71.5507 127.52 72.4492 126.652C73.3477 125.785 73.8724 124.601 73.912 123.352L74 120.669C77.417 119.774 80.6961 118.418 83.747 116.638L85.705 118.465C86.6157 119.32 87.8239 119.786 89.0728 119.765C90.3218 119.743 91.5132 119.236 92.394 118.35L96.743 114H114.5C118.079 113.996 121.511 112.572 124.042 110.042C126.572 107.511 127.996 104.079 128 100.5V13.5C127.996 9.9208 126.572 6.48932 124.042 3.95844C121.511 1.42756 118.079 0.00397028 114.5 0ZM97.479 109.022L90.272 116.229C89.9401 116.563 89.4909 116.754 89.02 116.762C88.5492 116.77 88.0938 116.594 87.751 116.271L84.965 113.671C84.7235 113.446 84.4144 113.307 84.0857 113.275C83.757 113.243 83.427 113.321 83.147 113.496C79.7738 115.601 76.0744 117.13 72.2 118.023C71.8784 118.098 71.5905 118.276 71.3808 118.531C71.171 118.786 71.0513 119.103 71.04 119.433L70.908 123.248C70.8934 123.718 70.6965 124.163 70.359 124.49C70.0215 124.817 69.57 125 69.1 125H58.905C58.434 125.002 57.9809 124.82 57.6421 124.492C57.3033 124.165 57.1056 123.719 57.091 123.248L56.96 119.434C56.9487 119.104 56.8288 118.787 56.6188 118.532C56.4089 118.277 56.1207 118.098 55.799 118.024C51.927 117.127 48.2308 115.594 44.861 113.487C44.5809 113.312 44.2508 113.235 43.9221 113.266C43.5934 113.298 43.2844 113.438 43.043 113.663L40.249 116.271C39.9062 116.594 39.4507 116.77 38.9798 116.762C38.5088 116.754 38.0596 116.563 37.728 116.228L30.522 109.022C30.1877 108.69 29.9962 108.241 29.9881 107.77C29.9801 107.299 30.1562 106.844 30.479 106.501L33.079 103.715C33.3042 103.473 33.4434 103.164 33.4751 102.836C33.5067 102.507 33.429 102.177 33.254 101.897C31.15 98.5238 29.6202 94.8249 28.727 90.951C28.6526 90.6293 28.474 90.3411 28.2191 90.1311C27.9641 89.9212 27.647 89.8013 27.317 89.79L23.5 89.659C23.0292 89.6444 22.5827 89.4467 22.2555 89.1079C21.9283 88.7691 21.7462 88.316 21.748 87.845V77.655C21.7462 77.184 21.9283 76.7309 22.2555 76.3921C22.5827 76.0533 23.0292 75.8556 23.5 75.841L27.314 75.709C27.6439 75.6977 27.9609 75.578 28.2158 75.3682C28.4707 75.1585 28.6494 74.8706 28.724 74.549C29.6214 70.6767 31.1552 66.9801 33.263 63.61C33.4376 63.33 33.515 63.0001 33.4832 62.6716C33.4514 62.3431 33.3121 62.0343 33.087 61.793L30.479 59C30.1562 58.657 29.9801 58.2016 29.9881 57.7308C29.9962 57.2599 30.1877 56.8107 30.522 56.479L37.728 49.273C38.0596 48.9385 38.5088 48.7468 38.9798 48.7388C39.4507 48.7307 39.9062 48.907 40.249 49.23L43.035 51.83C43.2771 52.0544 43.5865 52.1928 43.9152 52.2235C44.2438 52.2542 44.5735 52.1757 44.853 52C48.2265 49.8968 51.9258 48.3683 55.8 47.477C56.1217 47.4026 56.4099 47.224 56.6198 46.9691C56.8298 46.7141 56.9497 46.3971 56.961 46.067L57.092 42.252C57.1066 41.7814 57.3042 41.335 57.6427 41.0079C57.9813 40.6807 58.4342 40.4985 58.905 40.5H69.1C69.571 40.4982 70.0241 40.6803 70.3629 41.0075C70.7017 41.3347 70.8994 41.7812 70.914 42.252L71.046 46.065C71.0573 46.3949 71.177 46.7119 71.3868 46.9668C71.5965 47.2217 71.8844 47.4004 72.206 47.475C76.0763 48.3728 79.771 49.9059 83.14 52.012C83.42 52.1866 83.7499 52.264 84.0784 52.2322C84.4068 52.2004 84.7157 52.0611 84.957 51.836L87.751 49.229C88.0939 48.9063 88.5492 48.7302 89.02 48.7381C89.4908 48.7459 89.94 48.9371 90.272 49.271L97.479 56.478C97.8132 56.81 98.0046 57.2594 98.0124 57.7305C98.0203 58.2015 97.844 58.657 97.521 59L94.921 61.786C94.6958 62.0275 94.5566 62.3366 94.5249 62.6653C94.4933 62.994 94.571 63.324 94.746 63.604C96.8505 66.9769 98.3803 70.6759 99.273 74.55C99.3476 74.8716 99.5263 75.1595 99.7812 75.3692C100.036 75.579 100.353 75.6987 100.683 75.71L104.498 75.842C104.969 75.8566 105.415 76.0543 105.742 76.3931C106.07 76.7319 106.252 77.185 106.25 77.656V87.846C106.252 88.317 106.07 88.7701 105.742 89.1089C105.415 89.4477 104.969 89.6454 104.498 89.66L100.684 89.791C100.354 89.8023 100.037 89.9222 99.7819 90.1322C99.527 90.3421 99.3484 90.6303 99.274 90.952C98.3773 94.8238 96.8445 98.5199 94.738 101.89C94.5631 102.17 94.4856 102.5 94.5174 102.829C94.5492 103.158 94.6886 103.467 94.914 103.708L97.521 106.502C97.8434 106.845 98.0193 107.3 98.0115 107.771C98.0036 108.241 97.8126 108.69 97.479 109.022ZM125 100.5C124.997 103.284 123.89 105.953 121.921 107.921C119.953 109.89 117.284 110.997 114.5 111H99.718C100.549 110.113 101.012 108.943 101.012 107.728C101.012 106.512 100.549 105.342 99.718 104.455L97.883 102.488C99.6653 99.44 101.024 96.1636 101.923 92.749L104.605 92.657C105.854 92.6174 107.038 92.0927 107.905 91.1942C108.773 90.2957 109.257 89.0942 109.253 87.845V77.655C109.257 76.4058 108.773 75.2043 107.905 74.3058C107.038 73.4073 105.854 72.8826 104.605 72.843L101.922 72.75C101.026 69.3318 99.6693 66.0517 97.888 63L99.715 61.042C100.57 60.1313 101.036 58.9231 101.015 57.6742C100.993 56.4252 100.486 55.2338 99.6 54.353L92.394 47.15C91.5132 46.2642 90.3218 45.7567 89.0728 45.7352C87.8239 45.7138 86.6157 46.18 85.705 47.035L83.739 48.87C80.691 47.0877 77.4146 45.7285 74 44.83L73.907 42.148C73.8675 40.9003 73.3434 39.717 72.446 38.8493C71.5485 37.9815 70.3483 37.4976 69.1 37.5H58.905C57.6558 37.4963 56.4543 37.9797 55.5558 38.8475C54.6573 39.7154 54.1326 40.8994 54.093 42.148L54 44.831C50.5827 45.7257 47.3032 47.0818 44.252 48.862L42.3 47.035C41.3892 46.1797 40.1809 45.7133 38.9317 45.7347C37.6824 45.7562 36.4908 46.2639 35.61 47.15L28.4 54.356C27.5141 55.2367 27.0064 56.428 26.9847 57.677C26.9631 58.9259 27.4292 60.1342 28.284 61.045L30.119 63.011C28.337 66.0592 26.9779 69.3355 26.079 72.75L23.397 72.843C22.1484 72.8826 20.9644 73.4073 20.0965 74.3058C19.2287 75.2043 18.7453 76.4058 18.749 77.655V87.845C18.7453 89.0947 19.2291 90.2966 20.0976 91.1952C20.9661 92.0938 22.1509 92.6182 23.4 92.657L26.083 92.749C26.9779 96.1663 28.334 99.4457 30.114 102.497L28.287 104.455C27.4556 105.342 26.993 106.512 26.993 107.728C26.993 108.943 27.4556 110.113 28.287 111H13.5C10.7162 110.997 8.04733 109.89 6.07889 107.921C4.11044 105.953 3.00318 103.284 3 100.5V30H125V100.5ZM125 27H3V13.5C3.00318 10.7162 4.11044 8.04733 6.07889 6.07889C8.04733 4.11044 10.7162 3.00318 13.5 3H114.5C117.284 3.00318 119.953 4.11044 121.921 6.07889C123.89 8.04733 124.997 10.7162 125 13.5V27Z" fill="#000B44"/>
<path d="M64 51.5C57.8193 51.5 51.7775 53.3328 46.6384 56.7666C41.4994 60.2004 37.494 65.081 35.1288 70.7911C32.7635 76.5013 32.1447 82.7847 33.3505 88.8466C34.5563 94.9085 37.5325 100.477 41.9029 104.847C46.2733 109.217 51.8415 112.194 57.9034 113.4C63.9653 114.605 70.2487 113.986 75.9589 111.621C81.6691 109.256 86.5497 105.251 89.9834 100.112C93.4172 94.9725 95.25 88.9307 95.25 82.75C95.2405 74.4649 91.945 66.5219 86.0866 60.6634C80.2281 54.805 72.2851 51.5095 64 51.5ZM64 111C58.4127 111 52.9508 109.343 48.3052 106.239C43.6595 103.135 40.0386 98.7228 37.9004 93.5608C35.7622 88.3988 35.2028 82.7187 36.2928 77.2387C37.3829 71.7587 40.0734 66.7251 44.0242 62.7742C47.9751 58.8234 53.0087 56.1328 58.4887 55.0428C63.9687 53.9528 69.6488 54.5122 74.8108 56.6504C79.9728 58.7886 84.3849 62.4094 87.489 67.0551C90.5932 71.7008 92.25 77.1627 92.25 82.75C92.2415 90.2398 89.2625 97.4203 83.9664 102.716C78.6704 108.012 71.4898 110.992 64 111Z" fill="#000B44"/>
<path d="M48.542 73.6938C47.0615 73.6954 45.6421 74.2843 44.5953 75.3311C43.5484 76.378 42.9596 77.7974 42.958 79.2778V88.9998C42.958 89.3977 43.116 89.7792 43.3973 90.0605C43.6787 90.3418 44.0602 90.4998 44.458 90.4998C44.8558 90.4998 45.2374 90.3418 45.5187 90.0605C45.8 89.7792 45.958 89.3977 45.958 88.9998V84.6668H51.125V88.9998C51.125 89.3977 51.283 89.7792 51.5643 90.0605C51.8457 90.3418 52.2272 90.4998 52.625 90.4998C53.0228 90.4998 53.4044 90.3418 53.6857 90.0605C53.967 89.7792 54.125 89.3977 54.125 88.9998V79.2778C54.1234 77.7975 53.5347 76.3783 52.4881 75.3315C51.4414 74.2846 50.0223 73.6957 48.542 73.6938ZM51.125 81.6668H45.958V79.2778C45.9512 78.9343 46.0131 78.5929 46.1399 78.2735C46.2667 77.9541 46.4559 77.6633 46.6965 77.4179C46.937 77.1726 47.2241 76.9777 47.5409 76.8446C47.8577 76.7115 48.1979 76.643 48.5415 76.643C48.8851 76.643 49.2253 76.7115 49.5421 76.8446C49.8589 76.9777 50.146 77.1726 50.3866 77.4179C50.6271 77.6633 50.8163 77.9541 50.9431 78.2735C51.0699 78.5929 51.1318 78.9343 51.125 79.2778V81.6668Z" fill="#000B44"/>
<path d="M83.542 87.5H80.958V76.5H83.542C83.9398 76.5 84.3214 76.342 84.6027 76.0607C84.884 75.7794 85.042 75.3978 85.042 75C85.042 74.6022 84.884 74.2206 84.6027 73.9393C84.3214 73.658 83.9398 73.5 83.542 73.5H75.375C74.9772 73.5 74.5956 73.658 74.3143 73.9393C74.033 74.2206 73.875 74.6022 73.875 75C73.875 75.3978 74.033 75.7794 74.3143 76.0607C74.5956 76.342 74.9772 76.5 75.375 76.5H77.958V87.5H75.375C74.9772 87.5 74.5956 87.658 74.3143 87.9393C74.033 88.2206 73.875 88.6022 73.875 89C73.875 89.3978 74.033 89.7794 74.3143 90.0607C74.5956 90.342 74.9772 90.5 75.375 90.5H83.542C83.9398 90.5 84.3214 90.342 84.6027 90.0607C84.884 89.7794 85.042 89.3978 85.042 89C85.042 88.6022 84.884 88.2206 84.6027 87.9393C84.3214 87.658 83.9398 87.5 83.542 87.5Z" fill="#000B44"/>
<path d="M66.858 73.5H61.958C61.5602 73.5 61.1787 73.658 60.8973 73.9393C60.616 74.2206 60.458 74.6022 60.458 75V89C60.458 89.3978 60.616 89.7794 60.8973 90.0607C61.1787 90.342 61.5602 90.5 61.958 90.5C62.3558 90.5 62.7374 90.342 63.0187 90.0607C63.3 89.7794 63.458 89.3978 63.458 89V83.5H66.858C68.1841 83.5 69.4559 82.9732 70.3935 82.0355C71.3312 81.0978 71.858 79.8261 71.858 78.5C71.858 77.1739 71.3312 75.9022 70.3935 74.9645C69.4559 74.0268 68.1841 73.5 66.858 73.5ZM66.858 80.5H63.458V76.5H66.858C67.3884 76.5 67.8972 76.7107 68.2722 77.0858C68.6473 77.4609 68.858 77.9696 68.858 78.5C68.858 79.0304 68.6473 79.5391 68.2722 79.9142C67.8972 80.2893 67.3884 80.5 66.858 80.5Z" fill="#000B44"/>
</svg>
