<svg width="83" height="86" viewBox="0 0 83 86" fill="none" xmlns="http://www.w3.org/2000/svg">
<path d="M80.0305 43.8498C79.2814 43.8498 78.6741 43.2549 78.6741 42.5211C78.6741 22.0057 61.636 5.31527 40.6935 5.31527C39.9444 5.31527 39.337 4.72031 39.337 3.98649C39.337 3.25268 39.9444 2.65771 40.6935 2.65771C51.563 2.65771 61.7822 6.80417 69.468 14.3334C77.154 21.8627 81.3869 31.8732 81.3869 42.5211C81.3869 43.2549 80.7796 43.8498 80.0305 43.8498Z" fill="#000B44"/>
<path d="M40.6935 82.384C29.8239 82.384 19.6049 78.2374 11.9188 70.7082C4.2328 63.1792 0 53.1685 0 42.5207C0 41.7869 0.60735 41.1919 1.35645 41.1919C2.10555 41.1919 2.7129 41.7869 2.7129 42.5207C2.7129 63.036 19.7509 79.7265 40.6935 79.7265C41.4426 79.7265 42.0499 80.3214 42.0499 81.0552C42.0499 81.789 41.4426 82.384 40.6935 82.384Z" fill="#000B44"/>
<path d="M36.6242 7.97267C34.3803 7.97267 32.5548 6.18446 32.5548 3.98633C32.5548 1.7882 34.3803 0 36.6242 0C38.8681 0 40.6935 1.7882 40.6935 3.98633C40.6935 6.18446 38.8681 7.97267 36.6242 7.97267ZM36.6242 2.65756C35.8762 2.65756 35.2677 3.25368 35.2677 3.98633C35.2677 4.71899 35.8762 5.31511 36.6242 5.31511C37.3721 5.31511 37.9806 4.71899 37.9806 3.98633C37.9806 3.25368 37.3721 2.65756 36.6242 2.65756Z" fill="#000B44"/>
<path d="M43.4064 85.042C41.1625 85.042 39.337 83.2536 39.337 81.0557C39.337 78.8577 41.1625 77.0693 43.4064 77.0693C45.6501 77.0693 47.4757 78.8577 47.4757 81.0557C47.4757 83.2536 45.6501 85.042 43.4064 85.042ZM43.4064 79.7269C42.6585 79.7269 42.0499 80.323 42.0499 81.0557C42.0499 81.7883 42.6585 82.3844 43.4064 82.3844C44.1543 82.3844 44.7628 81.7883 44.7628 81.0557C44.7628 80.323 44.1543 79.7269 43.4064 79.7269Z" fill="#000B44"/>
<path d="M73.248 83.7128C73.0529 83.7128 72.8564 83.6716 72.6727 83.5874C72.1963 83.3687 71.8917 82.8996 71.8917 82.3841V79.7265H63.7531C63.004 79.7265 62.3966 79.1315 62.3966 78.3977C62.3966 77.6639 63.004 77.0689 63.7531 77.0689H73.2482C73.9973 77.0689 74.6046 77.6639 74.6046 78.3977V79.5471L79.2681 75.7402L74.6046 71.9332V73.0826C74.6046 73.8164 73.9973 74.4114 73.2482 74.4114H63.7531C63.004 74.4114 62.3966 73.8164 62.3966 73.0826C62.3966 72.3488 63.004 71.7538 63.7531 71.7538H71.8917V69.0963C71.8917 68.5807 72.1963 68.1117 72.6727 67.8929C73.1495 67.6745 73.7121 67.7454 74.1165 68.0756L82.2552 74.7195C82.5645 74.972 82.7433 75.3459 82.7433 75.7403C82.7433 76.1348 82.5645 76.5087 82.2552 76.7612L74.1165 83.4051C73.8679 83.6077 73.5595 83.7128 73.248 83.7128Z" fill="#000B44"/>
<path d="M9.49531 21.2604C9.18384 21.2604 8.87524 21.1554 8.62668 20.9524L0.487982 14.3085C0.178881 14.0561 0 13.682 0 13.2877C0 12.8934 0.178881 12.5193 0.487982 12.2669L8.62668 5.62296C9.03107 5.29293 9.59382 5.22167 10.0704 5.44042C10.5471 5.65917 10.8516 6.12823 10.8516 6.6438V9.30135H18.9903C19.7394 9.30135 20.3467 9.89631 20.3467 10.6301C20.3467 11.3639 19.7394 11.9589 18.9903 11.9589H9.49514C8.74604 11.9589 8.13869 11.3639 8.13869 10.6301V9.48074L3.47539 13.2877L8.13869 17.0946V15.9452C8.13869 15.2114 8.74604 14.6165 9.49514 14.6165H18.9903C19.7394 14.6165 20.3467 15.2114 20.3467 15.9452C20.3467 16.6791 19.7394 17.274 18.9903 17.274H10.8516V19.9316C10.8516 20.4471 10.5471 20.9162 10.0704 21.1349C9.88699 21.2192 9.69047 21.2604 9.49531 21.2604Z" fill="#000B44"/>
<g clip-path="url(#clip0_2446_46)">
<path fill-rule="evenodd" clip-rule="evenodd" d="M44.8847 56.8224C44.8847 51.0312 49.6933 46.3207 55.6052 46.3207C58.6443 46.3207 61.3922 47.5646 63.3488 49.5833C64.2648 47.014 64.7853 44.2815 64.806 41.4062C64.9101 27.4174 53.3986 16.1611 39.3684 16.0795C25.1507 15.998 13.66 27.295 13.5975 41.08C13.5351 55.028 25.0674 66.3658 39.2019 66.3047C42.47 66.3249 45.5716 65.7132 48.4444 64.6324C46.2586 62.7157 44.8847 59.9219 44.8847 56.8224ZM39.8679 49.8076C39.2851 51.541 38.6813 53.2742 37.8488 54.8852C36.8079 56.9448 35.1218 58.4129 32.7279 58.882C31.3124 59.1471 29.8968 59.0248 28.7103 58.1275C28.3564 57.8625 27.9609 57.3934 27.9401 57.0059C27.9193 56.5573 28.1691 55.966 28.5021 55.6804C28.7311 55.4969 29.4389 55.6397 29.7511 55.864C30.1883 56.1699 30.4589 56.7001 30.7919 57.1487C31.5205 58.1478 32.5822 58.2702 33.5397 57.475C34.7054 56.4961 35.3092 55.1707 35.6839 53.7841C36.4749 50.8884 37.1202 47.9315 37.8279 45.0155C37.8695 44.8933 37.8279 44.7504 37.8279 44.5057C35.6422 44.1795 33.4564 43.8532 31.1874 43.5065C31.2707 42.8743 31.3539 42.3239 31.4372 41.6102C33.6855 41.916 35.9337 42.2219 38.2859 42.5481C38.5981 41.2838 38.8895 40.0399 39.2227 38.694C36.8287 38.3271 34.4973 37.9804 32.0617 37.6134C32.1451 36.9608 32.2283 36.349 32.3116 35.6964C34.768 36.0431 37.1618 36.3897 39.639 36.7364C39.8472 36.0228 40.0137 35.3702 40.201 34.7176C40.8879 32.495 41.5124 30.2519 42.928 28.335C44.3643 26.3978 46.1962 25.1335 48.7565 25.2355C49.9015 25.2763 50.984 25.6025 51.7958 26.4998C51.9623 26.6833 52.0456 26.7241 52.1912 27.1115C52.3579 27.5805 52.1705 28.2535 51.8791 28.539C51.4211 28.9672 50.7342 28.7429 50.2762 28.3146C49.9224 27.968 49.6309 27.5397 49.3394 27.1523C48.6109 26.1939 47.4452 26.0104 46.5916 26.8668C45.9463 27.5397 45.301 28.335 45.0303 29.1915C44.177 31.7813 43.4899 34.4321 42.6781 37.2054C45.0512 37.5521 47.2578 37.8785 49.5683 38.2047C49.381 38.8573 49.2145 39.4282 49.0271 40.0808C46.779 39.7748 44.5932 39.469 42.3659 39.1631C42.0953 40.4885 41.8456 41.6917 41.5541 43.0579C43.9064 43.4045 46.2586 43.7309 48.715 44.098C48.5276 44.7301 48.3611 45.3419 48.1529 45.9943C45.8006 45.6681 43.5108 45.3419 41.1585 44.9952C40.7423 46.6265 40.3884 48.2375 39.8679 49.8076Z" fill="#000B44"/>
<path d="M65.0766 56.8223C65.0766 51.7039 60.8301 47.5439 55.6052 47.5439C50.3802 47.5439 46.1337 51.7039 46.1337 56.8223C46.1337 61.859 50.2137 65.9374 55.3138 66.1005H65.0766V56.8223Z" fill="#000B44"/>
<path d="M56.5003 52.4995V55.9661H60.1433V57.6995H56.5003V61.1661H54.6893V57.6995H51.0673V55.9661H54.6893V52.4995H56.5003Z" fill="white"/>
<path fill-rule="evenodd" clip-rule="evenodd" d="M39.8472 49.8073C39.2643 51.5407 38.6606 53.2739 37.828 54.8849C36.7871 56.9445 35.101 58.4127 32.707 58.8817C31.2916 59.1468 29.876 59.0246 28.6895 58.1273C28.3356 57.8622 27.9401 57.3932 27.9193 57.0057C27.8985 56.557 28.1483 55.9657 28.4813 55.6802C28.7103 55.4967 29.4181 55.6395 29.7303 55.8637C30.1675 56.1697 30.4381 56.6999 30.7712 57.1485C31.4998 58.1476 32.5614 58.27 33.5189 57.4747C34.6847 56.4959 35.2883 55.1704 35.6631 53.7839C36.454 50.8881 37.0994 47.9313 37.8071 45.0153C37.8488 44.893 37.8071 44.7502 37.8071 44.5055C35.6214 44.1793 33.4356 43.8529 31.1666 43.5063C31.2499 42.8741 31.3333 42.3237 31.4165 41.6099C33.6647 41.9157 35.9128 42.2217 38.2651 42.5479C38.5774 41.2836 38.8687 40.0397 39.2019 38.6938C36.8079 38.3269 34.4765 37.9802 32.041 37.6131C32.1243 36.9605 32.2075 36.3488 32.2908 35.6962C34.7471 36.0429 37.1409 36.3895 39.6181 36.7361C39.8263 36.0226 39.9928 35.37 40.1802 34.7174C40.8671 32.4947 41.4917 30.2516 42.9072 28.3348C44.3435 26.3976 46.1754 25.1333 48.7358 25.2352C49.8807 25.276 50.9631 25.6023 51.775 26.4995C51.9415 26.6831 52.0247 26.7238 52.1705 27.1113C52.337 27.5803 52.1497 28.2532 51.8582 28.5387C51.4002 28.9669 50.7134 28.7426 50.2554 28.3144C49.9015 27.9677 49.6101 27.5395 49.3186 27.1521C48.59 26.1937 47.4243 26.0101 46.5708 26.8666C45.9256 27.5395 45.2803 28.3348 45.0097 29.1912C44.1561 31.781 43.4693 34.4319 42.6574 37.2052C45.0304 37.5518 47.237 37.8782 49.5477 38.2044C49.3603 38.857 49.1938 39.4279 49.0064 40.0805C46.7581 39.7746 44.5726 39.4688 42.3451 39.1628C42.0745 40.4883 41.8247 41.6915 41.5333 43.0576C43.8855 43.4043 46.2378 43.7307 48.6941 44.0977C48.5068 44.7299 48.3403 45.3416 48.132 45.9941C45.7798 45.6679 43.4899 45.3416 41.1377 44.995C40.7423 46.6262 40.3884 48.2372 39.8472 49.8073Z" fill="white"/>
</g>
<defs>
<clipPath id="clip0_2446_46">
<rect width="51.545" height="50.4936" fill="white" transform="translate(13.5645 15.9453)"/>
</clipPath>
</defs>
</svg>
