<svg width="162" height="162" viewBox="0 0 162 162" fill="none" xmlns="http://www.w3.org/2000/svg">
<path d="M81 0C36.3343 0 0 36.3343 0 81C0 125.666 36.3343 162 81 162C125.666 162 162 125.666 162 81C162 36.3343 125.666 0 81 0ZM13.8857 81C13.8857 43.9899 43.9899 13.8857 81 13.8857C97.0056 13.8857 111.715 19.5326 123.259 28.9193L28.9193 123.259C19.5326 111.715 13.8857 97.0056 13.8857 81ZM81 148.114C64.9944 148.114 50.2848 142.467 38.7411 133.081L133.081 38.7411C142.467 50.2848 148.114 64.9944 148.114 81C148.114 118.01 118.01 148.114 81 148.114Z" fill="white"/>
</svg>
