<svg width="94" height="86" viewBox="0 0 94 86" fill="none" xmlns="http://www.w3.org/2000/svg">
<path d="M0 0.0698242V85.9298H94V0.0698242H0ZM91 82.8998H3V17.2398H91V82.8998ZM91 14.2098H3V3.09982H91V14.2098Z" fill="#000B44"/>
<path d="M20.8199 76.8398H34.8899V59.8398H20.8199V76.8398ZM23.8199 62.8398H31.8199V73.8098H23.8199V62.8398Z" fill="#000B44"/>
<path d="M38.1699 76.8402H52.2499V49.7002H38.1699V76.8402ZM41.1699 52.7302H49.1699V73.8102H41.1699V52.7302Z" fill="#000B44"/>
<path d="M55.53 76.8401H69.6V44.6201H55.53V76.8401ZM58.53 47.6501H66.53V73.8101H58.53V47.6501Z" fill="#000B44"/>
<path d="M12.55 7.04004H7.02002V10.07H12.55V7.04004Z" fill="#000B44"/>
<path d="M29.08 8.56004V7.04004H16.01V8.56004V10.08H29.08V8.56004Z" fill="#000B44"/>
<path d="M70.25 26.3501H20.17V29.3801H70.25V26.3501Z" fill="#000B44"/>
<path d="M53.33 38.9802V37.4702H20.17V40.5002H53.33V38.9802Z" fill="#000B44"/>
</svg>
