<svg width="98" height="98" viewBox="0 0 98 98" fill="none" xmlns="http://www.w3.org/2000/svg">
<path d="M38.0625 64.625H59.9375C61.1803 64.6236 62.3718 64.1293 63.2506 63.2506C64.1293 62.3718 64.6236 61.1803 64.625 59.9375V56.8125C64.6214 55.6555 64.1867 54.5413 63.4058 53.6875C64.1867 52.8337 64.6214 51.7195 64.625 50.5625V47.4375C64.6214 46.2805 64.1867 45.1663 63.4058 44.3125C64.1867 43.4587 64.6214 42.3445 64.625 41.1875V38.0625C64.6236 36.8197 64.1293 35.6282 63.2506 34.7494C62.3718 33.8707 61.1803 33.3764 59.9375 33.375H38.0625C36.8197 33.3764 35.6282 33.8707 34.7494 34.7494C33.8707 35.6282 33.3764 36.8197 33.375 38.0625V41.1875C33.3786 42.3445 33.8133 43.4587 34.5942 44.3125C33.8133 45.1663 33.3786 46.2805 33.375 47.4375V50.5625C33.3786 51.7195 33.8133 52.8337 34.5942 53.6875C33.8133 54.5413 33.3786 55.6555 33.375 56.8125V59.9375C33.3764 61.1803 33.8707 62.3718 34.7494 63.2506C35.6282 64.1293 36.8197 64.6236 38.0625 64.625ZM36.5 38.0625C36.5003 37.6482 36.665 37.2509 36.958 36.958C37.2509 36.665 37.6482 36.5003 38.0625 36.5H59.9375C60.3518 36.5003 60.7491 36.665 61.042 36.958C61.335 37.2509 61.4997 37.6482 61.5 38.0625V41.1875C61.4997 41.6018 61.335 41.9991 61.042 42.292C60.7491 42.585 60.3518 42.7497 59.9375 42.75H38.0625C37.6482 42.7497 37.2509 42.585 36.958 42.292C36.665 41.9991 36.5003 41.6018 36.5 41.1875V38.0625ZM36.5 47.4375C36.5003 47.0232 36.665 46.6259 36.958 46.333C37.2509 46.04 37.6482 45.8753 38.0625 45.875H59.9375C60.3518 45.8753 60.7491 46.04 61.042 46.333C61.335 46.6259 61.4997 47.0232 61.5 47.4375V50.5625C61.4997 50.9768 61.335 51.3741 61.042 51.667C60.7491 51.96 60.3518 52.1247 59.9375 52.125H38.0625C37.6482 52.1247 37.2509 51.96 36.958 51.667C36.665 51.3741 36.5003 50.9768 36.5 50.5625V47.4375ZM36.5 56.8125C36.5003 56.3982 36.665 56.0009 36.958 55.708C37.2509 55.415 37.6482 55.2503 38.0625 55.25H59.9375C60.3518 55.2503 60.7491 55.415 61.042 55.708C61.335 56.0009 61.4997 56.3982 61.5 56.8125V59.9375C61.4997 60.3518 61.335 60.7491 61.042 61.042C60.7491 61.335 60.3518 61.4997 59.9375 61.5H38.0625C37.6482 61.4997 37.2509 61.335 36.958 61.042C36.665 60.7491 36.5003 60.3518 36.5 59.9375V56.8125Z" fill="white"/>
<path d="M41.1875 38.0625H38.0625V41.1875H41.1875V38.0625Z" fill="white"/>
<path d="M59.9375 38.0625H47.4375V41.1875H59.9375V38.0625Z" fill="white"/>
<path d="M41.1875 47.4375H38.0625V50.5625H41.1875V47.4375Z" fill="white"/>
<path d="M59.9375 47.4375H47.4375V50.5625H59.9375V47.4375Z" fill="white"/>
<path d="M41.1875 56.8125H38.0625V59.9375H41.1875V56.8125Z" fill="white"/>
<path d="M59.9375 56.8125H47.4375V59.9375H59.9375V56.8125Z" fill="white"/>
<path d="M49 0.5625C39.42 0.5625 30.0551 3.40331 22.0896 8.72569C14.1241 14.0481 7.91573 21.613 4.24961 30.4638C0.583487 39.3146 -0.375737 49.0537 1.49323 58.4497C3.36221 67.8456 7.97543 76.4764 14.7495 83.2505C21.5236 90.0246 30.1544 94.6378 39.5503 96.5068C48.9463 98.3758 58.6855 97.4165 67.5363 93.7504C76.387 90.0843 83.952 83.8759 89.2743 75.9104C94.5967 67.9449 97.4375 58.58 97.4375 49C97.4232 36.158 92.3153 23.8461 83.2346 14.7654C74.154 5.6847 61.842 0.576863 49 0.5625ZM3.68752 49C3.7027 37.6535 7.96923 26.7245 15.6456 18.3688C23.3219 10.0131 33.8507 4.83734 45.1553 3.86231L50.2467 11.5L44.8191 19.6421C37.7486 20.6522 31.2787 24.1757 26.5944 29.5674C21.91 34.959 19.3249 41.8577 19.3125 49C19.3125 49.0719 19.3228 49.141 19.3233 49.2127L12.3667 44.575C12.1103 44.4034 11.8086 44.3118 11.5 44.3118C11.1914 44.3118 10.8898 44.4034 10.6333 44.575L3.69269 49.2021C3.69238 49.1344 3.68752 49.0678 3.68752 49ZM49 22.4375C54.2536 22.4375 59.3892 23.9954 63.7574 26.9141C68.1255 29.8328 71.5301 33.9813 73.5406 38.835C75.551 43.6886 76.0771 49.0295 75.0521 54.1821C74.0272 59.3347 71.4974 64.0677 67.7826 67.7825C64.0677 71.4974 59.3347 74.0272 54.1821 75.0521C49.0295 76.077 43.6887 75.551 38.835 73.5405C33.9813 71.5301 29.8328 68.1255 26.9141 63.7573C23.9954 59.3892 22.4375 54.2536 22.4375 49C22.4454 41.9576 25.2464 35.2059 30.2262 30.2262C35.2059 25.2464 41.9576 22.4454 49 22.4375ZM49 94.3125C37.6535 94.2973 26.7246 90.0308 18.3689 82.3545C10.0132 74.6781 4.83736 64.1493 3.86233 52.8447L11.5 47.7534L19.6421 53.1809C20.6522 60.2514 24.1758 66.7213 29.5674 71.4057C34.959 76.09 41.8577 78.6751 49 78.6875C49.0719 78.6875 49.1411 78.6772 49.2127 78.6767L44.575 85.6333C44.4041 85.89 44.313 86.1916 44.313 86.5C44.313 86.8084 44.4041 87.11 44.575 87.3667L49.2021 94.3073C49.1344 94.3076 49.0678 94.3125 49 94.3125ZM94.3125 49C94.2973 60.3465 90.0308 71.2755 82.3545 79.6312C74.6781 87.9869 64.1493 93.1627 52.8448 94.1377L47.7534 86.5L53.1809 78.3579C60.2514 77.3478 66.7214 73.8243 71.4057 68.4326C76.09 63.041 78.6751 56.1423 78.6875 49C78.6875 48.9281 78.6772 48.859 78.6767 48.7873L85.6333 53.425C85.89 53.5961 86.1915 53.6875 86.5 53.6875C86.8085 53.6875 87.1101 53.5961 87.3667 53.425L94.3074 48.7979C94.3077 48.8656 94.3125 48.9322 94.3125 49ZM86.5 50.2466L78.3579 44.8191C77.3478 37.7486 73.8243 31.2787 68.4327 26.5943C63.0411 21.91 56.1423 19.3249 49 19.3125C48.9281 19.3125 48.859 19.3228 48.7873 19.3233L53.425 12.3667C53.5959 12.11 53.6871 11.8084 53.6871 11.5C53.6871 11.1916 53.5959 10.89 53.425 10.6333L48.7979 3.69267C48.8656 3.69236 48.9322 3.6875 49 3.6875C60.3465 3.70268 71.2755 7.96921 79.6312 15.6455C87.9869 23.3219 93.1627 33.8507 94.1377 45.1553L86.5 50.2466Z" fill="white"/>
</svg>
