<svg width="32" height="40" viewBox="0 0 32 40" fill="none" xmlns="http://www.w3.org/2000/svg">
<g clip-path="url(#clip0_117_446)">
<path d="M16 28H4V4H18.52L22 8.351V14C22 14.552 22.448 15 23 15C23.552 15 24 14.552 24 14V8C24 7.773 23.923 7.553 23.781 7.375L19.781 2.375C19.591 2.138 19.304 2 19 2H3C2.448 2 2 2.448 2 3V29C2 29.552 2.448 30 3 30H16C16.552 30 17 29.552 17 29C17 28.448 16.552 28 16 28Z" fill="black"/>
<path d="M13 5C10.794 5 9 6.794 9 9V10.523L7.628 11.072C7.249 11.224 7 11.591 7 12C7 15.423 8.451 18.46 11.195 20.783L12.354 21.763C12.541 21.921 12.77 22 13 22C13.23 22 13.459 21.921 13.646 21.763L14.805 20.783C17.549 18.46 19 15.423 19 12C19 11.591 18.751 11.224 18.372 11.071L17 10.523V9C17 6.794 15.206 5 13 5ZM11 9C11 7.897 11.897 7 13 7C14.103 7 15 7.897 15 9V9.723L13.372 9.072C13.133 8.977 12.868 8.977 12.629 9.072L11 9.723V9ZM13.513 19.256L13 19.69L12.487 19.256C10.387 17.48 9.199 15.213 9.023 12.668L13 11.077L16.977 12.668C16.801 15.213 15.612 17.48 13.513 19.256Z" fill="#000B44"/>
<path d="M12 14V15C12 15.552 12.448 16 13 16C13.552 16 14 15.552 14 15V14C14 13.448 13.552 13 13 13C12.448 13 12 13.448 12 14Z" fill="#000B44"/>
<path d="M30 19C30 18.448 29.552 18 29 18H27C26.448 18 26 18.448 26 19V21C26 21.552 26.448 22 27 22C27.329 22 27.607 21.83 27.789 21.585C27.924 22.042 28 22.518 28 23C28 25.757 25.757 28 23 28C20.243 28 18 25.757 18 23C18 20.243 20.243 18 23 18C23.552 18 24 17.552 24 17C24 16.448 23.552 16 23 16C19.14 16 16 19.14 16 23C16 26.86 19.14 30 23 30C26.86 30 30 26.86 30 23C30 21.936 29.744 20.893 29.282 19.943C29.694 19.819 30 19.452 30 19Z" fill="black"/>
<path d="M23 19C22.448 19 22 19.448 22 20V22.382L20.553 23.106C20.059 23.353 19.859 23.954 20.106 24.448C20.281 24.798 20.634 25 21.001 25C21.151 25 21.304 24.966 21.447 24.895L23.447 23.895C23.786 23.725 24 23.379 24 23V20C24 19.448 23.552 19 23 19Z" fill="black"/>
</g>
<defs>
<clipPath id="clip0_117_446">
<rect width="32" height="40" fill="white"/>
</clipPath>
</defs>
</svg>
