<svg width="90" height="90" viewBox="0 0 90 90" fill="none" xmlns="http://www.w3.org/2000/svg">
<path fill-rule="evenodd" clip-rule="evenodd" d="M20.262 30.269V21.269C20.262 21.0038 20.3674 20.7494 20.5549 20.5619C20.7424 20.3743 20.9968 20.269 21.262 20.269H30.262V8.94899C30.2609 8.75114 30.3156 8.55699 30.42 8.38891C30.5244 8.22083 30.6742 8.08567 30.852 7.99899L37.622 4.08899H37.682L44.502 0.13899C44.6638 0.0478706 44.8463 0 45.032 0C45.2177 0 45.4002 0.0478706 45.562 0.13899L52.392 4.07899L59.222 8.02899C59.382 8.12134 59.515 8.2539 59.608 8.41352C59.701 8.57314 59.7506 8.75428 59.752 8.93899V20.259H68.752C69.0172 20.259 69.2716 20.3643 69.4591 20.5519C69.6467 20.7394 69.752 20.9938 69.752 21.259V30.259H81.052C81.2582 30.2481 81.4631 30.2983 81.641 30.4032C81.8189 30.5081 81.9618 30.6632 82.052 30.849L85.962 37.619V37.679L89.862 44.499C89.9531 44.6608 90.001 44.8433 90.001 45.029C90.001 45.2147 89.9531 45.3972 89.862 45.559L85.922 52.389L81.922 59.219C81.8297 59.379 81.6971 59.512 81.5375 59.605C81.3779 59.698 81.1967 59.7476 81.012 59.749H69.742V68.749C69.742 69.0142 69.6367 69.2686 69.4491 69.4561C69.2616 69.6436 69.0072 69.749 68.742 69.749H59.742V81.049C59.7529 81.2552 59.7028 81.4601 59.5978 81.638C59.4929 81.8158 59.3378 81.9588 59.152 82.049L52.382 85.959H52.322L45.502 89.859C45.3402 89.9501 45.1577 89.998 44.972 89.998C44.7863 89.998 44.6038 89.9501 44.442 89.859L37.612 85.919L30.782 81.919C30.622 81.8266 30.489 81.6941 30.396 81.5345C30.303 81.3749 30.2534 81.1937 30.252 81.009V69.739H21.252C20.9868 69.739 20.7324 69.6336 20.5449 69.4461C20.3574 69.2586 20.252 69.0042 20.252 68.739V59.739H8.95201C8.75416 59.7401 8.56001 59.6854 8.39193 59.581C8.22385 59.4766 8.08869 59.3268 8.00201 59.149L4.09201 52.369V52.309L0.142013 45.499C0.0489786 45.3378 0 45.1551 0 44.969C0 44.7829 0.0489786 44.6001 0.142013 44.439L4.08201 37.609L8.03201 30.779C8.12437 30.619 8.25692 30.486 8.41654 30.393C8.57616 30.3 8.7573 30.2504 8.94201 30.249H20.262V30.269ZM8.95201 56.569L15.632 44.999L8.95201 33.419L5.95201 38.689L2.27201 44.999L5.88201 51.259V51.309L8.88201 56.569H8.95201ZM10.772 32.379L17.502 43.949H30.822L27.822 38.739V38.689L24.182 32.379H10.772ZM17.502 46.049L10.782 57.619H24.142L27.782 51.309L30.782 46.049H17.502ZM22.412 59.729V67.639H30.322V65.259C30.3111 65.0528 30.3613 64.8479 30.4662 64.67C30.5712 64.4922 30.7262 64.3492 30.912 64.259L37.682 60.349H37.742L44.502 56.499C44.654 56.4112 44.8265 56.365 45.002 56.365C45.1776 56.365 45.35 56.4112 45.502 56.499L52.332 60.439L59.172 64.379C59.3309 64.4742 59.4624 64.6091 59.5535 64.7703C59.6447 64.9316 59.6924 65.1138 59.692 65.299V67.679H67.602V59.729H65.262C65.0558 59.7399 64.8509 59.6897 64.673 59.5848C64.4952 59.4798 64.3522 59.3248 64.262 59.139L60.402 52.369C60.402 52.369 60.402 52.369 60.402 52.309L56.502 45.499C56.4142 45.347 56.368 45.1745 56.368 44.999C56.368 44.8235 56.4142 44.651 56.502 44.499L60.442 37.669L64.382 30.839C64.4752 30.6776 64.6093 30.5435 64.7709 30.4505C64.9324 30.3574 65.1156 30.3086 65.302 30.309H67.682V22.359H59.732V24.739C59.7429 24.9452 59.6928 25.1501 59.5878 25.328C59.4829 25.5058 59.3278 25.6488 59.142 25.739L52.372 29.599H52.312L45.502 33.549C45.3456 33.6293 45.1709 33.6669 44.9953 33.6582C44.8197 33.6494 44.6496 33.5945 44.502 33.499L37.632 29.599L30.802 25.659C30.6406 25.5658 30.5066 25.4317 30.4135 25.2701C30.3205 25.1086 30.2717 24.9254 30.272 24.739V22.359H22.362V30.269H24.742C24.9482 30.2581 25.1531 30.3082 25.331 30.4132C25.5089 30.5181 25.6518 30.6732 25.742 30.859L29.652 37.629V37.689L33.552 44.499C33.6323 44.6554 33.67 44.8301 33.6612 45.0057C33.6524 45.1813 33.5975 45.3514 33.502 45.499L29.602 52.369L25.662 59.199C25.5688 59.3604 25.4347 59.4944 25.2732 59.5875C25.1116 59.6805 24.9284 59.7293 24.742 59.729H22.362H22.412ZM56.572 81.049L45.002 74.369L33.422 81.049L38.692 84.049L45.002 87.689L51.262 84.079H51.312L56.572 81.079V81.049ZM32.382 79.229L43.952 72.549V59.179L38.742 62.179H38.692L32.382 65.819V79.229ZM46.052 72.549L57.622 79.219V65.859L51.312 62.219L46.052 59.219V72.549ZM81.052 33.429L74.372 44.999L81.052 56.579L84.052 51.309L87.692 44.999L84.082 38.739V38.689L81.082 33.429H81.052ZM79.232 57.619L72.552 46.049H59.182L62.182 51.259V51.309L65.822 57.619H79.232ZM72.552 43.949L79.222 32.379H65.862L62.222 38.689L59.222 43.949H72.552ZM33.432 8.94899L45.002 15.629L56.582 8.94899L51.312 5.94899L45.002 2.26899L38.742 5.87899H38.692L33.432 8.87899V8.94899ZM57.622 10.769L46.052 17.499V30.819L51.262 27.819H51.312L57.622 24.179V10.769ZM43.952 17.499L32.382 10.779V24.139L38.692 27.779L43.952 30.779V17.499Z" fill="white"/>
</svg>
