<svg width="94" height="92" viewBox="0 0 94 92" fill="none" xmlns="http://www.w3.org/2000/svg">
<path d="M21.902 58.4452C15.2575 58.4452 9.85499 63.8514 9.85499 70.4922C9.85499 77.1367 15.2612 82.5392 21.902 82.5392C28.5465 82.5392 33.949 77.133 33.949 70.4922C33.949 63.8516 28.5428 58.4452 21.902 58.4452ZM21.902 80.0042C16.6598 80.0042 12.3903 75.7386 12.3903 70.4925C12.3903 65.2503 16.6559 60.9808 21.902 60.9808C27.1442 60.9808 31.4137 65.2464 31.4137 70.4925C31.4137 75.7386 27.1442 80.0042 21.902 80.0042ZM27.1364 66.6022C27.6403 67.0905 27.652 67.8952 27.1637 68.3952L21.3707 74.36C21.1207 74.6178 20.7926 74.7428 20.4606 74.7428C20.1442 74.7428 19.8278 74.6257 19.5817 74.3874L16.6755 71.5944C16.1715 71.11 16.1559 70.3053 16.6403 69.8014C17.1247 69.2975 17.9294 69.2818 18.4333 69.7662L20.4294 71.6842L25.3474 66.6256C25.8318 66.1256 26.6325 66.114 27.1364 66.6022ZM90.1594 22.6922C91.7961 22.6922 93.1282 21.3602 93.1282 19.7234V3.44243C93.1282 1.80573 91.7962 0.473633 90.1594 0.473633H26.5544C24.9177 0.473633 23.5856 1.80563 23.5856 3.44243V19.7194C23.5856 21.3561 24.9176 22.6882 26.5544 22.6882H31.5935V27.5437H26.5544C24.9177 27.5437 23.5856 28.8757 23.5856 30.5125V46.7895C23.5856 48.4262 24.9176 49.7583 26.5544 49.7583H31.5935V53.8442C31.5779 53.856 31.5583 53.8677 31.5427 53.8794L30.2536 54.8911C29.2263 54.3403 28.1481 53.895 27.0309 53.5552L26.8317 51.9302C26.6598 50.524 25.4606 49.4614 24.0426 49.4614H19.7614C18.3434 49.4614 17.1442 50.5239 16.9723 51.9302L16.7731 53.5552C15.6559 53.8911 14.5778 54.3404 13.5504 54.8911L12.2613 53.8794C11.1441 53.0044 9.54647 53.102 8.54247 54.1059L5.51517 57.1332C4.51127 58.1371 4.41747 59.7348 5.28861 60.852L6.30031 62.1411C5.74953 63.1684 5.30422 64.2466 4.96441 65.3638L3.33941 65.5631C1.93321 65.7349 0.870605 66.9342 0.870605 68.3522V72.6334C0.870605 74.0514 1.93311 75.2506 3.33941 75.4225L4.96441 75.6217C5.30035 76.7389 5.74957 77.817 6.30031 78.8444L5.28861 80.1335C4.41361 81.2507 4.51127 82.8483 5.51517 83.8523L8.54247 86.8796C9.54637 87.8835 11.1441 87.9812 12.2613 87.1062L13.5504 86.0945C14.5777 86.6452 15.6559 87.0905 16.7731 87.4303L16.9723 89.0553C17.1442 90.4615 18.3434 91.5242 19.7614 91.5242H24.0426C25.4606 91.5242 26.6598 90.4616 26.8317 89.0553L27.0309 87.4303C28.1481 87.0944 29.2262 86.6452 30.2536 86.0945L31.5427 87.1062C32.6599 87.9812 34.2575 87.8835 35.2615 86.8796L38.2888 83.8523C39.2927 82.8484 39.3904 81.2507 38.5154 80.1335L37.5037 78.8444C37.8513 78.1921 38.156 77.5202 38.4177 76.8327H90.1597C91.7964 76.8327 93.1285 75.5007 93.1285 73.8639L93.1324 57.5869C93.1324 55.9502 91.8004 54.6181 90.1636 54.6181H85.1245V49.7626H90.1636C91.8003 49.7626 93.1324 48.4306 93.1324 46.7938V30.5168C93.1324 28.8801 91.8004 27.548 90.1636 27.548H85.1245V22.6925L90.1594 22.6922ZM26.1204 19.7195V3.44253C26.1204 3.20815 26.3196 3.01284 26.5501 3.01284H90.1551C90.3895 3.01284 90.5848 3.21206 90.5848 3.44253V19.7195C90.5848 19.9539 90.3855 20.1492 90.1551 20.1492L26.5531 20.1531C26.3187 20.1531 26.1204 19.9539 26.1204 19.7195ZM36.6084 74.1605C36.2451 75.6214 35.667 77.0121 34.8936 78.305C34.6241 78.7543 34.6553 79.3284 34.9795 79.7425L36.5147 81.7034C36.6007 81.8128 36.5928 81.9612 36.4952 82.0628L33.4679 85.0901C33.3663 85.1917 33.2218 85.1995 33.1085 85.1096L31.1476 83.5744C30.7336 83.2502 30.1632 83.2151 29.7101 83.4885C28.421 84.2659 27.0265 84.844 25.5656 85.2033C25.0539 85.3283 24.675 85.758 24.6125 86.2814L24.3117 88.7502C24.2961 88.8908 24.1828 88.9885 24.0422 88.9885H19.761C19.6204 88.9885 19.5071 88.8908 19.4915 88.7502L19.1907 86.2814C19.1282 85.758 18.7493 85.3322 18.2376 85.2033C16.7767 84.84 15.386 84.2619 14.0931 83.4885C13.8899 83.3674 13.6634 83.3088 13.4407 83.3088C13.1634 83.3088 12.886 83.3987 12.6595 83.5783L10.6986 85.1135C10.5892 85.1995 10.4408 85.1917 10.3392 85.094L7.31188 82.0667C7.21032 81.9652 7.2025 81.8206 7.29235 81.7073L8.82755 79.7464C9.15177 79.3324 9.18693 78.762 8.91349 78.3089C8.13615 77.0198 7.55799 75.6253 7.19869 74.1644C7.07369 73.6527 6.644 73.2738 6.12059 73.2113L3.65179 72.9105C3.50726 72.8871 3.4057 72.7777 3.4057 72.6371V68.3559C3.4057 68.2153 3.50336 68.102 3.64398 68.0864L6.11278 67.7856C6.63622 67.7231 7.062 67.3442 7.19088 66.8325C7.55416 65.3716 8.13229 63.9809 8.90568 62.688C9.17521 62.2387 9.14396 61.6646 8.81974 61.2505L7.28454 59.2896C7.19861 59.1802 7.20642 59.0318 7.30407 58.9302L10.3314 55.9029C10.4329 55.8013 10.5775 55.7935 10.6908 55.8834L12.6517 57.4186C13.0657 57.7428 13.636 57.7779 14.0892 57.5045C15.3783 56.7272 16.7728 56.149 18.2337 55.7897C18.7454 55.6647 19.1243 55.235 19.1868 54.7116L19.4876 52.2428C19.5032 52.1022 19.6165 52.0045 19.7571 52.0045H24.0383C24.1789 52.0045 24.2922 52.1022 24.3078 52.2428L24.6086 54.7116C24.6711 55.235 25.05 55.6608 25.5617 55.7897C27.0226 56.153 28.4133 56.7311 29.7062 57.5045C30.1554 57.774 30.7296 57.7428 31.1437 57.4186L33.1007 55.8874H33.4327C33.4406 55.8952 33.4523 55.8991 33.4601 55.9069L36.4874 58.9342C36.5889 59.0358 36.5968 59.1803 36.5069 59.2936L34.9717 61.2545C34.6475 61.6685 34.6123 62.2389 34.8858 62.692C35.6631 63.9811 36.2413 65.3756 36.6006 66.8365C36.7256 67.3482 37.1553 67.7271 37.6787 67.7896L40.1475 68.0904C40.2881 68.106 40.3858 68.2193 40.3858 68.3599V72.6411C40.3858 72.7817 40.2881 72.895 40.1475 72.9106L37.6787 73.2114C37.1631 73.27 36.7334 73.6488 36.6084 74.1605ZM90.5924 57.5865V73.8635C90.5924 74.0979 90.3932 74.2932 90.1627 74.2932H42.3897C42.7334 73.8245 42.9327 73.2502 42.9327 72.637V69.6487C43.1084 69.43 43.2139 69.1565 43.2139 68.8518V62.5979C43.2139 61.8987 42.6436 61.3284 41.9444 61.3284C41.2452 61.3284 40.6749 61.8988 40.6749 62.5979V65.6057C40.6046 65.5901 40.5343 65.5784 40.464 65.5706L38.8351 65.3675C38.4991 64.2503 38.0499 63.1722 37.4992 62.1448L38.5109 60.8557C39.382 59.7463 39.2882 58.1565 38.2999 57.1565H90.1589C90.3933 57.1526 90.5924 57.3522 90.5924 57.5865ZM82.5807 54.6177H35.7647L35.2569 54.1099C34.9327 53.7857 34.542 53.5552 34.128 53.4224V49.7583L82.581 49.7622L82.5807 54.6177ZM90.5924 30.5157V46.7927C90.5924 47.0271 90.3932 47.2224 90.1627 47.2224H26.5537C26.3193 47.2224 26.124 47.0232 26.124 46.7927L26.1201 30.5157C26.1201 30.2814 26.3193 30.086 26.5498 30.086H90.1548C90.3931 30.0821 90.5924 30.2814 90.5924 30.5157ZM82.5807 27.543H34.1277V22.6875L82.5807 22.6914V27.543ZM34.9597 8.45703V14.7109C34.9597 15.4102 34.3894 15.9804 33.6902 15.9804C32.991 15.9804 32.4207 15.4101 32.4207 14.7109V8.45703C32.4207 7.75781 32.991 7.18753 33.6902 7.18753C34.3894 7.18753 34.9597 7.75394 34.9597 8.45703ZM43.2136 8.45703V14.7109C43.2136 15.4102 42.6433 15.9804 41.9441 15.9804C41.2449 15.9804 40.6746 15.4101 40.6746 14.7109V8.45703C40.6746 7.75781 41.2449 7.18753 41.9441 7.18753C42.6433 7.18753 43.2136 7.75394 43.2136 8.45703ZM51.4675 8.45703V14.7109C51.4675 15.4102 50.8972 15.9804 50.198 15.9804C49.4988 15.9804 48.9285 15.4101 48.9285 14.7109V8.45703C48.9285 7.75781 49.4988 7.18753 50.198 7.18753C50.8972 7.18753 51.4675 7.75394 51.4675 8.45703ZM84.1945 7.73437H57.8625C56.8976 7.73437 56.1125 8.51953 56.1125 9.48437V13.6797C56.1125 14.6445 56.8976 15.4297 57.8625 15.4297H84.1945C85.1593 15.4297 85.9445 14.6445 85.9445 13.6797V9.48437C85.9484 8.51953 85.1632 7.73437 84.1945 7.73437ZM83.4093 12.8946H58.6473V10.2735H83.4093V12.8946ZM32.4213 41.7816V35.5277C32.4213 34.8285 32.9916 34.2582 33.6908 34.2582C34.39 34.2582 34.9603 34.8285 34.9603 35.5277V41.7816C34.9603 42.4808 34.39 43.0511 33.6908 43.0511C32.9877 43.0472 32.4213 42.4808 32.4213 41.7816ZM40.6752 41.7816V35.5277C40.6752 34.8285 41.2455 34.2582 41.9447 34.2582C42.6439 34.2582 43.2142 34.8285 43.2142 35.5277V41.7816C43.2142 42.4808 42.6439 43.0511 41.9447 43.0511C41.2455 43.0472 40.6752 42.4808 40.6752 41.7816ZM48.9291 41.7816V35.5277C48.9291 34.8285 49.4994 34.2582 50.1986 34.2582C50.8978 34.2582 51.4681 34.8285 51.4681 35.5277V41.7816C51.4681 42.4808 50.8978 43.0511 50.1986 43.0511C49.4994 43.0472 48.9291 42.4808 48.9291 41.7816ZM57.8627 42.5003H84.1947C85.1596 42.5003 85.9447 41.7152 85.9447 40.7503V36.555C85.9447 35.5902 85.1596 34.805 84.1947 34.805H57.8627C56.8979 34.805 56.1127 35.5902 56.1127 36.555V40.7503C56.1127 41.7152 56.8979 42.5003 57.8627 42.5003ZM58.6479 37.3441H83.4099V39.9652H58.6479V37.3441ZM48.9291 68.8521V62.5982C48.9291 61.899 49.4994 61.3287 50.1986 61.3287C50.8978 61.3287 51.4681 61.899 51.4681 62.5982V68.8521C51.4681 69.5513 50.8978 70.1216 50.1986 70.1216C49.4994 70.1177 48.9291 69.5513 48.9291 68.8521ZM57.8627 69.5709H84.1947C85.1595 69.5709 85.9447 68.7857 85.9447 67.8209V63.6256C85.9447 62.6607 85.1595 61.8756 84.1947 61.8756H57.8627C56.8978 61.8756 56.1127 62.6607 56.1127 63.6256V67.8209C56.1127 68.7857 56.8978 69.5709 57.8627 69.5709ZM58.6478 64.4147H83.4098V67.0358H58.6478V64.4147Z" fill="#000B44"/>
</svg>
