<svg width="140" height="140" viewBox="0 0 140 140" fill="none" xmlns="http://www.w3.org/2000/svg">
<path fill-rule="evenodd" clip-rule="evenodd" d="M25 25C23.6739 25 22.4021 25.5268 21.4645 26.4645C20.5268 27.4021 20 28.6739 20 30C20 31.3261 20.5268 32.5979 21.4645 33.5355C22.4021 34.4732 23.6739 35 25 35H50C51.3261 35 52.5979 34.4732 53.5355 33.5355C54.4732 32.5979 55 31.3261 55 30C55 28.6739 54.4732 27.4021 53.5355 26.4645C52.5979 25.5268 51.3261 25 50 25H25Z" fill="#000B44"/>
<path fill-rule="evenodd" clip-rule="evenodd" d="M25 5C23.6739 5 22.4021 5.52678 21.4645 6.46446C20.5268 7.40214 20 8.67392 20 10C20 11.3261 20.5268 12.5979 21.4645 13.5355C22.4021 14.4732 23.6739 15 25 15H50C51.3261 15 52.5979 14.4732 53.5355 13.5355C54.4732 12.5979 55 11.3261 55 10C55 8.67392 54.4732 7.40214 53.5355 6.46446C52.5979 5.52678 51.3261 5 50 5H25Z" fill="#000B44"/>
<path fill-rule="evenodd" clip-rule="evenodd" d="M105 0C96.7765 0 90 6.7765 90 15C90 23.2235 96.7765 30 105 30H110V47.9297L92.9297 65H70V60C70 54.5465 65.4535 50 60 50H10C4.54651 50 0 54.5465 0 60V75C0 80.4535 4.54651 85 10 85H30V125C30.0001 126.326 30.527 127.598 31.4646 128.535C32.4023 129.473 33.674 130 35 130H90.8887C92.9712 135.795 98.5294 140 105 140H125C133.223 140 140 133.224 140 125C140 116.776 133.223 110 125 110H120V92.0703L138.535 73.5352C139.472 72.5974 139.999 71.3259 139.999 70C139.999 68.6741 139.472 67.4026 138.535 66.4648L120 47.9297V30H125C133.223 30 140 23.2235 140 15C140 6.7765 133.223 0 125 0H105ZM70 75H92.9297L110 92.0703V110H105C98.5294 110 92.9712 114.205 90.8887 120H40V85H60C65.4535 85 70 80.4535 70 75Z" fill="#000B44"/>
<path fill-rule="evenodd" clip-rule="evenodd" d="M5 5C3.67392 5 2.40214 5.52678 1.46446 6.46446C0.52678 7.40214 0 8.67392 0 10C0 11.3261 0.52678 12.5979 1.46446 13.5355C2.40214 14.4732 3.67392 15 5 15C6.32608 15 7.59786 14.4732 8.53554 13.5355C9.47322 12.5979 10 11.3261 10 10C10 8.67392 9.47322 7.40214 8.53554 6.46446C7.59786 5.52678 6.32608 5 5 5Z" fill="#000B44"/>
<path fill-rule="evenodd" clip-rule="evenodd" d="M5 25C3.67392 25 2.40214 25.5268 1.46446 26.4645C0.52678 27.4021 0 28.6739 0 30C0 31.3261 0.52678 32.5979 1.46446 33.5355C2.40214 34.4732 3.67392 35 5 35C6.32608 35 7.59786 34.4732 8.53554 33.5355C9.47322 32.5979 10 31.3261 10 30C10 28.6739 9.47322 27.4021 8.53554 26.4645C7.59786 25.5268 6.32608 25 5 25Z" fill="#000B44"/>
</svg>
