<svg width="436" height="250" viewBox="0 0 436 250" fill="none" xmlns="http://www.w3.org/2000/svg">
<path d="M163.947 196.636C163.303 196.13 162.68 195.576 162.078 194.975L136.044 168.922C132.319 165.194 127.412 162.505 122.53 162.586C117.854 162.663 113.202 165.352 109.634 168.922L34.1528 244.457C26.3379 252.277 14.1961 251.665 6.15481 243.618C-1.84899 235.609 -2.10544 223.855 5.73042 216.014L109.634 112.036C116.927 104.738 128.751 104.738 136.044 112.036L163.906 139.917C175.216 111.34 203.146 91.1215 235.808 91.1215C258.089 91.1215 278.167 100.53 292.27 115.582L366.703 41.1497L306.029 39.4704C294.843 39.2219 286.561 30.9394 286.312 19.7537C286.188 14.1342 287.886 9.0404 291.419 5.50746C294.985 1.94096 300.55 -0.117238 306.061 0.00516835L413.767 2.39752C419.289 2.52016 423.569 4.3926 427.529 8.35215C431.488 12.3117 433.361 16.5915 433.484 22.1136L435.876 129.82C436.129 141.203 427.51 149.821 416.127 149.569C404.942 149.32 396.659 141.038 396.411 129.853L395.074 69.6639L311.604 153.134C312.575 158.014 313.084 163.06 313.084 168.224C313.084 210.807 278.486 245.327 235.808 245.327C203.186 245.327 175.284 225.158 163.947 196.636ZM235.808 238.318C274.606 238.318 306.059 206.936 306.059 168.224C306.059 129.513 274.606 98.1308 235.808 98.1308C197.009 98.1308 165.557 129.513 165.557 168.224C165.557 206.936 197.009 238.318 235.808 238.318ZM264.861 181.087C264.861 186.245 263.008 190.703 259.303 194.463C255.597 198.222 250.225 200.63 243.188 201.686V206.44C243.188 209.529 240.679 212.033 237.583 212.033C234.487 212.033 231.977 209.529 231.977 206.44V202.059C227.306 201.749 222.885 200.956 218.712 199.682C216.116 198.89 213.797 197.983 211.755 196.962C209.788 195.978 208.945 193.626 209.839 191.621C209.869 191.553 209.898 191.489 209.925 191.428L212.963 184.621C213.68 183.013 215.568 182.29 217.179 183.006C217.251 183.038 217.322 183.073 217.392 183.11C217.554 183.197 217.705 183.276 217.846 183.347C219.911 184.389 222.161 185.282 224.597 186.027C228.459 187.208 232.258 187.798 235.995 187.798C243.095 187.798 246.645 186.027 246.645 182.485C246.645 180.621 245.632 179.238 243.608 178.337C241.584 177.436 238.33 176.489 233.846 175.495C228.926 174.438 224.816 173.304 221.515 172.092C218.214 170.881 215.38 168.939 213.014 166.267C210.647 163.595 209.463 159.991 209.463 155.455C209.463 150.111 211.394 145.528 215.255 141.706C219.117 137.885 224.691 135.539 231.977 134.669V130.008C231.977 126.92 234.487 124.416 237.583 124.416C240.679 124.416 243.188 126.92 243.188 130.008V134.483C246.738 134.793 250.148 135.415 253.417 136.347C255.722 137.004 257.848 137.799 259.797 138.734C259.96 138.812 260.144 138.904 260.35 139.01C261.377 139.538 261.827 140.764 261.384 141.829L257.143 152.024C256.792 152.868 255.822 153.268 254.977 152.918C254.939 152.903 254.903 152.886 254.867 152.868C254.556 152.712 254.291 152.582 254.072 152.478C248.683 149.926 243.436 148.65 238.33 148.65C234.656 148.65 231.977 149.194 230.296 150.282C228.614 151.369 227.774 152.783 227.774 154.523C227.774 156.263 228.77 157.568 230.763 158.438C232.756 159.307 235.964 160.208 240.385 161.14C245.368 162.197 249.494 163.331 252.764 164.543C256.033 165.754 258.867 167.681 261.265 170.322C263.662 172.963 264.861 176.551 264.861 181.087Z" fill="#000B44"/>
</svg>
