<svg width="60" height="46" viewBox="0 0 60 46" fill="none" xmlns="http://www.w3.org/2000/svg">
<path d="M10.1701 41.27V25.69H3.78007C3.16861 25.6866 2.56878 25.5226 2.04066 25.2144C1.51253 24.9062 1.07463 24.4647 0.770826 23.9341C0.467018 23.4034 0.307961 22.8023 0.309583 22.1908C0.311204 21.5793 0.473448 20.979 0.780065 20.45L11.1201 2.50001C11.426 1.96826 11.8668 1.52655 12.3978 1.21941C12.9289 0.912269 13.5316 0.750549 14.1451 0.750549C14.7586 0.750549 15.3612 0.912269 15.8923 1.21941C16.4234 1.52655 16.8641 1.96826 17.1701 2.50001L27.5301 20.44C27.8335 20.9695 27.9932 21.5692 27.9933 22.1795C27.9935 22.7898 27.834 23.3895 27.5308 23.9192C27.2275 24.4488 26.7911 24.89 26.2647 25.1989C25.7383 25.5077 25.1403 25.6736 24.5301 25.68H18.1201V41.18C18.1393 42.2241 17.7494 43.2343 17.0338 43.9948C16.3181 44.7553 15.3334 45.2058 14.2901 45.25C13.7564 45.266 13.225 45.1751 12.7271 44.9825C12.2292 44.7899 11.7749 44.4996 11.3909 44.1287C11.0069 43.7578 10.7011 43.3138 10.4914 42.8228C10.2818 42.3318 10.1725 41.8039 10.1701 41.27Z" fill="white"/>
<path d="M49.8301 4.73001V20.31H56.2201C56.8316 20.3134 57.4314 20.4774 57.9595 20.7856C58.4876 21.0938 58.9255 21.5353 59.2293 22.0659C59.5332 22.5966 59.6922 23.1977 59.6906 23.8092C59.689 24.4207 59.5267 25.021 59.2201 25.55L48.8801 43.5C48.5741 44.0318 48.1334 44.4735 47.6023 44.7806C47.0713 45.0878 46.4686 45.2495 45.8551 45.2495C45.2416 45.2495 44.639 45.0878 44.1079 44.7806C43.5768 44.4735 43.1361 44.0318 42.8301 43.5L32.4701 25.56C32.1667 25.0305 32.007 24.4308 32.0068 23.8205C32.0067 23.2102 32.1662 22.6105 32.4694 22.0808C32.7726 21.5512 33.2091 21.11 33.7355 20.8012C34.2618 20.4923 34.8598 20.3264 35.4701 20.32H41.8601V4.82001C41.8409 3.77591 42.2308 2.76569 42.9464 2.00519C43.6621 1.24469 44.6468 0.794216 45.6901 0.750011C46.2254 0.73126 46.759 0.820198 47.2592 1.01155C47.7595 1.2029 48.2162 1.49277 48.6023 1.86396C48.9884 2.23515 49.296 2.6801 49.507 3.17243C49.7179 3.66475 49.8278 4.19442 49.8301 4.73001Z" fill="white"/>
</svg>
