<svg width="127" height="128" viewBox="0 0 127 128" fill="none" xmlns="http://www.w3.org/2000/svg">
<path d="M7.91016 71.7188H0V79.6875H7.91016V71.7188Z" fill="white"/>
<path d="M118.652 63.75H126.562C126.562 46.8424 119.895 30.6274 108.028 18.6719C96.1603 6.7165 80.0645 0 63.2812 0C46.498 0 30.4022 6.7165 18.5346 18.6719C6.66711 30.6274 0 46.8424 0 63.75H7.91016C7.89321 53.3145 10.7872 43.0841 16.2621 34.2252C21.737 25.3664 29.5726 18.2354 38.8756 13.6455C48.1786 9.05545 58.5746 7.19108 68.8784 8.26487C79.1822 9.33866 88.9792 13.3074 97.1525 19.7187L43.6324 91.1984C41.5765 93.9464 40.1692 97.1302 39.5172 100.508C38.8652 103.886 38.9858 107.369 39.8697 110.693C40.7536 114.017 42.3776 117.094 44.6184 119.691C46.8593 122.288 49.658 124.337 52.8022 125.682C55.9464 127.026 59.3534 127.632 62.7645 127.452C66.1757 127.272 69.5012 126.311 72.4888 124.643C75.4764 122.975 78.0474 120.643 80.0066 117.824C81.9659 115.005 83.2619 111.774 83.7962 108.375L97.6034 20.0613C104.16 25.2685 109.46 31.9048 113.106 39.4716C116.752 47.0384 118.648 55.339 118.652 63.75ZM75.977 107.124C75.6325 109.327 74.794 111.423 73.5251 113.251C72.2562 115.079 70.5904 116.592 68.6542 117.675C66.718 118.757 64.5624 119.381 62.3511 119.498C60.1398 119.616 57.9311 119.224 55.8926 118.353C53.8542 117.481 52.0397 116.153 50.587 114.47C49.1344 112.786 48.0817 110.791 47.5091 108.636C46.9365 106.481 46.8589 104.223 47.2823 102.033C47.7057 99.8439 48.619 97.7803 49.9526 95.9995L85.054 49.1154L75.977 107.124Z" fill="white"/>
<path d="M78.006 31.1061L81.2887 23.8505C74.6615 20.8149 67.3841 19.5032 60.1232 20.0356C52.8623 20.5679 45.8502 22.9273 39.7291 26.8977C33.608 30.868 28.5739 36.3222 25.0877 42.7607C21.6016 49.1992 19.7751 56.416 19.7754 63.75H27.6855C27.696 54.2428 31.4496 45.1279 38.1229 38.4053C44.7961 31.6826 53.8439 27.9012 63.2812 27.8907C68.3623 27.8793 73.3856 28.9762 78.006 31.1061Z" fill="white"/>
<path d="M67.2363 99.6094H59.3262V107.578H67.2363V99.6094Z" fill="white"/>
<path d="M106.787 71.7188H98.877V79.6875H106.787V71.7188Z" fill="white"/>
<path d="M126.562 71.7188H118.652V79.6875H126.562V71.7188Z" fill="white"/>
<path d="M27.6855 71.7188H19.7754V79.6875H27.6855V71.7188Z" fill="white"/>
</svg>
