<svg width="162" height="162" viewBox="0 0 162 162" fill="none" xmlns="http://www.w3.org/2000/svg">
<path d="M138.149 23.5349C122.388 7.84495 103.321 0 80.9472 0C58.5733 0 39.4358 7.84495 23.5349 23.5349C7.84495 39.4358 0 58.5733 0 80.9472C0 103.392 7.84495 122.459 23.5349 138.149C39.4358 154.05 58.5733 162 80.9472 162C103.321 162 122.388 154.05 138.149 138.149C154.05 122.459 162 103.392 162 80.9472C162 58.5733 154.05 39.4358 138.149 23.5349ZM74.9316 26.1733H86.9629V38.9433C96.1094 39.6469 102.688 42.7427 106.698 48.2306L100.05 59.8397C91.0437 52.241 82.6358 50.271 74.8261 53.9296C68.6345 57.8697 67.8254 62.6541 72.3987 68.2827C73.5244 69.6195 75.987 71.2378 79.7863 73.1375L89.4958 76.5147C95.8984 78.7661 101.105 82.3192 105.115 87.174C109.196 92.0287 109.759 99.17 106.804 108.598C103.638 116.408 97.2352 121.403 87.5961 123.584L87.4905 136.143H75.0371L74.9316 123.69C69.8658 122.916 65.2222 121.403 61.0007 119.152C56.7088 116.9 53.7537 114.262 52.1355 111.236L60.3674 100.999C67.9661 106.698 74.4743 109.618 79.8919 109.759C88.0534 109.829 92.4508 107.015 93.084 101.316C93.5765 96.4612 90.0938 92.6267 82.6358 89.8124C72.2932 85.7316 65.8906 82.7062 63.428 80.7362C56.0404 75.0371 52.9446 67.4033 54.1407 57.8345C55.8997 48.1954 62.83 41.8632 74.9316 38.8378V26.1733Z" fill="white"/>
</svg>
