<svg width="162" height="162" viewBox="0 0 162 162" fill="none" xmlns="http://www.w3.org/2000/svg">
<path fill-rule="evenodd" clip-rule="evenodd" d="M22.1822 134.204C19.1384 135.739 15.3784 134.716 13.5879 131.817L0.875353 111.013C-0.915142 108.114 0.159155 104.533 3.02395 102.827L11.7974 97.7116C14.6622 96.0063 17.1689 91.9137 17.1689 88.6737V73.3263C17.1689 70.0863 14.8412 65.9937 11.7974 64.2884L3.02395 59.1726C0.159155 57.4674 -0.915142 53.7158 0.875353 50.9874L13.5879 30.0126C15.3784 27.1137 19.1384 26.0905 22.1822 27.6253L31.3138 32.2295C34.3576 33.7642 39.1919 33.7642 42.0567 32.0589L56.0226 24.3853C59.0664 22.68 61.3941 18.7579 61.5731 15.5179L61.7522 5.96842C61.7522 2.72842 64.617 0 68.198 0H93.4439C96.8459 0 99.7107 2.72842 99.8897 5.96842L100.248 15.6884C100.248 18.9284 102.755 22.8505 105.798 24.5558L119.764 32.2295C122.808 33.9347 127.642 33.9347 130.507 32.4L139.639 27.7958C142.683 26.2611 146.443 27.2842 148.233 30.1832L160.946 51.1579C162.736 54.0568 161.662 57.6379 158.797 59.3432L150.024 64.4589C147.159 66.1642 144.652 70.2568 144.831 73.4968V88.8442C144.831 92.0842 147.159 96.1768 150.203 97.8821L158.976 102.998C161.841 104.703 162.915 108.455 161.125 111.183L148.412 132.158C146.622 135.057 142.862 136.08 139.818 134.545L130.865 129.941C127.821 128.406 122.987 128.406 120.122 130.112L106.156 137.785C103.113 139.491 100.785 143.413 100.606 146.653L100.069 156.032C99.8897 159.272 97.204 162 93.623 162H68.377C64.9751 162 62.1103 159.272 61.9312 156.032L61.5731 146.312C61.5731 143.072 59.0664 139.149 56.0226 137.444L42.0567 129.771C39.0129 128.065 34.1786 128.065 31.3138 129.6L22.1822 134.204ZM62.2893 111.865C80.1943 121.756 102.934 115.787 113.318 98.9053C123.703 81.8526 117.437 60.1958 99.7107 50.3053C81.8057 40.4147 59.0664 46.3832 48.6816 63.2653C38.2967 80.1474 44.3844 101.975 62.2893 111.865Z" fill="white"/>
</svg>
