<svg width="89" height="94" viewBox="0 0 89 94" fill="none" xmlns="http://www.w3.org/2000/svg">
<path fill-rule="evenodd" clip-rule="evenodd" d="M66.7583 18.0154C67.0083 18.2498 67.149 18.574 67.149 18.9138V49.2888H69.2974C69.6294 49.2888 69.9497 49.4177 70.1802 49.6521C70.4146 49.8865 70.5474 50.2029 70.5474 50.5349V53.7107C72.1802 54.1482 73.7466 54.8045 75.1997 55.6638L77.4614 53.4021C77.9497 52.9177 78.7309 52.9177 79.2192 53.4021L84.0083 58.2029C84.4927 58.6912 84.4927 59.4724 84.0083 59.9607L81.7583 62.2107C82.6137 63.6716 83.2661 65.2419 83.6958 66.8826H86.8755C87.5669 66.8826 88.1255 67.4412 88.1255 68.1287V74.9099V74.906C88.1255 75.5974 87.5669 76.156 86.8755 76.156H83.6958C83.2661 77.7927 82.6177 79.3669 81.7583 80.824L84.0083 83.074V83.0779C84.4927 83.5662 84.4927 84.3474 84.0083 84.8357L79.2192 89.6326C78.7348 90.1209 77.9458 90.1209 77.4614 89.6326L75.1997 87.3826C73.7427 88.242 72.1685 88.8943 70.5317 89.3162V92.4998C70.5317 92.8318 70.3989 93.1522 70.1645 93.3826C69.9301 93.617 69.6137 93.7498 69.2817 93.7498H62.5044C61.8169 93.7498 61.2583 93.1912 61.2583 92.4998V89.3201C59.6177 88.8943 58.0474 88.242 56.5864 87.3826L54.3364 89.6326C53.8481 90.1209 53.063 90.1209 52.5786 89.6326L47.7739 84.8435C47.2895 84.3552 47.2895 83.5701 47.7739 83.0857L48.477 82.3826L1.25 82.3787C0.55859 82.3787 0 81.8201 0 81.1326V10.8556C0 10.1681 0.55859 9.60948 1.25 9.60948H9.6094V1.25008C9.6094 0.918047 9.74221 0.597737 9.97659 0.363357C10.211 0.128977 10.5274 7.71882e-05 10.8594 7.71882e-05H48.4214C48.7691 -0.00382881 49.1011 0.140697 49.3355 0.390697L66.7655 18.0157L66.7583 18.0154ZM15.5473 54.0464C14.8598 54.0464 14.2973 54.6089 14.2973 55.2964V63.6011C14.3013 64.2886 14.8598 64.8433 15.5473 64.8433H43.7424C44.0744 64.8433 44.3947 64.7105 44.6252 64.4761C44.8595 64.2456 44.9924 63.9253 44.9924 63.5933V55.2964C44.9924 54.9644 44.8595 54.6479 44.6252 54.4136C44.3947 54.1792 44.0744 54.0464 43.7424 54.0464H15.5473ZM42.5004 56.5425L16.7854 56.5464V62.3511H42.5004V56.5425ZM56.9224 76.2845L56.9263 76.2884C57.9302 73.8392 59.8951 71.9056 62.3599 70.9368C61.4458 69.6204 61.3365 67.9056 62.0825 66.4837C62.8247 65.0657 64.2934 64.1751 65.8989 64.1751C67.5005 64.1751 68.9692 65.0657 69.7114 66.4837C70.4575 67.9056 70.3481 69.6204 69.438 70.9368C71.8989 71.9055 73.8638 73.8391 74.8677 76.2884C76.5396 73.14 76.438 69.347 74.5981 66.2923C72.7622 63.2376 69.4614 61.3704 65.8989 61.3704C62.3325 61.3704 59.0317 63.2376 57.1958 66.2923C55.356 69.347 55.2544 73.14 56.9224 76.2884L56.9224 76.2845ZM65.899 70.2728C66.3755 70.2845 66.8443 70.1009 67.1842 69.765C67.5279 69.429 67.7154 68.9642 67.7076 68.4838C67.7076 67.4838 66.8951 66.6713 65.899 66.6713C64.899 66.6713 64.0865 67.4838 64.0865 68.4838C64.0787 68.9642 64.2662 69.4291 64.6099 69.765C64.9498 70.1009 65.4184 70.2845 65.899 70.2728ZM73.0083 78.7689C72.3912 75.3275 69.395 72.8197 65.8989 72.8197C62.3989 72.8197 59.4028 75.3275 58.7817 78.7689C62.7348 82.6478 69.0583 82.6478 73.0083 78.7689ZM65.8911 58.8669C60.7739 58.8669 56.1607 61.9489 54.2032 66.6755C52.2423 71.406 53.3242 76.8475 56.9454 80.4685C60.5665 84.0857 66.0078 85.1677 70.7383 83.2107C75.465 81.2498 78.5469 76.6365 78.5469 71.5157C78.5469 64.5313 72.8789 58.8637 65.8909 58.8637L65.8911 58.8669ZM64.6411 49.2966L64.6451 20.1596H48.4221C47.7346 20.1596 47.176 19.601 47.1799 18.9135V2.50748H12.1019V70.2805H43.6719V68.1321C43.6719 67.4407 44.2304 66.8821 44.918 66.8821H48.1016C48.3125 66.0657 48.582 65.2649 48.9062 64.4837C49.2305 63.7025 49.6094 62.9446 50.039 62.2103L47.7734 59.9603C47.2891 59.472 47.2891 58.6908 47.7734 58.2025L52.5703 53.4095C53.0547 52.9251 53.8398 52.9251 54.3281 53.4095L56.5859 55.6634C58.0429 54.804 59.6171 54.1517 61.2578 53.7298V50.5345C61.2578 49.847 61.8164 49.2884 62.5039 49.2884L64.6411 49.2966ZM43.6721 72.7656H10.8602C10.1727 72.7656 9.61015 72.207 9.61015 71.5156V12.1096H2.49685V79.8826H49.5089C48.9034 78.6951 48.4307 77.449 48.0947 76.1599H44.9072C44.2197 76.1599 43.6612 75.6013 43.6651 74.9138V72.7654L43.6721 72.7656ZM52.3519 82.0312L50.4221 83.9609L53.4534 86.9921L55.5237 84.9218C55.9416 84.5077 56.594 84.4413 57.0862 84.7655C58.7893 85.9022 60.6994 86.6991 62.7111 87.1093C63.3088 87.2109 63.7464 87.7304 63.7424 88.3359V91.2656H68.0275V88.3359H68.0315C68.0315 87.7461 68.4494 87.2382 69.0315 87.1211C71.0237 86.7188 72.9182 85.9375 74.6174 84.8164C75.1134 84.4414 75.8127 84.4883 76.2541 84.9297L78.3244 87L81.3674 83.9609L79.2971 81.8906C78.883 81.4687 78.8166 80.8203 79.1408 80.3281C80.2814 78.6211 81.0783 76.7109 81.4846 74.7031C81.5901 74.1015 82.1096 73.664 82.7151 73.664H85.6448V69.3749H82.7151C82.1214 69.3788 81.6096 68.9569 81.4924 68.3749C81.094 66.3788 80.3127 64.4804 79.1955 62.7851C78.8166 62.289 78.8635 61.5898 79.3049 61.1484L81.3752 59.0781L78.3361 56.0547L76.2658 58.125L76.2619 58.1211C75.8439 58.5391 75.1916 58.6055 74.6994 58.2813C72.9963 57.1407 71.0822 56.3438 69.0744 55.9375C68.4767 55.8359 68.0392 55.3164 68.0392 54.707V51.7773H63.7501V54.707C63.7501 55.3007 63.3321 55.8125 62.7501 55.9258C60.7579 56.3281 58.8595 57.1133 57.1642 58.2305C56.6642 58.6055 55.9689 58.5586 55.5236 58.1172L53.4533 56.0547L50.4221 59.0859L52.4924 61.1562H52.4885C52.9064 61.5742 52.9729 62.2265 52.6486 62.7187C51.508 64.4218 50.7111 66.3359 50.3048 68.3437C50.1994 68.9413 49.6798 69.3789 49.0743 69.3789H46.1446V73.6601H49.0743V73.664C49.6681 73.6601 50.1759 74.078 50.2931 74.6601C50.6955 76.6523 51.4767 78.5507 52.5939 80.2499C53.0705 80.871 52.8517 81.5155 52.3439 82.0233L52.3519 82.0312ZM46.3284 45.7462H15.5475C14.86 45.7462 14.2975 46.3048 14.2975 46.9923C14.2975 47.6837 14.86 48.2423 15.5475 48.2423H46.3284C47.0159 48.2423 47.5784 47.6837 47.5784 46.9923C47.5784 46.3048 47.0159 45.7462 46.3284 45.7462ZM43.7425 41.0587H15.5476C14.8601 41.0587 14.2976 41.6173 14.2976 42.3048C14.2976 42.9962 14.8601 43.5548 15.5476 43.5548H43.7425C44.0824 43.5665 44.4144 43.4415 44.6605 43.2071C44.9027 42.9727 45.0433 42.6485 45.0433 42.3087C45.0433 41.9688 44.9027 41.6446 44.6605 41.4063C44.4144 41.172 44.0824 41.047 43.7425 41.0626V41.0587ZM37.2034 36.3712H15.5475C14.86 36.3712 14.2975 36.9298 14.2975 37.6173C14.2975 38.3087 14.86 38.8673 15.5475 38.8673H37.2275C37.915 38.8673 38.4775 38.3087 38.4775 37.6173C38.4775 36.9298 37.915 36.3712 37.2275 36.3712H37.2034ZM43.7425 31.6837H15.5476C14.8601 31.6837 14.2976 32.2423 14.2976 32.9298C14.2976 33.6212 14.8601 34.1798 15.5476 34.1798H43.7425C44.434 34.1798 44.9925 33.6212 44.9925 32.9298C44.9925 32.2423 44.434 31.6837 43.7425 31.6837ZM52.3675 26.9962H15.5476C15.2077 26.9845 14.8796 27.1095 14.6335 27.3438C14.3874 27.5782 14.2507 27.9024 14.2507 28.2423C14.2507 28.5821 14.3874 28.9063 14.6335 29.1446C14.8796 29.379 15.2077 29.504 15.5476 29.4923H52.3675C52.7074 29.504 53.0394 29.379 53.2855 29.1446C53.5277 28.9063 53.6683 28.5821 53.6683 28.2423C53.6683 27.9024 53.5277 27.5782 53.2855 27.3438C53.0394 27.1095 52.7074 26.9845 52.3675 26.9962ZM55.2113 22.3087H15.5473C14.8598 22.3087 14.2973 22.8673 14.2973 23.5548C14.2973 24.2462 14.8598 24.8048 15.5473 24.8048H55.2113C55.9028 24.8048 56.4613 24.2462 56.4613 23.5548C56.4613 22.8673 55.9028 22.3087 55.2113 22.3087ZM43.7424 17.6212H15.5473C14.8598 17.6212 14.2973 18.1798 14.2973 18.8673C14.2973 19.5587 14.8598 20.1173 15.5473 20.1173H43.7424C44.4338 20.1173 44.9924 19.5587 44.9924 18.8673C44.9924 18.1798 44.4338 17.6212 43.7424 17.6212ZM15.5473 4.68718C14.8598 4.68718 14.2973 5.24577 14.2973 5.93718V14.2302C14.2973 14.9177 14.8598 15.4763 15.5473 15.4763H43.7424C44.0744 15.4763 44.3947 15.3474 44.6252 15.113C44.8595 14.8786 44.9924 14.5622 44.9924 14.2302V5.92939C44.9884 5.24189 44.4299 4.68719 43.7424 4.68719L15.5473 4.68718ZM42.5004 7.17548H16.7854V12.9841H42.5004V7.17548ZM49.6762 17.6635H62.9102L49.6721 4.28048L49.6762 17.6635Z" fill="#000B44"/>
</svg>
