<svg width="84" height="100" viewBox="0 0 84 100" fill="none" xmlns="http://www.w3.org/2000/svg">
<path d="M79.199 65.48C50.067 68.456 47.655 70.868 44.68 100C41.705 70.868 39.293 68.456 10.161 65.48C39.293 62.505 41.705 60.093 44.68 30.961C47.655 60.094 50.067 62.506 79.199 65.48ZM59.666 0C57.629 19.956 55.977 21.608 36.02 23.646C55.977 25.684 57.629 27.336 59.666 47.292C61.705 27.336 63.357 25.684 83.312 23.646C63.357 21.608 61.705 19.956 59.666 0ZM19.896 16.064C18.24 32.274 16.898 33.617 0.687988 35.272C16.898 36.928 18.241 38.27 19.896 54.48C21.552 38.27 22.894 36.927 39.105 35.272C22.894 33.617 21.552 32.275 19.896 16.064Z" fill="white"/>
</svg>
