<svg width="117" height="162" viewBox="0 0 117 162" fill="none" xmlns="http://www.w3.org/2000/svg">
<path d="M40.8861 0.00261299C39.2799 0.00261299 37.9657 1.31681 37.9657 2.92306V17.5253C37.9657 19.1316 39.2799 20.4458 40.8861 20.4458C42.4924 20.4458 43.8066 19.1316 43.8066 17.5253V2.92306C43.8066 1.31681 42.4924 0.00261299 40.8861 0.00261299ZM58.4088 0.00261299C56.8026 0.00261299 55.4884 1.31681 55.4884 2.92306V29.2062C55.4884 30.8124 56.8026 32.1266 58.4088 32.1266C60.0151 32.1266 61.3293 30.8124 61.3293 29.2062V2.92306C61.3293 1.31681 60.0151 0.00261299 58.4088 0.00261299ZM75.9315 11.6844C74.3253 11.6844 73.0111 12.9986 73.0111 14.6049V29.2071C73.0111 30.8134 74.3253 32.1276 75.9315 32.1276C77.5378 32.1276 78.852 30.8134 78.852 29.2071V14.6049C78.852 12.9986 77.5378 11.6844 75.9315 11.6844ZM78.0051 0.849497C77.8591 0.732679 77.7131 0.586666 77.567 0.499043C77.3918 0.382225 77.2166 0.294602 77.0413 0.236212C76.8661 0.148598 76.6909 0.0901891 76.5157 0.0609846C75.5519 -0.143456 74.5298 0.177803 73.858 0.849516C73.3323 1.40441 73.0111 2.16371 73.0111 2.92308C73.0111 3.12752 73.0403 3.30273 73.0695 3.50717C73.0987 3.6824 73.1571 3.85763 73.2447 4.03285C73.3031 4.20808 73.3908 4.38331 73.5076 4.55853L73.858 4.99661C74.4129 5.52229 75.1722 5.84353 75.9316 5.84353C76.691 5.84353 77.4502 5.52228 78.0051 4.99661C78.122 4.85059 78.268 4.70457 78.3556 4.55853C78.4724 4.38331 78.56 4.20808 78.6184 4.03285C78.706 3.85763 78.7644 3.6824 78.7937 3.50717C78.8229 3.30273 78.8521 3.12752 78.8521 2.92308C78.8521 2.16377 78.5308 1.40443 78.0051 0.849497ZM43.5728 28.0971C43.4267 27.7466 43.2223 27.4254 42.9595 27.1333L42.5214 26.7829C42.3462 26.6661 42.1709 26.5784 41.9957 26.52C41.8205 26.4324 41.6453 26.374 41.47 26.3448C40.8859 26.228 40.3019 26.2864 39.7762 26.52C39.3965 26.6661 39.1045 26.8705 38.8124 27.1333C38.5496 27.4254 38.3452 27.7466 38.1991 28.0971C38.0531 28.4475 37.9655 28.8272 37.9655 29.2068C37.9655 29.9662 38.2868 30.7255 38.8124 31.2804C39.1045 31.5432 39.3965 31.7477 39.7762 31.8937C40.1266 32.0397 40.5063 32.1273 40.8859 32.1273C41.0904 32.1273 41.2656 32.0981 41.47 32.0689C41.6453 32.0397 41.8205 31.9813 41.9957 31.8937C42.1709 31.8353 42.3462 31.7477 42.5214 31.6309C42.6674 31.5432 42.8134 31.3972 42.9595 31.2804C43.2223 30.9884 43.4267 30.6671 43.5728 30.3167C43.7188 29.9662 43.8064 29.5866 43.8064 29.2069C43.8064 28.8272 43.7188 28.4475 43.5728 28.0971ZM116.819 46.2624V67.9905C116.819 70.0349 116.118 71.9915 114.833 73.5686L73.0118 115.126V142.725C73.0118 145.675 71.4932 148.449 69.0109 150.055L57.5335 160.423C57.5335 160.423 57.2415 160.657 57.0663 160.744C55.6645 161.591 54.1167 162 52.5689 162C51.0211 162 49.6193 161.62 48.2466 160.861C45.4721 159.284 43.8075 156.422 43.8075 153.239V115.098L2.8913 73.8903C1.10983 72.4008 0 69.9768 0 67.4068C0 65.8005 1.31419 64.3695 2.92045 64.3695C4.52671 64.3695 5.8409 65.5669 5.8409 67.1731C5.8409 68.2537 6.22055 69.0714 6.86307 69.6263L48.8017 111.827C49.3566 112.381 49.6486 113.141 49.6486 113.9V153.239C49.6486 154.758 50.6708 155.517 51.138 155.78C51.5469 156.013 52.6275 156.481 53.854 155.838L65.3022 145.558C65.3022 145.558 65.5942 145.324 65.7403 145.237C66.6164 144.711 67.1713 143.747 67.1713 142.725V113.9C67.1713 113.112 67.4925 112.381 68.0474 111.827L110.511 69.6263C110.745 69.3342 110.979 68.6625 110.979 67.9908V58.879H5.84227C2.62968 58.879 0.0013654 56.2507 0.0013654 53.0381V46.2626C0.0013654 43.0501 2.62968 40.4217 5.84227 40.4217H110.979C114.191 40.4217 116.819 43.0498 116.819 46.2624Z" fill="white"/>
</svg>
