<svg width="1840" height="594" viewBox="0 0 1840 594" fill="none" xmlns="http://www.w3.org/2000/svg">
<path d="M567.999 439.691L335 573" stroke="white" stroke-width="25" stroke-miterlimit="1"/>
<path d="M334.999 39.7634L567.999 173.072" stroke="white" stroke-width="25" stroke-miterlimit="1"/>
<path d="M102 173.072L335 39.7634" stroke="white" stroke-width="25" stroke-miterlimit="1"/>
<path d="M335 580L102 442V166L335 304V580Z" stroke="white" stroke-width="25" stroke-miterlimit="1"/>
<path d="M335 573L568 437.333V166L335 301.667V573Z" stroke="white" stroke-width="25" stroke-miterlimit="1"/>
<path d="M568 173.5L335 39.5L102 173.5L335 307L568 173.5Z" stroke="white" stroke-width="25" stroke-miterlimit="1"/>
<ellipse cx="335.499" cy="303" rx="44.5" ry="43" fill="white"/>
<path fill-rule="evenodd" clip-rule="evenodd" d="M331.542 33.604L307.142 47.1396C307.02 51.65 308.029 56.1475 310.306 60.2509C317.807 73.7734 336.221 77.8942 351.434 69.4549C357.991 65.8174 362.883 60.4401 365.727 54.4158L331.542 33.604Z" fill="white"/>
<path fill-rule="evenodd" clip-rule="evenodd" d="M99.9743 449.065L124.099 463.085C128.035 460.879 131.38 457.708 133.738 453.651C141.508 440.281 135.614 422.356 120.572 413.614C114.089 409.847 106.965 408.4 100.334 409.044L99.9743 449.065Z" fill="white"/>
<path fill-rule="evenodd" clip-rule="evenodd" d="M570 442.496V414.594C566.115 412.299 561.692 411 557 411C541.536 411 529 425.103 529 442.5C529 449.998 531.329 456.885 535.217 462.294L570 442.496Z" fill="white"/>
<path fill-rule="evenodd" clip-rule="evenodd" d="M428.171 430.88C606.513 323.633 709.787 168.012 658.84 83.2909C621.893 21.8527 513.99 14.5717 389.459 56.1103L416.224 71.2908C506.654 47.2724 580.541 55.0466 606.735 98.6046C648.148 167.471 554.662 299.705 397.927 393.959C241.192 488.212 80.5618 508.792 39.1487 439.926C15.167 400.047 36.4224 338.917 89.001 276.219V247.609C12.3873 330.372 -20.3453 416.21 13.0045 471.668C63.952 556.389 249.828 538.128 428.171 430.88Z" fill="url(#paint0_linear_2387_108)"/>
<path fill-rule="evenodd" clip-rule="evenodd" d="M638.848 449.624C659.181 412.446 640.196 355.322 593.687 295.045L608.437 277.516C676.056 357.771 705.163 437.981 676.897 489.664C630.991 573.601 451.144 550.514 275.197 438.098C264.379 431.187 253.828 424.099 243.563 416.862C256.293 407.841 264.851 393.587 265.893 377.351C274.167 383.096 282.641 388.744 291.301 394.278C445.931 493.074 601.533 517.853 638.848 449.624ZM196.571 323.013C100.5 237.806 49.9878 144.688 78.8842 91.8523C103.733 46.4169 181.037 42.2268 275.578 73.6735L296.779 61.4809C175.86 17.1534 72.8821 21.9624 39.7358 82.5692C4.7953 146.457 57.5213 253.932 162.287 351.2C168.961 337.599 181.422 327.2 196.571 323.013ZM509.346 208.221L529.504 198.998C528.697 198.314 527.888 197.63 527.076 196.948L508.56 207.556C508.822 207.778 509.084 207.999 509.346 208.221Z" fill="url(#paint1_linear_2387_108)"/>
<ellipse cx="597.5" cy="69" rx="69.5" ry="69" fill="white"/>
<path fill-rule="evenodd" clip-rule="evenodd" d="M211.5 443C249.884 443 281 412.108 281 374C281 335.892 249.884 305 211.5 305C173.116 305 142 335.892 142 374C142 412.108 173.116 443 211.5 443ZM212 419C236.853 419 257 398.853 257 374C257 349.147 236.853 329 212 329C187.147 329 167 349.147 167 374C167 398.853 187.147 419 212 419Z" fill="white"/>
<path d="M766.6 285C766.6 261.667 772.8 243.667 785.2 231C797.733 218.333 816 212 840 212C846.4 212 853.333 212.8 860.8 214.4C868.267 215.867 874.333 217.667 879 219.8V256.8H867.8L859 228.6C854.467 227.8 850.667 227.4 847.6 227.4C830.933 227.4 818.8 232.067 811.2 241.4C803.6 250.6 799.8 265.133 799.8 285C799.8 304.733 803.4 319.267 810.6 328.6C817.8 337.933 829 342.6 844.2 342.6C847.4 342.6 851.133 342.267 855.4 341.6L870.2 311.4H881.4L876.2 348.2C871.533 350.733 865.533 353 858.2 355C851 357 843.8 358 836.6 358C814.2 358 796.933 351.667 784.8 339C772.667 326.2 766.6 308.2 766.6 285ZM895.85 355V343.8L914.25 339.4V230.6L895.85 226.2V215H965.25V226.2L946.85 230.6V339.4L965.25 343.8V355H895.85ZM978.467 355V343.8L996.867 339.4V230.6L978.467 226.2V215H1038.47C1062.73 215 1081.27 221.467 1094.07 234.4C1107 247.2 1113.47 264.067 1113.47 285C1113.47 307.267 1106.67 324.533 1093.07 336.8C1079.47 348.933 1061.27 355 1038.47 355H978.467ZM1029.47 339.6H1035.47C1050 339.6 1061.07 334.867 1068.67 325.4C1076.4 315.933 1080.27 302.467 1080.27 285C1080.27 267.4 1076.4 253.933 1068.67 244.6C1061.07 235.133 1050 230.4 1035.47 230.4H1029.47V339.6ZM1123.66 385.4C1123.66 374.733 1129.6 366.267 1141.46 360C1137.86 357.467 1135 354.2 1132.86 350.2C1132.06 348.6 1131.4 346.733 1130.86 344.6C1130.46 342.467 1130.4 340.267 1130.66 338L1153.66 318.2C1146.73 315.133 1141.33 311 1137.46 305.8C1133.6 300.467 1131.66 294.6 1131.66 288.2C1131.66 278.6 1136.2 270.467 1145.26 263.8C1154.33 257 1165.8 253.6 1179.66 253.6C1191.66 253.6 1202.06 256.267 1210.86 261.6L1242.06 250C1243.66 253.2 1244.46 256.733 1244.46 260.6C1244.46 265.133 1244.2 268.533 1243.66 270.8H1221.66C1225.93 276.4 1228.06 282.2 1228.06 288.2C1228.06 298.067 1223.66 306.333 1214.86 313C1206.2 319.533 1194.46 322.8 1179.66 322.8C1174.86 322.8 1171.33 322.733 1169.06 322.6L1160.26 334.8C1161.86 337.467 1164.06 339.133 1166.86 339.8C1169.66 340.333 1174.4 340.6 1181.06 340.6H1195.66C1208.86 340.6 1219 343.533 1226.06 349.4C1233.26 355.267 1236.86 363.467 1236.86 374C1236.86 384.267 1231.86 393.2 1221.86 400.8C1212 408.533 1198.13 412.4 1180.26 412.4C1142.53 412.4 1123.66 403.4 1123.66 385.4ZM1154.06 381C1154.06 393.267 1162.6 399.4 1179.66 399.4C1190.86 399.4 1199.46 397.533 1205.46 393.8C1211.46 390.067 1214.46 385.4 1214.46 379.8C1214.46 375.533 1212.73 372.267 1209.26 370C1205.8 367.867 1199.46 366.8 1190.26 366.8H1158.46C1155.53 370.933 1154.06 375.667 1154.06 381ZM1179.66 310C1186.2 310 1191.06 308 1194.26 304C1197.46 299.867 1199.06 294.6 1199.06 288.2C1199.06 281.8 1197.46 276.533 1194.26 272.4C1191.06 268.133 1186.2 266 1179.66 266C1172.86 266 1168 268.133 1165.06 272.4C1162.13 276.533 1160.66 281.8 1160.66 288.2C1160.66 294.6 1162.13 299.867 1165.06 304C1168 308 1172.86 310 1179.66 310ZM1250.33 355V344.4L1267.33 340.4V273.2H1250.33V262.6L1282.33 255H1298.13V267C1308.13 257 1319.99 252 1333.73 252C1334.53 254.533 1334.93 257.333 1334.93 260.4C1334.93 266.533 1334.26 272.267 1332.93 277.6L1307.73 273.4C1304.53 274.867 1301.33 277 1298.13 279.8V340.4L1319.13 344.4V355H1250.33ZM1343.69 330.2C1343.69 318.6 1348.42 309.8 1357.89 303.8C1367.49 297.667 1382.95 294.6 1404.29 294.6V288.6C1404.29 284.6 1404.22 281.733 1404.09 280C1404.09 278.133 1403.82 275.933 1403.29 273.4C1402.75 270.867 1401.95 269.067 1400.89 268C1399.95 266.933 1398.49 266 1396.49 265.2C1394.49 264.267 1392.02 263.8 1389.09 263.8L1363.69 285.8C1354.62 280.6 1350.09 272.533 1350.09 261.6L1356.09 259C1358.62 257.933 1363.55 256.533 1370.89 254.8C1378.22 252.933 1385.35 252 1392.29 252C1420.95 252 1435.29 263.467 1435.29 286.4V340H1450.89V348.6C1450.22 349.267 1449.29 350.133 1448.09 351.2C1446.89 352.267 1444.29 353.667 1440.29 355.4C1436.29 357.133 1432.15 358 1427.89 358C1417.75 358 1410.22 354.6 1405.29 347.8C1396.35 354.6 1386.62 358 1376.09 358C1366.89 358 1359.15 355.667 1352.89 351C1346.75 346.333 1343.69 339.4 1343.69 330.2ZM1375.89 328.4C1375.89 332.267 1377.15 335.333 1379.69 337.6C1382.35 339.867 1385.55 341 1389.29 341C1395.29 341 1400.29 338.8 1404.29 334.4V307C1396.82 307 1390.22 309 1384.49 313C1378.75 316.867 1375.89 322 1375.89 328.4ZM1448.02 265.6V255H1509.22V265.6L1495.62 268.8L1515.82 316.6L1535.62 269L1522.42 265.6V255H1565.82V265.6L1549.02 270L1513.42 356.4H1499.42L1462.42 269.8L1448.02 265.6ZM1570.84 355V344.4L1587.84 340.4V273.2H1570.84V262.6L1602.84 255H1618.64V340.4L1635.64 344.4V355H1570.84ZM1584.64 224.2C1584.64 219 1586.44 214.667 1590.04 211.2C1593.64 207.6 1598.04 205.8 1603.24 205.8C1608.57 205.8 1612.97 207.6 1616.44 211.2C1620.04 214.667 1621.84 219 1621.84 224.2C1621.84 229.533 1620.04 234 1616.44 237.6C1612.97 241.2 1608.57 243 1603.24 243C1598.04 243 1593.64 241.2 1590.04 237.6C1586.44 234 1584.64 229.533 1584.64 224.2ZM1643.48 269V261L1677.48 236.8H1684.88V256L1709.68 255V269H1684.88V326.2C1684.88 332.733 1685.62 337.333 1687.08 340C1688.55 342.667 1691.55 344 1696.08 344C1699.42 344 1703.88 342.8 1709.48 340.4L1712.68 351.6C1704.68 355.867 1696.22 358 1687.28 358C1665.15 358 1654.08 347.733 1654.08 327.2V269H1643.48ZM1712.47 265.6V255H1774.27V265.6L1761.07 268L1786.87 319.4L1805.67 269.4L1790.47 265.6V255H1836.87V265.6L1820.27 270.2L1764.47 414.8H1760.87C1756.87 414.8 1753.07 413.933 1749.47 412.2C1746 410.467 1743.54 408.333 1742.07 405.8L1771.07 359.6L1727.47 269.8L1712.47 265.6Z" fill="white"/>
<defs>
<linearGradient id="paint0_linear_2387_108" x1="293.754" y1="524.959" x2="239.85" y2="45.5434" gradientUnits="userSpaceOnUse">
<stop offset="0.16" stop-color="#E1E0E0"/>
<stop offset="0.35" stop-color="#E3E2E2"/>
<stop offset="0.69" stop-color="white"/>
</linearGradient>
<linearGradient id="paint1_linear_2387_108" x1="687.642" y1="344.873" x2="48.9737" y2="413.454" gradientUnits="userSpaceOnUse">
<stop offset="0.16" stop-color="#E1E0E0"/>
<stop offset="0.34" stop-color="#E3E2E2"/>
<stop offset="0.69" stop-color="white"/>
</linearGradient>
</defs>
</svg>
