<svg xmlns="http://www.w3.org/2000/svg" xmlns:xlink="http://www.w3.org/1999/xlink" width="573" zoomAndPan="magnify" viewBox="0 0 429.75 227.249992" height="303" preserveAspectRatio="xMidYMid meet" version="1.0"><defs><g/></defs><g fill="#000b44" fill-opacity="1"><g transform="translate(200.709867, 126.406531)"><g><path d="M 14.171875 -20.3125 C 12.523438 -20.3125 11.238281 -19.632812 10.3125 -18.28125 C 9.394531 -16.9375 8.9375 -15.078125 8.9375 -12.703125 C 8.9375 -7.773438 10.8125 -5.3125 14.5625 -5.3125 C 15.695312 -5.3125 16.796875 -5.46875 17.859375 -5.78125 C 18.921875 -6.09375 19.988281 -6.472656 21.0625 -6.921875 L 21.0625 -1.0625 C 18.925781 -0.125 16.507812 0.34375 13.8125 0.34375 C 9.945312 0.34375 6.984375 -0.773438 4.921875 -3.015625 C 2.859375 -5.253906 1.828125 -8.492188 1.828125 -12.734375 C 1.828125 -15.390625 2.320312 -17.722656 3.3125 -19.734375 C 4.3125 -21.742188 5.75 -23.285156 7.625 -24.359375 C 9.5 -25.441406 11.707031 -25.984375 14.25 -25.984375 C 17.019531 -25.984375 19.664062 -25.382812 22.1875 -24.1875 L 20.0625 -18.734375 C 19.113281 -19.179688 18.164062 -19.554688 17.21875 -19.859375 C 16.28125 -20.160156 15.265625 -20.3125 14.171875 -20.3125 Z M 14.171875 -20.3125 "/></g></g></g><g fill="#000b44" fill-opacity="1"><g transform="translate(224.000313, 126.406531)"><g><path d="M 2.765625 0 L 2.765625 -25.625 L 9.71875 -25.625 L 9.71875 0 Z M 2.765625 0 "/></g></g></g><g fill="#000b44" fill-opacity="1"><g transform="translate(236.495491, 126.406531)"><g><path d="M 24.515625 -13.359375 C 24.515625 -9.078125 23.335938 -5.78125 20.984375 -3.46875 C 18.628906 -1.15625 15.320312 0 11.0625 0 L 2.765625 0 L 2.765625 -25.625 L 11.640625 -25.625 C 15.753906 -25.625 18.925781 -24.570312 21.15625 -22.46875 C 23.394531 -20.363281 24.515625 -17.328125 24.515625 -13.359375 Z M 17.328125 -13.109375 C 17.328125 -15.453125 16.863281 -17.191406 15.9375 -18.328125 C 15.007812 -19.460938 13.597656 -20.03125 11.703125 -20.03125 L 9.6875 -20.03125 L 9.6875 -5.671875 L 11.234375 -5.671875 C 13.335938 -5.671875 14.878906 -6.28125 15.859375 -7.5 C 16.835938 -8.726562 17.328125 -10.597656 17.328125 -13.109375 Z M 17.328125 -13.109375 "/></g></g></g><g fill="#000b44" fill-opacity="1"><g transform="translate(262.835248, 126.406531)"><g><path d="M 21.09375 -19.859375 L 21.09375 -16.546875 L 18.390625 -15.546875 C 18.753906 -14.867188 18.9375 -14.078125 18.9375 -13.171875 C 18.9375 -11.035156 18.1875 -9.378906 16.6875 -8.203125 C 15.1875 -7.023438 12.945312 -6.4375 9.96875 -6.4375 C 9.238281 -6.4375 8.65625 -6.484375 8.21875 -6.578125 C 8.050781 -6.265625 7.96875 -5.976562 7.96875 -5.71875 C 7.96875 -5.375 8.242188 -5.109375 8.796875 -4.921875 C 9.347656 -4.742188 10.066406 -4.65625 10.953125 -4.65625 L 14.25 -4.65625 C 18.695312 -4.65625 20.921875 -2.78125 20.921875 0.96875 C 20.921875 3.382812 19.890625 5.265625 17.828125 6.609375 C 15.765625 7.953125 12.867188 8.625 9.140625 8.625 C 6.328125 8.625 4.15625 8.148438 2.625 7.203125 C 1.101562 6.265625 0.34375 4.914062 0.34375 3.15625 C 0.34375 0.78125 1.816406 -0.75 4.765625 -1.4375 C 4.160156 -1.695312 3.628906 -2.113281 3.171875 -2.6875 C 2.722656 -3.257812 2.5 -3.820312 2.5 -4.375 C 2.5 -5 2.664062 -5.546875 3 -6.015625 C 3.34375 -6.492188 4.054688 -7.054688 5.140625 -7.703125 C 4.109375 -8.160156 3.296875 -8.875 2.703125 -9.84375 C 2.117188 -10.8125 1.828125 -11.992188 1.828125 -13.390625 C 1.828125 -15.546875 2.5625 -17.21875 4.03125 -18.40625 C 5.5 -19.601562 7.601562 -20.203125 10.34375 -20.203125 C 10.707031 -20.203125 11.332031 -20.160156 12.21875 -20.078125 C 13.101562 -19.992188 13.753906 -19.921875 14.171875 -19.859375 Z M 6.140625 2.46875 C 6.140625 3.03125 6.441406 3.484375 7.046875 3.828125 C 7.648438 4.171875 8.460938 4.34375 9.484375 4.34375 C 11.140625 4.34375 12.46875 4.132812 13.46875 3.71875 C 14.46875 3.3125 14.96875 2.78125 14.96875 2.125 C 14.96875 1.59375 14.660156 1.21875 14.046875 1 C 13.441406 0.789062 12.570312 0.6875 11.4375 0.6875 L 8.765625 0.6875 C 8.023438 0.6875 7.398438 0.859375 6.890625 1.203125 C 6.390625 1.546875 6.140625 1.96875 6.140625 2.46875 Z M 8.296875 -13.359375 C 8.296875 -11.316406 9 -10.296875 10.40625 -10.296875 C 11.0625 -10.296875 11.566406 -10.546875 11.921875 -11.046875 C 12.273438 -11.554688 12.453125 -12.3125 12.453125 -13.3125 C 12.453125 -15.375 11.769531 -16.40625 10.40625 -16.40625 C 9 -16.40625 8.296875 -15.390625 8.296875 -13.359375 Z M 8.296875 -13.359375 "/></g></g></g><g fill="#000b44" fill-opacity="1"><g transform="translate(284.583513, 126.406531)"><g><path d="M 14.359375 -20.203125 C 14.953125 -20.203125 15.515625 -20.15625 16.046875 -20.0625 L 16.4375 -20 L 15.828125 -13.53125 C 15.265625 -13.664062 14.488281 -13.734375 13.5 -13.734375 C 12 -13.734375 10.910156 -13.390625 10.234375 -12.703125 C 9.554688 -12.023438 9.21875 -11.046875 9.21875 -9.765625 L 9.21875 0 L 2.359375 0 L 2.359375 -19.859375 L 7.46875 -19.859375 L 8.53125 -16.6875 L 8.875 -16.6875 C 9.4375 -17.738281 10.226562 -18.585938 11.25 -19.234375 C 12.28125 -19.878906 13.316406 -20.203125 14.359375 -20.203125 Z M 14.359375 -20.203125 "/></g></g></g><g fill="#000b44" fill-opacity="1"><g transform="translate(301.424837, 126.406531)"><g><path d="M 15.3125 0 L 14 -2.625 L 13.859375 -2.625 C 12.941406 -1.476562 12.003906 -0.695312 11.046875 -0.28125 C 10.085938 0.132812 8.847656 0.34375 7.328125 0.34375 C 5.453125 0.34375 3.976562 -0.210938 2.90625 -1.328125 C 1.832031 -2.453125 1.296875 -4.03125 1.296875 -6.0625 C 1.296875 -8.175781 2.03125 -9.75 3.5 -10.78125 C 4.976562 -11.820312 7.113281 -12.40625 9.90625 -12.53125 L 13.21875 -12.640625 L 13.21875 -12.921875 C 13.21875 -14.554688 12.410156 -15.375 10.796875 -15.375 C 9.347656 -15.375 7.507812 -14.878906 5.28125 -13.890625 L 3.296875 -18.421875 C 5.609375 -19.609375 8.53125 -20.203125 12.0625 -20.203125 C 14.601562 -20.203125 16.570312 -19.570312 17.96875 -18.3125 C 19.363281 -17.050781 20.0625 -15.285156 20.0625 -13.015625 L 20.0625 0 Z M 10.234375 -4.484375 C 11.066406 -4.484375 11.773438 -4.742188 12.359375 -5.265625 C 12.953125 -5.796875 13.25 -6.484375 13.25 -7.328125 L 13.25 -8.875 L 11.671875 -8.796875 C 9.421875 -8.710938 8.296875 -7.882812 8.296875 -6.3125 C 8.296875 -5.09375 8.941406 -4.484375 10.234375 -4.484375 Z M 10.234375 -4.484375 "/></g></g></g><g fill="#000b44" fill-opacity="1"><g transform="translate(323.786463, 126.406531)"><g><path d="M 7.578125 0 L 0 -19.859375 L 7.15625 -19.859375 L 10.515625 -8.109375 C 10.523438 -8.054688 10.546875 -7.957031 10.578125 -7.8125 C 10.617188 -7.675781 10.65625 -7.507812 10.6875 -7.3125 C 10.726562 -7.125 10.757812 -6.921875 10.78125 -6.703125 C 10.8125 -6.484375 10.828125 -6.28125 10.828125 -6.09375 L 10.953125 -6.09375 C 10.953125 -6.707031 11.054688 -7.367188 11.265625 -8.078125 L 14.796875 -19.859375 L 21.921875 -19.859375 L 14.359375 0 Z M 7.578125 0 "/></g></g></g><g fill="#000b44" fill-opacity="1"><g transform="translate(345.709975, 126.406531)"><g><path d="M 9.25 0 L 2.40625 0 L 2.40625 -19.859375 L 9.25 -19.859375 Z M 2.21875 -24.796875 C 2.21875 -25.828125 2.503906 -26.59375 3.078125 -27.09375 C 3.648438 -27.59375 4.578125 -27.84375 5.859375 -27.84375 C 7.128906 -27.84375 8.054688 -27.582031 8.640625 -27.0625 C 9.222656 -26.550781 9.515625 -25.796875 9.515625 -24.796875 C 9.515625 -22.785156 8.296875 -21.78125 5.859375 -21.78125 C 3.429688 -21.78125 2.21875 -22.785156 2.21875 -24.796875 Z M 2.21875 -24.796875 "/></g></g></g><g fill="#000b44" fill-opacity="1"><g transform="translate(357.381482, 126.406531)"><g><path d="M 12.09375 -5.0625 C 13.007812 -5.0625 14.113281 -5.289062 15.40625 -5.75 L 15.40625 -0.75 C 14.476562 -0.351562 13.597656 -0.0703125 12.765625 0.09375 C 11.929688 0.257812 10.953125 0.34375 9.828125 0.34375 C 7.523438 0.34375 5.863281 -0.21875 4.84375 -1.34375 C 3.832031 -2.46875 3.328125 -4.195312 3.328125 -6.53125 L 3.328125 -14.71875 L 0.921875 -14.71875 L 0.921875 -17.5 L 3.984375 -19.65625 L 5.75 -23.828125 L 10.234375 -23.828125 L 10.234375 -19.859375 L 15.109375 -19.859375 L 15.109375 -14.71875 L 10.234375 -14.71875 L 10.234375 -7 C 10.234375 -5.707031 10.851562 -5.0625 12.09375 -5.0625 Z M 12.09375 -5.0625 "/></g></g></g><g fill="#000b44" fill-opacity="1"><g transform="translate(373.88983, 126.406531)"><g><path d="M -0.03125 -19.859375 L 7.1875 -19.859375 L 10.546875 -8.46875 C 10.710938 -7.875 10.828125 -7.15625 10.890625 -6.3125 L 11.015625 -6.3125 C 11.109375 -7.113281 11.25 -7.816406 11.4375 -8.421875 L 14.890625 -19.859375 L 21.890625 -19.859375 L 14.03125 1.265625 C 13.03125 3.953125 11.796875 5.847656 10.328125 6.953125 C 8.859375 8.066406 6.945312 8.625 4.59375 8.625 C 3.675781 8.625 2.738281 8.523438 1.78125 8.328125 L 1.78125 2.9375 C 2.40625 3.082031 3.113281 3.15625 3.90625 3.15625 C 4.507812 3.15625 5.039062 3.035156 5.5 2.796875 C 5.957031 2.566406 6.351562 2.238281 6.6875 1.8125 C 7.03125 1.382812 7.394531 0.6875 7.78125 -0.28125 Z M -0.03125 -19.859375 "/></g></g></g><path fill="#000b44" d="M 160.230469 104.414062 C 161.621094 106.066406 162.972656 107.742188 164.273438 109.441406 C 170.730469 117.839844 178.332031 132.335938 173.675781 143.0625 C 166.835938 158.804688 142.425781 155.160156 129.632812 151.390625 C 129.324219 151.300781 129.140625 151.253906 128.839844 151.429688 C 122.488281 155.105469 116.125 158.773438 109.746094 162.425781 C 109.46875 162.585938 109.1875 162.585938 108.910156 162.425781 C 101.6875 158.285156 94.433594 154.101562 87.15625 149.867188 C 86.972656 149.761719 86.660156 149.753906 86.214844 149.835938 C 75.292969 151.855469 58.257812 153.117188 50.242188 143.4375 C 40.246094 131.367188 51.578125 112.914062 59.941406 103.441406 C 60.578125 102.722656 60.234375 102.25 59.78125 101.574219 C 55.421875 95.050781 51.265625 85.941406 51.917969 77.882812 C 52.730469 67.9375 60.289062 62.539062 69.691406 61.0625 C 79.070312 59.597656 88.859375 61.253906 97.863281 64 C 98.242188 64.113281 98.804688 63.945312 99.195312 63.71875 C 102.527344 61.769531 105.871094 59.832031 109.21875 57.914062 C 109.308594 57.863281 109.402344 57.863281 109.496094 57.917969 L 119.773438 63.855469 C 119.875 63.910156 119.980469 63.925781 120.089844 63.894531 C 122.382812 63.246094 124.679688 62.621094 126.980469 62.027344 C 132.917969 60.492188 138.953125 59.617188 145.082031 59.402344 C 145.195312 59.398438 145.28125 59.347656 145.335938 59.25 C 149.074219 52.589844 157.207031 50.320312 163.640625 54.304688 C 168.886719 57.546875 171.339844 64.082031 169.0625 69.9375 C 169.019531 70.046875 169.03125 70.148438 169.09375 70.246094 C 169.664062 71.136719 170.183594 71.988281 170.472656 73.007812 C 173.441406 83.621094 166.792969 96.039062 160.226562 104.1875 C 160.167969 104.261719 160.167969 104.335938 160.230469 104.414062 Z M 64.195312 83.867188 L 96.621094 65.183594 C 96.652344 65.167969 96.664062 65.144531 96.660156 65.113281 C 96.65625 65.082031 96.636719 65.0625 96.605469 65.054688 C 89.304688 63.054688 81.9375 61.972656 74.445312 63.113281 C 67.613281 64.15625 60.910156 67.878906 59.863281 75.335938 C 58.996094 81.507812 61.042969 87.480469 63.851562 92.898438 C 63.875 92.941406 63.90625 92.957031 63.953125 92.945312 C 64 92.9375 64.023438 92.90625 64.023438 92.859375 L 64.023438 84.164062 C 64.023438 84.035156 64.082031 83.9375 64.195312 83.867188 Z M 154.382812 83.835938 C 154.582031 83.953125 154.683594 84.128906 154.683594 84.363281 L 154.683594 94.894531 C 154.683594 94.964844 154.71875 95.007812 154.789062 95.023438 C 154.859375 95.035156 154.910156 95.007812 154.933594 94.945312 C 155.121094 94.476562 155.289062 93.949219 155.542969 93.519531 C 158.210938 88.917969 159.664062 83.9375 159.90625 78.585938 C 159.910156 78.460938 159.851562 78.394531 159.730469 78.382812 C 158.253906 78.25 156.554688 78.511719 155.339844 78.363281 C 148.199219 77.488281 143.324219 71.359375 143.898438 64.21875 C 143.90625 64.113281 143.859375 64.054688 143.757812 64.042969 C 137.0625 63.152344 129.875 64.0625 123.289062 65.578125 C 123.191406 65.601562 123.140625 65.664062 123.136719 65.765625 C 123.136719 65.871094 123.183594 65.933594 123.28125 65.960938 C 123.535156 66.03125 123.820312 66.15625 124.132812 66.335938 C 134.277344 72.175781 144.359375 78.007812 154.382812 83.835938 Z M 112.359375 102.859375 C 112.839844 103.109375 113.324219 103.363281 113.808594 103.617188 C 113.90625 103.667969 114 103.667969 114.09375 103.613281 L 146.441406 85.007812 C 146.566406 84.9375 146.625 84.832031 146.621094 84.695312 L 146.585938 83.625 C 146.582031 83.484375 146.519531 83.375 146.394531 83.304688 L 114.167969 64.699219 C 114.050781 64.632812 113.933594 64.632812 113.820312 64.707031 C 110.832031 66.589844 107.835938 66.585938 104.832031 64.6875 C 104.734375 64.625 104.652344 64.613281 104.582031 64.652344 L 72.402344 83.195312 C 72.300781 83.253906 72.230469 83.335938 72.191406 83.441406 C 71.855469 84.320312 72.007812 84.855469 72.851562 85.347656 C 83.421875 91.449219 94.003906 97.546875 104.597656 103.644531 C 104.695312 103.699219 104.789062 103.695312 104.882812 103.632812 C 107.0625 102.113281 109.929688 101.585938 112.359375 102.859375 Z M 113 117.355469 C 112.386719 117.648438 112.617188 118.089844 112.617188 118.613281 C 112.613281 122.941406 112.613281 127.25 112.617188 131.542969 C 112.617188 131.644531 112.660156 131.671875 112.753906 131.625 C 123.492188 126.042969 133.164062 119.171875 141.773438 111.011719 C 144.605469 108.328125 147.335938 105.308594 149.964844 101.953125 C 151.023438 100.601562 151.292969 99.816406 151.175781 98.15625 C 151.101562 97.152344 151.082031 94.898438 151.105469 91.386719 C 151.105469 91.25 151.050781 91.144531 150.933594 91.074219 L 150.128906 90.582031 C 150.023438 90.519531 149.914062 90.515625 149.804688 90.582031 L 117.835938 109.203125 C 117.628906 109.324219 117.519531 109.503906 117.515625 109.75 C 117.414062 112.957031 115.914062 115.964844 113 117.355469 Z M 87.742188 110.859375 C 95.460938 112.140625 100.183594 119.042969 98.597656 126.691406 C 98.5 127.179688 98.554688 127.488281 99.011719 127.757812 C 101.269531 129.085938 103.539062 130.414062 105.808594 131.746094 C 105.871094 131.78125 105.933594 131.78125 106 131.746094 C 106.0625 131.710938 106.09375 131.65625 106.09375 131.582031 L 106.09375 117.8125 C 106.09375 117.707031 106.046875 117.628906 105.953125 117.578125 C 102.546875 115.796875 101.480469 113.113281 101.113281 109.511719 C 101.101562 109.394531 101.046875 109.308594 100.945312 109.253906 C 90.4375 103.214844 79.9375 97.15625 69.449219 91.085938 C 68.367188 90.460938 67.695312 91.117188 67.621094 92.246094 C 67.476562 94.445312 67.488281 96.65625 67.652344 98.878906 C 67.664062 98.988281 67.699219 99.085938 67.761719 99.175781 C 71.023438 103.726562 74.675781 107.9375 78.71875 111.8125 C 79.035156 112.117188 79.347656 112.421875 79.78125 112.214844 C 82.414062 110.960938 84.820312 110.371094 87.742188 110.859375 Z M 64.140625 136.613281 C 64.0625 136.570312 64.023438 136.5 64.023438 136.410156 C 64.027344 126.933594 64.027344 117.460938 64.019531 108 C 64.019531 107.019531 61.996094 104.78125 61.378906 103.902344 C 61.34375 103.851562 61.296875 103.824219 61.234375 103.824219 C 61.175781 103.824219 61.125 103.847656 61.085938 103.894531 C 59.800781 105.585938 58.5625 107.273438 57.371094 108.960938 C 50.019531 119.378906 44.890625 136.589844 61.53125 141.890625 C 66.097656 143.347656 70.382812 143.246094 75.074219 143.25 C 75.476562 143.25 75.503906 143.152344 75.152344 142.949219 Z M 154.539062 136.621094 L 141.71875 143.976562 C 141.652344 144.019531 141.628906 144.074219 141.648438 144.148438 C 141.667969 144.222656 141.71875 144.257812 141.792969 144.253906 C 143.679688 144.210938 145.605469 144.214844 147.570312 144.273438 C 151.511719 144.390625 157.832031 143.136719 161.359375 140.621094 C 165.054688 137.988281 167.015625 134.378906 167.246094 129.785156 C 167.671875 121.222656 163.28125 113.730469 158.660156 106.929688 C 158.613281 106.863281 158.554688 106.824219 158.472656 106.816406 C 158.394531 106.808594 158.328125 106.828125 158.269531 106.882812 C 156.980469 108.0625 155.820312 109.351562 154.78125 110.753906 C 154.71875 110.839844 154.683594 110.9375 154.683594 111.046875 L 154.683594 136.371094 C 154.683594 136.480469 154.636719 136.566406 154.539062 136.621094 Z M 67.988281 129.421875 C 70.851562 130.445312 72.230469 134.179688 72.214844 136.960938 C 72.214844 137.078125 72.265625 137.164062 72.367188 137.222656 L 81.347656 142.496094 C 81.445312 142.554688 81.550781 142.574219 81.664062 142.554688 C 87.554688 141.519531 93.296875 139.945312 98.890625 137.824219 C 98.949219 137.800781 98.980469 137.757812 98.988281 137.695312 C 98.992188 137.628906 98.96875 137.582031 98.914062 137.546875 L 93.699219 134.273438 C 93.59375 134.207031 93.496094 134.210938 93.394531 134.28125 C 83.003906 141.507812 69.28125 131.253906 73.679688 119.277344 C 73.871094 118.765625 73.902344 118.320312 73.5 117.949219 C 71.457031 116.082031 69.648438 114.183594 68.070312 112.253906 C 67.761719 111.875 67.605469 111.929688 67.609375 112.421875 L 67.613281 128.894531 C 67.613281 129.160156 67.738281 129.335938 67.988281 129.421875 Z M 146.484375 135.660156 C 146.816406 132.902344 148.144531 130.761719 150.472656 129.238281 C 150.890625 128.964844 151.097656 128.6875 151.097656 128.40625 C 151.097656 123.792969 151.097656 119.246094 151.09375 114.761719 C 151.09375 114.703125 151.066406 114.664062 151.011719 114.640625 C 150.957031 114.617188 150.910156 114.628906 150.867188 114.667969 C 141.21875 123.894531 130.476562 131.601562 118.632812 137.792969 C 118.566406 137.828125 118.566406 137.859375 118.636719 137.886719 C 124.078125 140.148438 129.6875 141.886719 135.457031 143.097656 C 135.636719 143.136719 135.804688 143.109375 135.960938 143.019531 L 146.285156 137.058594 C 146.394531 136.996094 146.464844 136.902344 146.5 136.785156 C 146.601562 136.414062 146.445312 135.972656 146.484375 135.660156 Z M 94.472656 123.925781 C 94.472656 123.375 94.421875 122.832031 94.3125 122.292969 C 94.207031 121.757812 94.046875 121.234375 93.835938 120.726562 C 93.628906 120.21875 93.371094 119.738281 93.066406 119.28125 C 92.761719 118.824219 92.414062 118.402344 92.027344 118.015625 C 91.636719 117.628906 91.214844 117.28125 90.757812 116.976562 C 90.304688 116.671875 89.820312 116.414062 89.3125 116.203125 C 88.808594 115.992188 88.285156 115.835938 87.746094 115.726562 C 87.207031 115.621094 86.664062 115.566406 86.117188 115.566406 C 85.566406 115.566406 85.023438 115.621094 84.484375 115.726562 C 83.945312 115.835938 83.425781 115.992188 82.917969 116.203125 C 82.410156 116.414062 81.929688 116.671875 81.472656 116.976562 C 81.015625 117.28125 80.59375 117.628906 80.207031 118.015625 C 79.816406 118.402344 79.472656 118.824219 79.164062 119.28125 C 78.859375 119.738281 78.601562 120.21875 78.394531 120.726562 C 78.183594 121.234375 78.023438 121.757812 77.917969 122.292969 C 77.8125 122.832031 77.757812 123.375 77.757812 123.925781 C 77.757812 124.472656 77.8125 125.019531 77.917969 125.554688 C 78.023438 126.09375 78.183594 126.617188 78.394531 127.125 C 78.601562 127.632812 78.859375 128.113281 79.164062 128.570312 C 79.472656 129.027344 79.816406 129.449219 80.207031 129.835938 C 80.59375 130.222656 81.015625 130.570312 81.472656 130.875 C 81.929688 131.179688 82.410156 131.4375 82.917969 131.648438 C 83.425781 131.859375 83.945312 132.015625 84.484375 132.125 C 85.023438 132.230469 85.566406 132.285156 86.117188 132.285156 C 86.664062 132.285156 87.207031 132.230469 87.746094 132.125 C 88.285156 132.015625 88.808594 131.859375 89.3125 131.648438 C 89.820312 131.4375 90.304688 131.179688 90.757812 130.875 C 91.214844 130.570312 91.636719 130.222656 92.027344 129.835938 C 92.414062 129.449219 92.761719 129.027344 93.066406 128.570312 C 93.371094 128.113281 93.628906 127.632812 93.835938 127.125 C 94.046875 126.617188 94.207031 126.09375 94.3125 125.554688 C 94.421875 125.019531 94.472656 124.472656 94.472656 123.925781 Z M 92.105469 148.605469 L 104.519531 155.8125 C 104.632812 155.878906 104.742188 155.878906 104.855469 155.820312 L 105.929688 155.226562 C 106.039062 155.164062 106.09375 155.074219 106.09375 154.949219 L 106.09375 143.757812 C 106.09375 143.71875 106.078125 143.6875 106.042969 143.667969 C 106.011719 143.644531 105.980469 143.644531 105.941406 143.660156 C 101.449219 145.539062 96.847656 147.101562 92.140625 148.351562 C 92.082031 148.367188 92.050781 148.40625 92.042969 148.46875 C 92.03125 148.527344 92.054688 148.574219 92.105469 148.605469 Z M 124.332031 149.578125 C 120.378906 148.347656 116.597656 146.722656 112.820312 145.003906 C 112.714844 144.953125 112.660156 144.988281 112.65625 145.105469 C 112.5625 149.964844 112.554688 153.132812 112.636719 154.601562 C 112.722656 156.121094 114.707031 155.3125 115.394531 154.914062 C 118.375 153.195312 121.363281 151.464844 124.347656 149.722656 C 124.378906 149.703125 124.394531 149.679688 124.390625 149.644531 C 124.386719 149.609375 124.367188 149.585938 124.332031 149.578125 Z M 124.332031 149.578125 " fill-opacity="1" fill-rule="nonzero"/></svg>