<svg xmlns="http://www.w3.org/2000/svg" xmlns:xlink="http://www.w3.org/1999/xlink" width="573" zoomAndPan="magnify" viewBox="0 0 429.75 227.249992" height="303" preserveAspectRatio="xMidYMid meet" version="1.0"><defs><g/></defs><path stroke-linecap="butt" transform="matrix(0.747646, 0, 0, 0.747646, 25.773495, 25.191251)" fill="none" stroke-linejoin="miter" d="M 157.243436 51.813868 L 158.356304 46.354024 " stroke="#f4f4f5" stroke-width="2" stroke-opacity="0.9569" stroke-miterlimit="4"/><path stroke-linecap="butt" transform="matrix(0.747646, 0, 0, 0.747646, 25.773495, 25.191251)" fill="none" stroke-linejoin="miter" d="M 125.18971 52.304993 C 125.560666 52.681174 125.989094 52.999882 126.474994 53.255894 C 126.992242 53.52758 127.51994 53.773143 128.058087 53.987357 " stroke="#b9b9ba" stroke-width="2" stroke-opacity="0.8941" stroke-miterlimit="4"/><path stroke-linecap="butt" transform="matrix(0.747646, 0, 0, 0.747646, 25.773495, 25.191251)" fill="none" stroke-linejoin="miter" d="M 171.329312 94.327507 L 167.342842 100.126959 " stroke="#d7d7d7" stroke-width="2" stroke-opacity="1" stroke-miterlimit="4"/><path stroke-linecap="butt" transform="matrix(0.747646, 0, 0, 0.747646, 25.773495, 25.191251)" fill="none" stroke-linejoin="miter" d="M 114.97536 142.901834 L 110.664957 145.090996 C 110.429844 145.21639 110.194731 145.211165 109.964843 145.085772 L 106.647138 143.267565 " stroke="#d7d7d7" stroke-width="2" stroke-opacity="1" stroke-miterlimit="4"/><path stroke-linecap="butt" transform="matrix(0.747646, 0, 0, 0.747646, 25.773495, 25.191251)" fill="none" stroke-linejoin="miter" d="M 54.368477 97.906448 C 52.722687 95.988972 51.343357 93.956551 50.23049 91.814411 " stroke="#d7d7d7" stroke-width="2" stroke-opacity="1" stroke-miterlimit="4"/><path stroke-linecap="butt" transform="matrix(0.747646, 0, 0, 0.747646, 25.773495, 25.191251)" fill="none" stroke-linejoin="miter" d="M 94.672054 53.229771 C 95.199752 53.109602 95.696102 52.848365 96.161103 52.451286 " stroke="#b9b9ba" stroke-width="2" stroke-opacity="0.8941" stroke-miterlimit="4"/><path stroke-linecap="butt" transform="matrix(0.747646, 0, 0, 0.747646, 25.773495, 25.191251)" fill="none" stroke-linejoin="miter" d="M 178.215508 106.03613 L 176.439099 108.26709 " stroke="#dadbdb" stroke-width="2" stroke-opacity="0.8235" stroke-miterlimit="4"/><path stroke-linecap="butt" transform="matrix(0.747646, 0, 0, 0.747646, 25.773495, 25.191251)" fill="none" stroke-linejoin="miter" d="M 171.277065 114.369576 L 167.013684 118.559811 " stroke="#d7d7d7" stroke-width="2" stroke-opacity="1" stroke-miterlimit="4"/><path stroke-linecap="butt" transform="matrix(0.747646, 0, 0, 0.747646, 25.773495, 25.191251)" fill="none" stroke-linejoin="miter" d="M 146.360321 158.116251 C 148.685326 158.649174 150.95286 159.009681 153.168146 159.202996 " stroke="#d7d7d7" stroke-width="2" stroke-opacity="1" stroke-miterlimit="4"/><path stroke-linecap="butt" transform="matrix(0.747646, 0, 0, 0.747646, 25.773495, 25.191251)" fill="none" stroke-linejoin="miter" d="M 173.272912 158.100577 L 173.528924 158.205072 C 173.675216 158.267769 173.685666 158.34614 173.565497 158.450634 L 173.272912 158.701421 C 173.079597 158.868613 173.105721 158.988782 173.356508 159.051478 C 174.887354 159.453783 175.556119 160.739067 176.857078 161.282439 C 176.987696 161.334686 177.097415 161.418282 177.186236 161.533226 C 177.698259 162.196767 178.325227 162.724464 179.067139 163.111095 C 179.088038 163.121544 179.077588 163.126769 179.051465 163.131994 C 179.025341 163.131994 179.004442 163.142443 178.988768 163.152892 C 178.941745 163.179016 178.95742 163.220814 179.041015 163.267837 C 179.91877 163.758961 180.718154 164.354581 181.449616 165.044245 C 181.449616 165.185313 181.512313 165.242785 181.642931 165.216661 C 181.794449 165.185313 181.914617 165.232336 181.998213 165.368179 C 182.34827 165.927225 182.839395 166.334754 183.471587 166.590766 C 183.492486 166.59599 183.487262 166.601215 183.461138 166.60644 C 183.445464 166.611665 183.435014 166.616889 183.41934 166.616889 C 183.393216 166.632563 183.393216 166.653462 183.41934 166.690036 C 184.563556 168.278354 185.540581 167.426723 186.904236 166.98262 C 187.045304 166.935598 187.165472 166.862452 187.275192 166.763182 C 187.808114 166.266832 188.158171 166.360877 188.330588 167.040093 " stroke="#f4f4f5" stroke-width="2" stroke-opacity="0.9569" stroke-miterlimit="4"/><path stroke-linecap="butt" transform="matrix(0.747646, 0, 0, 0.747646, 25.773495, 25.191251)" fill="none" stroke-linejoin="miter" d="M 137.128221 168.25223 L 131.563882 166.313855 " stroke="#d7d7d7" stroke-width="2" stroke-opacity="1" stroke-miterlimit="4"/><path stroke-linecap="butt" transform="matrix(0.747646, 0, 0, 0.747646, 25.773495, 25.191251)" fill="none" stroke-linejoin="miter" d="M 114.964911 159.6053 L 109.661808 157.07653 C 109.520741 157.008608 109.374448 156.992934 109.222931 157.024283 C 108.277254 157.217598 107.383825 157.55198 106.537419 158.027431 " stroke="#d7d7d7" stroke-width="2" stroke-opacity="1" stroke-miterlimit="4"/><path stroke-linecap="butt" transform="matrix(0.747646, 0, 0, 0.747646, 25.773495, 25.191251)" fill="none" stroke-linejoin="miter" d="M 86.552822 164.715087 L 80.680224 166.183237 " stroke="#d7d7d7" stroke-width="2" stroke-opacity="1" stroke-miterlimit="4"/><path stroke-linecap="butt" transform="matrix(0.747646, 0, 0, 0.747646, 25.773495, 25.191251)" fill="none" stroke-linejoin="miter" d="M 72.080316 167.405824 L 68.950702 167.614813 C 68.79396 167.625262 68.783511 167.593914 68.924578 167.515543 L 69.990424 166.935598 C 70.115817 166.862452 70.25166 166.836328 70.392728 166.857227 C 70.653964 166.8938 70.894302 166.836328 71.098067 166.690036 C 71.218235 166.601215 71.359303 166.554193 71.51082 166.543743 C 72.09599 166.512395 72.618463 166.287731 73.06779 165.880202 C 73.16706 165.791382 73.282004 165.728685 73.412623 165.697337 C 73.877624 165.582393 74.112737 165.284583 74.123186 164.798683 C 74.128411 164.683739 74.170209 164.584469 74.243355 164.495648 L 75.089761 163.502949 C 75.225604 163.340983 75.20993 163.199915 75.047963 163.079746 C 73.642511 161.998227 71.641439 160.995078 70.586043 160.362886 C 69.598569 159.772491 67.195192 158.774568 67.388507 158.13715 " stroke="#f4f4f5" stroke-width="2" stroke-opacity="0.9569" stroke-miterlimit="4"/><path stroke-linecap="butt" transform="matrix(0.747646, 0, 0, 0.747646, 25.773495, 25.191251)" fill="none" stroke-linejoin="miter" d="M 67.388507 158.13715 C 69.36868 158.111027 71.307056 157.787093 73.203633 157.16535 " stroke="#d7d7d7" stroke-width="2" stroke-opacity="1" stroke-miterlimit="4"/><path stroke-linecap="butt" transform="matrix(0.747646, 0, 0, 0.747646, 25.773495, 25.191251)" fill="none" stroke-linejoin="miter" d="M 54.535668 114.824128 L 50.32976 110.001701 " stroke="#d7d7d7" stroke-width="2" stroke-opacity="1" stroke-miterlimit="4"/><path stroke-linecap="butt" transform="matrix(0.747646, 0, 0, 0.747646, 25.773495, 25.191251)" fill="none" stroke-linejoin="miter" d="M 46.489582 104.411238 L 46.03503 103.810394 " stroke="#d6d6d6" stroke-width="2" stroke-opacity="0.7765" stroke-miterlimit="4"/><path stroke-linecap="butt" transform="matrix(0.747646, 0, 0, 0.747646, 25.773495, 25.191251)" fill="none" stroke-linejoin="miter" d="M 47.654697 58.794109 C 46.635875 58.726188 45.721547 59.060571 44.916938 59.786808 C 44.807219 59.886078 44.692275 59.891303 44.572106 59.807707 C 44.420589 59.703213 43.490586 58.705289 43.459238 58.715738 C 43.333844 58.736637 43.245024 58.69484 43.187552 58.58512 L 42.482213 57.231915 C 42.419516 57.096072 42.388168 56.955004 42.388168 56.808712 C 42.409067 56.171294 42.555359 55.565225 42.821821 54.99573 C 42.879293 54.870336 42.84272 54.78674 42.722551 54.739718 C 42.659854 54.713594 42.597157 54.70837 42.529236 54.724044 " stroke="#f4f4f5" stroke-width="2" stroke-opacity="0.9569" stroke-miterlimit="4"/><path stroke-linecap="butt" transform="matrix(0.747646, 0, 0, 0.747646, 25.773495, 25.191251)" fill="none" stroke-linejoin="miter" d="M 67.388507 158.13715 L 66.719742 158.225971 " stroke="#cacacb" stroke-width="2" stroke-opacity="0.9569" stroke-miterlimit="4"/><path fill="#ffffff" d="M 143.335938 63.929688 L 144.167969 59.847656 C 144.378906 59.882812 144.527344 59.820312 144.617188 59.65625 C 150.324219 49.105469 166.175781 50.695312 168.652344 62.796875 C 170.585938 72.277344 161.839844 80.375 152.550781 77.734375 C 146.515625 76.015625 142.71875 70.238281 143.335938 63.929688 Z M 143.335938 63.929688 " fill-opacity="1" fill-rule="nonzero"/><path fill="#afafaf" d="M 119.371094 64.296875 C 119.648438 64.578125 119.96875 64.816406 120.332031 65.007812 C 120.71875 65.210938 121.113281 65.394531 121.515625 65.554688 C 132.183594 71.667969 142.835938 77.804688 153.464844 83.960938 C 153.761719 84.132812 153.914062 84.355469 153.910156 84.625 C 153.863281 88.320312 153.851562 92.015625 153.867188 95.714844 L 150.886719 100.050781 C 150.734375 97.097656 150.699219 94.21875 150.78125 91.414062 C 150.785156 91.296875 150.738281 91.207031 150.640625 91.148438 L 149.3125 90.351562 C 149.214844 90.292969 149.113281 90.292969 149.015625 90.351562 L 116.515625 109.285156 C 116.414062 109.347656 116.363281 109.4375 116.367188 109.554688 C 116.472656 113.125 114.972656 115.71875 111.867188 117.339844 C 111.765625 117.394531 111.714844 117.480469 111.714844 117.59375 L 111.734375 132.03125 L 108.511719 133.667969 C 108.335938 133.761719 108.160156 133.757812 107.988281 133.664062 L 105.507812 132.304688 L 105.480469 117.621094 C 105.480469 117.511719 105.433594 117.429688 105.335938 117.378906 C 102.210938 115.726562 100.691406 113.105469 100.78125 109.519531 C 100.785156 109.410156 100.742188 109.332031 100.648438 109.28125 L 68.226562 90.578125 C 68.117188 90.511719 68.003906 90.511719 67.890625 90.578125 L 66.589844 91.308594 C 66.5 91.359375 66.453125 91.433594 66.453125 91.539062 L 66.421875 98.390625 C 65.191406 96.957031 64.160156 95.4375 63.328125 93.835938 L 63.355469 84.417969 C 63.355469 84.253906 63.425781 84.132812 63.566406 84.050781 L 96.554688 64.988281 C 96.949219 64.898438 97.320312 64.703125 97.667969 64.40625 L 108.46875 58.164062 C 108.566406 58.109375 108.660156 58.113281 108.757812 58.167969 Z M 104.109375 103.867188 C 106.890625 102.007812 110.273438 101.957031 113.042969 103.878906 C 113.144531 103.949219 113.246094 103.953125 113.351562 103.890625 L 145.863281 85.132812 C 145.957031 85.078125 146.003906 85 146.003906 84.890625 L 146.011719 83.460938 C 146.011719 83.328125 145.953125 83.226562 145.839844 83.15625 L 113.335938 64.40625 C 113.261719 64.363281 113.1875 64.367188 113.113281 64.417969 C 110.464844 66.175781 107.703125 66.335938 104.828125 64.898438 C 104.625 64.792969 104.355469 64.542969 104.089844 64.433594 C 103.980469 64.382812 103.871094 64.390625 103.765625 64.453125 L 71.332031 83.164062 C 71.234375 83.222656 71.183594 83.304688 71.183594 83.417969 L 71.183594 84.886719 C 71.183594 85 71.234375 85.089844 71.339844 85.148438 L 103.804688 103.875 C 103.90625 103.933594 104.007812 103.929688 104.109375 103.867188 Z M 104.109375 103.867188 " fill-opacity="1" fill-rule="nonzero"/><path fill="#e7e8e9" d="M 144.167969 59.847656 L 143.335938 63.929688 C 140.855469 63.53125 138.355469 63.359375 135.835938 63.414062 L 135.429688 63.332031 C 135.3125 63.308594 135.3125 63.296875 135.433594 63.292969 L 137.386719 63.191406 C 137.519531 63.183594 137.539062 63.132812 137.445312 63.039062 L 137.363281 62.957031 C 137.273438 62.867188 137.265625 62.773438 137.335938 62.667969 C 137.480469 62.460938 137.671875 62.335938 137.914062 62.304688 C 138 62.292969 138.046875 62.242188 138.046875 62.15625 C 138.0625 61.777344 138.222656 61.441406 138.539062 61.148438 C 138.59375 61.09375 138.613281 61.03125 138.589844 60.953125 C 138.566406 60.878906 138.515625 60.832031 138.4375 60.820312 C 137.105469 60.578125 135.804688 60.625 134.542969 60.957031 C 134.359375 61.003906 134.191406 60.933594 134.042969 60.75 C 137.375 60.125 140.75 59.824219 144.167969 59.847656 Z M 144.167969 59.847656 " fill-opacity="0.9098" fill-rule="nonzero"/><path fill="#c5c6c7" d="M 135.835938 63.414062 C 130.957031 63.667969 126.183594 64.378906 121.515625 65.554688 C 121.113281 65.394531 120.71875 65.210938 120.332031 65.007812 C 119.96875 64.816406 119.648438 64.578125 119.371094 64.296875 C 124.164062 62.683594 129.054688 61.503906 134.042969 60.75 C 134.191406 60.933594 134.359375 61.003906 134.542969 60.957031 C 135.804688 60.625 137.105469 60.578125 138.4375 60.820312 C 138.515625 60.832031 138.566406 60.878906 138.589844 60.953125 C 138.613281 61.03125 138.59375 61.09375 138.539062 61.148438 C 138.222656 61.441406 138.0625 61.777344 138.046875 62.15625 C 138.046875 62.242188 138 62.292969 137.914062 62.304688 C 137.671875 62.335938 137.480469 62.460938 137.335938 62.667969 C 137.265625 62.773438 137.273438 62.867188 137.363281 62.957031 L 137.445312 63.039062 C 137.539062 63.132812 137.519531 63.183594 137.386719 63.191406 L 135.433594 63.292969 C 135.3125 63.296875 135.3125 63.308594 135.429688 63.332031 Z M 135.835938 63.414062 " fill-opacity="0.7843" fill-rule="nonzero"/><path fill="#c5c6c7" d="M 97.667969 64.40625 C 97.320312 64.703125 96.949219 64.898438 96.554688 64.988281 C 89.46875 62.625 82.320312 61.804688 75.105469 62.523438 C 73.539062 62.683594 71.746094 63.054688 69.730469 63.636719 C 69.382812 63.503906 69.050781 63.539062 68.734375 63.738281 C 68.640625 63.792969 68.539062 63.832031 68.433594 63.84375 L 65.941406 64.179688 C 65.847656 64.191406 65.757812 64.175781 65.671875 64.132812 C 65.484375 64.039062 65.28125 63.988281 65.066406 63.984375 C 65.007812 63.984375 64.953125 63.96875 64.902344 63.941406 L 64.566406 63.734375 C 64.488281 63.6875 64.492188 63.652344 64.582031 63.628906 L 64.722656 63.59375 C 64.792969 63.578125 64.832031 63.535156 64.84375 63.46875 C 64.910156 63.050781 65.207031 62.71875 65.632812 62.59375 C 67.386719 62.070312 69.164062 61.613281 70.957031 61.214844 C 80.136719 60.015625 88.6875 62.386719 97.667969 64.40625 Z M 97.667969 64.40625 " fill-opacity="0.7843" fill-rule="nonzero"/><path fill="#e7e8e9" d="M 70.957031 61.214844 C 69.164062 61.613281 67.386719 62.070312 65.632812 62.59375 C 65.207031 62.71875 64.910156 63.050781 64.84375 63.46875 C 64.832031 63.535156 64.792969 63.578125 64.722656 63.59375 L 64.582031 63.628906 C 64.492188 63.652344 64.488281 63.6875 64.566406 63.734375 L 64.902344 63.941406 C 64.953125 63.96875 65.007812 63.984375 65.066406 63.984375 C 65.28125 63.988281 65.484375 64.039062 65.671875 64.132812 C 65.757812 64.175781 65.847656 64.191406 65.941406 64.179688 L 68.433594 63.84375 C 68.539062 63.832031 68.640625 63.792969 68.734375 63.738281 C 69.050781 63.539062 69.382812 63.503906 69.730469 63.636719 C 66.375 64.65625 63.597656 66.492188 61.402344 69.148438 C 60.640625 69.097656 59.957031 69.347656 59.355469 69.890625 C 59.273438 69.964844 59.1875 69.96875 59.097656 69.90625 C 58.984375 69.828125 58.289062 69.082031 58.265625 69.089844 C 58.171875 69.105469 58.105469 69.074219 58.0625 68.992188 L 57.535156 67.980469 C 57.488281 67.878906 57.464844 67.773438 57.464844 67.664062 C 57.480469 67.1875 57.589844 66.734375 57.789062 66.308594 C 57.832031 66.214844 57.804688 66.152344 57.714844 66.117188 C 57.667969 66.097656 57.621094 66.09375 57.570312 66.105469 C 61.289062 63.109375 66.242188 61.574219 70.957031 61.214844 Z M 70.957031 61.214844 " fill-opacity="0.9098" fill-rule="nonzero"/><path fill="#ffffff" d="M 57.570312 66.105469 C 57.621094 66.09375 57.667969 66.097656 57.714844 66.117188 C 57.804688 66.152344 57.832031 66.214844 57.789062 66.308594 C 57.589844 66.734375 57.480469 67.1875 57.464844 67.664062 C 57.464844 67.773438 57.488281 67.878906 57.535156 67.980469 L 58.0625 68.992188 C 58.105469 69.074219 58.171875 69.105469 58.265625 69.089844 C 58.289062 69.082031 58.984375 69.828125 59.097656 69.90625 C 59.1875 69.96875 59.273438 69.964844 59.355469 69.890625 C 59.957031 69.347656 60.640625 69.097656 61.402344 69.148438 C 56.035156 76.628906 59.15625 86.660156 63.328125 93.835938 C 64.160156 95.4375 65.191406 96.957031 66.421875 98.390625 C 66.503906 98.839844 66.609375 99.152344 66.742188 99.335938 C 70.214844 104.140625 74.101562 108.578125 78.40625 112.65625 C 78.484375 112.730469 78.570312 112.738281 78.664062 112.6875 C 87.644531 107.625 97.503906 113.816406 98.007812 123.835938 C 98.035156 124.390625 97.847656 125.574219 97.4375 127.382812 C 97.410156 127.496094 97.445312 127.585938 97.542969 127.644531 C 100.152344 129.300781 102.804688 130.855469 105.507812 132.304688 L 107.988281 133.664062 C 108.160156 133.757812 108.335938 133.761719 108.511719 133.667969 L 111.734375 132.03125 C 121.867188 126.851562 131.183594 120.375 139.6875 112.613281 C 143.921875 108.746094 147.65625 104.558594 150.886719 100.050781 L 153.867188 95.714844 C 157.046875 90.714844 159.265625 84.839844 159.324219 78.871094 C 159.324219 78.707031 159.410156 78.601562 159.570312 78.558594 C 163.738281 77.507812 166.75 75.050781 168.605469 71.191406 C 168.621094 71.160156 168.644531 71.144531 168.683594 71.144531 C 168.71875 71.148438 168.742188 71.164062 168.753906 71.199219 C 173.238281 82.824219 165.789062 95.535156 159.015625 104.46875 L 157.6875 106.136719 C 156.300781 107.578125 155.011719 109.097656 153.828125 110.699219 L 150.640625 113.832031 C 140.628906 123.445312 129.476562 131.441406 117.1875 137.820312 C 117.167969 137.832031 117.15625 137.847656 117.15625 137.871094 C 117.160156 137.890625 117.167969 137.90625 117.191406 137.914062 C 123.046875 140.429688 129.050781 142.261719 135.199219 143.40625 C 136.9375 143.804688 138.632812 144.074219 140.289062 144.21875 C 145.398438 144.929688 150.410156 144.652344 155.320312 143.394531 L 155.511719 143.472656 C 155.621094 143.519531 155.628906 143.578125 155.539062 143.65625 L 155.320312 143.84375 C 155.175781 143.96875 155.195312 144.058594 155.382812 144.105469 C 156.527344 144.40625 157.027344 145.367188 158 145.773438 C 158.097656 145.8125 158.179688 145.875 158.246094 145.960938 C 158.628906 146.457031 159.097656 146.851562 159.652344 147.140625 C 159.667969 147.148438 159.660156 147.152344 159.640625 147.15625 C 159.621094 147.15625 159.605469 147.164062 159.59375 147.171875 C 159.558594 147.191406 159.570312 147.222656 159.632812 147.257812 C 160.289062 147.625 160.886719 148.070312 161.433594 148.585938 C 161.433594 148.691406 161.480469 148.734375 161.578125 148.714844 C 161.691406 148.691406 161.78125 148.726562 161.84375 148.828125 C 162.105469 149.246094 162.472656 149.550781 162.945312 149.742188 C 162.960938 149.746094 162.957031 149.75 162.9375 149.753906 C 162.925781 149.757812 162.917969 149.761719 162.90625 149.761719 C 162.886719 149.773438 162.886719 149.789062 162.90625 149.816406 C 163.761719 151.003906 164.492188 150.367188 165.511719 150.035156 C 165.617188 150 165.707031 149.945312 165.789062 149.871094 C 166.1875 149.5 166.449219 149.570312 166.578125 150.078125 C 160.742188 153.730469 153.632812 154.660156 146.929688 154.1875 C 140.605469 153.746094 134.394531 152.675781 128.296875 150.984375 L 124.136719 149.535156 C 119.945312 148.007812 115.808594 146.335938 111.726562 144.519531 L 107.761719 142.628906 C 107.65625 142.578125 107.546875 142.566406 107.433594 142.589844 C 106.726562 142.734375 106.058594 142.984375 105.425781 143.339844 C 100.546875 145.230469 95.566406 146.898438 90.484375 148.339844 L 86.09375 149.4375 L 79.664062 150.351562 L 77.324219 150.507812 C 77.207031 150.515625 77.199219 150.492188 77.304688 150.433594 L 78.101562 150 C 78.195312 149.945312 78.296875 149.925781 78.402344 149.941406 C 78.597656 149.96875 78.777344 149.925781 78.929688 149.816406 C 79.019531 149.75 79.125 149.714844 79.238281 149.707031 C 79.675781 149.683594 80.066406 149.515625 80.402344 149.210938 C 80.476562 149.144531 80.5625 149.097656 80.660156 149.074219 C 81.007812 148.988281 81.183594 148.765625 81.191406 148.402344 C 81.195312 148.316406 81.226562 148.242188 81.28125 148.175781 L 81.914062 147.433594 C 82.015625 147.3125 82.003906 147.207031 81.882812 147.117188 C 80.832031 146.308594 79.335938 145.558594 78.546875 145.085938 C 77.808594 144.644531 76.011719 143.898438 76.15625 143.421875 C 77.636719 143.402344 79.085938 143.160156 80.503906 142.695312 C 80.886719 142.777344 81.339844 142.769531 81.867188 142.671875 C 87.769531 141.542969 93.441406 139.929688 98.890625 137.835938 C 99.019531 137.789062 99.023438 137.726562 98.90625 137.652344 L 93.015625 133.945312 C 92.980469 133.921875 92.945312 133.921875 92.910156 133.945312 C 87.308594 137.757812 80.550781 137.351562 75.90625 132.480469 C 72.292969 128.691406 71.460938 123.996094 73.410156 118.398438 C 73.445312 118.296875 73.425781 118.210938 73.351562 118.136719 L 66.546875 111.039062 L 63.402344 107.433594 C 62.597656 105.996094 61.640625 104.601562 60.53125 103.253906 L 60.191406 102.804688 C 59.378906 101.46875 58.566406 100.132812 57.753906 98.800781 C 52.027344 89.410156 47.230469 74.398438 57.570312 66.105469 Z M 93.890625 123.921875 C 93.890625 123.363281 93.835938 122.808594 93.726562 122.257812 C 93.617188 121.707031 93.457031 121.175781 93.242188 120.65625 C 93.027344 120.140625 92.765625 119.648438 92.453125 119.183594 C 92.144531 118.71875 91.789062 118.285156 91.394531 117.890625 C 90.996094 117.492188 90.566406 117.140625 90.101562 116.828125 C 89.636719 116.519531 89.144531 116.253906 88.625 116.039062 C 88.109375 115.824219 87.574219 115.664062 87.023438 115.554688 C 86.476562 115.445312 85.921875 115.390625 85.359375 115.390625 C 84.800781 115.390625 84.246094 115.445312 83.695312 115.554688 C 83.148438 115.664062 82.613281 115.824219 82.097656 116.039062 C 81.578125 116.253906 81.085938 116.519531 80.621094 116.828125 C 80.15625 117.140625 79.726562 117.492188 79.328125 117.890625 C 78.933594 118.285156 78.578125 118.71875 78.269531 119.183594 C 77.957031 119.648438 77.695312 120.140625 77.480469 120.65625 C 77.265625 121.175781 77.101562 121.707031 76.992188 122.257812 C 76.882812 122.808594 76.828125 123.363281 76.828125 123.921875 C 76.828125 124.480469 76.882812 125.039062 76.992188 125.585938 C 77.101562 126.136719 77.265625 126.667969 77.480469 127.1875 C 77.695312 127.703125 77.957031 128.195312 78.269531 128.660156 C 78.578125 129.128906 78.933594 129.558594 79.328125 129.953125 C 79.726562 130.351562 80.15625 130.703125 80.621094 131.015625 C 81.085938 131.328125 81.578125 131.589844 82.097656 131.804688 C 82.613281 132.019531 83.148438 132.179688 83.695312 132.289062 C 84.246094 132.398438 84.800781 132.453125 85.359375 132.453125 C 85.921875 132.453125 86.476562 132.398438 87.023438 132.289062 C 87.574219 132.179688 88.109375 132.019531 88.625 131.804688 C 89.144531 131.589844 89.636719 131.328125 90.101562 131.015625 C 90.566406 130.703125 90.996094 130.351562 91.394531 129.953125 C 91.789062 129.558594 92.144531 129.128906 92.453125 128.660156 C 92.765625 128.195312 93.027344 127.703125 93.242188 127.1875 C 93.457031 126.667969 93.617188 126.136719 93.726562 125.585938 C 93.835938 125.039062 93.890625 124.480469 93.890625 123.921875 Z M 93.890625 123.921875 " fill-opacity="1" fill-rule="nonzero"/><path fill="#8a8b8b" d="M 60.191406 102.804688 L 60.53125 103.253906 C 53.863281 111.53125 44.324219 126.464844 52.460938 136.988281 L 53.5 138.695312 C 53.566406 138.804688 53.535156 138.867188 53.410156 138.882812 C 53.300781 138.890625 53.140625 138.800781 52.933594 138.605469 C 52.832031 138.515625 52.730469 138.519531 52.632812 138.617188 L 51.472656 139.800781 C 51.472656 139.804688 51.472656 139.808594 51.476562 139.808594 L 51.625 139.808594 C 51.71875 139.804688 51.730469 139.835938 51.667969 139.90625 L 50.890625 140.71875 C 50.816406 140.796875 50.816406 140.824219 50.882812 140.796875 C 50.902344 140.792969 50.925781 140.777344 50.945312 140.757812 C 51.164062 140.554688 51.175781 140.601562 50.980469 140.898438 C 50.71875 141.300781 50.367188 141.546875 49.921875 141.644531 C 49.496094 141.734375 49.46875 141.769531 49.84375 141.746094 L 49.96875 141.742188 C 50.050781 141.738281 50.070312 141.769531 50.015625 141.835938 L 49.605469 142.390625 C 49.597656 142.402344 49.589844 142.402344 49.578125 142.390625 C 49.535156 142.339844 49.476562 142.292969 49.402344 142.25 C 49.34375 142.21875 49.289062 142.226562 49.242188 142.265625 C 49.183594 142.316406 49.15625 142.398438 49.160156 142.511719 C 40.28125 130.125 51.585938 111.90625 60.191406 102.804688 Z M 60.191406 102.804688 " fill-opacity="0.549" fill-rule="nonzero"/><path fill="#a1a2a3" d="M 159.015625 104.46875 C 166.019531 112.277344 173.125 123.289062 173.917969 134.003906 C 173.714844 134.273438 173.625 134.589844 173.648438 134.953125 C 173.71875 136.074219 173.65625 136.066406 173.46875 134.925781 C 173.347656 134.1875 173.304688 133.433594 173.335938 132.664062 C 173.339844 132.539062 173.28125 132.46875 173.152344 132.457031 L 172.5 132.390625 C 172.40625 132.378906 172.402344 132.359375 172.492188 132.332031 L 172.601562 132.292969 C 172.703125 132.257812 172.710938 132.210938 172.621094 132.148438 C 172.523438 132.085938 172.421875 132.0625 172.308594 132.074219 C 172.195312 132.089844 172.179688 132.054688 172.261719 131.972656 L 172.324219 131.910156 C 172.382812 131.851562 172.371094 131.8125 172.285156 131.800781 L 171.875 131.734375 C 171.78125 131.71875 171.777344 131.695312 171.871094 131.667969 C 171.902344 131.65625 171.933594 131.648438 171.964844 131.636719 C 172.136719 131.582031 172.132812 131.53125 171.957031 131.492188 L 171.554688 131.402344 C 171.515625 131.390625 171.515625 131.375 171.546875 131.351562 L 171.6875 131.25 C 171.796875 131.167969 171.78125 131.132812 171.644531 131.140625 C 171.132812 131.175781 170.761719 130.964844 170.53125 130.507812 C 170.511719 130.46875 170.480469 130.449219 170.441406 130.449219 C 170.410156 130.445312 170.378906 130.445312 170.347656 130.445312 C 170.242188 130.449219 170.230469 130.417969 170.300781 130.34375 L 170.445312 130.203125 C 170.539062 130.109375 170.523438 130.082031 170.398438 130.132812 C 170.082031 130.253906 169.433594 129.472656 169.25 129.261719 C 169.179688 129.175781 169.085938 129.132812 168.976562 129.136719 L 168.347656 129.148438 C 168.257812 129.152344 168.195312 129.109375 168.167969 129.023438 L 167.753906 127.738281 C 167.707031 127.59375 167.648438 127.589844 167.578125 127.722656 C 167.269531 128.277344 167.386719 128.964844 167.175781 129.746094 C 167.152344 129.835938 167.125 129.835938 167.09375 129.75 C 167.078125 129.710938 167.066406 129.671875 167.050781 129.632812 C 166.953125 129.367188 166.925781 129.371094 166.972656 129.640625 C 167.023438 129.914062 166.976562 130.152344 166.832031 130.363281 C 167.492188 121.6875 162.675781 112.949219 157.6875 106.136719 Z M 159.015625 104.46875 " fill-opacity="0.6431" fill-rule="nonzero"/><path fill="#afafaf" d="M 63.402344 107.433594 L 66.546875 111.039062 L 66.472656 128.988281 C 66.472656 129.101562 66.523438 129.1875 66.621094 129.238281 C 69.757812 130.886719 71.285156 133.515625 71.203125 137.125 C 71.199219 137.226562 71.242188 137.308594 71.335938 137.363281 L 80.503906 142.695312 C 79.085938 143.160156 77.636719 143.402344 76.15625 143.421875 L 75.65625 143.488281 L 63.546875 136.449219 C 63.441406 136.386719 63.390625 136.296875 63.390625 136.175781 Z M 63.402344 107.433594 " fill-opacity="1" fill-rule="nonzero"/><path fill="#afafaf" d="M 153.828125 110.699219 L 153.847656 136.171875 C 153.847656 136.28125 153.800781 136.367188 153.703125 136.421875 L 140.289062 144.21875 C 138.632812 144.074219 136.9375 143.804688 135.199219 143.40625 L 145.851562 137.175781 C 145.960938 137.113281 146.011719 137.019531 146.007812 136.890625 C 145.921875 133.289062 147.441406 130.671875 150.5625 129.042969 C 150.667969 128.988281 150.722656 128.902344 150.722656 128.785156 C 150.816406 123.824219 150.789062 118.839844 150.640625 113.832031 Z M 153.828125 110.699219 " fill-opacity="1" fill-rule="nonzero"/><path fill="#c5c6c7" d="M 173.917969 134.003906 C 174.160156 136.332031 173.941406 138.601562 173.257812 140.8125 C 173.03125 141.160156 172.789062 141.726562 172.523438 142.511719 C 172.027344 143.996094 171.003906 145.929688 169.105469 146.699219 C 169.03125 146.726562 168.972656 146.707031 168.929688 146.640625 L 168.816406 146.445312 C 168.804688 146.425781 168.789062 146.421875 168.769531 146.425781 C 168.738281 146.4375 168.707031 146.441406 168.675781 146.445312 C 168.652344 146.445312 168.625 146.441406 168.597656 146.433594 L 167.722656 146.125 C 167.667969 146.105469 167.628906 146.066406 167.613281 146.011719 L 167.53125 145.734375 C 167.523438 145.699219 167.507812 145.695312 167.484375 145.71875 C 167.460938 145.742188 167.433594 145.765625 167.40625 145.792969 C 167.367188 145.832031 167.328125 145.832031 167.289062 145.792969 C 167.265625 145.773438 167.246094 145.753906 167.226562 145.734375 C 167.214844 145.722656 167.21875 145.71875 167.230469 145.714844 C 167.253906 145.707031 167.28125 145.703125 167.308594 145.691406 C 167.351562 145.671875 167.359375 145.644531 167.328125 145.609375 C 166.800781 144.972656 166.152344 144.484375 165.394531 144.152344 C 165.367188 144.140625 165.363281 144.121094 165.375 144.097656 C 165.378906 144.085938 165.386719 144.074219 165.390625 144.0625 C 165.402344 144.035156 165.390625 143.992188 165.351562 143.9375 C 165.273438 143.835938 165.183594 143.808594 165.085938 143.859375 C 164.203125 144.339844 164.144531 144.328125 164.917969 143.828125 C 164.964844 143.796875 164.996094 143.765625 165.011719 143.726562 C 165.089844 143.527344 165.0625 143.503906 164.9375 143.648438 C 164.867188 143.726562 164.785156 143.71875 164.683594 143.636719 C 164.414062 143.410156 164.28125 143.277344 164.285156 143.246094 L 164.308594 143.066406 C 164.316406 143.023438 164.3125 142.984375 164.300781 142.945312 L 164.269531 142.855469 C 164.257812 142.824219 164.234375 142.816406 164.207031 142.832031 L 164.085938 142.90625 C 164.015625 142.945312 163.976562 142.925781 163.964844 142.847656 C 163.960938 142.800781 163.976562 142.773438 164.011719 142.765625 C 164.074219 142.746094 164.085938 142.710938 164.046875 142.65625 C 163.945312 142.523438 163.832031 142.511719 163.699219 142.617188 C 163.648438 142.660156 163.625 142.648438 163.636719 142.582031 L 163.660156 142.394531 C 163.667969 142.351562 163.648438 142.320312 163.609375 142.304688 C 163.203125 142.152344 162.882812 141.886719 162.640625 141.503906 C 162.621094 141.472656 162.601562 141.46875 162.574219 141.492188 C 162.558594 141.511719 162.539062 141.53125 162.519531 141.550781 C 162.492188 141.582031 162.464844 141.585938 162.433594 141.566406 C 162.304688 141.488281 162.234375 141.398438 162.214844 141.292969 C 162.199219 141.210938 162.164062 141.144531 162.105469 141.089844 L 161.796875 140.796875 C 161.703125 140.710938 161.703125 140.625 161.800781 140.539062 C 162.429688 140.011719 162.945312 139.390625 163.359375 138.683594 C 165.398438 136.296875 166.554688 133.523438 166.832031 130.363281 C 166.976562 130.152344 167.023438 129.914062 166.972656 129.640625 C 166.925781 129.371094 166.953125 129.367188 167.050781 129.632812 C 167.066406 129.671875 167.078125 129.710938 167.09375 129.75 C 167.125 129.835938 167.152344 129.835938 167.175781 129.746094 C 167.386719 128.964844 167.269531 128.277344 167.578125 127.722656 C 167.648438 127.589844 167.707031 127.59375 167.753906 127.738281 L 168.167969 129.023438 C 168.195312 129.109375 168.257812 129.152344 168.347656 129.148438 L 168.976562 129.136719 C 169.085938 129.132812 169.179688 129.175781 169.25 129.261719 C 169.433594 129.472656 170.082031 130.253906 170.398438 130.132812 C 170.523438 130.082031 170.539062 130.109375 170.445312 130.203125 L 170.300781 130.34375 C 170.230469 130.417969 170.242188 130.449219 170.347656 130.445312 C 170.378906 130.445312 170.410156 130.445312 170.441406 130.449219 C 170.480469 130.449219 170.511719 130.46875 170.53125 130.507812 C 170.761719 130.964844 171.132812 131.175781 171.644531 131.140625 C 171.78125 131.132812 171.796875 131.167969 171.6875 131.25 L 171.546875 131.351562 C 171.515625 131.375 171.515625 131.390625 171.554688 131.402344 L 171.957031 131.492188 C 172.132812 131.53125 172.136719 131.582031 171.964844 131.636719 C 171.933594 131.648438 171.902344 131.65625 171.871094 131.667969 C 171.777344 131.695312 171.78125 131.71875 171.875 131.734375 L 172.285156 131.800781 C 172.371094 131.8125 172.382812 131.851562 172.324219 131.910156 L 172.261719 131.972656 C 172.179688 132.054688 172.195312 132.089844 172.308594 132.074219 C 172.421875 132.0625 172.523438 132.085938 172.621094 132.148438 C 172.710938 132.210938 172.703125 132.257812 172.601562 132.292969 L 172.492188 132.332031 C 172.402344 132.359375 172.40625 132.378906 172.5 132.390625 L 173.152344 132.457031 C 173.28125 132.46875 173.339844 132.539062 173.335938 132.664062 C 173.304688 133.433594 173.347656 134.1875 173.46875 134.925781 C 173.65625 136.066406 173.71875 136.074219 173.648438 134.953125 C 173.625 134.589844 173.714844 134.273438 173.917969 134.003906 Z M 173.917969 134.003906 " fill-opacity="0.7843" fill-rule="nonzero"/><path fill="#a1a2a3" d="M 52.460938 136.988281 C 54.011719 138.671875 55.800781 140.023438 57.828125 141.042969 C 57.679688 141.324219 57.75 141.558594 58.039062 141.742188 C 58.109375 141.785156 58.15625 141.84375 58.183594 141.921875 C 58.234375 142.066406 58.351562 142.109375 58.542969 142.0625 C 58.765625 142.003906 58.765625 142.039062 58.539062 142.167969 L 57.65625 142.660156 C 57.605469 142.6875 57.609375 142.714844 57.664062 142.734375 L 57.777344 142.773438 C 57.847656 142.792969 57.855469 142.832031 57.804688 142.886719 L 56.101562 144.644531 C 56.085938 144.660156 56.089844 144.675781 56.113281 144.691406 C 56.136719 144.707031 56.15625 144.726562 56.164062 144.746094 C 56.167969 144.753906 56.164062 144.757812 56.160156 144.761719 L 55.8125 144.859375 C 55.722656 144.886719 55.722656 144.910156 55.808594 144.941406 C 55.839844 144.949219 55.875 144.964844 55.914062 144.976562 C 55.996094 145.003906 56.007812 145.046875 55.945312 145.105469 L 55.101562 145.984375 C 55.015625 146.074219 54.90625 146.117188 54.777344 146.109375 C 54.578125 146.101562 54.441406 146.210938 54.371094 146.441406 C 54.320312 146.59375 54.222656 146.636719 54.074219 146.570312 L 53.410156 146.269531 C 53.367188 146.253906 53.351562 146.265625 53.359375 146.308594 L 53.398438 146.503906 C 51.730469 145.441406 50.316406 144.109375 49.160156 142.511719 C 49.15625 142.398438 49.183594 142.316406 49.242188 142.265625 C 49.289062 142.226562 49.34375 142.21875 49.402344 142.25 C 49.476562 142.292969 49.535156 142.339844 49.578125 142.390625 C 49.589844 142.402344 49.597656 142.402344 49.605469 142.390625 L 50.015625 141.835938 C 50.070312 141.769531 50.050781 141.738281 49.96875 141.742188 L 49.84375 141.746094 C 49.46875 141.769531 49.496094 141.734375 49.921875 141.644531 C 50.367188 141.546875 50.71875 141.300781 50.980469 140.898438 C 51.175781 140.601562 51.164062 140.554688 50.945312 140.757812 C 50.925781 140.777344 50.902344 140.792969 50.882812 140.796875 C 50.816406 140.824219 50.816406 140.796875 50.890625 140.71875 L 51.667969 139.90625 C 51.730469 139.835938 51.71875 139.804688 51.625 139.808594 L 51.476562 139.808594 C 51.472656 139.808594 51.472656 139.804688 51.472656 139.800781 L 52.632812 138.617188 C 52.730469 138.519531 52.832031 138.515625 52.933594 138.605469 C 53.140625 138.800781 53.300781 138.890625 53.410156 138.882812 C 53.535156 138.867188 53.566406 138.804688 53.5 138.695312 Z M 52.460938 136.988281 " fill-opacity="0.6431" fill-rule="nonzero"/><path fill="#e7e8e9" d="M 173.257812 140.8125 C 172.210938 144.753906 169.984375 147.84375 166.578125 150.078125 C 166.449219 149.570312 166.1875 149.5 165.789062 149.871094 C 165.707031 149.945312 165.617188 150 165.511719 150.035156 C 164.492188 150.367188 163.761719 151.003906 162.90625 149.816406 C 162.886719 149.789062 162.886719 149.773438 162.90625 149.761719 C 162.917969 149.761719 162.925781 149.757812 162.9375 149.753906 C 162.957031 149.75 162.960938 149.746094 162.945312 149.742188 C 162.472656 149.550781 162.105469 149.246094 161.84375 148.828125 C 161.78125 148.726562 161.691406 148.691406 161.578125 148.714844 C 161.480469 148.734375 161.433594 148.691406 161.433594 148.585938 C 160.886719 148.070312 160.289062 147.625 159.632812 147.257812 C 159.570312 147.222656 159.558594 147.191406 159.59375 147.171875 C 159.605469 147.164062 159.621094 147.15625 159.640625 147.15625 C 159.660156 147.152344 159.667969 147.148438 159.652344 147.140625 C 159.097656 146.851562 158.628906 146.457031 158.246094 145.960938 C 158.179688 145.875 158.097656 145.8125 158 145.773438 C 157.027344 145.367188 156.527344 144.40625 155.382812 144.105469 C 155.195312 144.058594 155.175781 143.96875 155.320312 143.84375 L 155.539062 143.65625 C 155.628906 143.578125 155.621094 143.519531 155.511719 143.472656 L 155.320312 143.394531 C 158.382812 142.5 161.0625 140.929688 163.359375 138.683594 C 162.945312 139.390625 162.429688 140.011719 161.800781 140.539062 C 161.703125 140.625 161.703125 140.710938 161.796875 140.796875 L 162.105469 141.089844 C 162.164062 141.144531 162.199219 141.210938 162.214844 141.292969 C 162.234375 141.398438 162.304688 141.488281 162.433594 141.566406 C 162.464844 141.585938 162.492188 141.582031 162.519531 141.550781 C 162.539062 141.53125 162.558594 141.511719 162.574219 141.492188 C 162.601562 141.46875 162.621094 141.472656 162.640625 141.503906 C 162.882812 141.886719 163.203125 142.152344 163.609375 142.304688 C 163.648438 142.320312 163.667969 142.351562 163.660156 142.394531 L 163.636719 142.582031 C 163.625 142.648438 163.648438 142.660156 163.699219 142.617188 C 163.832031 142.511719 163.945312 142.523438 164.046875 142.65625 C 164.085938 142.710938 164.074219 142.746094 164.011719 142.765625 C 163.976562 142.773438 163.960938 142.800781 163.964844 142.847656 C 163.976562 142.925781 164.015625 142.945312 164.085938 142.90625 L 164.207031 142.832031 C 164.234375 142.816406 164.257812 142.824219 164.269531 142.855469 L 164.300781 142.945312 C 164.3125 142.984375 164.316406 143.023438 164.308594 143.066406 L 164.285156 143.246094 C 164.28125 143.277344 164.414062 143.410156 164.683594 143.636719 C 164.785156 143.71875 164.867188 143.726562 164.9375 143.648438 C 165.0625 143.503906 165.089844 143.527344 165.011719 143.726562 C 164.996094 143.765625 164.964844 143.796875 164.917969 143.828125 C 164.144531 144.328125 164.203125 144.339844 165.085938 143.859375 C 165.183594 143.808594 165.273438 143.835938 165.351562 143.9375 C 165.390625 143.992188 165.402344 144.035156 165.390625 144.0625 C 165.386719 144.074219 165.378906 144.085938 165.375 144.097656 C 165.363281 144.121094 165.367188 144.140625 165.394531 144.152344 C 166.152344 144.484375 166.800781 144.972656 167.328125 145.609375 C 167.359375 145.644531 167.351562 145.671875 167.308594 145.691406 C 167.28125 145.703125 167.253906 145.707031 167.230469 145.714844 C 167.21875 145.71875 167.214844 145.722656 167.226562 145.734375 C 167.246094 145.753906 167.265625 145.773438 167.289062 145.792969 C 167.328125 145.832031 167.367188 145.832031 167.40625 145.792969 C 167.433594 145.765625 167.460938 145.742188 167.484375 145.71875 C 167.507812 145.695312 167.523438 145.699219 167.53125 145.734375 L 167.613281 146.011719 C 167.628906 146.066406 167.667969 146.105469 167.722656 146.125 L 168.597656 146.433594 C 168.625 146.441406 168.652344 146.445312 168.675781 146.445312 C 168.707031 146.441406 168.738281 146.4375 168.769531 146.425781 C 168.789062 146.421875 168.804688 146.425781 168.816406 146.445312 L 168.929688 146.640625 C 168.972656 146.707031 169.03125 146.726562 169.105469 146.699219 C 171.003906 145.929688 172.027344 143.996094 172.523438 142.511719 C 172.789062 141.726562 173.03125 141.160156 173.257812 140.8125 Z M 173.257812 140.8125 " fill-opacity="0.9098" fill-rule="nonzero"/><path fill="#c5c6c7" d="M 57.828125 141.042969 C 61.636719 142.707031 65.625 143.582031 69.800781 143.664062 L 69.691406 143.71875 C 69.585938 143.773438 69.589844 143.8125 69.703125 143.835938 L 71.679688 144.238281 C 72.050781 144.316406 72.136719 144.515625 71.9375 144.835938 C 71.589844 145.398438 71.257812 145.933594 70.945312 146.4375 C 70.707031 146.832031 70.316406 147.320312 69.78125 147.90625 C 68.679688 149.125 68.496094 150.414062 66.402344 150.0625 C 66.347656 150.050781 66.316406 150.074219 66.304688 150.132812 L 66.285156 150.277344 C 66.273438 150.378906 66.21875 150.417969 66.121094 150.394531 C 65.332031 150.230469 64.550781 150.199219 63.769531 150.308594 C 60.035156 149.769531 56.578125 148.5 53.398438 146.503906 L 53.359375 146.308594 C 53.351562 146.265625 53.367188 146.253906 53.410156 146.269531 L 54.074219 146.570312 C 54.222656 146.636719 54.320312 146.59375 54.371094 146.441406 C 54.441406 146.210938 54.578125 146.101562 54.777344 146.109375 C 54.90625 146.117188 55.015625 146.074219 55.101562 145.984375 L 55.945312 145.105469 C 56.007812 145.046875 55.996094 145.003906 55.914062 144.976562 C 55.875 144.964844 55.839844 144.949219 55.808594 144.941406 C 55.722656 144.910156 55.722656 144.886719 55.8125 144.859375 L 56.160156 144.761719 C 56.164062 144.757812 56.167969 144.753906 56.164062 144.746094 C 56.15625 144.726562 56.136719 144.707031 56.113281 144.691406 C 56.089844 144.675781 56.085938 144.660156 56.101562 144.644531 L 57.804688 142.886719 C 57.855469 142.832031 57.847656 142.792969 57.777344 142.773438 L 57.664062 142.734375 C 57.609375 142.714844 57.605469 142.6875 57.65625 142.660156 L 58.539062 142.167969 C 58.765625 142.039062 58.765625 142.003906 58.542969 142.0625 C 58.351562 142.109375 58.234375 142.066406 58.183594 141.921875 C 58.15625 141.84375 58.109375 141.785156 58.039062 141.742188 C 57.75 141.558594 57.679688 141.324219 57.828125 141.042969 Z M 57.828125 141.042969 " fill-opacity="0.7843" fill-rule="nonzero"/><path fill="#afafaf" d="M 111.726562 144.519531 L 111.707031 154.875 C 111.707031 154.980469 111.753906 155.0625 111.851562 155.113281 L 113.121094 155.828125 C 113.222656 155.886719 113.324219 155.886719 113.425781 155.824219 L 124.136719 149.535156 L 128.296875 150.984375 L 108.75 162.339844 C 108.640625 162.40625 108.535156 162.40625 108.425781 162.339844 L 86.09375 149.4375 L 90.484375 148.339844 L 103.761719 156.042969 C 103.867188 156.105469 103.976562 156.105469 104.082031 156.042969 L 105.289062 155.355469 C 105.394531 155.296875 105.449219 155.203125 105.445312 155.082031 L 105.425781 143.339844 C 106.058594 142.984375 106.726562 142.734375 107.433594 142.589844 C 107.546875 142.566406 107.65625 142.578125 107.761719 142.628906 Z M 111.726562 144.519531 " fill-opacity="1" fill-rule="nonzero"/><path fill="#e7e8e9" d="M 76.15625 143.421875 C 76.011719 143.898438 77.808594 144.644531 78.546875 145.085938 C 79.335938 145.558594 80.832031 146.308594 81.882812 147.117188 C 82.003906 147.207031 82.015625 147.3125 81.914062 147.433594 L 81.28125 148.175781 C 81.226562 148.242188 81.195312 148.316406 81.191406 148.402344 C 81.183594 148.765625 81.007812 148.988281 80.660156 149.074219 C 80.5625 149.097656 80.476562 149.144531 80.402344 149.210938 C 80.066406 149.515625 79.675781 149.683594 79.238281 149.707031 C 79.125 149.714844 79.019531 149.75 78.929688 149.816406 C 78.777344 149.925781 78.597656 149.96875 78.402344 149.941406 C 78.296875 149.925781 78.195312 149.945312 78.101562 150 L 77.304688 150.433594 C 77.199219 150.492188 77.207031 150.515625 77.324219 150.507812 L 79.664062 150.351562 C 74.359375 151.160156 69.0625 151.144531 63.769531 150.308594 C 64.550781 150.199219 65.332031 150.230469 66.121094 150.394531 C 66.21875 150.417969 66.273438 150.378906 66.285156 150.277344 L 66.304688 150.132812 C 66.316406 150.074219 66.347656 150.050781 66.402344 150.0625 C 68.496094 150.414062 68.679688 149.125 69.78125 147.90625 C 70.316406 147.320312 70.707031 146.832031 70.945312 146.4375 C 71.257812 145.933594 71.589844 145.398438 71.9375 144.835938 C 72.136719 144.515625 72.050781 144.316406 71.679688 144.238281 L 69.703125 143.835938 C 69.589844 143.8125 69.585938 143.773438 69.691406 143.71875 L 69.800781 143.664062 L 75.65625 143.488281 Z M 76.15625 143.421875 " fill-opacity="0.9098" fill-rule="nonzero"/><g fill="#ffffff" fill-opacity="1"><g transform="translate(200.709867, 126.406531)"><g><path d="M 14.171875 -20.3125 C 12.523438 -20.3125 11.238281 -19.632812 10.3125 -18.28125 C 9.394531 -16.9375 8.9375 -15.078125 8.9375 -12.703125 C 8.9375 -7.773438 10.8125 -5.3125 14.5625 -5.3125 C 15.695312 -5.3125 16.796875 -5.46875 17.859375 -5.78125 C 18.921875 -6.09375 19.988281 -6.472656 21.0625 -6.921875 L 21.0625 -1.0625 C 18.925781 -0.125 16.507812 0.34375 13.8125 0.34375 C 9.945312 0.34375 6.984375 -0.773438 4.921875 -3.015625 C 2.859375 -5.253906 1.828125 -8.492188 1.828125 -12.734375 C 1.828125 -15.390625 2.320312 -17.722656 3.3125 -19.734375 C 4.3125 -21.742188 5.75 -23.285156 7.625 -24.359375 C 9.5 -25.441406 11.707031 -25.984375 14.25 -25.984375 C 17.019531 -25.984375 19.664062 -25.382812 22.1875 -24.1875 L 20.0625 -18.734375 C 19.113281 -19.179688 18.164062 -19.554688 17.21875 -19.859375 C 16.28125 -20.160156 15.265625 -20.3125 14.171875 -20.3125 Z M 14.171875 -20.3125 "/></g></g></g><g fill="#ffffff" fill-opacity="1"><g transform="translate(224.000313, 126.406531)"><g><path d="M 2.765625 0 L 2.765625 -25.625 L 9.71875 -25.625 L 9.71875 0 Z M 2.765625 0 "/></g></g></g><g fill="#ffffff" fill-opacity="1"><g transform="translate(236.495491, 126.406531)"><g><path d="M 24.515625 -13.359375 C 24.515625 -9.078125 23.335938 -5.78125 20.984375 -3.46875 C 18.628906 -1.15625 15.320312 0 11.0625 0 L 2.765625 0 L 2.765625 -25.625 L 11.640625 -25.625 C 15.753906 -25.625 18.925781 -24.570312 21.15625 -22.46875 C 23.394531 -20.363281 24.515625 -17.328125 24.515625 -13.359375 Z M 17.328125 -13.109375 C 17.328125 -15.453125 16.863281 -17.191406 15.9375 -18.328125 C 15.007812 -19.460938 13.597656 -20.03125 11.703125 -20.03125 L 9.6875 -20.03125 L 9.6875 -5.671875 L 11.234375 -5.671875 C 13.335938 -5.671875 14.878906 -6.28125 15.859375 -7.5 C 16.835938 -8.726562 17.328125 -10.597656 17.328125 -13.109375 Z M 17.328125 -13.109375 "/></g></g></g><g fill="#ffffff" fill-opacity="1"><g transform="translate(262.835248, 126.406531)"><g><path d="M 21.09375 -19.859375 L 21.09375 -16.546875 L 18.390625 -15.546875 C 18.753906 -14.867188 18.9375 -14.078125 18.9375 -13.171875 C 18.9375 -11.035156 18.1875 -9.378906 16.6875 -8.203125 C 15.1875 -7.023438 12.945312 -6.4375 9.96875 -6.4375 C 9.238281 -6.4375 8.65625 -6.484375 8.21875 -6.578125 C 8.050781 -6.265625 7.96875 -5.976562 7.96875 -5.71875 C 7.96875 -5.375 8.242188 -5.109375 8.796875 -4.921875 C 9.347656 -4.742188 10.066406 -4.65625 10.953125 -4.65625 L 14.25 -4.65625 C 18.695312 -4.65625 20.921875 -2.78125 20.921875 0.96875 C 20.921875 3.382812 19.890625 5.265625 17.828125 6.609375 C 15.765625 7.953125 12.867188 8.625 9.140625 8.625 C 6.328125 8.625 4.15625 8.148438 2.625 7.203125 C 1.101562 6.265625 0.34375 4.914062 0.34375 3.15625 C 0.34375 0.78125 1.816406 -0.75 4.765625 -1.4375 C 4.160156 -1.695312 3.628906 -2.113281 3.171875 -2.6875 C 2.722656 -3.257812 2.5 -3.820312 2.5 -4.375 C 2.5 -5 2.664062 -5.546875 3 -6.015625 C 3.34375 -6.492188 4.054688 -7.054688 5.140625 -7.703125 C 4.109375 -8.160156 3.296875 -8.875 2.703125 -9.84375 C 2.117188 -10.8125 1.828125 -11.992188 1.828125 -13.390625 C 1.828125 -15.546875 2.5625 -17.21875 4.03125 -18.40625 C 5.5 -19.601562 7.601562 -20.203125 10.34375 -20.203125 C 10.707031 -20.203125 11.332031 -20.160156 12.21875 -20.078125 C 13.101562 -19.992188 13.753906 -19.921875 14.171875 -19.859375 Z M 6.140625 2.46875 C 6.140625 3.03125 6.441406 3.484375 7.046875 3.828125 C 7.648438 4.171875 8.460938 4.34375 9.484375 4.34375 C 11.140625 4.34375 12.46875 4.132812 13.46875 3.71875 C 14.46875 3.3125 14.96875 2.78125 14.96875 2.125 C 14.96875 1.59375 14.660156 1.21875 14.046875 1 C 13.441406 0.789062 12.570312 0.6875 11.4375 0.6875 L 8.765625 0.6875 C 8.023438 0.6875 7.398438 0.859375 6.890625 1.203125 C 6.390625 1.546875 6.140625 1.96875 6.140625 2.46875 Z M 8.296875 -13.359375 C 8.296875 -11.316406 9 -10.296875 10.40625 -10.296875 C 11.0625 -10.296875 11.566406 -10.546875 11.921875 -11.046875 C 12.273438 -11.554688 12.453125 -12.3125 12.453125 -13.3125 C 12.453125 -15.375 11.769531 -16.40625 10.40625 -16.40625 C 9 -16.40625 8.296875 -15.390625 8.296875 -13.359375 Z M 8.296875 -13.359375 "/></g></g></g><g fill="#ffffff" fill-opacity="1"><g transform="translate(284.583513, 126.406531)"><g><path d="M 14.359375 -20.203125 C 14.953125 -20.203125 15.515625 -20.15625 16.046875 -20.0625 L 16.4375 -20 L 15.828125 -13.53125 C 15.265625 -13.664062 14.488281 -13.734375 13.5 -13.734375 C 12 -13.734375 10.910156 -13.390625 10.234375 -12.703125 C 9.554688 -12.023438 9.21875 -11.046875 9.21875 -9.765625 L 9.21875 0 L 2.359375 0 L 2.359375 -19.859375 L 7.46875 -19.859375 L 8.53125 -16.6875 L 8.875 -16.6875 C 9.4375 -17.738281 10.226562 -18.585938 11.25 -19.234375 C 12.28125 -19.878906 13.316406 -20.203125 14.359375 -20.203125 Z M 14.359375 -20.203125 "/></g></g></g><g fill="#ffffff" fill-opacity="1"><g transform="translate(301.424837, 126.406531)"><g><path d="M 15.3125 0 L 14 -2.625 L 13.859375 -2.625 C 12.941406 -1.476562 12.003906 -0.695312 11.046875 -0.28125 C 10.085938 0.132812 8.847656 0.34375 7.328125 0.34375 C 5.453125 0.34375 3.976562 -0.210938 2.90625 -1.328125 C 1.832031 -2.453125 1.296875 -4.03125 1.296875 -6.0625 C 1.296875 -8.175781 2.03125 -9.75 3.5 -10.78125 C 4.976562 -11.820312 7.113281 -12.40625 9.90625 -12.53125 L 13.21875 -12.640625 L 13.21875 -12.921875 C 13.21875 -14.554688 12.410156 -15.375 10.796875 -15.375 C 9.347656 -15.375 7.507812 -14.878906 5.28125 -13.890625 L 3.296875 -18.421875 C 5.609375 -19.609375 8.53125 -20.203125 12.0625 -20.203125 C 14.601562 -20.203125 16.570312 -19.570312 17.96875 -18.3125 C 19.363281 -17.050781 20.0625 -15.285156 20.0625 -13.015625 L 20.0625 0 Z M 10.234375 -4.484375 C 11.066406 -4.484375 11.773438 -4.742188 12.359375 -5.265625 C 12.953125 -5.796875 13.25 -6.484375 13.25 -7.328125 L 13.25 -8.875 L 11.671875 -8.796875 C 9.421875 -8.710938 8.296875 -7.882812 8.296875 -6.3125 C 8.296875 -5.09375 8.941406 -4.484375 10.234375 -4.484375 Z M 10.234375 -4.484375 "/></g></g></g><g fill="#ffffff" fill-opacity="1"><g transform="translate(323.786463, 126.406531)"><g><path d="M 7.578125 0 L 0 -19.859375 L 7.15625 -19.859375 L 10.515625 -8.109375 C 10.523438 -8.054688 10.546875 -7.957031 10.578125 -7.8125 C 10.617188 -7.675781 10.65625 -7.507812 10.6875 -7.3125 C 10.726562 -7.125 10.757812 -6.921875 10.78125 -6.703125 C 10.8125 -6.484375 10.828125 -6.28125 10.828125 -6.09375 L 10.953125 -6.09375 C 10.953125 -6.707031 11.054688 -7.367188 11.265625 -8.078125 L 14.796875 -19.859375 L 21.921875 -19.859375 L 14.359375 0 Z M 7.578125 0 "/></g></g></g><g fill="#ffffff" fill-opacity="1"><g transform="translate(345.709975, 126.406531)"><g><path d="M 9.25 0 L 2.40625 0 L 2.40625 -19.859375 L 9.25 -19.859375 Z M 2.21875 -24.796875 C 2.21875 -25.828125 2.503906 -26.59375 3.078125 -27.09375 C 3.648438 -27.59375 4.578125 -27.84375 5.859375 -27.84375 C 7.128906 -27.84375 8.054688 -27.582031 8.640625 -27.0625 C 9.222656 -26.550781 9.515625 -25.796875 9.515625 -24.796875 C 9.515625 -22.785156 8.296875 -21.78125 5.859375 -21.78125 C 3.429688 -21.78125 2.21875 -22.785156 2.21875 -24.796875 Z M 2.21875 -24.796875 "/></g></g></g><g fill="#ffffff" fill-opacity="1"><g transform="translate(357.381482, 126.406531)"><g><path d="M 12.09375 -5.0625 C 13.007812 -5.0625 14.113281 -5.289062 15.40625 -5.75 L 15.40625 -0.75 C 14.476562 -0.351562 13.597656 -0.0703125 12.765625 0.09375 C 11.929688 0.257812 10.953125 0.34375 9.828125 0.34375 C 7.523438 0.34375 5.863281 -0.21875 4.84375 -1.34375 C 3.832031 -2.46875 3.328125 -4.195312 3.328125 -6.53125 L 3.328125 -14.71875 L 0.921875 -14.71875 L 0.921875 -17.5 L 3.984375 -19.65625 L 5.75 -23.828125 L 10.234375 -23.828125 L 10.234375 -19.859375 L 15.109375 -19.859375 L 15.109375 -14.71875 L 10.234375 -14.71875 L 10.234375 -7 C 10.234375 -5.707031 10.851562 -5.0625 12.09375 -5.0625 Z M 12.09375 -5.0625 "/></g></g></g><g fill="#ffffff" fill-opacity="1"><g transform="translate(373.88983, 126.406531)"><g><path d="M -0.03125 -19.859375 L 7.1875 -19.859375 L 10.546875 -8.46875 C 10.710938 -7.875 10.828125 -7.15625 10.890625 -6.3125 L 11.015625 -6.3125 C 11.109375 -7.113281 11.25 -7.816406 11.4375 -8.421875 L 14.890625 -19.859375 L 21.890625 -19.859375 L 14.03125 1.265625 C 13.03125 3.953125 11.796875 5.847656 10.328125 6.953125 C 8.859375 8.066406 6.945312 8.625 4.59375 8.625 C 3.675781 8.625 2.738281 8.523438 1.78125 8.328125 L 1.78125 2.9375 C 2.40625 3.082031 3.113281 3.15625 3.90625 3.15625 C 4.507812 3.15625 5.039062 3.035156 5.5 2.796875 C 5.957031 2.566406 6.351562 2.238281 6.6875 1.8125 C 7.03125 1.382812 7.394531 0.6875 7.78125 -0.28125 Z M -0.03125 -19.859375 "/></g></g></g></svg>