<svg width="100" height="100" viewBox="0 0 100 100" fill="none" xmlns="http://www.w3.org/2000/svg">
<path d="M12.1094 8.59375C11.4141 8.59375 10.7343 8.79994 10.1562 9.18624C9.57806 9.57254 9.12745 10.1216 8.86136 10.764C8.59527 11.4064 8.52565 12.1133 8.6613 12.7952C8.79695 13.4772 9.13179 14.1036 9.62345 14.5953C10.1151 15.087 10.7415 15.4218 11.4235 15.5574C12.1055 15.6931 12.8124 15.6235 13.4547 15.3574C14.0971 15.0913 14.6462 14.6407 15.0325 14.0626C15.4188 13.4844 15.625 12.8047 15.625 12.1094C15.624 11.1773 15.2532 10.2837 14.5942 9.62459C13.9351 8.96551 13.0415 8.59478 12.1094 8.59375ZM12.1094 13.2812C11.8776 13.2812 11.651 13.2125 11.4583 13.0838C11.2656 12.955 11.1154 12.772 11.0267 12.5578C10.938 12.3437 10.9148 12.1081 10.96 11.8808C11.0052 11.6534 11.1168 11.4446 11.2807 11.2807C11.4446 11.1168 11.6534 11.0052 11.8808 10.96C12.1081 10.9148 12.3437 10.938 12.5578 11.0267C12.772 11.1154 12.955 11.2656 13.0838 11.4583C13.2125 11.651 13.2813 11.8776 13.2813 12.1094C13.2813 12.4202 13.1578 12.7182 12.938 12.938C12.7182 13.1578 12.4202 13.2812 12.1094 13.2812Z" fill="white"/>
<path d="M37.1094 8.59375C36.4141 8.59375 35.7343 8.79994 35.1562 9.18624C34.5781 9.57254 34.1275 10.1216 33.8614 10.764C33.5953 11.4064 33.5257 12.1133 33.6613 12.7952C33.797 13.4772 34.1318 14.1036 34.6235 14.5953C35.1151 15.087 35.7415 15.4218 36.4235 15.5574C37.1055 15.6931 37.8124 15.6235 38.4547 15.3574C39.0971 15.0913 39.6462 14.6407 40.0325 14.0626C40.4188 13.4844 40.625 12.8047 40.625 12.1094C40.624 11.1773 40.2532 10.2837 39.5942 9.62459C38.9351 8.96551 38.0415 8.59478 37.1094 8.59375ZM37.1094 13.2812C36.8776 13.2812 36.651 13.2125 36.4583 13.0838C36.2656 12.955 36.1154 12.772 36.0267 12.5578C35.938 12.3437 35.9148 12.1081 35.96 11.8808C36.0052 11.6534 36.1168 11.4446 36.2807 11.2807C36.4446 11.1168 36.6534 11.0052 36.8808 10.96C37.1081 10.9148 37.3437 10.938 37.5578 11.0267C37.772 11.1154 37.955 11.2656 38.0838 11.4583C38.2125 11.651 38.2813 11.8776 38.2813 12.1094C38.2813 12.4202 38.1578 12.7182 37.938 12.938C37.7182 13.1578 37.4202 13.2812 37.1094 13.2812Z" fill="white"/>
<path d="M24.6094 8.59375C23.9141 8.59375 23.2343 8.79994 22.6562 9.18624C22.0781 9.57254 21.6275 10.1216 21.3614 10.764C21.0953 11.4064 21.0257 12.1133 21.1613 12.7952C21.297 13.4772 21.6318 14.1036 22.1235 14.5953C22.6151 15.087 23.2415 15.4218 23.9235 15.5574C24.6055 15.6931 25.3124 15.6235 25.9547 15.3574C26.5971 15.0913 27.1462 14.6407 27.5325 14.0626C27.9188 13.4844 28.125 12.8047 28.125 12.1094C28.124 11.1773 27.7532 10.2837 27.0942 9.62459C26.4351 8.96551 25.5415 8.59478 24.6094 8.59375ZM24.6094 13.2812C24.3776 13.2812 24.151 13.2125 23.9583 13.0838C23.7656 12.955 23.6154 12.772 23.5267 12.5578C23.438 12.3437 23.4148 12.1081 23.46 11.8808C23.5052 11.6534 23.6168 11.4446 23.7807 11.2807C23.9446 11.1168 24.1534 11.0052 24.3808 10.96C24.6081 10.9148 24.8437 10.938 25.0578 11.0267C25.272 11.1154 25.455 11.2656 25.5838 11.4583C25.7125 11.651 25.7813 11.8776 25.7813 12.1094C25.7813 12.4202 25.6578 12.7182 25.438 12.938C25.2182 13.1578 24.9202 13.2812 24.6094 13.2812Z" fill="white"/>
<path d="M87.1094 8.59375H74.6094C73.677 8.59375 72.7828 8.96415 72.1235 9.62345C71.4641 10.2828 71.0938 11.177 71.0938 12.1094C71.0938 13.0418 71.4641 13.936 72.1235 14.5953C72.7828 15.2546 73.677 15.625 74.6094 15.625H87.1094C88.0418 15.625 88.936 15.2546 89.5953 14.5953C90.2546 13.936 90.625 13.0418 90.625 12.1094C90.625 11.177 90.2546 10.2828 89.5953 9.62345C88.936 8.96415 88.0418 8.59375 87.1094 8.59375ZM87.1094 13.2812H74.6094C74.2986 13.2812 74.0005 13.1578 73.7807 12.938C73.561 12.7182 73.4375 12.4202 73.4375 12.1094C73.4375 11.7986 73.561 11.5005 73.7807 11.2807C74.0005 11.061 74.2986 10.9375 74.6094 10.9375H87.1094C87.4202 10.9375 87.7182 11.061 87.938 11.2807C88.1578 11.5005 88.2812 11.7986 88.2812 12.1094C88.2812 12.4202 88.1578 12.7182 87.938 12.938C87.7182 13.1578 87.4202 13.2812 87.1094 13.2812Z" fill="white"/>
<path d="M89.4531 0H10.5469C7.75062 0.00310178 5.06978 1.11528 3.09253 3.09253C1.11528 5.06978 0.00310178 7.75062 0 10.5469L0 78.5156C0.00310178 81.3119 1.11528 83.9927 3.09253 85.97C5.06978 87.9472 7.75062 89.0594 10.5469 89.0625H24.4195L27.8172 92.4602C28.5052 93.1525 29.4361 93.5493 30.4121 93.5662C31.388 93.5831 32.3321 93.2189 33.0438 92.5508L34.5797 91.1172C36.9607 92.5096 39.5201 93.5714 42.1875 94.2734L42.2594 96.3687C42.2903 97.3443 42.7004 98.2695 43.4025 98.9475C44.1046 99.6256 45.0434 100.003 46.0195 100H53.9844C54.9603 100.003 55.899 99.6253 56.6009 98.9472C57.3029 98.2692 57.7129 97.3442 57.7438 96.3687L57.8125 94.2727C60.482 93.5736 63.0438 92.5141 65.4273 91.1234L66.957 92.5508C67.6685 93.2187 68.6124 93.583 69.5882 93.5662C70.5639 93.5495 71.4947 93.1529 72.1828 92.4609L75.5805 89.0625H89.4531C92.2494 89.0594 94.9302 87.9472 96.9075 85.97C98.8847 83.9927 99.9969 81.3119 100 78.5156V10.5469C99.9969 7.75062 98.8847 5.06978 96.9075 3.09253C94.9302 1.11528 92.2494 0.00310178 89.4531 0ZM76.1555 85.1734L70.525 90.8039C70.2657 91.0649 69.9148 91.2145 69.5469 91.2206C69.179 91.2267 68.8233 91.089 68.5555 90.8367L66.3789 88.8055C66.1902 88.6295 65.9488 88.5207 65.692 88.496C65.4352 88.4713 65.1774 88.532 64.9586 88.6688C62.3233 90.313 59.4332 91.5081 56.4062 92.2055C56.155 92.2638 55.9301 92.4033 55.7662 92.6025C55.6024 92.8016 55.5088 93.0493 55.5 93.307L55.3969 96.2875C55.3855 96.6545 55.2317 97.0026 54.968 97.2581C54.7043 97.5136 54.3515 97.6564 53.9844 97.6562H46.0195C45.6516 97.6576 45.2976 97.5154 45.0329 97.2598C44.7682 97.0041 44.6137 96.6553 44.6023 96.2875L44.5 93.3078C44.4912 93.05 44.3975 92.8022 44.2335 92.6031C44.0695 92.4039 43.8443 92.2644 43.593 92.2063C40.568 91.5058 37.6803 90.308 35.0477 88.6617C34.8288 88.5251 34.571 88.4645 34.3142 88.4894C34.0574 88.5142 33.8159 88.6231 33.6273 88.7992L31.4445 90.8367C31.1767 91.0891 30.8209 91.2268 30.4529 91.2205C30.085 91.2142 29.7341 91.0645 29.475 90.8031L23.8453 85.1734C23.5842 84.9143 23.4345 84.5634 23.4282 84.1955C23.422 83.8276 23.5596 83.4718 23.8117 83.2039L25.843 81.0273C26.0189 80.8387 26.1277 80.5972 26.1524 80.3404C26.1771 80.0836 26.1164 79.8258 25.9797 79.607C24.3359 76.9717 23.1408 74.082 22.443 71.0555C22.3848 70.8041 22.2453 70.579 22.0462 70.415C21.847 70.251 21.5993 70.1573 21.3414 70.1484L18.3594 70.0461C17.9916 70.0347 17.6427 69.8802 17.3871 69.6155C17.1315 69.3509 16.9892 68.9969 16.9906 68.6289V60.668C16.9892 60.3 17.1315 59.946 17.3871 59.6813C17.6427 59.4167 17.9916 59.2622 18.3594 59.2508L21.3391 59.1477C21.5968 59.1389 21.8445 59.0453 22.0436 58.8814C22.2428 58.7176 22.3823 58.4926 22.4406 58.2414C23.1417 55.2161 24.34 52.3282 25.9867 49.6953C26.1232 49.4765 26.1836 49.2189 26.1588 48.9622C26.1339 48.7056 26.0251 48.4643 25.8492 48.2758L23.8117 46.0938C23.5596 45.8258 23.422 45.47 23.4282 45.1022C23.4345 44.7343 23.5842 44.3834 23.8453 44.1242L29.475 38.4945C29.7341 38.2332 30.085 38.0834 30.4529 38.0772C30.8209 38.0709 31.1767 38.2086 31.4445 38.4609L33.6211 40.4922C33.8102 40.6675 34.0519 40.7756 34.3087 40.7996C34.5655 40.8236 34.823 40.7622 35.0414 40.625C37.6769 38.9819 40.567 37.7878 43.5937 37.0914C43.8451 37.0333 44.0703 36.8938 44.2343 36.6946C44.3983 36.4954 44.4919 36.2477 44.5008 35.9898L44.6031 33.0094C44.6145 32.6417 44.7689 32.293 45.0334 32.0374C45.2979 31.7818 45.6517 31.6394 46.0195 31.6406H53.9844C54.3523 31.6392 54.7063 31.7815 54.971 32.0371C55.2357 32.2927 55.3902 32.6416 55.4016 33.0094L55.5047 35.9883C55.5135 36.246 55.6071 36.4937 55.7709 36.6928C55.9348 36.892 56.1597 37.0315 56.4109 37.0898C59.4346 37.7913 62.3211 38.989 64.9531 40.6344C65.1719 40.7708 65.4296 40.8313 65.6862 40.8064C65.9429 40.7816 66.1841 40.6728 66.3727 40.4969L68.5555 38.4602C68.8234 38.2081 69.1791 38.0705 69.5469 38.0766C69.9147 38.0827 70.2656 38.2321 70.525 38.493L76.1555 44.1234C76.4166 44.3828 76.5661 44.7339 76.5722 45.1019C76.5783 45.4699 76.4406 45.8258 76.1883 46.0938L74.157 48.2703C73.9811 48.459 73.8723 48.7005 73.8476 48.9573C73.8229 49.2141 73.8836 49.4718 74.0203 49.6906C75.6645 52.3257 76.8596 55.2155 77.557 58.2422C77.6153 58.4934 77.7549 58.7184 77.954 58.8822C78.1532 59.0461 78.4008 59.1396 78.6586 59.1484L81.6391 59.2516C82.0069 59.263 82.3557 59.4174 82.6113 59.6821C82.867 59.9468 83.0092 60.3008 83.0078 60.6687V68.6297C83.0092 68.9977 82.867 69.3516 82.6113 69.6163C82.3557 69.881 82.0069 70.0355 81.6391 70.0469L78.6594 70.1492C78.4015 70.1581 78.1538 70.2517 77.9546 70.4157C77.7555 70.5797 77.616 70.8049 77.5578 71.0563C76.8573 74.0811 75.6598 76.9687 74.0141 79.6016C73.8774 79.8204 73.8168 80.0783 73.8417 80.3351C73.8666 80.5919 73.9755 80.8333 74.1516 81.0219L76.1883 83.2047C76.4401 83.4726 76.5776 83.8281 76.5715 84.1957C76.5653 84.5633 76.4161 84.9141 76.1555 85.1734ZM97.6562 78.5156C97.6538 80.6905 96.7887 82.7755 95.2509 84.3134C93.713 85.8512 91.628 86.7163 89.4531 86.7188H77.9047C78.554 86.0258 78.9153 85.1117 78.9153 84.1621C78.9153 83.2125 78.554 82.2984 77.9047 81.6055L76.4711 80.0687C77.8635 77.6875 78.9254 75.1278 79.6273 72.4602L81.7227 72.3883C82.6981 72.3574 83.6231 71.9474 84.3011 71.2454C84.9792 70.5435 85.3568 69.6049 85.3539 68.6289V60.668C85.3568 59.692 84.9792 58.7534 84.3011 58.0514C83.6231 57.3495 82.6981 56.9395 81.7227 56.9086L79.6266 56.8359C78.9269 54.1655 77.8667 51.6029 76.475 49.2188L77.9023 47.6891C78.5703 46.9776 78.9346 46.0337 78.9178 45.0579C78.901 44.0822 78.5045 43.1514 77.8125 42.4633L72.1828 36.8359C71.4947 36.1439 70.5639 35.7474 69.5882 35.7306C68.6124 35.7139 67.6685 36.0781 66.957 36.7461L65.4211 38.1797C63.0399 36.7873 60.4802 35.7254 57.8125 35.0234L57.7398 32.9281C57.709 31.9533 57.2995 31.0289 56.5984 30.351C55.8973 29.6731 54.9596 29.295 53.9844 29.2969H46.0195C45.0436 29.2939 44.1049 29.6716 43.403 30.3496C42.701 31.0277 42.2911 31.9527 42.2602 32.9281L42.1875 35.0242C39.5177 35.7232 36.9556 36.7827 34.5719 38.1734L33.0469 36.7461C32.3353 36.0779 31.3913 35.7135 30.4154 35.7303C29.4394 35.747 28.5085 36.1437 27.8203 36.8359L22.1875 42.4656C21.4954 43.1536 21.0987 44.0844 21.0818 45.0601C21.0649 46.0359 21.429 46.9798 22.0969 47.6914L23.5305 49.2273C22.1383 51.6087 21.0765 54.1684 20.3742 56.8359L18.2789 56.9086C17.3034 56.9395 16.3785 57.3495 15.7004 58.0514C15.0224 58.7534 14.6447 59.692 14.6477 60.668V68.6289C14.6447 69.6052 15.0227 70.5442 15.7013 71.2462C16.3798 71.9483 17.3054 72.358 18.2812 72.3883L20.3773 72.4602C21.0765 75.1299 22.136 77.692 23.5266 80.0758L22.0992 81.6055C21.4497 82.2983 21.0883 83.2124 21.0883 84.1621C21.0883 85.1118 21.4497 86.0259 22.0992 86.7188H10.5469C8.37203 86.7163 6.28698 85.8512 4.74913 84.3134C3.21128 82.7755 2.34623 80.6905 2.34375 78.5156V23.4375H97.6562V78.5156ZM97.6562 21.0938H2.34375V10.5469C2.34623 8.37203 3.21128 6.28698 4.74913 4.74913C6.28698 3.21128 8.37203 2.34623 10.5469 2.34375H89.4531C91.628 2.34623 93.713 3.21128 95.2509 4.74913C96.7887 6.28698 97.6538 8.37203 97.6562 10.5469V21.0938Z" fill="white"/>
<path d="M50 40.2344C45.1714 40.2344 40.4512 41.6662 36.4363 44.3489C32.4214 47.0315 29.2922 50.8445 27.4444 55.3056C25.5965 59.7667 25.113 64.6755 26.0551 69.4114C26.9971 74.1472 29.3223 78.4974 32.7367 81.9118C36.151 85.3262 40.5012 87.6514 45.2371 88.5934C49.9729 89.5354 54.8818 89.0519 59.3429 87.2041C63.804 85.3563 67.6169 82.227 70.2996 78.2122C72.9822 74.1973 74.4141 69.4771 74.4141 64.6484C74.4066 58.1757 71.8321 51.9702 67.2551 47.3933C62.6782 42.8164 56.4727 40.2418 50 40.2344ZM50 86.7188C45.6349 86.7188 41.3678 85.4243 37.7384 82.9992C34.109 80.5741 31.2801 77.1272 29.6097 73.0944C27.9393 69.0616 27.5022 64.624 28.3538 60.3427C29.2054 56.0615 31.3074 52.129 34.3939 49.0424C37.4805 45.9558 41.4131 43.8538 45.6943 43.0022C49.9755 42.1506 54.4131 42.5877 58.446 44.2581C62.4788 45.9286 65.9257 48.7574 68.3508 52.3868C70.7759 56.0163 72.0703 60.2833 72.0703 64.6484C72.0637 70.4998 69.7363 76.1096 65.5988 80.2472C61.4612 84.3848 55.8514 86.7121 50 86.7188Z" fill="white"/>
<path d="M37.9234 57.5732C36.7668 57.5745 35.6579 58.0345 34.84 58.8524C34.0222 59.6702 33.5622 60.7791 33.5609 61.9357V69.5311C33.5609 69.8419 33.6844 70.1399 33.9041 70.3597C34.1239 70.5795 34.422 70.7029 34.7328 70.7029C35.0436 70.7029 35.3417 70.5795 35.5614 70.3597C35.7812 70.1399 35.9047 69.8419 35.9047 69.5311V66.1459H39.9414V69.5311C39.9414 69.8419 40.0648 70.1399 40.2846 70.3597C40.5044 70.5795 40.8025 70.7029 41.1133 70.7029C41.4241 70.7029 41.7221 70.5795 41.9419 70.3597C42.1617 70.1399 42.2851 69.8419 42.2851 69.5311V61.9357C42.2839 60.7793 41.824 59.6705 41.0063 58.8526C40.1886 58.0348 39.0799 57.5747 37.9234 57.5732ZM39.9414 63.8021H35.9047V61.9357C35.8994 61.6673 35.9477 61.4006 36.0467 61.1511C36.1458 60.9016 36.2936 60.6743 36.4816 60.4827C36.6695 60.291 36.8938 60.1387 37.1413 60.0348C37.3888 59.9308 37.6546 59.8773 37.923 59.8773C38.1915 59.8773 38.4572 59.9308 38.7047 60.0348C38.9522 60.1387 39.1765 60.291 39.3645 60.4827C39.5524 60.6743 39.7002 60.9016 39.7993 61.1511C39.8984 61.4006 39.9467 61.6673 39.9414 61.9357V63.8021Z" fill="white"/>
<path d="M65.2672 68.3594H63.2484V59.7656H65.2672C65.578 59.7656 65.8761 59.6422 66.0958 59.4224C66.3156 59.2026 66.4391 58.9046 66.4391 58.5938C66.4391 58.2829 66.3156 57.9849 66.0958 57.7651C65.8761 57.5453 65.578 57.4219 65.2672 57.4219H58.8867C58.5759 57.4219 58.2778 57.5453 58.0581 57.7651C57.8383 57.9849 57.7148 58.2829 57.7148 58.5938C57.7148 58.9046 57.8383 59.2026 58.0581 59.4224C58.2778 59.6422 58.5759 59.7656 58.8867 59.7656H60.9047V68.3594H58.8867C58.5759 68.3594 58.2778 68.4828 58.0581 68.7026C57.8383 68.9224 57.7148 69.2204 57.7148 69.5312C57.7148 69.8421 57.8383 70.1401 58.0581 70.3599C58.2778 70.5797 58.5759 70.7031 58.8867 70.7031H65.2672C65.578 70.7031 65.8761 70.5797 66.0958 70.3599C66.3156 70.1401 66.4391 69.8421 66.4391 69.5312C66.4391 69.2204 66.3156 68.9224 66.0958 68.7026C65.8761 68.4828 65.578 68.3594 65.2672 68.3594Z" fill="white"/>
<path d="M52.2328 57.4219H48.4047C48.0939 57.4219 47.7958 57.5453 47.576 57.7651C47.3563 57.9849 47.2328 58.2829 47.2328 58.5938V69.5312C47.2328 69.8421 47.3563 70.1401 47.576 70.3599C47.7958 70.5797 48.0939 70.7031 48.4047 70.7031C48.7155 70.7031 49.0135 70.5797 49.2333 70.3599C49.4531 70.1401 49.5765 69.8421 49.5765 69.5312V65.2344H52.2328C53.2688 65.2344 54.2624 64.8228 54.9949 64.0903C55.7275 63.3577 56.139 62.3641 56.139 61.3281C56.139 60.2921 55.7275 59.2986 54.9949 58.566C54.2624 57.8334 53.2688 57.4219 52.2328 57.4219ZM52.2328 62.8906H49.5765V59.7656H52.2328C52.6472 59.7656 53.0446 59.9302 53.3376 60.2233C53.6307 60.5163 53.7953 60.9137 53.7953 61.3281C53.7953 61.7425 53.6307 62.14 53.3376 62.433C53.0446 62.726 52.6472 62.8906 52.2328 62.8906Z" fill="white"/>
</svg>
