<svg width="110" height="135" viewBox="0 0 110 135" fill="none" xmlns="http://www.w3.org/2000/svg">
<path d="M106.393 69.6094C105.398 69.6094 104.59 68.6649 104.59 67.5C104.59 34.9328 81.9396 8.4375 54.0983 8.4375C53.1025 8.4375 52.295 7.49303 52.295 6.32812C52.295 5.16322 53.1025 4.21875 54.0983 4.21875C68.5484 4.21875 82.1339 10.8011 92.3515 22.7533C102.569 34.7058 108.197 50.597 108.197 67.5C108.197 68.6649 107.389 69.6094 106.393 69.6094Z" fill="#000B44"/>
<path d="M54.0984 130.781C39.6482 130.781 26.063 124.199 15.845 112.246C5.62713 100.294 0 84.403 0 67.5C0 66.3351 0.807418 65.3906 1.80328 65.3906C2.79914 65.3906 3.60656 66.3351 3.60656 67.5C3.60656 100.067 26.2571 126.562 54.0984 126.562C55.0942 126.562 55.9016 127.507 55.9016 128.672C55.9016 129.837 55.0942 130.781 54.0984 130.781Z" fill="#000B44"/>
<path d="M48.6885 12.6562C45.7054 12.6562 43.2787 9.81756 43.2787 6.32812C43.2787 2.83869 45.7054 0 48.6885 0C51.6716 0 54.0984 2.83869 54.0984 6.32812C54.0984 9.81756 51.6716 12.6562 48.6885 12.6562ZM48.6885 4.21875C47.6942 4.21875 46.8852 5.16507 46.8852 6.32812C46.8852 7.49118 47.6942 8.4375 48.6885 8.4375C49.6828 8.4375 50.4918 7.49118 50.4918 6.32812C50.4918 5.16507 49.6828 4.21875 48.6885 4.21875Z" fill="#000B44"/>
<path d="M57.7049 135C54.7218 135 52.295 132.161 52.295 128.672C52.295 125.183 54.7218 122.344 57.7049 122.344C60.6877 122.344 63.1147 125.183 63.1147 128.672C63.1147 132.161 60.6877 135 57.7049 135ZM57.7049 126.562C56.7106 126.562 55.9016 127.509 55.9016 128.672C55.9016 129.835 56.7106 130.781 57.7049 130.781C58.6992 130.781 59.5082 129.835 59.5082 128.672C59.5082 127.509 58.6992 126.562 57.7049 126.562Z" fill="#000B44"/>
<path d="M97.3768 132.891C97.1174 132.891 96.8561 132.825 96.612 132.691C95.9786 132.344 95.5738 131.6 95.5738 130.781V126.562H84.7541C83.7582 126.562 82.9508 125.618 82.9508 124.453C82.9508 123.288 83.7582 122.344 84.7541 122.344H97.377C98.3729 122.344 99.1803 123.288 99.1803 124.453V126.278L105.38 120.234L99.1803 114.191V116.015C99.1803 117.18 98.3729 118.125 97.377 118.125H84.7541C83.7582 118.125 82.9508 117.18 82.9508 116.015C82.9508 114.851 83.7582 113.906 84.7541 113.906H95.5738V109.687C95.5738 108.869 95.9786 108.124 96.612 107.777C97.2458 107.43 97.9938 107.543 98.5314 108.067L109.351 118.614C109.762 119.015 110 119.608 110 120.235C110 120.861 109.762 121.454 109.351 121.855L98.5314 132.402C98.2009 132.724 97.7909 132.891 97.3768 132.891Z" fill="#000B44"/>
<path d="M12.6232 33.7501C12.2091 33.7501 11.7989 33.5835 11.4684 33.2613L0.648729 22.7144C0.237807 22.3136 0 21.7198 0 21.0939C0 20.4679 0.237807 19.8741 0.648729 19.4733L11.4684 8.92647C12.006 8.40255 12.7541 8.28944 13.3878 8.63669C14.0214 8.98395 14.4262 9.72856 14.4262 10.547V14.7657H25.2459C26.2418 14.7657 27.0492 15.7102 27.0492 16.8751C27.0492 18.04 26.2418 18.9845 25.2459 18.9845H12.623C11.6271 18.9845 10.8197 18.04 10.8197 16.8751V15.0505L4.62023 21.0939L10.8197 27.1372V25.3126C10.8197 24.1477 11.6271 23.2032 12.623 23.2032H25.2459C26.2418 23.2032 27.0492 24.1477 27.0492 25.3126C27.0492 26.4775 26.2418 27.422 25.2459 27.422H14.4262V31.6407C14.4262 32.4592 14.0214 33.2038 13.3878 33.551C13.1439 33.6847 12.8826 33.7501 12.6232 33.7501Z" fill="#000B44"/>
<g clip-path="url(#clip0_2390_227)">
<path fill-rule="evenodd" clip-rule="evenodd" d="M59.6703 90.203C59.6703 81.0098 66.0629 73.5321 73.9222 73.5321C77.9625 73.5321 81.6155 75.5067 84.2167 78.7114C85.4344 74.6326 86.1264 70.295 86.1539 65.7305C86.2923 43.5239 70.9888 25.6551 52.3368 25.5256C33.4356 25.3961 18.1598 43.3297 18.0768 65.2127C17.9937 87.3545 33.3249 105.353 52.1154 105.256C56.4602 105.288 60.5834 104.317 64.4025 102.601C61.4967 99.5583 59.6703 95.1234 59.6703 90.203ZM53.0008 79.0673C52.2261 81.819 51.4234 84.5704 50.3167 87.1278C48.9329 90.3973 46.6914 92.7279 43.5088 93.4725C41.6271 93.8933 39.7452 93.6993 38.1678 92.2749C37.6974 91.8541 37.1716 91.1095 37.1439 90.4943C37.1162 89.7822 37.4483 88.8435 37.8911 88.3902C38.1955 88.0989 39.1364 88.3256 39.5515 88.6816C40.1327 89.1673 40.4924 90.0089 40.9351 90.7211C41.9037 92.3071 43.3152 92.5014 44.5881 91.2389C46.1378 89.6851 46.9405 87.581 47.4386 85.3799C48.4902 80.783 49.3481 76.0891 50.2889 71.4601C50.3442 71.2661 50.2889 71.0393 50.2889 70.6509C47.3832 70.1331 44.4774 69.6149 41.461 69.0647C41.5716 68.0611 41.6823 67.1873 41.793 66.0543C44.7819 66.5397 47.7706 67.0254 50.8978 67.5433C51.3127 65.5362 51.7002 63.5616 52.1431 61.425C48.9606 60.8426 45.8612 60.2923 42.6232 59.7096C42.7341 58.6736 42.8448 57.7025 42.9554 56.6665C46.221 57.2168 49.4033 57.7671 52.6965 58.3174C52.9733 57.1847 53.1947 56.1487 53.4438 55.1127C54.3569 51.5844 55.1871 48.0235 57.069 44.9806C58.9785 41.9054 61.4138 39.8984 64.8175 40.0602C66.3397 40.125 67.7787 40.6429 68.858 42.0672C69.0793 42.3586 69.19 42.4233 69.3836 43.0384C69.6052 43.7829 69.3561 44.8511 68.9686 45.3043C68.3598 45.9841 67.4467 45.6281 66.8378 44.9483C66.3674 44.3979 65.9799 43.7182 65.5924 43.1031C64.6239 41.5817 63.0742 41.2903 61.9395 42.6499C61.0815 43.7182 60.2236 44.9806 59.8639 46.3402C58.7294 50.4514 57.816 54.6595 56.7368 59.062C59.8916 59.6123 62.8251 60.1304 65.8968 60.6483C65.6477 61.6842 65.4263 62.5905 65.1772 63.6264C62.1885 63.1408 59.2828 62.6553 56.3218 62.1696C55.962 64.2737 55.63 66.1838 55.2425 68.3525C58.3696 68.9028 61.4968 69.4209 64.7623 70.0036C64.5132 71.0071 64.2918 71.9782 64.015 73.0139C60.8879 72.4961 57.8438 71.9782 54.7166 71.428C54.1633 74.0175 53.6928 76.5748 53.0008 79.0673Z" fill="#000B44"/>
<path d="M86.5137 90.2031C86.5137 82.0778 80.8683 75.4741 73.9223 75.4741C66.9761 75.4741 61.3307 82.0778 61.3307 90.2031C61.3307 98.1987 66.7547 104.673 73.5348 104.932H86.5137V90.2031Z" fill="#000B44"/>
<path d="M75.1122 83.3403V88.8434H79.9551V91.5951H75.1122V97.0982H72.7046V91.5951H67.8894V88.8434H72.7046V83.3403H75.1122Z" fill="#0091FF"/>
<path fill-rule="evenodd" clip-rule="evenodd" d="M52.9734 79.0675C52.1985 81.8192 51.396 84.5706 50.289 87.1279C48.9052 90.3975 46.6638 92.7281 43.4812 93.4727C41.5995 93.8935 39.7177 93.6994 38.1403 92.2751C37.6698 91.8542 37.144 91.1096 37.1164 90.4945C37.0887 89.7823 37.4208 88.8436 37.8635 88.3904C38.168 88.099 39.1089 88.3258 39.524 88.6817C40.1051 89.1674 40.4649 90.0091 40.9077 90.7212C41.8763 92.3072 43.2876 92.5016 44.5605 91.2391C46.1104 89.6853 46.9128 87.5812 47.411 85.38C48.4625 80.7832 49.3205 76.0893 50.2613 71.4603C50.3168 71.2662 50.2613 71.0395 50.2613 70.6511C47.3556 70.1332 44.4498 69.6151 41.4334 69.0648C41.544 68.0613 41.6549 67.1875 41.7656 66.0545C44.7543 66.5399 47.743 67.0256 50.8701 67.5434C51.2853 65.5364 51.6726 63.5617 52.1155 61.4252C48.933 60.8427 45.8336 60.2925 42.5958 59.7097C42.7065 58.6738 42.8172 57.7027 42.9278 56.6667C46.1933 57.217 49.3757 57.7673 52.6689 58.3176C52.9457 57.1848 53.1671 56.1489 53.4161 55.1129C54.3293 51.5845 55.1597 48.0237 57.0414 44.9808C58.9509 41.9055 61.3862 39.8985 64.7901 40.0604C66.3121 40.1251 67.7511 40.6431 68.8303 42.0674C69.0517 42.3587 69.1624 42.4235 69.3562 43.0385C69.5776 43.7831 69.3285 44.8513 68.941 45.3045C68.3322 45.9843 67.4191 45.6282 66.8102 44.9484C66.3398 44.3981 65.9523 43.7183 65.5648 43.1033C64.5963 41.5818 63.0466 41.2905 61.9118 42.6501C61.0542 43.7183 60.1962 44.9808 59.8365 46.3404C58.7018 50.4515 57.7886 54.6596 56.7094 59.0622C59.864 59.6124 62.7975 60.1306 65.8694 60.6484C65.6203 61.6844 65.3989 62.5906 65.1499 63.6266C62.1609 63.1409 59.2554 62.6555 56.2942 62.1698C55.9344 64.2739 55.6024 66.1839 55.2149 68.3526C58.342 68.9029 61.4691 69.421 64.7347 70.0038C64.4856 71.0073 64.2642 71.9784 63.9874 73.0141C60.8603 72.4963 57.8161 71.9784 54.689 71.4281C54.1634 74.0176 53.693 76.575 52.9734 79.0675Z" fill="#0091FF"/>
</g>
<defs>
<clipPath id="clip0_2390_227">
<rect width="68.5246" height="80.1562" fill="white" transform="translate(18.0328 25.3125)"/>
</clipPath>
</defs>
</svg>
