<svg width="162" height="162" viewBox="0 0 162 162" fill="none" xmlns="http://www.w3.org/2000/svg">
<path fill-rule="evenodd" clip-rule="evenodd" d="M81 0L0.63936 16.1311C-2.32442 66.6921 5.18227 98.5161 19.7023 119.973C34.1557 141.33 55.779 152.608 81 162C106.221 152.608 127.843 141.33 142.298 119.971C156.818 98.5143 164.324 66.6921 161.361 16.1293L81 0ZM8.34952 59.1811C7.31597 47.6323 7.24575 35.9195 7.67429 24.7079C7.61847 23.3608 8.54758 22.1345 9.90883 21.864L80.4112 7.71119C80.7731 7.63185 81.1566 7.62463 81.5438 7.70218L152.091 21.864L152.089 21.8712C153.323 22.1165 154.272 23.1841 154.319 24.4969C155.419 54.2994 153.391 89.8653 136.494 115.25L136.487 115.244C123.384 134.928 103.579 145.362 81.9885 153.652C81.3745 153.887 80.6741 153.906 80.0115 153.652C48.2399 141.451 25.8657 126.347 14.9109 93.0032C11.4267 82.3976 9.39746 70.8903 8.34952 59.1811ZM13.1445 26.8936L81 13.271L148.855 26.8936C149.763 54.7736 147.618 88.4948 131.865 112.16L131.872 112.166C123.568 124.636 112.444 133.141 99.0474 140.067C93.1648 143.108 87.0752 145.726 81 148.094C74.9248 145.728 68.8352 143.11 62.9526 140.067C49.5058 133.115 38.4735 124.669 30.1349 112.162C14.3869 88.5435 12.237 54.7268 13.1445 26.8936ZM64.3661 72.8145C62.2288 69.8768 66.7015 66.6109 68.8406 69.5504L75.4722 78.6574L93.5358 62.364C96.2529 59.915 99.9675 64.0484 97.2504 66.4991L76.9072 84.8466L76.9018 84.8412C75.6864 85.9376 73.7742 85.7356 72.8127 84.412L64.3661 72.8145ZM102.071 52.5014C113.706 64.1566 113.708 83.054 102.071 94.7074C83.3462 113.461 51.2019 100.108 51.2019 73.6044C51.2019 47.1021 83.3444 33.7482 102.071 52.5014ZM81 38.1899C112.401 38.1899 128.222 76.3924 106.003 98.6459C83.7837 120.899 45.6399 105.053 45.6399 73.6044C45.6399 54.0469 61.4707 38.1899 81 38.1899Z" fill="white"/>
</svg>
