<svg width="62" height="62" viewBox="0 0 62 62" fill="none" xmlns="http://www.w3.org/2000/svg">
<path d="M24 41H38C38.7954 40.9991 39.5579 40.6828 40.1204 40.1204C40.6828 39.5579 40.9991 38.7954 41 38V36C40.9977 35.2595 40.7195 34.5464 40.2197 34C40.7195 33.4536 40.9977 32.7405 41 32V30C40.9977 29.2595 40.7195 28.5464 40.2197 28C40.7195 27.4536 40.9977 26.7405 41 26V24C40.9991 23.2046 40.6828 22.4421 40.1204 21.8796C39.5579 21.3172 38.7954 21.0009 38 21H24C23.2046 21.0009 22.4421 21.3172 21.8796 21.8796C21.3172 22.4421 21.0009 23.2046 21 24V26C21.0023 26.7405 21.2805 27.4536 21.7803 28C21.2805 28.5464 21.0023 29.2595 21 30V32C21.0023 32.7405 21.2805 33.4536 21.7803 34C21.2805 34.5464 21.0023 35.2595 21 36V38C21.0009 38.7954 21.3172 39.5579 21.8796 40.1204C22.4421 40.6828 23.2046 40.9991 24 41ZM23 24C23.0002 23.7348 23.1056 23.4806 23.2931 23.2931C23.4806 23.1056 23.7348 23.0002 24 23H38C38.2652 23.0002 38.5194 23.1056 38.7069 23.2931C38.8944 23.4806 38.9998 23.7348 39 24V26C38.9998 26.2652 38.8944 26.5194 38.7069 26.7069C38.5194 26.8944 38.2652 26.9998 38 27H24C23.7348 26.9998 23.4806 26.8944 23.2931 26.7069C23.1056 26.5194 23.0002 26.2652 23 26V24ZM23 30C23.0002 29.7348 23.1056 29.4806 23.2931 29.2931C23.4806 29.1056 23.7348 29.0002 24 29H38C38.2652 29.0002 38.5194 29.1056 38.7069 29.2931C38.8944 29.4806 38.9998 29.7348 39 30V32C38.9998 32.2652 38.8944 32.5194 38.7069 32.7069C38.5194 32.8944 38.2652 32.9998 38 33H24C23.7348 32.9998 23.4806 32.8944 23.2931 32.7069C23.1056 32.5194 23.0002 32.2652 23 32V30ZM23 36C23.0002 35.7348 23.1056 35.4806 23.2931 35.2931C23.4806 35.1056 23.7348 35.0002 24 35H38C38.2652 35.0002 38.5194 35.1056 38.7069 35.2931C38.8944 35.4806 38.9998 35.7348 39 36V38C38.9998 38.2652 38.8944 38.5194 38.7069 38.7069C38.5194 38.8944 38.2652 38.9998 38 39H24C23.7348 38.9998 23.4806 38.8944 23.2931 38.7069C23.1056 38.5194 23.0002 38.2652 23 38V36Z" fill="#000B44"/>
<path d="M26 24H24V26H26V24Z" fill="#000B44"/>
<path d="M38 24H30V26H38V24Z" fill="#000B44"/>
<path d="M26 30H24V32H26V30Z" fill="#000B44"/>
<path d="M38 30H30V32H38V30Z" fill="#000B44"/>
<path d="M26 36H24V38H26V36Z" fill="#000B44"/>
<path d="M38 36H30V38H38V36Z" fill="#000B44"/>
<path d="M31 0C24.8688 0 18.8753 1.81812 13.7773 5.22444C8.67941 8.63077 4.70606 13.4723 2.35975 19.1368C0.0134318 24.8013 -0.600472 31.0344 0.59567 37.0478C1.79181 43.0612 4.74428 48.5849 9.0797 52.9203C13.4151 57.2557 18.9388 60.2082 24.9522 61.4043C30.9656 62.6005 37.1987 61.9866 42.8632 59.6403C48.5277 57.2939 53.3693 53.3206 56.7756 48.2227C60.1819 43.1248 62 37.1312 62 31C61.9908 22.7811 58.7218 14.9015 52.9102 9.08984C47.0985 3.27821 39.2189 0.00919237 31 0ZM2.00001 31C2.00973 23.7382 4.74031 16.7437 9.65316 11.3961C14.566 6.04841 21.3045 2.7359 28.5394 2.11188L31.7979 7L28.3242 12.2109C23.7991 12.8574 19.6584 15.1125 16.6604 18.5631C13.6624 22.0137 12.008 26.4289 12 31C12 31.046 12.0066 31.0903 12.0069 31.1361L7.5547 28.168C7.39056 28.0582 7.19751 27.9995 7.00001 27.9995C6.80252 27.9995 6.60947 28.0582 6.44532 28.168L2.00332 31.1294C2.00312 31.086 2.00001 31.0434 2.00001 31ZM31 14C34.3623 14 37.6491 14.997 40.4447 16.865C43.2403 18.733 45.4193 21.388 46.706 24.4944C47.9927 27.6007 48.3293 31.0189 47.6734 34.3165C47.0174 37.6142 45.3983 40.6433 43.0208 43.0208C40.6433 45.3983 37.6142 47.0174 34.3166 47.6734C31.0189 48.3293 27.6007 47.9926 24.4944 46.706C21.3881 45.4193 18.733 43.2403 16.865 40.4447C14.997 37.6491 14 34.3623 14 31C14.005 26.4929 15.7977 22.1718 18.9848 18.9847C22.1718 15.7977 26.4929 14.005 31 14ZM31 60C23.7382 59.9903 16.7437 57.2597 11.3961 52.3469C6.04843 47.434 2.73591 40.6955 2.11189 33.4606L7.00001 30.2022L12.211 33.6758C12.8574 38.2009 15.1125 42.3417 18.5631 45.3396C22.0138 48.3376 26.429 49.9921 31 50C31.046 50 31.0903 49.9934 31.1361 49.9931L28.168 54.4453C28.0586 54.6096 28.0003 54.8026 28.0003 55C28.0003 55.1974 28.0586 55.3904 28.168 55.5547L31.1294 59.9967C31.086 59.9969 31.0434 60 31 60ZM60 31C59.9903 38.2618 57.2597 45.2563 52.3469 50.6039C47.434 55.9516 40.6956 59.2641 33.4606 59.8881L30.2022 55L33.6758 49.7891C38.2009 49.1426 42.3417 46.8875 45.3396 43.4369C48.3376 39.9863 49.9921 35.5711 50 31C50 30.954 49.9934 30.9097 49.9931 30.8639L54.4453 33.832C54.6096 33.9415 54.8026 34 55 34C55.1974 34 55.3904 33.9415 55.5547 33.832L59.9967 30.8706C59.9969 30.914 60 30.9566 60 31ZM55 31.7979L49.7891 28.3242C49.1426 23.7991 46.8875 19.6583 43.4369 16.6604C39.9863 13.6624 35.5711 12.0079 31 12C30.954 12 30.9097 12.0066 30.8639 12.0069L33.832 7.55469C33.9414 7.39037 33.9997 7.19739 33.9997 7C33.9997 6.80261 33.9414 6.60963 33.832 6.44531L30.8707 2.00331C30.914 2.00311 30.9566 2 31 2C38.2618 2.00972 45.2563 4.74029 50.604 9.65315C55.9516 14.566 59.2641 21.3044 59.8881 28.5394L55 31.7979Z" fill="#000B44"/>
</svg>
