<svg width="44" height="56" viewBox="0 0 44 56" fill="none" xmlns="http://www.w3.org/2000/svg">
<path d="M5 -2.21729e-05C2.2504 -2.21729e-05 0 2.25038 0 4.99998V51C0 53.7496 2.2504 56 5 56H39C41.7496 56 44 53.7496 44 51V16C44 14.4546 43.3857 12.9717 42.293 11.8789L32.121 1.70688C31.0282 0.614078 29.5453 -0.00012207 27.9999 -0.00012207L5 -2.21729e-05ZM5 1.99998H27V12C27 14.7496 29.2504 17 32 17H42V51C42 52.6687 40.6687 54 39 54H5C3.3313 54 2 52.6687 2 51V4.99998C2 3.33128 3.3313 1.99998 5 1.99998ZM29 2.15037C29.6379 2.32391 30.2312 2.64521 30.707 3.12107L40.879 13.2931C41.3549 13.7689 41.6762 14.3623 41.8497 15.0001H32.0001C30.3314 15.0001 29.0001 13.6688 29.0001 12.0001L29 2.15037Z" fill="white"/>
<path d="M16.0002 30C14.3552 30 13.0002 31.355 13.0002 33V39.7559L11.1174 37.8731C9.95374 36.7098 8.03704 36.7098 6.87334 37.8731C5.70954 39.0367 5.70954 40.9536 6.87334 42.1172L13.8772 49.1211C14.4495 49.6932 15.2302 50.0106 16.0393 50C16.8211 49.9896 17.5684 49.6739 18.1213 49.1211L25.1272 42.1172C26.291 40.9536 26.291 39.0367 25.1272 37.8731C23.9635 36.7098 22.0468 36.7098 20.8831 37.8731L19.0003 39.7559V33C19.0003 31.355 17.6452 30 16.0002 30ZM16.0002 32C16.5644 32 17.0002 32.4359 17.0002 33V42.1699C17.0003 42.3676 17.059 42.5609 17.1689 42.7253C17.2788 42.8897 17.435 43.0178 17.6176 43.0935C17.8003 43.1691 18.0013 43.1889 18.1953 43.1504C18.3892 43.1119 18.5674 43.0167 18.7072 42.8769L22.297 39.2871C22.6964 38.8879 23.3136 38.8879 23.713 39.2871C24.1125 39.6865 24.1125 40.3037 23.713 40.7031L16.7071 47.707C16.5223 47.8918 16.2732 47.9965 16.0118 48C15.7412 48.0035 15.4824 47.8983 15.2911 47.707L8.28723 40.7031C7.88779 40.3037 7.88779 39.6865 8.28723 39.2871C8.68664 38.8879 9.30383 38.8879 9.70323 39.2871L13.293 42.8769C13.4329 43.0167 13.6111 43.1119 13.805 43.1504C13.9989 43.1889 14.2 43.1691 14.3826 43.0935C14.5653 43.0178 14.7215 42.8897 14.8314 42.7253C14.9412 42.5609 14.9999 42.3676 15 42.1699V33C15 32.4359 15.4361 32 16.0002 32Z" fill="white"/>
</svg>
