<svg width="94" height="86" viewBox="0 0 94 86" fill="none" xmlns="http://www.w3.org/2000/svg">
<path d="M87.625 0.8125H6.375C2.9219 0.8125 0.125 3.6094 0.125 7.0625V72.6875C0.125 76.1406 2.9219 78.9375 6.375 78.9375H59.313C60.1724 78.9375 60.8755 78.2344 60.8755 77.375C60.8755 76.5156 60.1724 75.8125 59.313 75.8125H6.375C4.6562 75.8125 3.25 74.4063 3.25 72.6875V13.3125H90.75V72.6875C90.75 74.4063 89.3438 75.8125 87.625 75.8125H84.0938C83.2344 75.8125 82.5313 76.5156 82.5313 77.375C82.5313 78.2344 83.2344 78.9375 84.0938 78.9375H87.625C91.0781 78.9375 93.875 76.1406 93.875 72.6875V7.0625C93.875 3.6094 91.0781 0.8125 87.625 0.8125ZM90.75 10.1875H3.25V7.0625C3.25 5.3437 4.6562 3.9375 6.375 3.9375H87.625C89.3438 3.9375 90.75 5.3437 90.75 7.0625V10.1875Z" fill="white"/>
<path d="M87.625 7.06199C87.625 9.14399 84.5 9.14399 84.5 7.06199C84.5 4.97999 87.625 4.97999 87.625 7.06199Z" fill="white"/>
<path d="M81.375 7.06199C81.375 9.14399 78.25 9.14399 78.25 7.06199C78.25 4.97999 81.375 4.97999 81.375 7.06199Z" fill="white"/>
<path d="M75.125 7.06199C75.125 9.14399 72 9.14399 72 7.06199C72 4.97999 75.125 4.97999 75.125 7.06199Z" fill="white"/>
<path d="M60.844 51.5781C60.6409 51.2343 55.6096 43 47 43C38.3904 43 33.375 51.2188 33.156 51.5781C32.8591 52.0781 32.8591 52.6875 33.156 53.1875C33.3591 53.5312 38.3904 61.7656 47 61.7656C55.6096 61.7656 60.625 53.5468 60.844 53.1875C61.1409 52.6875 61.1409 52.0781 60.844 51.5781ZM47 58.625C41.5938 58.625 37.7656 54.2188 36.391 52.375C37.766 50.5156 41.5941 46.125 47 46.125C52.4059 46.125 56.2344 50.5156 57.609 52.375C56.234 54.2344 52.4059 58.625 47 58.625Z" fill="white"/>
<path d="M67.312 22.688C68.1714 22.688 68.8745 21.9849 68.8745 21.1255C68.8745 20.2661 68.1714 19.563 67.312 19.563H26.687C25.8276 19.563 25.1245 20.2661 25.1245 21.1255C25.1245 21.9849 25.8276 22.688 26.687 22.688H67.312Z" fill="white"/>
<path d="M11.062 27.375C11.062 28.2344 11.7651 28.9375 12.6245 28.9375H81.3745C82.2339 28.9375 82.937 28.2344 82.937 27.375C82.937 26.5156 82.2339 25.8125 81.3745 25.8125H12.6245C11.7651 25.8125 11.062 26.5156 11.062 27.375Z" fill="white"/>
<path d="M22 44.562H12.625C11.7656 44.562 11.0625 45.2651 11.0625 46.1245C11.0625 46.9839 11.7656 47.687 12.625 47.687H22C22.8594 47.687 23.5625 46.9839 23.5625 46.1245C23.5625 45.2651 22.8594 44.562 22 44.562Z" fill="white"/>
<path d="M22 50.812H12.625C11.7656 50.812 11.0625 51.5151 11.0625 52.3745C11.0625 53.2339 11.7656 53.937 12.625 53.937H22C22.8594 53.937 23.5625 53.2339 23.5625 52.3745C23.5625 51.5151 22.8594 50.812 22 50.812Z" fill="white"/>
<path d="M81.375 44.562H72C71.1406 44.562 70.4375 45.2651 70.4375 46.1245C70.4375 46.9839 71.1406 47.687 72 47.687H81.375C82.2344 47.687 82.9375 46.9839 82.9375 46.1245C82.9375 45.2651 82.2344 44.562 81.375 44.562Z" fill="white"/>
<path d="M81.375 50.812H72C71.1406 50.812 70.4375 51.5151 70.4375 52.3745C70.4375 53.2339 71.1406 53.937 72 53.937H81.375C82.2344 53.937 82.9375 53.2339 82.9375 52.3745C82.9375 51.5151 82.2344 50.812 81.375 50.812Z" fill="white"/>
<path d="M82.938 33.625C82.938 32.7656 82.2349 32.0625 81.3755 32.0625H63.5005C62.6411 32.0625 61.938 32.7656 61.938 33.625C61.938 34.4844 62.6411 35.1875 63.5005 35.1875H79.8125V38.3125H68.6245C67.7651 38.3125 67.062 39.0156 67.062 39.875C67.062 40.7344 67.7651 41.4375 68.6245 41.4375H81.3745C82.2339 41.4375 82.937 40.7344 82.937 39.875L82.938 33.625Z" fill="white"/>
<path d="M26.938 39.875C26.938 39.0156 26.2349 38.3125 25.3755 38.3125H14.1875V35.1875H30.4995C31.3589 35.1875 32.062 34.4844 32.062 33.625C32.062 32.7656 31.3589 32.0625 30.4995 32.0625H12.6245C11.7651 32.0625 11.062 32.7656 11.062 33.625V39.875C11.062 40.7344 11.7651 41.4375 12.6245 41.4375H25.3745C26.2339 41.4375 26.938 40.7344 26.938 39.875Z" fill="white"/>
<path d="M70.7031 69.453C69.4843 68.2342 67.5 68.2342 66.2812 69.453L62.4062 65.578C65.4531 62.0311 67.3124 57.4218 67.3124 52.375C67.3124 41.172 58.203 32.063 47.0004 32.063C35.7978 32.063 26.6884 41.1724 26.6884 52.375C26.6884 63.5776 35.7978 72.687 47.0004 72.687C52.0316 72.687 56.641 70.8276 60.2034 67.7808L64.0784 71.6558C62.8596 72.8746 62.8596 74.8589 64.0784 76.0777L72.2659 84.2652C72.8752 84.8746 73.6721 85.1714 74.469 85.1714C75.2659 85.1714 76.0628 84.8589 76.6721 84.2652L78.8752 82.0621C80.094 80.8433 80.094 78.859 78.8752 77.6402L70.6877 69.4527L70.7031 69.453ZM47.0001 69.5624C37.5157 69.5624 29.8121 61.8593 29.8121 52.3744C29.8121 42.8895 37.5152 35.1864 47.0001 35.1864C56.485 35.1864 64.1881 42.8895 64.1881 52.3744C64.1881 61.8593 56.485 69.5624 47.0001 69.5624ZM74.4841 82.0624L66.2966 73.8749L68.5154 71.6718L76.7029 79.8593L74.4841 82.0781V82.0624Z" fill="white"/>
<path d="M47 47.688C44.4219 47.688 42.3125 49.7974 42.3125 52.3755C42.3125 54.9536 44.4219 57.063 47 57.063C49.5781 57.063 51.6875 54.9536 51.6875 52.3755C51.6875 49.7974 49.5781 47.688 47 47.688ZM47 53.938C46.1406 53.938 45.4375 53.2349 45.4375 52.3755C45.4375 51.5161 46.1406 50.813 47 50.813C47.8594 50.813 48.5625 51.5161 48.5625 52.3755C48.5625 53.2349 47.8594 53.938 47 53.938Z" fill="white"/>
</svg>
