<svg width="162" height="161" viewBox="0 0 162 161" fill="none" xmlns="http://www.w3.org/2000/svg">
<path d="M94.3552 88.4961L116.285 101.171" stroke="#000B44" stroke-width="3.35324" stroke-miterlimit="10"/>
<path d="M116.285 60.2622L94.3552 72.9374" stroke="#000B44" stroke-width="3.35324" stroke-miterlimit="10"/>
<path d="M80.8752 47.4517V65.0897" stroke="#000B44" stroke-width="3.35324" stroke-miterlimit="10"/>
<path d="M80.8752 96.3423V112.974" stroke="#000B44" stroke-width="3.35324" stroke-miterlimit="10"/>
<path d="M116.352 60.2618V49.129L94.4223 36.4538V40.2765L80.8752 48.056L67.3281 40.2765V36.3867L45.398 49.062V60.2618L35.6736 65.8952V95.6719L45.398 101.238V112.304L67.3281 124.979V120.754L80.8752 112.975L94.4223 120.754V124.845L116.352 112.237V101.238L125.876 95.739V65.7611L116.352 60.2618Z" stroke="#000B44" stroke-width="3.35324" stroke-miterlimit="10"/>
<path d="M67.3279 88.4961L45.4648 101.171" stroke="#000B44" stroke-width="3.35324" stroke-miterlimit="10"/>
<path d="M44.1909 59.5254L67.3282 72.8713" stroke="#000B44" stroke-width="3.35324" stroke-miterlimit="10"/>
<path d="M94.422 120.754L80.875 112.974L67.3279 120.754V136.447L80.875 144.226L94.422 136.447V120.754Z" stroke="black" stroke-width="3.35324" stroke-miterlimit="10"/>
<path d="M94.422 120.754L80.875 128.601L67.3279 120.754" stroke="black" stroke-width="3.35324" stroke-miterlimit="10"/>
<path d="M80.8752 144.227V128.601" stroke="black" stroke-width="3.35324" stroke-miterlimit="10"/>
<path d="M45.3974 44.6379L31.9174 36.8584L18.3704 44.6379V60.264L31.9174 68.1106L45.3974 60.264V44.6379Z" stroke="black" stroke-width="3.35324" stroke-miterlimit="10"/>
<path d="M45.3974 44.6353L31.9174 52.4818L18.3704 44.6353" stroke="black" stroke-width="3.35324" stroke-miterlimit="10"/>
<path d="M31.9175 68.1075V52.4814" stroke="black" stroke-width="3.35324" stroke-miterlimit="10"/>
<path d="M116.353 44.6379L129.833 36.8584L143.38 44.6379V60.264L129.833 68.1106L116.353 60.264V44.6379Z" stroke="black" stroke-width="3.35324" stroke-miterlimit="10"/>
<path d="M116.353 44.6353L129.833 52.4818L143.38 44.6353" stroke="black" stroke-width="3.35324" stroke-miterlimit="10"/>
<path d="M129.833 68.1075V52.4814" stroke="black" stroke-width="3.35324" stroke-miterlimit="10"/>
<path d="M45.3974 101.24L31.9174 93.4604L18.3704 101.24V116.866L31.9174 124.713L45.3974 116.866V101.24Z" stroke="black" stroke-width="3.35324" stroke-miterlimit="10"/>
<path d="M45.3974 101.238L31.9174 109.084L18.3704 101.238" stroke="black" stroke-width="3.35324" stroke-miterlimit="10"/>
<path d="M31.9175 124.71V109.084" stroke="black" stroke-width="3.35324" stroke-miterlimit="10"/>
<path d="M116.353 101.24L129.833 93.4604L143.38 101.24V116.866L129.833 124.713L116.353 116.866V101.24Z" stroke="black" stroke-width="3.35324" stroke-miterlimit="10"/>
<path d="M116.353 101.238L129.833 109.084L143.38 101.238" stroke="black" stroke-width="3.35324" stroke-miterlimit="10"/>
<path d="M129.833 124.71V109.084" stroke="black" stroke-width="3.35324" stroke-miterlimit="10"/>
<path d="M94.422 24.6508L80.875 16.8042L67.3279 24.6508V40.2769L80.875 48.0564L94.422 40.2769V24.6508Z" stroke="black" stroke-width="3.35324" stroke-miterlimit="10"/>
<path d="M94.422 24.6504L80.875 32.4299L67.3279 24.6504" stroke="black" stroke-width="3.35324" stroke-miterlimit="10"/>
<path d="M80.8752 48.0567V32.4307" stroke="black" stroke-width="3.35324" stroke-miterlimit="10"/>
<path d="M94.422 72.9389L80.875 65.0923L67.3279 72.9389V88.5649L80.875 96.3445L94.422 88.5649V72.9389Z" stroke="black" stroke-width="3.35324" stroke-miterlimit="10"/>
<path d="M94.422 72.9385L80.875 80.718L67.3279 72.9385" stroke="black" stroke-width="3.35324" stroke-miterlimit="10"/>
<path d="M80.8752 96.3414V80.7153" stroke="black" stroke-width="3.35324" stroke-miterlimit="10"/>
</svg>
