<svg width="162" height="162" viewBox="0 0 162 162" fill="none" xmlns="http://www.w3.org/2000/svg">
<path d="M107.434 77.5963V109.452C107.434 110.786 106.904 112.065 105.961 113.009C105.017 113.952 103.738 114.482 102.404 114.482H58.7449C58.0875 114.482 57.4366 114.351 56.8301 114.098C56.2235 113.844 55.6734 113.473 55.2117 113.005C54.75 112.537 54.3858 111.982 54.1404 111.372C53.895 110.762 53.7732 110.109 53.7821 109.452V77.5963C53.7732 76.9389 53.895 76.2864 54.1404 75.6765C54.3858 75.0666 54.75 74.5116 55.2117 74.0436C55.6734 73.5756 56.2235 73.2041 56.8301 72.9505C57.4366 72.6969 58.0875 72.5663 58.7449 72.5664H102.404C103.738 72.5664 105.017 73.0963 105.961 74.0396C106.904 74.9829 107.434 76.2623 107.434 77.5963Z" stroke="black" stroke-width="5.02986" stroke-miterlimit="10"/>
<path d="M100.727 52.4468V72.5663H60.4886V52.4468C60.4797 51.7895 60.6015 51.1369 60.847 50.5271C61.0924 49.9172 61.4565 49.3622 61.9183 48.8942C62.38 48.4262 62.9301 48.0547 63.5366 47.8011C64.1431 47.5475 64.794 47.4169 65.4514 47.417H95.6976C97.0316 47.417 98.311 47.9469 99.2542 48.8902C100.198 49.8335 100.727 51.1128 100.727 52.4468Z" stroke="black" stroke-width="5.02986" stroke-miterlimit="10"/>
<path d="M86.443 89.3335C86.288 87.8854 85.6029 86.5456 84.5196 85.5721C83.4363 84.5986 82.0313 84.0601 80.5748 84.0601C79.1184 84.0601 77.7134 84.5986 76.6301 85.5721C75.5468 86.5456 74.8617 87.8854 74.7067 89.3335C74.7214 90.2635 74.9609 91.1762 75.4047 91.9936C75.8484 92.8111 76.4833 93.509 77.2551 94.0281V101.942C77.2551 102.831 77.6084 103.684 78.2373 104.313C78.8661 104.942 79.719 105.295 80.6084 105.295C81.4977 105.295 82.3506 104.942 82.9795 104.313C83.6083 103.684 83.9616 102.831 83.9616 101.942V94.3634C84.7737 93.81 85.4289 93.056 85.8637 92.1747C86.2985 91.2934 86.498 90.3147 86.443 89.3335Z" stroke="#000B44" stroke-width="3.35324" stroke-miterlimit="10"/>
<path d="M133.053 45.7404C135.831 45.7404 138.083 43.4884 138.083 40.7105C138.083 37.9326 135.831 35.6807 133.053 35.6807C130.275 35.6807 128.023 37.9326 128.023 40.7105C128.023 43.4884 130.275 45.7404 133.053 45.7404Z" stroke="black" stroke-width="5.02986" stroke-miterlimit="10"/>
<path d="M141.436 85.9791C144.214 85.9791 146.466 83.7272 146.466 80.9493C146.466 78.1714 144.214 75.9194 141.436 75.9194C138.658 75.9194 136.406 78.1714 136.406 80.9493C136.406 83.7272 138.658 85.9791 141.436 85.9791Z" stroke="black" stroke-width="5.02986" stroke-miterlimit="10"/>
<path d="M114.61 69.2129H128.023C129.311 69.0938 130.508 68.4955 131.376 67.5363C133.053 65.8597 133.053 60.8298 133.053 60.8298V45.7402" stroke="black" stroke-width="5.02986" stroke-linejoin="round"/>
<path d="M114.61 80.9492H134.729" stroke="black" stroke-width="5.02986" stroke-linejoin="round"/>
<path d="M133.053 126.218C135.831 126.218 138.083 123.966 138.083 121.188C138.083 118.41 135.831 116.158 133.053 116.158C130.275 116.158 128.023 118.41 128.023 121.188C128.023 123.966 130.275 126.218 133.053 126.218Z" stroke="black" stroke-width="5.02986" stroke-miterlimit="10"/>
<path d="M114.61 92.6855H128.023C129.311 92.8046 130.508 93.403 131.376 94.3622C133.053 96.0388 133.053 101.069 133.053 101.069V116.158" stroke="black" stroke-width="5.02986" stroke-linejoin="round"/>
<path d="M27.4257 45.7404C30.2036 45.7404 32.4556 43.4884 32.4556 40.7105C32.4556 37.9326 30.2036 35.6807 27.4257 35.6807C24.6478 35.6807 22.3959 37.9326 22.3959 40.7105C22.3959 43.4884 24.6478 45.7404 27.4257 45.7404Z" stroke="black" stroke-width="5.02986" stroke-miterlimit="10"/>
<path d="M19.0426 85.9791C21.8205 85.9791 24.0724 83.7272 24.0724 80.9493C24.0724 78.1714 21.8205 75.9194 19.0426 75.9194C16.2646 75.9194 14.0127 78.1714 14.0127 80.9493C14.0127 83.7272 16.2646 85.9791 19.0426 85.9791Z" stroke="black" stroke-width="5.02986" stroke-miterlimit="10"/>
<path d="M45.8685 69.2129H32.4555C31.1672 69.0938 29.9705 68.4955 29.1023 67.5363C27.4257 65.8597 27.4257 60.8298 27.4257 60.8298V45.7402" stroke="black" stroke-width="5.02986" stroke-linejoin="round"/>
<path d="M45.8684 80.9492H25.749" stroke="black" stroke-width="5.02986" stroke-linejoin="round"/>
<path d="M27.4257 126.218C30.2036 126.218 32.4556 123.966 32.4556 121.188C32.4556 118.41 30.2036 116.158 27.4257 116.158C24.6478 116.158 22.3959 118.41 22.3959 121.188C22.3959 123.966 24.6478 126.218 27.4257 126.218Z" stroke="black" stroke-width="5.02986" stroke-miterlimit="10"/>
<path d="M45.8685 92.6855H32.4555C31.1672 92.8046 29.9705 93.403 29.1023 94.3622C27.4257 96.0388 27.4257 101.069 27.4257 101.069V116.158" stroke="black" stroke-width="5.02986" stroke-linejoin="round"/>
</svg>
