<svg width="162" height="162" viewBox="0 0 162 162" fill="none" xmlns="http://www.w3.org/2000/svg">
<path d="M53.1416 93.4898H34.9C30.5408 93.217 26.4495 91.293 23.4591 88.1095C20.4686 84.926 18.804 80.7225 18.804 76.3548C18.804 71.9871 20.4686 67.7835 23.4591 64.6001C26.4495 61.4166 30.5408 59.4926 34.9 59.2198H36.1742C36.1079 58.394 36.1079 57.5642 36.1742 56.7384C36.1824 53.8127 36.9381 50.9376 38.3696 48.386C39.8011 45.8345 41.8609 43.691 44.3535 42.1592C46.8462 40.6273 49.6889 39.7579 52.612 39.6333C55.535 39.5088 58.4414 40.1333 61.0553 41.4476C64.3851 34.3197 70.1663 28.6264 77.3444 25.4062C84.5225 22.186 92.619 21.6536 100.157 23.906C107.695 26.1585 114.172 31.0457 118.407 37.6761C122.641 44.3066 124.351 52.2383 123.224 60.0245C124.805 59.5069 126.456 59.2355 128.12 59.2198C130.46 59.0733 132.806 59.4078 135.012 60.2026C137.218 60.9975 139.238 62.2358 140.947 63.8413C142.656 65.4468 144.018 67.3854 144.95 69.5376C145.881 71.6898 146.361 74.0098 146.361 76.3548C146.361 78.6997 145.881 81.0198 144.95 83.172C144.018 85.3242 142.656 87.2628 140.947 88.8683C139.238 90.4738 137.218 91.7121 135.012 92.507C132.806 93.3018 130.46 93.6363 128.12 93.4898H98.1421" stroke="black" stroke-width="5.02986" stroke-miterlimit="10"/>
<path d="M79.0278 67.6021H97.2024" stroke="black" stroke-width="5.02986" stroke-miterlimit="10"/>
<path d="M56.6961 72.2979L63.7379 83.0282V110.726H17.7986" stroke="black" stroke-width="5.02986" stroke-miterlimit="10"/>
<path d="M74.0664 72.5664V122.194H50.1914" stroke="black" stroke-width="5.02986" stroke-miterlimit="10"/>
<path d="M29.1992 122.193H39.9966" stroke="black" stroke-width="5.02986" stroke-miterlimit="10"/>
<path d="M93.3806 122.193H127.047" stroke="black" stroke-width="5.02986" stroke-miterlimit="10"/>
<path d="M136.973 122.193H145.222" stroke="black" stroke-width="5.02986" stroke-miterlimit="10"/>
<path d="M145.222 110.726H115.781" stroke="black" stroke-width="5.02986" stroke-miterlimit="10"/>
<path d="M106.123 110.724H87.948V87.1841" stroke="black" stroke-width="5.02986" stroke-miterlimit="10"/>
<path d="M17.7986 134.198H46.7705" stroke="black" stroke-width="5.02986" stroke-miterlimit="10"/>
<path d="M56.6965 134.198H145.222" stroke="black" stroke-width="5.02986" stroke-miterlimit="10"/>
<path d="M55.1542 72.5662C57.8951 72.5662 60.117 70.3443 60.117 67.6034C60.117 64.8625 57.8951 62.6406 55.1542 62.6406C52.4133 62.6406 50.1914 64.8625 50.1914 67.6034C50.1914 70.3443 52.4133 72.5662 55.1542 72.5662Z" stroke="#000B44" stroke-width="5.02986" stroke-miterlimit="10"/>
<path d="M74.0653 72.5662C76.8062 72.5662 79.0281 70.3443 79.0281 67.6034C79.0281 64.8625 76.8062 62.6406 74.0653 62.6406C71.3245 62.6406 69.1025 64.8625 69.1025 67.6034C69.1025 70.3443 71.3245 72.5662 74.0653 72.5662Z" stroke="#000B44" stroke-width="5.02986" stroke-miterlimit="10"/>
<path d="M87.9481 55.3289C90.689 55.3289 92.9109 53.107 92.9109 50.3661C92.9109 47.6252 90.689 45.4033 87.9481 45.4033C85.2073 45.4033 82.9854 47.6252 82.9854 50.3661C82.9854 53.107 85.2073 55.3289 87.9481 55.3289Z" stroke="#000B44" stroke-width="5.02986" stroke-miterlimit="10"/>
<path d="M102.167 72.5662C104.908 72.5662 107.129 70.3443 107.129 67.6034C107.129 64.8625 104.908 62.6406 102.167 62.6406C99.4258 62.6406 97.2039 64.8625 97.2039 67.6034C97.2039 70.3443 99.4258 72.5662 102.167 72.5662Z" stroke="#000B44" stroke-width="5.02986" stroke-miterlimit="10"/>
<path d="M87.9481 87.1844C90.689 87.1844 92.9109 84.9625 92.9109 82.2216C92.9109 79.4807 90.689 77.2588 87.9481 77.2588C85.2073 77.2588 82.9854 79.4807 82.9854 82.2216C82.9854 84.9625 85.2073 87.1844 87.9481 87.1844Z" stroke="#000B44" stroke-width="5.02986" stroke-miterlimit="10"/>
<path d="M24.2367 127.155C26.9776 127.155 29.1995 124.933 29.1995 122.192C29.1995 119.451 26.9776 117.229 24.2367 117.229C21.4958 117.229 19.2739 119.451 19.2739 122.192C19.2739 124.933 21.4958 127.155 24.2367 127.155Z" stroke="#000B44" stroke-width="5.02986" stroke-miterlimit="10"/>
<path d="M51.7338 139.159C54.4747 139.159 56.6966 136.938 56.6966 134.197C56.6966 131.456 54.4747 129.234 51.7338 129.234C48.9929 129.234 46.771 131.456 46.771 134.197C46.771 136.938 48.9929 139.159 51.7338 139.159Z" stroke="#000B44" stroke-width="5.02986" stroke-miterlimit="10"/>
<path d="M88.4181 127.155C91.159 127.155 93.3809 124.933 93.3809 122.192C93.3809 119.451 91.159 117.229 88.4181 117.229C85.6772 117.229 83.4553 119.451 83.4553 122.192C83.4553 124.933 85.6772 127.155 88.4181 127.155Z" stroke="#000B44" stroke-width="5.02986" stroke-miterlimit="10"/>
<path d="M132.01 127.155C134.751 127.155 136.973 124.933 136.973 122.192C136.973 119.451 134.751 117.229 132.01 117.229C129.269 117.229 127.047 119.451 127.047 122.192C127.047 124.933 129.269 127.155 132.01 127.155Z" stroke="#000B44" stroke-width="5.02986" stroke-miterlimit="10"/>
</svg>
