<svg width="91" height="79" viewBox="0 0 91 79" fill="none" xmlns="http://www.w3.org/2000/svg">
<path fill-rule="evenodd" clip-rule="evenodd" d="M81.66 45.972L75.694 35.645H77.529C77.808 35.644 78.0753 35.5325 78.2724 35.335C78.4695 35.1375 78.5805 34.8701 78.581 34.591V4.12803H84.731V34.591C84.7314 34.7298 84.7591 34.8672 84.8126 34.9953C84.8661 35.1234 84.9443 35.2397 85.0427 35.3376C85.1412 35.4354 85.2579 35.513 85.3863 35.5657C85.5147 35.6185 85.6522 35.6454 85.791 35.645H87.618L81.66 45.972ZM90.36 34.063C90.266 33.903 90.1319 33.7702 89.9709 33.6778C89.8099 33.5854 89.6276 33.5365 89.442 33.536H86.842V3.07403C86.8425 2.93567 86.8157 2.79857 86.7632 2.6706C86.7106 2.54262 86.6332 2.42629 86.5356 2.32827C86.438 2.23025 86.3219 2.15248 86.1941 2.09941C86.0664 2.04634 85.9294 2.01902 85.791 2.01903H77.529C77.3902 2.01876 77.2527 2.04584 77.1244 2.09872C76.996 2.1516 76.8794 2.22923 76.781 2.3272C76.6827 2.42516 76.6046 2.54154 76.5512 2.66968C76.4979 2.79782 76.4703 2.93522 76.47 3.07403V33.536H73.87C73.6853 33.5369 73.504 33.5862 73.3444 33.6791C73.1847 33.772 73.0522 33.9052 72.9602 34.0654C72.8682 34.2256 72.8198 34.4071 72.82 34.5918C72.8201 34.7766 72.8687 34.958 72.961 35.118L80.746 48.608C80.8391 48.7689 80.973 48.9023 81.1342 48.9949C81.2954 49.0874 81.4782 49.1357 81.664 49.135C81.8488 49.1357 82.0304 49.0872 82.1903 48.9946C82.3502 48.902 82.4826 48.7686 82.574 48.608L90.367 35.118C90.4575 34.9569 90.505 34.7753 90.505 34.5905C90.505 34.4058 90.4575 34.2241 90.367 34.063H90.36ZM60.165 2.38003C62.5659 2.37904 64.9132 3.0901 66.91 4.42329C68.9068 5.75647 70.4633 7.65188 71.3827 9.86978C72.3022 12.0877 72.5432 14.5284 72.0753 16.8833C71.6075 19.2382 70.4517 21.4015 68.7543 23.0995C67.0569 24.7975 64.894 25.9539 62.5392 26.4226C60.1845 26.8912 57.7437 26.651 55.5255 25.7323C53.3073 24.8136 51.4113 23.2577 50.0775 21.2613C48.7437 19.265 48.0318 16.918 48.032 14.517C48.0368 11.3002 49.3165 8.21652 51.5907 5.94154C53.8649 3.66656 56.9482 2.38584 60.165 2.38003ZM60.165 28.764C57.3474 28.763 54.5934 27.9266 52.2512 26.3605C49.9089 24.7945 48.0836 22.569 47.0061 19.9657C45.9285 17.3623 45.6471 14.4978 46.1974 11.7345C46.7477 8.97119 48.105 6.43309 50.0976 4.44111C52.0903 2.44913 54.6289 1.09273 57.3924 0.543413C60.1559 -0.00590596 63.0203 0.276524 65.6233 1.35499C68.2263 2.43346 70.4511 4.25954 72.0163 6.60234C73.5816 8.94514 74.417 11.6994 74.417 14.517C74.4128 18.2951 72.9097 21.9172 70.2377 24.5883C67.5657 27.2593 63.9431 28.7611 60.165 28.764ZM63.16 18.564C63.118 19.3301 62.7841 20.0509 62.2269 20.5784C61.6698 21.1058 60.9317 21.3998 60.1645 21.3998C59.3973 21.3998 58.6592 21.1058 58.1021 20.5784C57.5449 20.0509 57.211 19.3301 57.169 18.564C57.1779 18.4207 57.1573 18.2771 57.1085 18.142C57.0597 18.0069 56.9838 17.8832 56.8855 17.7786C56.7871 17.674 56.6683 17.5906 56.5365 17.5336C56.4047 17.4766 56.2626 17.4472 56.119 17.4472C55.9754 17.4472 55.8333 17.4766 55.7015 17.5336C55.5697 17.5906 55.4509 17.674 55.3526 17.7786C55.2542 17.8832 55.1783 18.0069 55.1295 18.142C55.0808 18.2771 55.0602 18.4207 55.069 18.564C55.0696 19.7458 55.4799 20.8909 56.23 21.8041C56.9802 22.7172 58.0238 23.3421 59.183 23.572V24.02C59.1859 24.2991 59.2989 24.5657 59.4975 24.7617C59.696 24.9578 59.964 25.0676 60.243 25.067H60.251C60.3894 25.0662 60.5264 25.0381 60.6539 24.9841C60.7814 24.9302 60.8969 24.8515 60.9939 24.7527C61.0908 24.6539 61.1673 24.5369 61.2188 24.4084C61.2703 24.2799 61.2959 24.1425 61.294 24.004V23.544C62.5197 23.2677 63.6003 22.5491 64.3293 21.5258C65.0582 20.5024 65.3841 19.2462 65.2447 17.9976C65.1053 16.7489 64.5103 15.5955 63.5737 14.7582C62.637 13.9208 61.4244 13.4582 60.168 13.459C59.5745 13.46 58.9939 13.2849 58.4999 12.9559C58.0059 12.6268 57.6206 12.1586 57.3928 11.6105C57.165 11.0625 57.1049 10.4591 57.22 9.87683C57.3352 9.29455 57.6206 8.75954 58.0399 8.33948C58.4593 7.91942 58.9938 7.6332 59.5759 7.51704C60.158 7.40088 60.7614 7.46 61.3099 7.68691C61.8584 7.91383 62.3272 8.29834 62.6571 8.7918C62.9869 9.28525 63.163 9.86547 63.163 10.459C63.1715 10.7333 63.2864 10.9936 63.4834 11.1846C63.6804 11.3757 63.9441 11.4825 64.2185 11.4825C64.493 11.4825 64.7566 11.3757 64.9536 11.1846C65.1507 10.9936 65.2656 10.7333 65.274 10.459C65.2731 9.27747 64.8628 8.13272 64.1129 7.21964C63.363 6.30655 62.3199 5.68156 61.161 5.45103L61.152 5.00303C61.1417 4.7286 61.025 4.46897 60.8265 4.27921C60.628 4.08944 60.3634 3.98447 60.0887 3.98655C59.8141 3.98863 59.5511 4.0976 59.3555 4.29036C59.1599 4.48311 59.0471 4.74448 59.041 5.01903L59.049 5.48002C57.8159 5.74745 56.7257 6.46249 55.9891 7.48696C55.2525 8.51142 54.9219 9.77257 55.061 11.0267C55.2002 12.2807 55.7993 13.4387 56.7426 14.2768C57.6858 15.1148 58.9063 15.5735 60.168 15.564C60.9628 15.5653 61.7246 15.882 62.2861 16.4445C62.8476 17.0069 63.163 17.7692 63.163 18.564H63.16ZM6.02501 62.243C6.16337 62.2432 6.30039 62.216 6.42821 62.163C6.55604 62.1101 6.67215 62.0324 6.76989 61.9345C6.86763 61.8366 6.94507 61.7203 6.99778 61.5924C7.05048 61.4645 7.07741 61.3274 7.07701 61.189V23.728H15.071V61.189C15.0705 61.3273 15.0973 61.4644 15.1499 61.5923C15.2025 61.7202 15.2798 61.8365 15.3775 61.9344C15.4751 62.0324 15.5912 62.11 15.719 62.163C15.8467 62.216 15.9837 62.2432 16.122 62.243H18.767L11.074 75.566L3.38001 62.243H6.02501ZM10.164 78.2C10.2555 78.3605 10.3879 78.4939 10.5476 78.5867C10.7073 78.6795 10.8888 78.7284 11.0735 78.7284C11.2582 78.7284 11.4397 78.6795 11.5994 78.5867C11.7592 78.4939 11.8915 78.3605 11.983 78.2L21.505 61.714C21.5988 61.554 21.6482 61.372 21.6482 61.1865C21.6482 61.0011 21.5988 60.819 21.505 60.659C21.4125 60.4994 21.2798 60.3668 21.1202 60.2743C20.9606 60.1819 20.7795 60.1328 20.595 60.132H17.182V22.674C17.1812 22.3936 17.0691 22.125 16.8704 21.9271C16.6716 21.7293 16.4024 21.6185 16.122 21.619H6.02501C5.74459 21.6185 5.47542 21.7293 5.27666 21.9271C5.0779 22.125 4.96581 22.3936 4.96501 22.674V60.134H1.55301C1.3682 60.1347 1.18682 60.1839 1.02702 60.2768C0.867216 60.3696 0.734603 60.5028 0.642454 60.663C0.550306 60.8232 0.501855 61.0048 0.501953 61.1896C0.502051 61.3744 0.550694 61.5559 0.643012 61.716L10.164 78.2ZM28.656 22.875H37.409V59.72L28.656 59.668V22.875ZM45.687 32.762H54.44V59.82L45.687 59.768V32.762ZM62.092 41.857H70.845V59.917L62.092 59.865V41.857ZM24.392 61.757L76.286 62.062H76.3C76.5741 62.0547 76.8346 61.9409 77.0263 61.7448C77.218 61.5487 77.3257 61.2856 77.3268 61.0114C77.3278 60.7372 77.222 60.4733 77.0319 60.2758C76.8417 60.0782 76.5821 59.9624 76.308 59.953L72.962 59.934V40.8C72.961 40.5198 72.8487 40.2514 72.65 40.0538C72.4513 39.8562 72.1823 39.7455 71.902 39.746H61.041C60.7608 39.7455 60.4917 39.8562 60.293 40.0538C60.0943 40.2514 59.9821 40.5198 59.981 40.8V59.853L56.543 59.833V31.709C56.5435 31.5707 56.5167 31.4336 56.4642 31.3056C56.4116 31.1776 56.3342 31.0613 56.2366 30.9633C56.139 30.8653 56.0229 30.7875 55.8951 30.7344C55.7674 30.6813 55.6304 30.654 55.492 30.654H44.635C44.4962 30.6538 44.3587 30.6808 44.2304 30.7337C44.102 30.7866 43.9853 30.8642 43.887 30.9622C43.7887 31.0602 43.7106 31.1765 43.6572 31.3047C43.6039 31.4328 43.5763 31.5702 43.576 31.709V59.756L39.52 59.733V21.82C39.519 21.5399 39.4069 21.2715 39.2084 21.0738C39.0099 20.876 38.7412 20.765 38.461 20.765H27.6C27.3198 20.7648 27.0508 20.8757 26.8523 21.0735C26.6538 21.2713 26.5418 21.5398 26.541 21.82V59.656L24.404 59.643H24.4C24.2615 59.6425 24.1242 59.6693 23.996 59.7218C23.8678 59.7743 23.7512 59.8516 23.6528 59.9492C23.4542 60.1463 23.3421 60.4142 23.341 60.694C23.34 60.9738 23.4501 61.2426 23.6472 61.4412C23.8443 61.6398 24.1122 61.752 24.392 61.753V61.757Z" fill="white"/>
</svg>
