<svg width="90" height="82" viewBox="0 0 90 82" fill="none" xmlns="http://www.w3.org/2000/svg">
<path fill-rule="evenodd" clip-rule="evenodd" d="M70.7939 58.1329C74.9176 53.222 77.5538 47.2361 78.3925 40.8786C79.2313 34.5211 78.2378 28.0563 75.5288 22.244C72.8197 16.4317 68.5078 11.5136 63.0998 8.0676C57.6918 4.62162 51.4125 2.79106 44.9999 2.79106C38.5873 2.79106 32.308 4.62162 26.9 8.0676C21.492 11.5136 17.1801 16.4317 14.4711 22.244C11.762 28.0563 10.7685 34.5211 11.6073 40.8786C12.446 47.2361 15.0822 53.222 19.2059 58.1329H24.0509C19.7345 53.9593 16.7631 48.5917 15.5176 42.7182C14.272 36.8447 14.8091 30.733 17.0601 25.1668C19.311 19.6006 23.1732 14.8335 28.1513 11.4769C33.1295 8.1202 38.9968 6.3269 45.0009 6.3269C51.005 6.3269 56.8723 8.1202 61.8505 11.4769C66.8286 14.8335 70.6908 19.6006 72.9417 25.1668C75.1927 30.733 75.7298 36.8447 74.4843 42.7182C73.2387 48.5917 70.2673 53.9593 65.9509 58.1329H70.7939ZM17.2209 67.8848H4.19991L8.05091 72.6948C8.24764 72.9394 8.35373 73.2445 8.35117 73.5583C8.34862 73.8722 8.23759 74.1755 8.03691 74.4168L4.19991 79.2088H27.1199V74.9088H18.5849C18.4058 74.9088 18.2284 74.8736 18.0629 74.805C17.8974 74.7365 17.7471 74.636 17.6204 74.5093C17.4938 74.3827 17.3933 74.2323 17.3247 74.0668C17.2562 73.9013 17.2209 73.724 17.2209 73.5448V67.8848ZM29.8469 74.9109V80.5728C29.8469 80.9344 29.7033 81.2812 29.4478 81.537C29.1922 81.7928 28.8455 81.9366 28.4839 81.9368H1.36391C1.10725 81.9362 0.855964 81.8633 0.638887 81.7263C0.42181 81.5894 0.247737 81.394 0.136646 81.1627C0.0255547 80.9313 -0.0180541 80.6733 0.0108235 80.4183C0.0397012 80.1632 0.139896 79.9215 0.299908 79.7208L5.24291 73.5468L0.357908 67.4468C0.178262 67.2522 0.0591936 67.0094 0.0152429 66.7481C-0.0287079 66.4869 0.0043612 66.2185 0.110412 65.9758C0.216463 65.733 0.390905 65.5264 0.612438 65.3812C0.83397 65.2359 1.093 65.1583 1.35791 65.1578H17.2209V59.9999C12.7272 54.6999 9.84347 48.225 8.91002 41.3394C7.97658 34.4538 9.03239 27.4448 11.9528 21.1397C14.8733 14.8347 19.5365 9.49662 25.3921 5.75564C31.2477 2.01465 38.0513 0.0268555 44.9999 0.0268555C51.9485 0.0268555 58.7521 2.01465 64.6077 5.75564C70.4633 9.49662 75.1265 14.8347 78.047 21.1397C80.9674 27.4448 82.0232 34.4538 81.0898 41.3394C80.1563 48.225 77.2726 54.6999 72.7789 59.9999V65.1628H88.6359C88.9008 65.1633 89.1598 65.2409 89.3814 65.3862C89.6029 65.5314 89.7774 65.738 89.8834 65.9808C89.9895 66.2235 90.0225 66.4919 89.9786 66.7532C89.9346 67.0144 89.8156 67.2572 89.6359 67.4519L84.7509 73.5518L89.6999 79.7208C89.8585 79.9213 89.9577 80.1623 89.9861 80.4163C90.0145 80.6703 89.9709 80.9272 89.8605 81.1578C89.75 81.3883 89.577 81.5832 89.3612 81.7202C89.1455 81.8572 88.8955 81.9309 88.6399 81.9328H61.5159C61.1543 81.9326 60.8076 81.7888 60.5521 81.533C60.2965 81.2772 60.1529 80.9304 60.1529 80.5688V74.9109H29.8469ZM62.8799 74.9109V79.2108H85.7999L81.9629 74.4188C81.7622 74.1775 81.6512 73.8742 81.6486 73.5603C81.6461 73.2465 81.7522 72.9414 81.9489 72.6968L85.7999 67.8868H72.7789V73.5489C72.7789 73.9106 72.6352 74.2575 72.3794 74.5133C72.1236 74.7691 71.7767 74.9128 71.4149 74.9128L62.8799 74.9109ZM28.1889 58.1329C23.6691 54.6277 20.3579 49.7973 18.7187 44.3176C17.0794 38.8378 17.194 32.9827 19.0464 27.5712C20.8989 22.1598 24.3965 17.4627 29.05 14.1371C33.7035 10.8114 39.2802 9.02356 44.9999 9.02356C50.7196 9.02356 56.2963 10.8114 60.9498 14.1371C65.6033 17.4627 69.101 22.1598 70.9534 27.5712C72.8058 32.9827 72.9204 38.8378 71.2812 44.3176C69.6419 49.7973 66.3307 54.6277 61.8109 58.1329H28.1889ZM70.0509 60.8599V72.1838H19.9509V60.8599H70.0509ZM46.2059 16.3129L51.9359 26.9649L63.8449 29.1239C64.0858 29.1682 64.3102 29.2767 64.4946 29.4379C64.6789 29.5991 64.8164 29.807 64.8926 30.0398C64.9687 30.2725 64.9807 30.5215 64.9273 30.7605C64.8738 30.9995 64.7569 31.2197 64.5889 31.3979L56.2179 40.1509L57.8449 52.1509C57.8774 52.3942 57.8435 52.6418 57.7466 52.8674C57.6498 53.093 57.4937 53.2882 57.2949 53.4322C57.0961 53.5763 56.862 53.6638 56.6174 53.6856C56.3729 53.7074 56.127 53.6625 55.9059 53.5559L44.9999 48.2999L34.0929 53.5578C33.8682 53.6661 33.618 53.7105 33.3697 53.6863C33.1215 53.662 32.8847 53.5699 32.6852 53.4202C32.4856 53.2704 32.3311 53.0687 32.2385 52.8371C32.1459 52.6055 32.1187 52.3529 32.1599 52.1068L33.7809 40.1519L25.4099 31.3999C25.2365 31.2178 25.1169 30.9912 25.0645 30.7453C25.0121 30.4994 25.0289 30.2437 25.113 30.0068C25.1972 29.7698 25.3453 29.5609 25.5411 29.4031C25.7368 29.2452 25.9725 29.1448 26.2219 29.1129L38.0639 26.9659L43.7999 16.2999C43.9175 16.0835 44.0916 15.9032 44.3036 15.7779C44.5156 15.6527 44.7576 15.5872 45.0038 15.5886C45.25 15.5899 45.4913 15.658 45.7019 15.7855C45.9125 15.913 46.0846 16.0953 46.1999 16.3129H46.2059ZM49.8479 28.8288C49.9513 29.0212 50.0996 29.1858 50.2801 29.3087C50.4606 29.4316 50.668 29.5091 50.8849 29.5349L60.8759 31.3469L53.7979 38.7469C53.6534 38.8985 53.5459 39.0814 53.4838 39.2814C53.4217 39.4814 53.4067 39.6931 53.4399 39.8999L54.8109 50.0098L45.5909 45.5679C45.4066 45.479 45.2046 45.4328 44.9999 45.4328C44.7953 45.4328 44.5933 45.479 44.4089 45.5679C41.3342 47.0465 38.2609 48.5272 35.1889 50.0098L36.5639 39.8669C36.591 39.6651 36.5726 39.4599 36.5099 39.2663C36.4473 39.0726 36.342 38.8955 36.2019 38.7479L29.1239 31.3479L39.1929 29.5219C39.3945 29.4859 39.5853 29.4048 39.751 29.2846C39.9168 29.1644 40.0531 29.0083 40.1499 28.8279L44.9999 19.8168L49.8479 28.8288Z" fill="#000B44"/>
</svg>
