<svg width="95" height="91" viewBox="0 0 95 91" fill="none" xmlns="http://www.w3.org/2000/svg">
<path fill-rule="evenodd" clip-rule="evenodd" d="M74.7298 64.5543C79.0826 59.0985 81.8652 52.4483 82.7505 45.3853C83.6358 38.3223 82.5871 31.14 79.7277 24.6827C76.8682 18.2254 72.3168 12.7615 66.6084 8.93307C60.9 5.10468 54.2719 3.07096 47.5032 3.07096C40.7344 3.07096 34.1063 5.10468 28.3979 8.93307C22.6896 12.7615 18.1381 18.2254 15.2787 24.6827C12.4192 31.14 11.3705 38.3223 12.2558 45.3853C13.1412 52.4483 15.9237 59.0985 20.2765 64.5543H25.3906C20.8345 59.9177 17.698 53.9543 16.3833 47.429C15.0686 40.9037 15.6355 34.1138 18.0115 27.9299C20.3875 21.7459 24.4641 16.4499 29.7188 12.7207C34.9735 8.99151 41.1666 6.99919 47.5042 6.99919C53.8418 6.99919 60.035 8.99151 65.2897 12.7207C70.5443 16.4499 74.621 21.7459 76.9969 27.9299C79.3729 34.1138 79.9399 40.9037 78.6251 47.429C77.3104 53.9543 74.1739 59.9177 69.6178 64.5543H74.7298ZM18.1813 75.3886H4.43705L8.50194 80.7324C8.7096 81.0041 8.82157 81.343 8.81888 81.6917C8.81619 82.0404 8.69899 82.3774 8.48716 82.6455L4.43705 87.9693H28.6301V83.1921H19.621C19.4319 83.1921 19.2447 83.1529 19.07 83.0767C18.8954 83.0006 18.7366 82.8889 18.603 82.7482C18.4693 82.6075 18.3632 82.4405 18.2909 82.2566C18.2185 82.0727 18.1813 81.8757 18.1813 81.6767V75.3886ZM31.5085 83.1943V89.4846C31.5085 89.8863 31.357 90.2716 31.0872 90.5558C30.8174 90.8399 30.4515 90.9997 30.0698 91H1.44353C1.17261 90.9993 0.907372 90.9183 0.678238 90.7661C0.449104 90.614 0.265363 90.397 0.148101 90.1399C0.0308396 89.8829 -0.0151914 89.5962 0.0152902 89.3129C0.0457718 89.0296 0.151531 88.761 0.320431 88.5381L5.53798 81.6789L0.381653 74.902C0.192029 74.6857 0.0663468 74.416 0.019955 74.1257C-0.0264369 73.8355 0.00846895 73.5373 0.12041 73.2677C0.232351 72.998 0.416483 72.7684 0.650319 72.6071C0.884156 72.4457 1.15758 72.3595 1.43719 72.3589H18.1813V66.6285C13.438 60.7404 10.3941 53.547 9.40877 45.8972C8.42348 38.2474 9.53793 30.4607 12.6206 23.4559C15.7033 16.4511 20.6255 10.5207 26.8063 6.36453C32.9872 2.20839 40.1686 0 47.5032 0C54.8377 0 62.0192 2.20839 68.2 6.36453C74.3808 10.5207 79.3031 16.4511 82.3857 23.4559C85.4684 30.4607 86.5828 38.2474 85.5976 45.8972C84.6123 53.547 81.5684 60.7404 76.8251 66.6285V72.3645H93.5628C93.8424 72.365 94.1158 72.4512 94.3497 72.6126C94.5835 72.774 94.7676 73.0035 94.8796 73.2732C94.9915 73.5429 95.0264 73.8411 94.98 74.1313C94.9337 74.4215 94.808 74.6912 94.6183 74.9075L89.462 81.6845L94.6859 88.5381C94.8533 88.7608 94.958 89.0285 94.988 89.3107C95.0179 89.593 94.972 89.8784 94.8554 90.1345C94.7388 90.3906 94.5562 90.6071 94.3284 90.7593C94.1006 90.9115 93.8368 90.9934 93.567 90.9956H64.9365C64.5548 90.9953 64.1889 90.8355 63.9191 90.5513C63.6493 90.2672 63.4978 89.8819 63.4978 89.4802V83.1943H31.5085ZM66.3763 83.1943V87.9715H90.5693L86.5192 82.6477C86.3073 82.3796 86.1901 82.0426 86.1874 81.6939C86.1848 81.3452 86.2967 81.0063 86.5044 80.7346L90.5693 75.3908H76.8251V81.6811C76.8251 82.083 76.6734 82.4685 76.4034 82.7527C76.1334 83.0369 75.7672 83.1965 75.3853 83.1965L66.3763 83.1943ZM29.7584 64.5543C24.9876 60.6602 21.4925 55.2938 19.7622 49.2059C18.0319 43.118 18.1529 36.6131 20.1082 30.6011C22.0635 24.5891 25.7554 19.3708 30.6674 15.6761C35.5794 11.9814 41.4658 9.99512 47.5032 9.99512C53.5406 9.99512 59.427 11.9814 64.339 15.6761C69.251 19.3708 72.9428 24.5891 74.8982 30.6011C76.8535 36.6131 76.9744 43.118 75.2441 49.2059C73.5138 55.2938 70.0188 60.6602 65.2479 64.5543H29.7584ZM73.9456 67.584V80.1647H21.0629V67.584H73.9456ZM48.7761 18.0933L54.8244 29.9275L67.3949 32.3261C67.6491 32.3754 67.886 32.4959 68.0806 32.675C68.2752 32.854 68.4203 33.085 68.5007 33.3436C68.5811 33.6022 68.5938 33.8788 68.5374 34.1444C68.4809 34.4099 68.3575 34.6545 68.1802 34.8524L59.3442 44.5768L61.0616 57.9085C61.0959 58.1788 61.0601 58.4539 60.9579 58.7046C60.8556 58.9552 60.6909 59.172 60.481 59.3321C60.2712 59.4921 60.0241 59.5894 59.766 59.6136C59.5078 59.6377 59.2483 59.5879 59.0149 59.4694L47.5032 53.6301L35.9904 59.4716C35.7531 59.5919 35.4891 59.6413 35.227 59.6143C34.965 59.5873 34.715 59.4851 34.5044 59.3187C34.2938 59.1523 34.1308 58.9282 34.033 58.6709C33.9352 58.4136 33.9065 58.1329 33.95 57.8596L35.661 44.5779L26.8251 34.8546C26.642 34.6524 26.5158 34.4006 26.4605 34.1274C26.4052 33.8542 26.4229 33.5702 26.5117 33.307C26.6005 33.0437 26.7569 32.8116 26.9636 32.6362C27.1702 32.4609 27.4189 32.3493 27.6822 32.3138L40.1819 29.9286L46.2365 18.0789C46.3607 17.8386 46.5444 17.6382 46.7682 17.499C46.992 17.3599 47.2474 17.2872 47.5073 17.2887C47.7672 17.2902 48.0218 17.3658 48.2441 17.5075C48.4665 17.6492 48.6481 17.8516 48.7698 18.0933H48.7761ZM52.6204 31.9983C52.7296 32.212 52.8861 32.3948 53.0766 32.5314C53.2671 32.6679 53.4861 32.7541 53.715 32.7827L64.2609 34.7958L56.7898 43.017C56.6373 43.1854 56.5239 43.3887 56.4583 43.6109C56.3928 43.8331 56.3769 44.0682 56.4119 44.2979L57.8591 55.5299L48.127 50.5949C47.9324 50.4962 47.7192 50.4449 47.5032 50.4449C47.2872 50.4449 47.0739 50.4962 46.8793 50.5949C43.6339 52.2377 40.3899 53.8827 37.1472 55.5299L38.5986 44.2613C38.6272 44.0372 38.6077 43.8092 38.5416 43.594C38.4755 43.3789 38.3644 43.1821 38.2165 43.0181L30.7454 34.7969L41.3736 32.7682C41.5864 32.7283 41.7878 32.6382 41.9627 32.5047C42.1377 32.3711 42.2816 32.1976 42.3838 31.9972L47.5032 21.9862L52.6204 31.9983Z" fill="white"/>
</svg>
