<svg width="90" height="94" viewBox="0 0 90 94" fill="none" xmlns="http://www.w3.org/2000/svg">
<path fill-rule="evenodd" clip-rule="evenodd" d="M67.695 18.1409C67.945 18.3753 68.0856 18.6995 68.0856 19.0393V49.4143H70.234C70.5661 49.4143 70.8864 49.5432 71.1168 49.7776C71.3512 50.012 71.484 50.3284 71.484 50.6604V53.8362C73.1168 54.2737 74.6832 54.93 76.1363 55.7893L78.398 53.5276C78.8863 53.0432 79.6675 53.0432 80.1558 53.5276L84.9449 58.3284C85.4293 58.8167 85.4293 59.5979 84.9449 60.0862L82.6949 62.3362C83.5504 63.7971 84.2027 65.3674 84.6324 67.0081H87.8121C88.5035 67.0081 89.0621 67.5667 89.0621 68.2542V75.0354V75.0315C89.0621 75.7229 88.5035 76.2815 87.8121 76.2815H84.6324C84.2027 77.9182 83.5543 79.4924 82.6949 80.9495L84.9449 83.1995V83.2034C85.4293 83.6917 85.4293 84.4729 84.9449 84.9612L80.1558 89.7581C79.6714 90.2464 78.8824 90.2464 78.398 89.7581L76.1363 87.5081C74.6793 88.3675 73.1051 89.0198 71.4683 89.4417V92.6253C71.4683 92.9573 71.3355 93.2776 71.1011 93.5081C70.8668 93.7425 70.5504 93.8753 70.2183 93.8753H63.441C62.7535 93.8753 62.1949 93.3167 62.1949 92.6253V89.4456C60.5543 89.0198 58.984 88.3675 57.523 87.5081L55.273 89.7581C54.7847 90.2464 53.9996 90.2464 53.5152 89.7581L48.7105 84.969C48.2261 84.4807 48.2261 83.6956 48.7105 83.2112L49.4136 82.5081L2.18665 82.5042C1.49524 82.5042 0.936646 81.9456 0.936646 81.2581V10.9811C0.936646 10.2936 1.49524 9.73497 2.18665 9.73497H10.546V1.37557C10.546 1.04354 10.6789 0.723226 10.9132 0.488846C11.1476 0.254466 11.464 0.125565 11.796 0.125565H49.358C49.7057 0.121659 50.0377 0.266185 50.2721 0.516185L67.7021 18.1412L67.695 18.1409ZM16.484 54.1719C15.7965 54.1719 15.234 54.7344 15.234 55.4219V63.7266C15.2379 64.4141 15.7965 64.9688 16.484 64.9688H44.679C45.011 64.9688 45.3313 64.836 45.5618 64.6016C45.7962 64.3711 45.929 64.0508 45.929 63.7188V55.4219C45.929 55.0898 45.7962 54.7734 45.5618 54.5391C45.3313 54.3047 45.011 54.1719 44.679 54.1719H16.484ZM43.437 56.668L17.722 56.6719V62.4766H43.437V56.668ZM57.859 76.41L57.8629 76.4139C58.8668 73.9647 60.8317 72.0311 63.2965 71.0623C62.3824 69.7459 62.2731 68.0311 63.0192 66.6092C63.7614 65.1912 65.2301 64.3006 66.8356 64.3006C68.4372 64.3006 69.9059 65.1912 70.6481 66.6092C71.3941 68.0311 71.2848 69.7459 70.3746 71.0623C72.8355 72.031 74.8004 73.9646 75.8043 76.4139C77.4762 73.2655 77.3746 69.4725 75.5348 66.4178C73.6989 63.3631 70.3981 61.4959 66.8356 61.4959C63.2692 61.4959 59.9684 63.3631 58.1325 66.4178C56.2927 69.4725 56.1911 73.2655 57.8591 76.4139L57.859 76.41ZM66.8356 70.3983C67.3122 70.41 67.7809 70.2264 68.1208 69.8905C68.4645 69.5545 68.6521 69.0897 68.6442 68.6093C68.6442 67.6093 67.8317 66.7968 66.8356 66.7968C65.8356 66.7968 65.0231 67.6093 65.0231 68.6093C65.0153 69.0897 65.2028 69.5546 65.5466 69.8905C65.8864 70.2264 66.3551 70.41 66.8356 70.3983ZM73.945 78.8944C73.3278 75.453 70.3317 72.9452 66.8356 72.9452C63.3356 72.9452 60.3395 75.453 59.7184 78.8944C63.6715 82.7733 69.995 82.7733 73.945 78.8944ZM66.8278 58.9924C61.7106 58.9924 57.0973 62.0744 55.1398 66.801C53.1789 71.5315 54.2609 76.973 57.882 80.594C61.5031 84.2112 66.9445 85.2932 71.675 83.3362C76.4016 81.3753 79.4836 76.762 79.4836 71.6412C79.4836 64.6568 73.8156 58.9892 66.8276 58.9892L66.8278 58.9924ZM65.5778 49.4221L65.5817 20.2851H49.3587C48.6712 20.2851 48.1126 19.7265 48.1165 19.039V2.63297H13.0385V70.406H44.6085V68.2576C44.6085 67.5662 45.1671 67.0076 45.8546 67.0076H49.0382C49.2491 66.1912 49.5187 65.3904 49.8429 64.6092C50.1671 63.828 50.546 63.0701 50.9757 62.3358L48.7101 60.0858C48.2257 59.5975 48.2257 58.8163 48.7101 58.328L53.507 53.535C53.9914 53.0506 54.7765 53.0506 55.2648 53.535L57.5226 55.7889C58.9796 54.9295 60.5538 54.2772 62.1945 53.8553V50.66C62.1945 49.9725 62.7531 49.4139 63.4406 49.4139L65.5778 49.4221ZM44.6088 72.8911H11.7968C11.1093 72.8911 10.5468 72.3325 10.5468 71.6411V12.2351H3.4335V80.0081H50.4455C49.84 78.8206 49.3674 77.5745 49.0314 76.2854H45.8439C45.1564 76.2854 44.5978 75.7268 44.6017 75.0393V72.8909L44.6088 72.8911ZM53.2885 82.1567L51.3588 84.0864L54.39 87.1176L56.4603 85.0473C56.8783 84.6332 57.5306 84.5668 58.0228 84.891C59.7259 86.0277 61.6361 86.8246 63.6478 87.2348C64.2455 87.3364 64.683 87.8559 64.679 88.4614V91.3911H68.9642V88.4614H68.9681C68.9681 87.8716 69.3861 87.3637 69.9681 87.2466C71.9603 86.8443 73.8548 86.063 75.554 84.9419C76.0501 84.5669 76.7493 84.6138 77.1907 85.0552L79.261 87.1255L82.304 84.0864L80.2337 82.0161C79.8196 81.5942 79.7532 80.9458 80.0774 80.4536C81.218 78.7466 82.0149 76.8364 82.4212 74.8286C82.5267 74.227 83.0462 73.7895 83.6517 73.7895H86.5815V69.5004H83.6517C83.058 69.5043 82.5462 69.0824 82.429 68.5004C82.0306 66.5043 81.2493 64.6059 80.1321 62.9106C79.7532 62.4145 79.8001 61.7153 80.2415 61.2739L82.3118 59.2036L79.2727 56.1802L77.2024 58.2505L77.1985 58.2466C76.7806 58.6646 76.1282 58.731 75.636 58.4068C73.9329 57.2662 72.0188 56.4693 70.011 56.063C69.4134 55.9614 68.9758 55.4419 68.9758 54.8325V51.9028H64.6867V54.8325C64.6867 55.4262 64.2688 55.938 63.6867 56.0513C61.6945 56.4536 59.7961 57.2388 58.1008 58.356C57.6008 58.731 56.9055 58.6841 56.4602 58.2427L54.3899 56.1802L51.3587 59.2114L53.429 61.2817H53.4251C53.8431 61.6996 53.9095 62.352 53.5853 62.8442C52.4447 64.5473 51.6478 66.4614 51.2415 68.4692C51.136 69.0668 50.6165 69.5044 50.011 69.5044H47.0813V73.7856H50.011V73.7895C50.6047 73.7856 51.1126 74.2035 51.2298 74.7856C51.6321 76.7778 52.4134 78.6762 53.5306 80.3754C54.0071 80.9965 53.7884 81.641 53.2806 82.1488L53.2885 82.1567ZM47.2651 45.8717H16.4841C15.7966 45.8717 15.2341 46.4303 15.2341 47.1178C15.2341 47.8092 15.7966 48.3678 16.4841 48.3678H47.2651C47.9526 48.3678 48.5151 47.8092 48.5151 47.1178C48.5151 46.4303 47.9526 45.8717 47.2651 45.8717ZM44.6792 41.1842H16.4842C15.7967 41.1842 15.2342 41.7428 15.2342 42.4303C15.2342 43.1217 15.7967 43.6803 16.4842 43.6803H44.6792C45.019 43.692 45.3511 43.567 45.5972 43.3326C45.8394 43.0982 45.98 42.774 45.98 42.4342C45.98 42.0943 45.8394 41.7701 45.5972 41.5318C45.3511 41.2974 45.019 41.1724 44.6792 41.1881V41.1842ZM38.1401 36.4967H16.4841C15.7966 36.4967 15.2341 37.0553 15.2341 37.7428C15.2341 38.4342 15.7966 38.9928 16.4841 38.9928H38.1641C38.8516 38.9928 39.4141 38.4342 39.4141 37.7428C39.4141 37.0553 38.8516 36.4967 38.1641 36.4967H38.1401ZM44.6792 31.8092H16.4842C15.7967 31.8092 15.2342 32.3678 15.2342 33.0553C15.2342 33.7467 15.7967 34.3053 16.4842 34.3053H44.6792C45.3706 34.3053 45.9292 33.7467 45.9292 33.0553C45.9292 32.3678 45.3706 31.8092 44.6792 31.8092ZM53.3042 27.1217H16.4842C16.1444 27.11 15.8162 27.235 15.5701 27.4693C15.324 27.7037 15.1873 28.0279 15.1873 28.3678C15.1873 28.7076 15.324 29.0318 15.5701 29.2701C15.8162 29.5045 16.1444 29.6295 16.4842 29.6178H53.3042C53.644 29.6295 53.9761 29.5045 54.2222 29.2701C54.4644 29.0318 54.605 28.7076 54.605 28.3678C54.605 28.0279 54.4644 27.7037 54.2222 27.4693C53.9761 27.235 53.644 27.11 53.3042 27.1217ZM56.148 22.4342H16.484C15.7965 22.4342 15.234 22.9928 15.234 23.6803C15.234 24.3717 15.7965 24.9303 16.484 24.9303H56.148C56.8394 24.9303 57.398 24.3717 57.398 23.6803C57.398 22.9928 56.8394 22.4342 56.148 22.4342ZM44.679 17.7467H16.484C15.7965 17.7467 15.234 18.3053 15.234 18.9928C15.234 19.6842 15.7965 20.2428 16.484 20.2428H44.679C45.3704 20.2428 45.929 19.6842 45.929 18.9928C45.929 18.3053 45.3704 17.7467 44.679 17.7467ZM16.484 4.81267C15.7965 4.81267 15.234 5.37126 15.234 6.06267V14.3557C15.234 15.0432 15.7965 15.6018 16.484 15.6018H44.679C45.011 15.6018 45.3313 15.4729 45.5618 15.2385C45.7962 15.0041 45.929 14.6877 45.929 14.3557V6.05488C45.9251 5.36738 45.3665 4.81268 44.679 4.81268L16.484 4.81267ZM43.437 7.30097H17.722V13.1096H43.437V7.30097ZM50.6128 17.789H63.8468L50.6088 4.40597L50.6128 17.789Z" fill="white"/>
</svg>
