<svg width="128" height="160" viewBox="0 0 128 160" fill="none" xmlns="http://www.w3.org/2000/svg">
<path d="M52 21C53.6569 21 55 19.6569 55 18C55 16.3431 53.6569 15 52 15C50.3431 15 49 16.3431 49 18C49 19.6569 50.3431 21 52 21Z" fill="black"/>
<path d="M9 64C10.6569 64 12 62.6569 12 61C12 59.3431 10.6569 58 9 58C7.34315 58 6 59.3431 6 61C6 62.6569 7.34315 64 9 64Z" fill="black"/>
<path d="M52 107C53.6569 107 55 105.657 55 104C55 102.343 53.6569 101 52 101C50.3431 101 49 102.343 49 104C49 105.657 50.3431 107 52 107Z" fill="black"/>
<path d="M56.9426 32.4943L52.8973 24.5875C52.8128 24.4222 52.6842 24.2835 52.5259 24.1867C52.3676 24.0898 52.1856 24.0386 51.9999 24.0386C51.8143 24.0386 51.6323 24.0898 51.474 24.1867C51.3157 24.2835 51.1871 24.4222 51.1026 24.5875L47.0573 32.4943C46.9787 32.648 46.9409 32.8193 46.9475 32.9917C46.9541 33.1642 47.0048 33.3321 47.0949 33.4793C47.1849 33.6266 47.3113 33.7482 47.4618 33.8326C47.6124 33.917 47.7821 33.9613 47.9547 33.9613H49.9999V59.8676L37.0711 67.625L35.9166 65.8408C35.8228 65.6959 35.6934 65.5774 35.5408 65.4969C35.3881 65.4163 35.2173 65.3763 35.0448 65.3807C34.8722 65.3851 34.7037 65.4337 34.5553 65.5219C34.4069 65.6101 34.2837 65.7349 34.1974 65.8844L29.7566 73.576C29.6638 73.7368 29.6172 73.92 29.6219 74.1056C29.6266 74.2911 29.6825 74.4717 29.7833 74.6276C29.8841 74.7834 30.026 74.9084 30.1934 74.9887C30.3607 75.069 30.5469 75.1016 30.7316 75.0828L39.5675 74.1838C39.7393 74.1663 39.9036 74.105 40.0449 74.0058C40.1861 73.9066 40.2995 73.7728 40.3742 73.6172C40.4489 73.4616 40.4824 73.2894 40.4715 73.1171C40.4606 72.9449 40.4056 72.7783 40.3118 72.6334L39.2454 70.9852L53.0292 62.7149C53.044 62.706 53.0553 62.6939 53.0697 62.6847C53.1296 62.6449 53.1873 62.6019 53.2425 62.5558C53.2906 62.5174 53.3403 62.4811 53.384 62.4391C53.4293 62.3955 53.4683 62.3464 53.5094 62.2987C53.5543 62.2495 53.5968 62.1981 53.6365 62.1447C53.6718 62.0944 53.6995 62.0395 53.7301 61.9859C53.7629 61.9283 53.7978 61.8723 53.8246 61.8119C53.8502 61.7546 53.8676 61.6937 53.8878 61.6336C53.9088 61.5708 53.9317 61.509 53.9465 61.4444C53.9595 61.3875 53.9647 61.3284 53.9727 61.2697C53.9843 61.1967 53.9917 61.1231 53.995 61.0492C53.9954 61.0324 53.9999 61.0169 53.9999 61V33.9614H56.0452C56.2178 33.9614 56.3875 33.917 56.5381 33.8326C56.6886 33.7482 56.815 33.6266 56.9051 33.4793C56.9951 33.3321 57.0459 33.1642 57.0524 32.9917C57.059 32.8193 57.0212 32.648 56.9426 32.4943Z" fill="black"/>
<path d="M86.3066 51.8964C84.9593 53.1899 83.8843 54.7398 83.1448 56.4549C82.4053 58.17 82.0162 60.0156 82.0005 61.8833C81.9848 63.7509 82.3427 65.6029 83.0532 67.3302C83.7636 69.0575 84.8124 70.6253 86.1377 71.9413C87.0209 72.779 87.7288 73.7839 88.2201 74.8976C88.7115 76.0113 88.9766 77.2116 89 78.4286V96.9999H77C74.3488 97.003 71.8071 98.0576 69.9324 99.9323C68.0577 101.807 67.0031 104.349 67 107V109.142C66.1435 109.362 65.3843 109.861 64.8414 110.559C64.2985 111.257 64.0025 112.116 64 113V115C64.0011 116.06 64.4228 117.077 65.1727 117.827C65.9227 118.577 66.9395 118.999 68 119H124C125.061 118.999 126.077 118.577 126.827 117.827C127.577 117.077 127.999 116.06 128 115V113C127.997 112.116 127.702 111.257 127.159 110.559C126.616 109.861 125.857 109.362 125 109.142V107C124.997 104.349 123.942 101.807 122.068 99.9323C120.193 98.0576 117.651 97.003 115 96.9999H103V78.8075C103.055 76.1524 104.146 73.624 106.04 71.7626C107.33 70.4414 108.344 68.8767 109.024 67.1598C109.703 65.4428 110.034 63.6078 109.998 61.7616C109.896 58.2055 108.461 54.8176 105.978 52.2705C103.494 49.7234 100.143 48.2034 96.5908 48.0121C94.7028 47.9287 92.8176 48.23 91.0497 48.8977C89.2817 49.5654 87.668 50.5857 86.3066 51.8964ZM68 115V113H124L124.003 115H68ZM121 107V109H71V107C71.0017 105.409 71.6344 103.884 72.7593 102.759C73.8841 101.634 75.4092 101.002 77 101H115C116.591 101.002 118.116 101.634 119.241 102.759C120.366 103.884 120.998 105.409 121 107ZM105.998 61.8281C106.024 63.1474 105.788 64.4588 105.303 65.6859C104.817 66.9129 104.093 68.0312 103.171 68.9755C100.549 71.5819 99.052 75.1111 99 78.8075V96.9999H93V78.4286C92.9785 76.6837 92.6099 74.9605 91.9156 73.3594C91.2213 71.7584 90.2152 70.3116 88.956 69.1034C87.523 67.6824 86.5534 65.861 86.1746 63.8786C85.7958 61.8963 86.0257 59.8457 86.8339 57.9964C87.6421 56.1471 88.9908 54.5855 90.7029 53.517C92.4151 52.4484 94.4104 51.9228 96.4268 52.0092C98.9633 52.1458 101.356 53.2314 103.129 55.0504C104.902 56.8695 105.926 59.2888 105.998 61.8281Z" fill="#000B44"/>
<path d="M52 113C54.6898 112.997 57.3753 112.784 60.0322 112.365C60.1581 110.753 60.7718 109.218 61.7917 107.964C50.9236 110.271 39.5907 108.698 29.762 103.518L32.4824 98.8055C32.7473 98.3461 32.8189 97.8002 32.6815 97.288C32.5441 96.7758 32.2088 96.3391 31.7495 96.074C31.2902 95.8088 30.7444 95.737 30.2321 95.8741C29.7198 96.0113 29.283 96.3463 29.0176 96.8055L26.3015 101.51C20.3414 97.7142 15.2856 92.6584 11.4898 86.6984L16.1943 83.9823C16.6535 83.7169 16.9885 83.2801 17.1257 82.7678C17.2629 82.2555 17.191 81.7097 16.9259 81.2504C16.6607 80.791 16.2241 80.4558 15.7118 80.3184C15.1996 80.1809 14.6538 80.2525 14.1943 80.5174L9.48222 83.2378C5.88125 76.3783 3.99993 68.7469 3.99999 60.9996C4.00004 53.2523 5.88147 45.621 9.48253 38.7615L14.1943 41.4817C14.4218 41.6132 14.6729 41.6986 14.9334 41.733C15.1938 41.7674 15.4585 41.7502 15.7123 41.6823C15.9661 41.6143 16.204 41.4971 16.4125 41.3372C16.6209 41.1773 16.7958 40.9779 16.9272 40.7503C17.0586 40.5228 17.1438 40.2717 17.1781 40.0112C17.2123 39.7507 17.1949 39.486 17.1269 39.2323C17.0588 38.9785 16.9414 38.7407 16.7814 38.5323C16.6214 38.3239 16.4219 38.1491 16.1943 38.0179L11.4897 35.3017C15.2856 29.3415 20.3415 24.2855 26.3017 20.4896L29.0176 25.1937C29.2829 25.6529 29.7198 25.9879 30.2321 26.1251C30.7444 26.2622 31.2902 26.1904 31.7495 25.9252C32.2088 25.6601 32.544 25.2234 32.6815 24.7112C32.8189 24.199 32.7473 23.6531 32.4824 23.1937L29.7622 18.482C36.6217 14.8812 44.253 12.9999 52.0001 12.9998C59.7473 12.9997 67.3786 14.8808 74.2382 18.4814L71.5176 23.1937C71.3861 23.4212 71.3008 23.6724 71.2664 23.9329C71.232 24.1934 71.2493 24.4582 71.3173 24.712C71.3852 24.9658 71.5026 25.2038 71.6625 25.4122C71.8225 25.6207 72.0219 25.7956 72.2495 25.927C72.4771 26.0584 72.7283 26.1436 72.9889 26.1778C73.2494 26.2121 73.5141 26.1947 73.7679 26.1266C74.0217 26.0585 74.2596 25.941 74.468 25.781C74.6764 25.6209 74.8512 25.4213 74.9825 25.1937L77.7001 20.4864C83.6587 24.2848 88.7128 29.3424 92.5071 35.3036L87.8057 38.0179C87.5781 38.1491 87.3786 38.324 87.2186 38.5323C87.0586 38.7407 86.9412 38.9785 86.8731 39.2323C86.8051 39.4861 86.7877 39.7507 86.8219 40.0112C86.8562 40.2717 86.9414 40.5229 87.0728 40.7504C87.2042 40.9779 87.3791 41.1773 87.5875 41.3372C87.796 41.4971 88.0339 41.6144 88.2877 41.6823C88.5415 41.7502 88.8062 41.7675 89.0667 41.7331C89.3271 41.6987 89.5782 41.6133 89.8057 41.4818L94.5147 38.7631C95.4122 40.4684 96.2058 42.2265 96.8911 44.0277C98.4291 44.1048 99.9508 44.38 101.418 44.8464C98.4399 35.7355 93.0009 27.6252 85.7021 21.4116C78.4034 15.198 69.5291 11.1228 60.0596 9.63637C50.5902 8.1499 40.8941 9.30996 32.0426 12.9884C23.191 16.6668 15.5286 22.7205 9.90169 30.4805C4.27481 38.2406 0.902524 47.4051 0.157371 56.9615C-0.587781 66.5179 1.32321 76.0944 5.67922 84.6328C10.0352 93.1713 16.6667 100.34 24.8411 105.346C33.0155 110.352 42.4146 113.001 52 113Z" fill="black"/>
</svg>
