<svg width="162" height="162" viewBox="0 0 162 162" fill="none" xmlns="http://www.w3.org/2000/svg">
<path d="M94.4555 123.632L99.2842 128.461L104.918 122.827L100.089 117.999L121.281 96.8734C124.361 98.799 128.038 99.5325 131.621 98.9358C135.204 98.3391 138.445 96.4533 140.734 93.6335C143.023 90.8137 144.203 87.2543 144.05 83.6255C143.898 79.9966 142.424 76.5486 139.907 73.9305C137.39 71.3124 134.002 69.7048 130.382 69.4104C126.762 69.1159 123.159 70.155 120.251 72.3318C117.344 74.5087 115.333 77.6733 114.596 81.2299C113.859 84.7864 114.448 88.4896 116.252 91.6423L74.9397 132.954L80.0366 138.051L84.8653 133.29L92.0412 140.465L97.6746 134.899L90.1634 127.656L94.4555 123.632Z" stroke="#000B44" stroke-width="5.02986" stroke-miterlimit="10"/>
<path d="M71.6512 75.883C85.9112 75.883 97.4711 64.323 97.4711 50.0631C97.4711 35.8031 85.9112 24.2432 71.6512 24.2432C57.3913 24.2432 45.8313 35.8031 45.8313 50.0631C45.8313 64.323 57.3913 75.883 71.6512 75.883Z" stroke="black" stroke-width="5.02986" stroke-miterlimit="10"/>
<path d="M102.637 86.8151C95.3676 80.9797 86.5984 77.3156 77.3385 76.2447C68.0787 75.1738 58.7047 76.7397 50.2956 80.762C41.8866 84.7844 34.7843 91.0996 29.8066 98.9808C24.8288 106.862 22.1779 115.989 22.1589 125.31C22.1589 126.048 22.1589 126.719 22.1589 127.456" stroke="black" stroke-width="5.02986" stroke-miterlimit="10"/>
</svg>
