<svg width="1975" height="594" viewBox="0 0 1975 594" fill="none" xmlns="http://www.w3.org/2000/svg">
<path d="M567.999 439.691L335 573" stroke="white" stroke-width="25" stroke-miterlimit="1"/>
<path d="M334.999 39.7634L567.999 173.072" stroke="white" stroke-width="25" stroke-miterlimit="1"/>
<path d="M102 173.072L335 39.7634" stroke="white" stroke-width="25" stroke-miterlimit="1"/>
<path d="M335 580L102 442V166L335 304V580Z" stroke="white" stroke-width="25" stroke-miterlimit="1"/>
<path d="M335 573L568 437.333V166L335 301.667V573Z" stroke="white" stroke-width="25" stroke-miterlimit="1"/>
<path d="M568 173.5L335 39.5L102 173.5L335 307L568 173.5Z" stroke="white" stroke-width="25" stroke-miterlimit="1"/>
<ellipse cx="335.499" cy="303" rx="44.5" ry="43" fill="white"/>
<path fill-rule="evenodd" clip-rule="evenodd" d="M331.542 33.604L307.142 47.1396C307.02 51.65 308.029 56.1475 310.306 60.2509C317.807 73.7734 336.221 77.8942 351.434 69.4549C357.991 65.8174 362.883 60.4401 365.727 54.4158L331.542 33.604Z" fill="white"/>
<path fill-rule="evenodd" clip-rule="evenodd" d="M99.9743 449.065L124.099 463.085C128.035 460.879 131.38 457.708 133.738 453.651C141.508 440.281 135.614 422.356 120.572 413.614C114.089 409.847 106.965 408.4 100.334 409.044L99.9743 449.065Z" fill="white"/>
<path fill-rule="evenodd" clip-rule="evenodd" d="M570 442.496V414.594C566.115 412.299 561.692 411 557 411C541.536 411 529 425.103 529 442.5C529 449.998 531.329 456.885 535.217 462.294L570 442.496Z" fill="white"/>
<path fill-rule="evenodd" clip-rule="evenodd" d="M428.171 430.88C606.513 323.633 709.787 168.012 658.84 83.2909C621.893 21.8527 513.99 14.5717 389.459 56.1103L416.224 71.2908C506.654 47.2724 580.541 55.0466 606.735 98.6046C648.148 167.471 554.662 299.705 397.927 393.959C241.192 488.212 80.5618 508.792 39.1487 439.926C15.167 400.047 36.4224 338.917 89.001 276.219V247.609C12.3873 330.372 -20.3453 416.21 13.0045 471.668C63.952 556.389 249.828 538.128 428.171 430.88Z" fill="url(#paint0_linear_2387_108)"/>
<path fill-rule="evenodd" clip-rule="evenodd" d="M638.848 449.624C659.181 412.446 640.196 355.322 593.687 295.045L608.437 277.516C676.056 357.771 705.163 437.981 676.897 489.664C630.991 573.601 451.144 550.514 275.197 438.098C264.379 431.187 253.828 424.099 243.563 416.862C256.293 407.841 264.851 393.587 265.893 377.351C274.167 383.096 282.641 388.744 291.301 394.278C445.931 493.074 601.533 517.853 638.848 449.624ZM196.571 323.013C100.5 237.806 49.9878 144.688 78.8842 91.8523C103.733 46.4169 181.037 42.2268 275.578 73.6735L296.779 61.4809C175.86 17.1534 72.8821 21.9624 39.7358 82.5692C4.79531 146.457 57.5213 253.932 162.287 351.2C168.961 337.599 181.422 327.2 196.571 323.013ZM509.346 208.221L529.504 198.998C528.697 198.314 527.888 197.63 527.076 196.948L508.56 207.556C508.823 207.778 509.084 207.999 509.346 208.221Z" fill="url(#paint1_linear_2387_108)"/>
<ellipse cx="597.5" cy="69" rx="69.5" ry="69" fill="white"/>
<path fill-rule="evenodd" clip-rule="evenodd" d="M211.5 443C249.884 443 281 412.108 281 374C281 335.892 249.884 305 211.5 305C173.116 305 142 335.892 142 374C142 412.108 173.116 443 211.5 443ZM212 419C236.853 419 257 398.853 257 374C257 349.147 236.853 329 212 329C187.147 329 167 349.147 167 374C167 398.853 187.147 419 212 419Z" fill="white"/>
<path d="M765.26 289.56C765.26 274.307 768.56 260.74 775.16 248.86C781.76 236.833 790.927 227.52 802.66 220.92C814.54 214.173 827.96 210.8 842.92 210.8C861.253 210.8 876.947 215.64 890 225.32C903.053 235 911.78 248.2 916.18 264.92H874.82C871.74 258.467 867.34 253.553 861.62 250.18C856.047 246.807 849.667 245.12 842.48 245.12C830.893 245.12 821.507 249.153 814.32 257.22C807.133 265.287 803.54 276.067 803.54 289.56C803.54 303.053 807.133 313.833 814.32 321.9C821.507 329.967 830.893 334 842.48 334C849.667 334 856.047 332.313 861.62 328.94C867.34 325.567 871.74 320.653 874.82 314.2H916.18C911.78 330.92 903.053 344.12 890 353.8C876.947 363.333 861.253 368.1 842.92 368.1C827.96 368.1 814.54 364.8 802.66 358.2C790.927 351.453 781.76 342.14 775.16 330.26C768.56 318.38 765.26 304.813 765.26 289.56ZM976.838 212.56V367H939.218V212.56H976.838ZM1061.96 212.56C1078.24 212.56 1092.47 215.787 1104.64 222.24C1116.81 228.693 1126.2 237.787 1132.8 249.52C1139.55 261.107 1142.92 274.527 1142.92 289.78C1142.92 304.887 1139.55 318.307 1132.8 330.04C1126.2 341.773 1116.74 350.867 1104.42 357.32C1092.25 363.773 1078.09 367 1061.96 367H1004.1V212.56H1061.96ZM1059.54 334.44C1073.77 334.44 1084.84 330.553 1092.76 322.78C1100.68 315.007 1104.64 304.007 1104.64 289.78C1104.64 275.553 1100.68 264.48 1092.76 256.56C1084.84 248.64 1073.77 244.68 1059.54 244.68H1041.72V334.44H1059.54ZM1210.58 242.48C1219.24 242.48 1226.79 244.24 1233.24 247.76C1239.84 251.28 1244.9 255.9 1248.42 261.62V244.24H1286.04V366.78C1286.04 378.073 1283.77 388.267 1279.22 397.36C1274.82 406.6 1268 413.933 1258.76 419.36C1249.67 424.787 1238.3 427.5 1224.66 427.5C1206.48 427.5 1191.74 423.173 1180.44 414.52C1169.15 406.013 1162.7 394.427 1161.08 379.76H1198.26C1199.44 384.453 1202.22 388.12 1206.62 390.76C1211.02 393.547 1216.45 394.94 1222.9 394.94C1230.68 394.94 1236.84 392.667 1241.38 388.12C1246.08 383.72 1248.42 376.607 1248.42 366.78V349.4C1244.76 355.12 1239.7 359.813 1233.24 363.48C1226.79 367 1219.24 368.76 1210.58 368.76C1200.46 368.76 1191.3 366.193 1183.08 361.06C1174.87 355.78 1168.34 348.373 1163.5 338.84C1158.81 329.16 1156.46 318.013 1156.46 305.4C1156.46 292.787 1158.81 281.713 1163.5 272.18C1168.34 262.647 1174.87 255.313 1183.08 250.18C1191.3 245.047 1200.46 242.48 1210.58 242.48ZM1248.42 305.62C1248.42 296.233 1245.78 288.827 1240.5 283.4C1235.37 277.973 1229.06 275.26 1221.58 275.26C1214.1 275.26 1207.72 277.973 1202.44 283.4C1197.31 288.68 1194.74 296.013 1194.74 305.4C1194.74 314.787 1197.31 322.267 1202.44 327.84C1207.72 333.267 1214.1 335.98 1221.58 335.98C1229.06 335.98 1235.37 333.267 1240.5 327.84C1245.78 322.413 1248.42 315.007 1248.42 305.62ZM1350.88 264.7C1355.28 257.953 1360.78 252.673 1367.38 248.86C1373.98 244.9 1381.31 242.92 1389.38 242.92V282.74H1379.04C1369.65 282.74 1362.61 284.793 1357.92 288.9C1353.23 292.86 1350.88 299.9 1350.88 310.02V367H1313.26V244.24H1350.88V264.7ZM1399.88 305.4C1399.88 292.787 1402.23 281.713 1406.92 272.18C1411.76 262.647 1418.29 255.313 1426.5 250.18C1434.72 245.047 1443.88 242.48 1454 242.48C1462.66 242.48 1470.21 244.24 1476.66 247.76C1483.26 251.28 1488.32 255.9 1491.84 261.62V244.24H1529.46V367H1491.84V349.62C1488.18 355.34 1483.04 359.96 1476.44 363.48C1469.99 367 1462.44 368.76 1453.78 368.76C1443.81 368.76 1434.72 366.193 1426.5 361.06C1418.29 355.78 1411.76 348.373 1406.92 338.84C1402.23 329.16 1399.88 318.013 1399.88 305.4ZM1491.84 305.62C1491.84 296.233 1489.2 288.827 1483.92 283.4C1478.79 277.973 1472.48 275.26 1465 275.26C1457.52 275.26 1451.14 277.973 1445.86 283.4C1440.73 288.68 1438.16 296.013 1438.16 305.4C1438.16 314.787 1440.73 322.267 1445.86 327.84C1451.14 333.267 1457.52 335.98 1465 335.98C1472.48 335.98 1478.79 333.267 1483.92 327.84C1489.2 322.413 1491.84 315.007 1491.84 305.62ZM1611.9 331.8L1638.52 244.24H1678.56L1635 367H1588.58L1545.02 244.24H1585.28L1611.9 331.8ZM1713.31 231.48C1706.71 231.48 1701.29 229.573 1697.03 225.76C1692.93 221.8 1690.87 216.96 1690.87 211.24C1690.87 205.373 1692.93 200.533 1697.03 196.72C1701.29 192.76 1706.71 190.78 1713.31 190.78C1719.77 190.78 1725.05 192.76 1729.15 196.72C1733.41 200.533 1735.53 205.373 1735.53 211.24C1735.53 216.96 1733.41 221.8 1729.15 225.76C1725.05 229.573 1719.77 231.48 1713.31 231.48ZM1732.01 244.24V367H1694.39V244.24H1732.01ZM1827.7 335.1V367H1808.56C1794.92 367 1784.28 363.7 1776.66 357.1C1769.03 350.353 1765.22 339.427 1765.22 324.32V275.48H1750.26V244.24H1765.22V214.32H1802.84V244.24H1827.48V275.48H1802.84V324.76C1802.84 328.427 1803.72 331.067 1805.48 332.68C1807.24 334.293 1810.17 335.1 1814.28 335.1H1827.7ZM1974.05 244.24L1897.05 425.3H1856.57L1884.73 362.82L1834.79 244.24H1876.81L1905.19 321.02L1933.35 244.24H1974.05Z" fill="white"/>
<defs>
<linearGradient id="paint0_linear_2387_108" x1="293.754" y1="524.959" x2="239.85" y2="45.5434" gradientUnits="userSpaceOnUse">
<stop offset="0.16" stop-color="#E1E0E0"/>
<stop offset="0.35" stop-color="#E3E2E2"/>
<stop offset="0.69" stop-color="white"/>
</linearGradient>
<linearGradient id="paint1_linear_2387_108" x1="687.642" y1="344.873" x2="48.9737" y2="413.454" gradientUnits="userSpaceOnUse">
<stop offset="0.16" stop-color="#E1E0E0"/>
<stop offset="0.34" stop-color="#E3E2E2"/>
<stop offset="0.69" stop-color="white"/>
</linearGradient>
</defs>
</svg>
