<svg width="452" height="273" viewBox="0 0 452 273" fill="none" xmlns="http://www.w3.org/2000/svg">
<rect x="0.5" y="100.337" width="449" height="49" rx="4.5" fill="#F9F9F9"/>
<path d="M31.852 129.921C30.8813 129.921 30.004 129.706 29.22 129.277C28.4453 128.848 27.834 128.255 27.386 127.499C26.9473 126.734 26.728 125.88 26.728 124.937C26.728 123.994 26.9473 123.145 27.386 122.389C27.834 121.624 28.45 121.026 29.234 120.597C30.018 120.168 30.8953 119.953 31.866 119.953C32.594 119.953 33.266 120.074 33.882 120.317C34.498 120.56 35.0207 120.914 35.45 121.381L34.792 122.039C34.0267 121.264 33.0607 120.877 31.894 120.877C31.1193 120.877 30.4147 121.054 29.78 121.409C29.1453 121.764 28.646 122.249 28.282 122.865C27.9273 123.481 27.75 124.172 27.75 124.937C27.75 125.702 27.9273 126.393 28.282 127.009C28.646 127.625 29.1453 128.11 29.78 128.465C30.4147 128.82 31.1193 128.997 31.894 128.997C33.07 128.997 34.036 128.605 34.792 127.821L35.45 128.479C35.0207 128.946 34.4933 129.305 33.868 129.557C33.252 129.8 32.58 129.921 31.852 129.921ZM37.6485 119.449H38.6425V129.837H37.6485V119.449ZM41.6083 122.473H42.6023V129.837H41.6083V122.473ZM42.1123 120.863C41.9069 120.863 41.7343 120.793 41.5943 120.653C41.4543 120.513 41.3843 120.345 41.3843 120.149C41.3843 119.962 41.4543 119.799 41.5943 119.659C41.7343 119.519 41.9069 119.449 42.1123 119.449C42.3176 119.449 42.4903 119.519 42.6303 119.659C42.7703 119.79 42.8403 119.948 42.8403 120.135C42.8403 120.34 42.7703 120.513 42.6303 120.653C42.4903 120.793 42.3176 120.863 42.1123 120.863ZM51.98 126.463H45.82C45.876 127.228 46.17 127.849 46.702 128.325C47.234 128.792 47.906 129.025 48.718 129.025C49.1754 129.025 49.5954 128.946 49.978 128.787C50.3607 128.619 50.692 128.376 50.972 128.059L51.532 128.703C51.2054 129.095 50.7947 129.394 50.3 129.599C49.8147 129.804 49.278 129.907 48.69 129.907C47.934 129.907 47.262 129.748 46.674 129.431C46.0954 129.104 45.6427 128.656 45.316 128.087C44.9894 127.518 44.826 126.874 44.826 126.155C44.826 125.436 44.98 124.792 45.288 124.223C45.6054 123.654 46.0347 123.21 46.576 122.893C47.1267 122.576 47.7427 122.417 48.424 122.417C49.1054 122.417 49.7167 122.576 50.258 122.893C50.7994 123.21 51.224 123.654 51.532 124.223C51.84 124.783 51.994 125.427 51.994 126.155L51.98 126.463ZM48.424 123.271C47.7147 123.271 47.1174 123.5 46.632 123.957C46.156 124.405 45.8854 124.993 45.82 125.721H51.042C50.9767 124.993 50.7014 124.405 50.216 123.957C49.74 123.5 49.1427 123.271 48.424 123.271ZM57.9692 122.417C58.8932 122.417 59.6259 122.688 60.1672 123.229C60.7179 123.761 60.9932 124.54 60.9932 125.567V129.837H59.9992V125.665C59.9992 124.9 59.8079 124.316 59.4252 123.915C59.0426 123.514 58.4966 123.313 57.7872 123.313C56.9939 123.313 56.3639 123.551 55.8972 124.027C55.4399 124.494 55.2112 125.142 55.2112 125.973V129.837H54.2172V122.473H55.1692V123.831C55.4399 123.383 55.8132 123.038 56.2892 122.795C56.7746 122.543 57.3346 122.417 57.9692 122.417ZM67.7699 129.389C67.5832 129.557 67.3499 129.688 67.0699 129.781C66.7992 129.865 66.5145 129.907 66.2159 129.907C65.5252 129.907 64.9932 129.72 64.6199 129.347C64.2465 128.974 64.0599 128.446 64.0599 127.765V123.313H62.7439V122.473H64.0599V120.863H65.0539V122.473H67.2939V123.313H65.0539V127.709C65.0539 128.148 65.1612 128.484 65.3759 128.717C65.5999 128.941 65.9172 129.053 66.3279 129.053C66.5332 129.053 66.7292 129.02 66.9159 128.955C67.1119 128.89 67.2799 128.796 67.4199 128.675L67.7699 129.389ZM77.3954 122.417C78.3194 122.417 79.0521 122.688 79.5934 123.229C80.1441 123.761 80.4194 124.54 80.4194 125.567V129.837H79.4254V125.665C79.4254 124.9 79.2341 124.316 78.8514 123.915C78.4688 123.514 77.9228 123.313 77.2134 123.313C76.4201 123.313 75.7901 123.551 75.3234 124.027C74.8661 124.494 74.6374 125.142 74.6374 125.973V129.837H73.6434V122.473H74.5954V123.831C74.8661 123.383 75.2394 123.038 75.7154 122.795C76.2008 122.543 76.7608 122.417 77.3954 122.417ZM85.894 122.417C86.8554 122.417 87.5927 122.66 88.106 123.145C88.6194 123.621 88.876 124.33 88.876 125.273V129.837H87.924V128.689C87.7 129.072 87.3687 129.37 86.93 129.585C86.5007 129.8 85.9874 129.907 85.39 129.907C84.5687 129.907 83.9154 129.711 83.43 129.319C82.9447 128.927 82.702 128.409 82.702 127.765C82.702 127.14 82.926 126.636 83.374 126.253C83.8314 125.87 84.5547 125.679 85.544 125.679H87.882V125.231C87.882 124.596 87.7047 124.116 87.35 123.789C86.9954 123.453 86.4774 123.285 85.796 123.285C85.3294 123.285 84.8814 123.364 84.452 123.523C84.0227 123.672 83.654 123.882 83.346 124.153L82.898 123.411C83.2714 123.094 83.7194 122.851 84.242 122.683C84.7647 122.506 85.3154 122.417 85.894 122.417ZM85.544 129.123C86.104 129.123 86.5847 128.997 86.986 128.745C87.3874 128.484 87.686 128.11 87.882 127.625V126.421H85.572C84.312 126.421 83.682 126.86 83.682 127.737C83.682 128.166 83.8454 128.507 84.172 128.759C84.4987 129.002 84.956 129.123 85.544 129.123ZM100.96 122.417C101.884 122.417 102.607 122.683 103.13 123.215C103.662 123.747 103.928 124.531 103.928 125.567V129.837H102.934V125.665C102.934 124.9 102.747 124.316 102.374 123.915C102.01 123.514 101.492 123.313 100.82 123.313C100.055 123.313 99.4525 123.551 99.0138 124.027C98.5752 124.494 98.3558 125.142 98.3558 125.973V129.837H97.3618V125.665C97.3618 124.9 97.1752 124.316 96.8018 123.915C96.4378 123.514 95.9152 123.313 95.2338 123.313C94.4778 123.313 93.8758 123.551 93.4278 124.027C92.9892 124.494 92.7698 125.142 92.7698 125.973V129.837H91.7758V122.473H92.7278V123.817C92.9892 123.369 93.3532 123.024 93.8198 122.781C94.2865 122.538 94.8232 122.417 95.4298 122.417C96.0458 122.417 96.5778 122.548 97.0258 122.809C97.4832 123.07 97.8238 123.458 98.0478 123.971C98.3185 123.486 98.7058 123.108 99.2098 122.837C99.7232 122.557 100.307 122.417 100.96 122.417ZM113.263 126.463H107.103C107.159 127.228 107.453 127.849 107.985 128.325C108.517 128.792 109.189 129.025 110.001 129.025C110.458 129.025 110.878 128.946 111.261 128.787C111.644 128.619 111.975 128.376 112.255 128.059L112.815 128.703C112.488 129.095 112.078 129.394 111.583 129.599C111.098 129.804 110.561 129.907 109.973 129.907C109.217 129.907 108.545 129.748 107.957 129.431C107.378 129.104 106.926 128.656 106.599 128.087C106.272 127.518 106.109 126.874 106.109 126.155C106.109 125.436 106.263 124.792 106.571 124.223C106.888 123.654 107.318 123.21 107.859 122.893C108.41 122.576 109.026 122.417 109.707 122.417C110.388 122.417 111 122.576 111.541 122.893C112.082 123.21 112.507 123.654 112.815 124.223C113.123 124.783 113.277 125.427 113.277 126.155L113.263 126.463ZM109.707 123.271C108.998 123.271 108.4 123.5 107.915 123.957C107.439 124.405 107.168 124.993 107.103 125.721H112.325C112.26 124.993 111.984 124.405 111.499 123.957C111.023 123.5 110.426 123.271 109.707 123.271Z" fill="#737373"/>
<rect x="0.5" y="100.337" width="449" height="49" rx="4.5" stroke="#E6E6E6"/>
<g clip-path="url(#clip0)">
<rect x="0.5" y="163.337" width="449" height="49" rx="4.5" fill="#F9F9F9"/>
<path d="M26.5 183.933H23.056V183.037H30.98V183.933H27.536V192.837H26.5V183.933ZM38.3345 185.473L34.6525 193.719C34.3539 194.41 34.0085 194.9 33.6165 195.189C33.2245 195.478 32.7532 195.623 32.2025 195.623C31.8479 195.623 31.5165 195.567 31.2085 195.455C30.9005 195.343 30.6345 195.175 30.4105 194.951L30.8725 194.209C31.2459 194.582 31.6939 194.769 32.2165 194.769C32.5525 194.769 32.8372 194.676 33.0705 194.489C33.3132 194.302 33.5372 193.985 33.7425 193.537L34.0645 192.823L30.7745 185.473H31.8105L34.5825 191.731L37.3545 185.473H38.3345ZM43.7284 185.417C44.4191 185.417 45.0444 185.576 45.6044 185.893C46.1644 186.201 46.6031 186.64 46.9204 187.209C47.2378 187.778 47.3964 188.427 47.3964 189.155C47.3964 189.892 47.2378 190.546 46.9204 191.115C46.6031 191.684 46.1644 192.128 45.6044 192.445C45.0538 192.753 44.4284 192.907 43.7284 192.907C43.1311 192.907 42.5898 192.786 42.1044 192.543C41.6284 192.291 41.2364 191.927 40.9284 191.451V195.553H39.9344V185.473H40.8864V186.929C41.1851 186.444 41.5771 186.07 42.0624 185.809C42.5571 185.548 43.1124 185.417 43.7284 185.417ZM43.6584 192.025C44.1718 192.025 44.6384 191.908 45.0584 191.675C45.4784 191.432 45.8051 191.092 46.0384 190.653C46.2811 190.214 46.4024 189.715 46.4024 189.155C46.4024 188.595 46.2811 188.1 46.0384 187.671C45.8051 187.232 45.4784 186.892 45.0584 186.649C44.6384 186.406 44.1718 186.285 43.6584 186.285C43.1358 186.285 42.6644 186.406 42.2444 186.649C41.8338 186.892 41.5071 187.232 41.2644 187.671C41.0311 188.1 40.9144 188.595 40.9144 189.155C40.9144 189.715 41.0311 190.214 41.2644 190.653C41.5071 191.092 41.8338 191.432 42.2444 191.675C42.6644 191.908 43.1358 192.025 43.6584 192.025ZM56.0347 189.463H49.8747C49.9307 190.228 50.2247 190.849 50.7567 191.325C51.2887 191.792 51.9607 192.025 52.7727 192.025C53.2301 192.025 53.6501 191.946 54.0327 191.787C54.4154 191.619 54.7467 191.376 55.0267 191.059L55.5867 191.703C55.2601 192.095 54.8494 192.394 54.3547 192.599C53.8694 192.804 53.3327 192.907 52.7447 192.907C51.9887 192.907 51.3167 192.748 50.7287 192.431C50.1501 192.104 49.6974 191.656 49.3707 191.087C49.0441 190.518 48.8807 189.874 48.8807 189.155C48.8807 188.436 49.0347 187.792 49.3427 187.223C49.6601 186.654 50.0894 186.21 50.6307 185.893C51.1814 185.576 51.7974 185.417 52.4787 185.417C53.1601 185.417 53.7714 185.576 54.3127 185.893C54.8541 186.21 55.2787 186.654 55.5867 187.223C55.8947 187.783 56.0487 188.427 56.0487 189.155L56.0347 189.463ZM52.4787 186.271C51.7694 186.271 51.1721 186.5 50.6867 186.957C50.2107 187.405 49.9401 187.993 49.8747 188.721H55.0967C55.0314 187.993 54.7561 187.405 54.2707 186.957C53.7947 186.5 53.1974 186.271 52.4787 186.271ZM63.382 183.933V187.783H68.45V188.679H63.382V192.837H62.346V183.037H69.066V183.933H63.382ZM71.0587 185.473H72.0527V192.837H71.0587V185.473ZM71.5627 183.863C71.3573 183.863 71.1847 183.793 71.0447 183.653C70.9047 183.513 70.8347 183.345 70.8347 183.149C70.8347 182.962 70.9047 182.799 71.0447 182.659C71.1847 182.519 71.3573 182.449 71.5627 182.449C71.768 182.449 71.9407 182.519 72.0807 182.659C72.2207 182.79 72.2907 182.948 72.2907 183.135C72.2907 183.34 72.2207 183.513 72.0807 183.653C71.9407 183.793 71.768 183.863 71.5627 183.863ZM75.0184 182.449H76.0124V192.837H75.0184V182.449ZM85.3902 189.463H79.2302C79.2862 190.228 79.5802 190.849 80.1122 191.325C80.6442 191.792 81.3162 192.025 82.1282 192.025C82.5855 192.025 83.0055 191.946 83.3882 191.787C83.7709 191.619 84.1022 191.376 84.3822 191.059L84.9422 191.703C84.6155 192.095 84.2049 192.394 83.7102 192.599C83.2249 192.804 82.6882 192.907 82.1002 192.907C81.3442 192.907 80.6722 192.748 80.0842 192.431C79.5055 192.104 79.0529 191.656 78.7262 191.087C78.3995 190.518 78.2362 189.874 78.2362 189.155C78.2362 188.436 78.3902 187.792 78.6982 187.223C79.0155 186.654 79.4449 186.21 79.9862 185.893C80.5369 185.576 81.1529 185.417 81.8342 185.417C82.5155 185.417 83.1269 185.576 83.6682 185.893C84.2095 186.21 84.6342 186.654 84.9422 187.223C85.2502 187.783 85.4042 188.427 85.4042 189.155L85.3902 189.463ZM81.8342 186.271C81.1249 186.271 80.5275 186.5 80.0422 186.957C79.5662 187.405 79.2955 187.993 79.2302 188.721H84.4522C84.3869 187.993 84.1115 187.405 83.6262 186.957C83.1502 186.5 82.5529 186.271 81.8342 186.271ZM90.6794 192.907C89.9514 192.907 89.2981 192.748 88.7194 192.431C88.1501 192.114 87.7021 191.67 87.3754 191.101C87.0487 190.522 86.8854 189.874 86.8854 189.155C86.8854 188.436 87.0487 187.792 87.3754 187.223C87.7021 186.654 88.1501 186.21 88.7194 185.893C89.2981 185.576 89.9514 185.417 90.6794 185.417C91.3141 185.417 91.8787 185.543 92.3734 185.795C92.8774 186.038 93.2741 186.397 93.5634 186.873L92.8214 187.377C92.5787 187.013 92.2707 186.742 91.8974 186.565C91.5241 186.378 91.1181 186.285 90.6794 186.285C90.1474 186.285 89.6667 186.406 89.2374 186.649C88.8174 186.882 88.4861 187.218 88.2434 187.657C88.0101 188.096 87.8934 188.595 87.8934 189.155C87.8934 189.724 88.0101 190.228 88.2434 190.667C88.4861 191.096 88.8174 191.432 89.2374 191.675C89.6667 191.908 90.1474 192.025 90.6794 192.025C91.1181 192.025 91.5241 191.936 91.8974 191.759C92.2707 191.582 92.5787 191.311 92.8214 190.947L93.5634 191.451C93.2741 191.927 92.8774 192.291 92.3734 192.543C91.8694 192.786 91.3047 192.907 90.6794 192.907ZM98.603 192.907C97.8937 192.907 97.2544 192.748 96.685 192.431C96.1157 192.104 95.6677 191.656 95.341 191.087C95.0144 190.518 94.851 189.874 94.851 189.155C94.851 188.436 95.0144 187.792 95.341 187.223C95.6677 186.654 96.1157 186.21 96.685 185.893C97.2544 185.576 97.8937 185.417 98.603 185.417C99.3124 185.417 99.9517 185.576 100.521 185.893C101.09 186.21 101.534 186.654 101.851 187.223C102.178 187.792 102.341 188.436 102.341 189.155C102.341 189.874 102.178 190.518 101.851 191.087C101.534 191.656 101.09 192.104 100.521 192.431C99.9517 192.748 99.3124 192.907 98.603 192.907ZM98.603 192.025C99.1257 192.025 99.5924 191.908 100.003 191.675C100.423 191.432 100.75 191.092 100.983 190.653C101.216 190.214 101.333 189.715 101.333 189.155C101.333 188.595 101.216 188.096 100.983 187.657C100.75 187.218 100.423 186.882 100.003 186.649C99.5924 186.406 99.1257 186.285 98.603 186.285C98.0804 186.285 97.609 186.406 97.189 186.649C96.7784 186.882 96.4517 187.218 96.209 187.657C95.9757 188.096 95.859 188.595 95.859 189.155C95.859 189.715 95.9757 190.214 96.209 190.653C96.4517 191.092 96.7784 191.432 97.189 191.675C97.609 191.908 98.0804 192.025 98.603 192.025ZM104.57 185.473H105.564V192.837H104.57V185.473ZM105.074 183.863C104.869 183.863 104.696 183.793 104.556 183.653C104.416 183.513 104.346 183.345 104.346 183.149C104.346 182.962 104.416 182.799 104.556 182.659C104.696 182.519 104.869 182.449 105.074 182.449C105.28 182.449 105.452 182.519 105.592 182.659C105.732 182.79 105.802 182.948 105.802 183.135C105.802 183.34 105.732 183.513 105.592 183.653C105.452 183.793 105.28 183.863 105.074 183.863ZM112.282 185.417C113.206 185.417 113.939 185.688 114.48 186.229C115.031 186.761 115.306 187.54 115.306 188.567V192.837H114.312V188.665C114.312 187.9 114.121 187.316 113.738 186.915C113.355 186.514 112.809 186.313 112.1 186.313C111.307 186.313 110.677 186.551 110.21 187.027C109.753 187.494 109.524 188.142 109.524 188.973V192.837H108.53V185.473H109.482V186.831C109.753 186.383 110.126 186.038 110.602 185.795C111.087 185.543 111.647 185.417 112.282 185.417ZM124.645 185.417C125.606 185.417 126.343 185.66 126.857 186.145C127.37 186.621 127.627 187.33 127.627 188.273V192.837H126.675V191.689C126.451 192.072 126.119 192.37 125.681 192.585C125.251 192.8 124.738 192.907 124.141 192.907C123.319 192.907 122.666 192.711 122.181 192.319C121.695 191.927 121.453 191.409 121.453 190.765C121.453 190.14 121.677 189.636 122.125 189.253C122.582 188.87 123.305 188.679 124.295 188.679H126.633V188.231C126.633 187.596 126.455 187.116 126.101 186.789C125.746 186.453 125.228 186.285 124.547 186.285C124.08 186.285 123.632 186.364 123.203 186.523C122.773 186.672 122.405 186.882 122.097 187.153L121.649 186.411C122.022 186.094 122.47 185.851 122.993 185.683C123.515 185.506 124.066 185.417 124.645 185.417ZM124.295 192.123C124.855 192.123 125.335 191.997 125.737 191.745C126.138 191.484 126.437 191.11 126.633 190.625V189.421H124.323C123.063 189.421 122.433 189.86 122.433 190.737C122.433 191.166 122.596 191.507 122.923 191.759C123.249 192.002 123.707 192.123 124.295 192.123ZM137.274 182.449V192.837H136.322V191.381C136.023 191.876 135.627 192.254 135.132 192.515C134.647 192.776 134.096 192.907 133.48 192.907C132.789 192.907 132.164 192.748 131.604 192.431C131.044 192.114 130.605 191.67 130.288 191.101C129.971 190.532 129.812 189.883 129.812 189.155C129.812 188.427 129.971 187.778 130.288 187.209C130.605 186.64 131.044 186.201 131.604 185.893C132.164 185.576 132.789 185.417 133.48 185.417C134.077 185.417 134.614 185.543 135.09 185.795C135.575 186.038 135.972 186.397 136.28 186.873V182.449H137.274ZM133.564 192.025C134.077 192.025 134.539 191.908 134.95 191.675C135.37 191.432 135.697 191.092 135.93 190.653C136.173 190.214 136.294 189.715 136.294 189.155C136.294 188.595 136.173 188.096 135.93 187.657C135.697 187.218 135.37 186.882 134.95 186.649C134.539 186.406 134.077 186.285 133.564 186.285C133.041 186.285 132.57 186.406 132.15 186.649C131.739 186.882 131.413 187.218 131.17 187.657C130.937 188.096 130.82 188.595 130.82 189.155C130.82 189.715 130.937 190.214 131.17 190.653C131.413 191.092 131.739 191.432 132.15 191.675C132.57 191.908 133.041 192.025 133.564 192.025ZM146.962 182.449V192.837H146.01V191.381C145.712 191.876 145.315 192.254 144.82 192.515C144.335 192.776 143.784 192.907 143.168 192.907C142.478 192.907 141.852 192.748 141.292 192.431C140.732 192.114 140.294 191.67 139.976 191.101C139.659 190.532 139.5 189.883 139.5 189.155C139.5 188.427 139.659 187.778 139.976 187.209C140.294 186.64 140.732 186.201 141.292 185.893C141.852 185.576 142.478 185.417 143.168 185.417C143.766 185.417 144.302 185.543 144.778 185.795C145.264 186.038 145.66 186.397 145.968 186.873V182.449H146.962ZM143.252 192.025C143.766 192.025 144.228 191.908 144.638 191.675C145.058 191.432 145.385 191.092 145.618 190.653C145.861 190.214 145.982 189.715 145.982 189.155C145.982 188.595 145.861 188.096 145.618 187.657C145.385 187.218 145.058 186.882 144.638 186.649C144.228 186.406 143.766 186.285 143.252 186.285C142.73 186.285 142.258 186.406 141.838 186.649C141.428 186.882 141.101 187.218 140.858 187.657C140.625 188.096 140.508 188.595 140.508 189.155C140.508 189.715 140.625 190.214 140.858 190.653C141.101 191.092 141.428 191.432 141.838 191.675C142.258 191.908 142.73 192.025 143.252 192.025ZM150.883 186.915C151.116 186.42 151.461 186.047 151.919 185.795C152.385 185.543 152.959 185.417 153.641 185.417V186.383L153.403 186.369C152.628 186.369 152.021 186.607 151.583 187.083C151.144 187.559 150.925 188.226 150.925 189.085V192.837H149.931V185.473H150.883V186.915ZM161.984 189.463H155.824C155.88 190.228 156.174 190.849 156.706 191.325C157.238 191.792 157.91 192.025 158.722 192.025C159.179 192.025 159.599 191.946 159.982 191.787C160.365 191.619 160.696 191.376 160.976 191.059L161.536 191.703C161.209 192.095 160.799 192.394 160.304 192.599C159.819 192.804 159.282 192.907 158.694 192.907C157.938 192.907 157.266 192.748 156.678 192.431C156.099 192.104 155.647 191.656 155.32 191.087C154.993 190.518 154.83 189.874 154.83 189.155C154.83 188.436 154.984 187.792 155.292 187.223C155.609 186.654 156.039 186.21 156.58 185.893C157.131 185.576 157.747 185.417 158.428 185.417C159.109 185.417 159.721 185.576 160.262 185.893C160.803 186.21 161.228 186.654 161.536 187.223C161.844 187.783 161.998 188.427 161.998 189.155L161.984 189.463ZM158.428 186.271C157.719 186.271 157.121 186.5 156.636 186.957C156.16 187.405 155.889 187.993 155.824 188.721H161.046C160.981 187.993 160.705 187.405 160.22 186.957C159.744 186.5 159.147 186.271 158.428 186.271ZM166.195 192.907C165.598 192.907 165.024 192.823 164.473 192.655C163.932 192.478 163.507 192.258 163.199 191.997L163.647 191.213C163.955 191.456 164.342 191.656 164.809 191.815C165.276 191.964 165.761 192.039 166.265 192.039C166.937 192.039 167.432 191.936 167.749 191.731C168.076 191.516 168.239 191.218 168.239 190.835C168.239 190.564 168.15 190.354 167.973 190.205C167.796 190.046 167.572 189.93 167.301 189.855C167.03 189.771 166.671 189.692 166.223 189.617C165.626 189.505 165.145 189.393 164.781 189.281C164.417 189.16 164.104 188.959 163.843 188.679C163.591 188.399 163.465 188.012 163.465 187.517C163.465 186.901 163.722 186.397 164.235 186.005C164.748 185.613 165.462 185.417 166.377 185.417C166.853 185.417 167.329 185.482 167.805 185.613C168.281 185.734 168.673 185.898 168.981 186.103L168.547 186.901C167.94 186.481 167.217 186.271 166.377 186.271C165.742 186.271 165.262 186.383 164.935 186.607C164.618 186.831 164.459 187.125 164.459 187.489C164.459 187.769 164.548 187.993 164.725 188.161C164.912 188.329 165.14 188.455 165.411 188.539C165.682 188.614 166.055 188.693 166.531 188.777C167.119 188.889 167.59 189.001 167.945 189.113C168.3 189.225 168.603 189.416 168.855 189.687C169.107 189.958 169.233 190.331 169.233 190.807C169.233 191.451 168.962 191.964 168.421 192.347C167.889 192.72 167.147 192.907 166.195 192.907ZM173.245 192.907C172.647 192.907 172.073 192.823 171.523 192.655C170.981 192.478 170.557 192.258 170.249 191.997L170.697 191.213C171.005 191.456 171.392 191.656 171.859 191.815C172.325 191.964 172.811 192.039 173.315 192.039C173.987 192.039 174.481 191.936 174.799 191.731C175.125 191.516 175.289 191.218 175.289 190.835C175.289 190.564 175.2 190.354 175.023 190.205C174.845 190.046 174.621 189.93 174.351 189.855C174.08 189.771 173.721 189.692 173.273 189.617C172.675 189.505 172.195 189.393 171.831 189.281C171.467 189.16 171.154 188.959 170.893 188.679C170.641 188.399 170.515 188.012 170.515 187.517C170.515 186.901 170.771 186.397 171.285 186.005C171.798 185.613 172.512 185.417 173.427 185.417C173.903 185.417 174.379 185.482 174.855 185.613C175.331 185.734 175.723 185.898 176.031 186.103L175.597 186.901C174.99 186.481 174.267 186.271 173.427 186.271C172.792 186.271 172.311 186.383 171.985 186.607C171.667 186.831 171.509 187.125 171.509 187.489C171.509 187.769 171.597 187.993 171.775 188.161C171.961 188.329 172.19 188.455 172.461 188.539C172.731 188.614 173.105 188.693 173.581 188.777C174.169 188.889 174.64 189.001 174.995 189.113C175.349 189.225 175.653 189.416 175.905 189.687C176.157 189.958 176.283 190.331 176.283 190.807C176.283 191.451 176.012 191.964 175.471 192.347C174.939 192.72 174.197 192.907 173.245 192.907ZM184.732 189.463H178.572C178.628 190.228 178.922 190.849 179.454 191.325C179.986 191.792 180.658 192.025 181.47 192.025C181.928 192.025 182.348 191.946 182.73 191.787C183.113 191.619 183.444 191.376 183.724 191.059L184.284 191.703C183.958 192.095 183.547 192.394 183.052 192.599C182.567 192.804 182.03 192.907 181.442 192.907C180.686 192.907 180.014 192.748 179.426 192.431C178.848 192.104 178.395 191.656 178.068 191.087C177.742 190.518 177.578 189.874 177.578 189.155C177.578 188.436 177.732 187.792 178.04 187.223C178.358 186.654 178.787 186.21 179.328 185.893C179.879 185.576 180.495 185.417 181.176 185.417C181.858 185.417 182.469 185.576 183.01 185.893C183.552 186.21 183.976 186.654 184.284 187.223C184.592 187.783 184.746 188.427 184.746 189.155L184.732 189.463ZM181.176 186.271C180.467 186.271 179.87 186.5 179.384 186.957C178.908 187.405 178.638 187.993 178.572 188.721H183.794C183.729 187.993 183.454 187.405 182.968 186.957C182.492 186.5 181.895 186.271 181.176 186.271ZM188.944 192.907C188.346 192.907 187.772 192.823 187.222 192.655C186.68 192.478 186.256 192.258 185.948 191.997L186.396 191.213C186.704 191.456 187.091 191.656 187.558 191.815C188.024 191.964 188.51 192.039 189.014 192.039C189.686 192.039 190.18 191.936 190.498 191.731C190.824 191.516 190.988 191.218 190.988 190.835C190.988 190.564 190.899 190.354 190.722 190.205C190.544 190.046 190.32 189.93 190.05 189.855C189.779 189.771 189.42 189.692 188.972 189.617C188.374 189.505 187.894 189.393 187.53 189.281C187.166 189.16 186.853 188.959 186.592 188.679C186.34 188.399 186.214 188.012 186.214 187.517C186.214 186.901 186.47 186.397 186.984 186.005C187.497 185.613 188.211 185.417 189.126 185.417C189.602 185.417 190.078 185.482 190.554 185.613C191.03 185.734 191.422 185.898 191.73 186.103L191.296 186.901C190.689 186.481 189.966 186.271 189.126 186.271C188.491 186.271 188.01 186.383 187.684 186.607C187.366 186.831 187.208 187.125 187.208 187.489C187.208 187.769 187.296 187.993 187.474 188.161C187.66 188.329 187.889 188.455 188.16 188.539C188.43 188.614 188.804 188.693 189.28 188.777C189.868 188.889 190.339 189.001 190.694 189.113C191.048 189.225 191.352 189.416 191.604 189.687C191.856 189.958 191.982 190.331 191.982 190.807C191.982 191.451 191.711 191.964 191.17 192.347C190.638 192.72 189.896 192.907 188.944 192.907ZM199.577 195.553C199.055 194.694 198.653 193.71 198.373 192.599C198.093 191.479 197.953 190.28 197.953 189.001C197.953 187.722 198.093 186.523 198.373 185.403C198.653 184.274 199.055 183.289 199.577 182.449H200.529C199.979 183.392 199.573 184.404 199.311 185.487C199.059 186.57 198.933 187.741 198.933 189.001C198.933 190.261 199.059 191.432 199.311 192.515C199.573 193.598 199.979 194.61 200.529 195.553H199.577ZM205.127 183.219C204.697 183.219 204.371 183.336 204.147 183.569C203.932 183.802 203.825 184.148 203.825 184.605V185.473H206.093V186.313H203.853V192.837H202.859V186.313H201.543V185.473H202.859V184.563C202.859 183.891 203.05 183.359 203.433 182.967C203.825 182.575 204.375 182.379 205.085 182.379C205.365 182.379 205.635 182.421 205.897 182.505C206.158 182.58 206.377 182.692 206.555 182.841L206.219 183.583C205.929 183.34 205.565 183.219 205.127 183.219ZM210.431 183.037V192.837H209.423V183.933H207.113V183.037H210.431ZM220.38 181.049H221.29L216.67 194.237H215.76L220.38 181.049ZM228.685 183.219C228.256 183.219 227.929 183.336 227.705 183.569C227.491 183.802 227.383 184.148 227.383 184.605V185.473H229.651V186.313H227.411V192.837H226.417V186.313H225.101V185.473H226.417V184.563C226.417 183.891 226.609 183.359 226.991 182.967C227.383 182.575 227.934 182.379 228.643 182.379C228.923 182.379 229.194 182.421 229.455 182.505C229.717 182.58 229.936 182.692 230.113 182.841L229.777 183.583C229.488 183.34 229.124 183.219 228.685 183.219ZM234.223 187.237C235.25 187.293 236.029 187.573 236.561 188.077C237.102 188.572 237.373 189.22 237.373 190.023C237.373 190.583 237.238 191.082 236.967 191.521C236.696 191.95 236.295 192.291 235.763 192.543C235.231 192.795 234.582 192.921 233.817 192.921C233.108 192.921 232.436 192.809 231.801 192.585C231.176 192.352 230.672 192.044 230.289 191.661L230.779 190.863C231.106 191.199 231.54 191.474 232.081 191.689C232.622 191.894 233.201 191.997 233.817 191.997C234.62 191.997 235.24 191.824 235.679 191.479C236.118 191.124 236.337 190.639 236.337 190.023C236.337 189.416 236.118 188.94 235.679 188.595C235.24 188.25 234.578 188.077 233.691 188.077H232.991V187.335L235.707 183.933H230.695V183.037H236.995V183.751L234.223 187.237ZM238.825 195.553C239.376 194.61 239.782 193.602 240.043 192.529C240.305 191.446 240.435 190.27 240.435 189.001C240.435 187.732 240.305 186.56 240.043 185.487C239.782 184.404 239.376 183.392 238.825 182.449H239.777C240.3 183.289 240.701 184.274 240.981 185.403C241.271 186.523 241.415 187.722 241.415 189.001C241.415 190.28 241.275 191.479 240.995 192.599C240.715 193.719 240.309 194.704 239.777 195.553H238.825Z" fill="#737373"/>
<rect x="0.5" y="163.337" width="449" height="49" rx="4.5" stroke="#E6E6E6"/>
</g>
<g clip-path="url(#clip1)">
<rect x="1.5" y="224.043" width="447.001" height="48.0004" rx="4.5" fill="#000B44"/>
<path d="M201.524 254.652C200.276 254.652 199.148 254.376 198.14 253.824C197.144 253.272 196.358 252.51 195.782 251.538C195.218 250.554 194.936 249.456 194.936 248.244C194.936 247.032 195.218 245.94 195.782 244.968C196.358 243.984 197.15 243.216 198.158 242.664C199.166 242.112 200.294 241.836 201.542 241.836C202.478 241.836 203.342 241.992 204.134 242.304C204.926 242.616 205.598 243.072 206.15 243.672L205.304 244.518C204.32 243.522 203.078 243.024 201.578 243.024C200.582 243.024 199.676 243.252 198.86 243.708C198.044 244.164 197.402 244.788 196.934 245.58C196.478 246.372 196.25 247.26 196.25 248.244C196.25 249.228 196.478 250.116 196.934 250.908C197.402 251.7 198.044 252.324 198.86 252.78C199.676 253.236 200.582 253.464 201.578 253.464C203.09 253.464 204.332 252.96 205.304 251.952L206.15 252.798C205.598 253.398 204.92 253.86 204.116 254.184C203.324 254.496 202.46 254.652 201.524 254.652ZM210.044 246.93C210.344 246.294 210.788 245.814 211.376 245.49C211.976 245.166 212.714 245.004 213.59 245.004V246.246L213.284 246.228C212.288 246.228 211.508 246.534 210.944 247.146C210.38 247.758 210.098 248.616 210.098 249.72V254.544H208.82V245.076H210.044V246.93ZM224.16 250.206H216.24C216.312 251.19 216.69 251.988 217.374 252.6C218.058 253.2 218.922 253.5 219.966 253.5C220.554 253.5 221.094 253.398 221.586 253.194C222.078 252.978 222.504 252.666 222.864 252.258L223.584 253.086C223.164 253.59 222.636 253.974 222 254.238C221.376 254.502 220.686 254.634 219.93 254.634C218.958 254.634 218.094 254.43 217.338 254.022C216.594 253.602 216.012 253.026 215.592 252.294C215.172 251.562 214.962 250.734 214.962 249.81C214.962 248.886 215.16 248.058 215.556 247.326C215.964 246.594 216.516 246.024 217.212 245.616C217.92 245.208 218.712 245.004 219.588 245.004C220.464 245.004 221.25 245.208 221.946 245.616C222.642 246.024 223.188 246.594 223.584 247.326C223.98 248.046 224.178 248.874 224.178 249.81L224.16 250.206ZM219.588 246.102C218.676 246.102 217.908 246.396 217.284 246.984C216.672 247.56 216.324 248.316 216.24 249.252H222.954C222.87 248.316 222.516 247.56 221.892 246.984C221.28 246.396 220.512 246.102 219.588 246.102ZM229.927 245.004C231.163 245.004 232.111 245.316 232.771 245.94C233.431 246.552 233.761 247.464 233.761 248.676V254.544H232.537V253.068C232.249 253.56 231.823 253.944 231.259 254.22C230.707 254.496 230.047 254.634 229.279 254.634C228.223 254.634 227.383 254.382 226.759 253.878C226.135 253.374 225.823 252.708 225.823 251.88C225.823 251.076 226.111 250.428 226.687 249.936C227.275 249.444 228.205 249.198 229.477 249.198H232.483V248.622C232.483 247.806 232.255 247.188 231.799 246.768C231.343 246.336 230.677 246.12 229.801 246.12C229.201 246.12 228.625 246.222 228.073 246.426C227.521 246.618 227.047 246.888 226.651 247.236L226.075 246.282C226.555 245.874 227.131 245.562 227.803 245.346C228.475 245.118 229.183 245.004 229.927 245.004ZM229.477 253.626C230.197 253.626 230.815 253.464 231.331 253.14C231.847 252.804 232.231 252.324 232.483 251.7V250.152H229.513C227.893 250.152 227.083 250.716 227.083 251.844C227.083 252.396 227.293 252.834 227.713 253.158C228.133 253.47 228.721 253.626 229.477 253.626ZM242.318 253.968C242.078 254.184 241.778 254.352 241.418 254.472C241.07 254.58 240.704 254.634 240.32 254.634C239.432 254.634 238.748 254.394 238.268 253.914C237.788 253.434 237.548 252.756 237.548 251.88V246.156H235.856V245.076H237.548V243.006H238.826V245.076H241.706V246.156H238.826V251.808C238.826 252.372 238.964 252.804 239.24 253.104C239.528 253.392 239.936 253.536 240.464 253.536C240.728 253.536 240.98 253.494 241.22 253.41C241.472 253.326 241.688 253.206 241.868 253.05L242.318 253.968ZM252.655 250.206H244.735C244.807 251.19 245.185 251.988 245.869 252.6C246.553 253.2 247.417 253.5 248.461 253.5C249.049 253.5 249.589 253.398 250.081 253.194C250.573 252.978 250.999 252.666 251.359 252.258L252.079 253.086C251.659 253.59 251.131 253.974 250.495 254.238C249.871 254.502 249.181 254.634 248.425 254.634C247.453 254.634 246.589 254.43 245.833 254.022C245.089 253.602 244.507 253.026 244.087 252.294C243.667 251.562 243.457 250.734 243.457 249.81C243.457 248.886 243.655 248.058 244.051 247.326C244.459 246.594 245.011 246.024 245.707 245.616C246.415 245.208 247.207 245.004 248.083 245.004C248.959 245.004 249.745 245.208 250.441 245.616C251.137 246.024 251.683 246.594 252.079 247.326C252.475 248.046 252.673 248.874 252.673 249.81L252.655 250.206ZM248.083 246.102C247.171 246.102 246.403 246.396 245.779 246.984C245.167 247.56 244.819 248.316 244.735 249.252H251.449C251.365 248.316 251.011 247.56 250.387 246.984C249.775 246.396 249.007 246.102 248.083 246.102Z" fill="#FEFEFE"/>
<rect x="1.5" y="224.043" width="447.001" height="48.0004" rx="4.5" stroke="#E6E6E6"/>
</g>
<rect x="1.5" y="37.5" width="450" height="49" rx="4.5" fill="#F9F9F9"/>
<path d="M23.298 67.084C22.57 67.084 21.87 66.9673 21.198 66.734C20.5353 66.5007 20.022 66.1927 19.658 65.81L20.064 65.012C20.4187 65.3667 20.89 65.656 21.478 65.88C22.066 66.0947 22.6727 66.202 23.298 66.202C24.1753 66.202 24.8333 66.0433 25.272 65.726C25.7107 65.3993 25.93 64.9793 25.93 64.466C25.93 64.074 25.8087 63.7613 25.566 63.528C25.3327 63.2947 25.0433 63.1173 24.698 62.996C24.3527 62.8653 23.872 62.7253 23.256 62.576C22.5187 62.3893 21.9307 62.212 21.492 62.044C21.0533 61.8667 20.6753 61.6007 20.358 61.246C20.05 60.8913 19.896 60.4107 19.896 59.804C19.896 59.3093 20.0267 58.8613 20.288 58.46C20.5493 58.0493 20.9507 57.7227 21.492 57.48C22.0333 57.2373 22.7053 57.116 23.508 57.116C24.068 57.116 24.614 57.1953 25.146 57.354C25.6873 57.5033 26.154 57.7133 26.546 57.984L26.196 58.81C25.7853 58.5393 25.3467 58.3387 24.88 58.208C24.4133 58.068 23.956 57.998 23.508 57.998C22.6493 57.998 22.0007 58.166 21.562 58.502C21.1327 58.8287 20.918 59.2533 20.918 59.776C20.918 60.168 21.0347 60.4853 21.268 60.728C21.5107 60.9613 21.8093 61.1433 22.164 61.274C22.528 61.3953 23.0133 61.5307 23.62 61.68C24.3387 61.8573 24.9173 62.0347 25.356 62.212C25.804 62.38 26.182 62.6413 26.49 62.996C26.798 63.3413 26.952 63.8127 26.952 64.41C26.952 64.9047 26.8167 65.3573 26.546 65.768C26.2847 66.1693 25.8787 66.4913 25.328 66.734C24.7773 66.9673 24.1007 67.084 23.298 67.084ZM35.6113 63.626H29.4513C29.5073 64.3913 29.8013 65.012 30.3333 65.488C30.8653 65.9547 31.5373 66.188 32.3493 66.188C32.8066 66.188 33.2266 66.1087 33.6093 65.95C33.9919 65.782 34.3233 65.5393 34.6033 65.222L35.1633 65.866C34.8366 66.258 34.4259 66.5567 33.9313 66.762C33.4459 66.9673 32.9093 67.07 32.3213 67.07C31.5653 67.07 30.8933 66.9113 30.3053 66.594C29.7266 66.2673 29.2739 65.8193 28.9473 65.25C28.6206 64.6807 28.4573 64.0367 28.4573 63.318C28.4573 62.5993 28.6113 61.9553 28.9193 61.386C29.2366 60.8167 29.6659 60.3733 30.2073 60.056C30.7579 59.7387 31.3739 59.58 32.0553 59.58C32.7366 59.58 33.3479 59.7387 33.8893 60.056C34.4306 60.3733 34.8553 60.8167 35.1633 61.386C35.4713 61.946 35.6253 62.59 35.6253 63.318L35.6113 63.626ZM32.0553 60.434C31.3459 60.434 30.7486 60.6627 30.2633 61.12C29.7873 61.568 29.5166 62.156 29.4513 62.884H34.6733C34.6079 62.156 34.3326 61.568 33.8473 61.12C33.3713 60.6627 32.7739 60.434 32.0553 60.434ZM37.8485 56.612H38.8425V67H37.8485V56.612ZM48.2203 63.626H42.0603C42.1163 64.3913 42.4103 65.012 42.9423 65.488C43.4743 65.9547 44.1463 66.188 44.9583 66.188C45.4156 66.188 45.8356 66.1087 46.2183 65.95C46.6009 65.782 46.9323 65.5393 47.2123 65.222L47.7723 65.866C47.4456 66.258 47.0349 66.5567 46.5403 66.762C46.0549 66.9673 45.5183 67.07 44.9303 67.07C44.1743 67.07 43.5023 66.9113 42.9143 66.594C42.3356 66.2673 41.8829 65.8193 41.5563 65.25C41.2296 64.6807 41.0663 64.0367 41.0663 63.318C41.0663 62.5993 41.2203 61.9553 41.5283 61.386C41.8456 60.8167 42.2749 60.3733 42.8163 60.056C43.3669 59.7387 43.9829 59.58 44.6643 59.58C45.3456 59.58 45.9569 59.7387 46.4983 60.056C47.0396 60.3733 47.4643 60.8167 47.7723 61.386C48.0803 61.946 48.2343 62.59 48.2343 63.318L48.2203 63.626ZM44.6643 60.434C43.9549 60.434 43.3576 60.6627 42.8723 61.12C42.3963 61.568 42.1256 62.156 42.0603 62.884H47.2823C47.2169 62.156 46.9416 61.568 46.4563 61.12C45.9803 60.6627 45.3829 60.434 44.6643 60.434ZM53.5095 67.07C52.7815 67.07 52.1282 66.9113 51.5495 66.594C50.9802 66.2767 50.5322 65.8333 50.2055 65.264C49.8788 64.6853 49.7155 64.0367 49.7155 63.318C49.7155 62.5993 49.8788 61.9553 50.2055 61.386C50.5322 60.8167 50.9802 60.3733 51.5495 60.056C52.1282 59.7387 52.7815 59.58 53.5095 59.58C54.1442 59.58 54.7088 59.706 55.2035 59.958C55.7075 60.2007 56.1042 60.56 56.3935 61.036L55.6515 61.54C55.4088 61.176 55.1008 60.9053 54.7275 60.728C54.3542 60.5413 53.9482 60.448 53.5095 60.448C52.9775 60.448 52.4968 60.5693 52.0675 60.812C51.6475 61.0453 51.3162 61.3813 51.0735 61.82C50.8402 62.2587 50.7235 62.758 50.7235 63.318C50.7235 63.8873 50.8402 64.3913 51.0735 64.83C51.3162 65.2593 51.6475 65.5953 52.0675 65.838C52.4968 66.0713 52.9775 66.188 53.5095 66.188C53.9482 66.188 54.3542 66.0993 54.7275 65.922C55.1008 65.7447 55.4088 65.474 55.6515 65.11L56.3935 65.614C56.1042 66.09 55.7075 66.454 55.2035 66.706C54.6995 66.9487 54.1348 67.07 53.5095 67.07ZM62.5062 66.552C62.3195 66.72 62.0862 66.8507 61.8062 66.944C61.5355 67.028 61.2509 67.07 60.9522 67.07C60.2615 67.07 59.7295 66.8833 59.3562 66.51C58.9829 66.1367 58.7962 65.6093 58.7962 64.928V60.476H57.4802V59.636H58.7962V58.026H59.7902V59.636H62.0302V60.476H59.7902V64.872C59.7902 65.3107 59.8975 65.6467 60.1122 65.88C60.3362 66.104 60.6535 66.216 61.0642 66.216C61.2695 66.216 61.4655 66.1833 61.6522 66.118C61.8482 66.0527 62.0162 65.9593 62.1562 65.838L62.5062 66.552ZM72.1738 59.58C72.8644 59.58 73.4898 59.7387 74.0498 60.056C74.6098 60.364 75.0484 60.8027 75.3658 61.372C75.6831 61.9413 75.8418 62.59 75.8418 63.318C75.8418 64.0553 75.6831 64.7087 75.3658 65.278C75.0484 65.8473 74.6098 66.2907 74.0498 66.608C73.4991 66.916 72.8738 67.07 72.1738 67.07C71.5764 67.07 71.0351 66.9487 70.5498 66.706C70.0738 66.454 69.6818 66.09 69.3738 65.614V69.716H68.3798V59.636H69.3318V61.092C69.6304 60.6067 70.0224 60.2333 70.5078 59.972C71.0024 59.7107 71.5578 59.58 72.1738 59.58ZM72.1038 66.188C72.6171 66.188 73.0838 66.0713 73.5038 65.838C73.9238 65.5953 74.2504 65.2547 74.4838 64.816C74.7264 64.3773 74.8478 63.878 74.8478 63.318C74.8478 62.758 74.7264 62.2633 74.4838 61.834C74.2504 61.3953 73.9238 61.0547 73.5038 60.812C73.0838 60.5693 72.6171 60.448 72.1038 60.448C71.5811 60.448 71.1098 60.5693 70.6898 60.812C70.2791 61.0547 69.9524 61.3953 69.7098 61.834C69.4764 62.2633 69.3598 62.758 69.3598 63.318C69.3598 63.878 69.4764 64.3773 69.7098 64.816C69.9524 65.2547 70.2791 65.5953 70.6898 65.838C71.1098 66.0713 71.5811 66.188 72.1038 66.188ZM79.02 61.078C79.2534 60.5833 79.5987 60.21 80.056 59.958C80.5227 59.706 81.0967 59.58 81.778 59.58V60.546L81.54 60.532C80.7654 60.532 80.1587 60.77 79.72 61.246C79.2814 61.722 79.062 62.3893 79.062 63.248V67H78.068V59.636H79.02V61.078ZM83.7778 59.636H84.7718V67H83.7778V59.636ZM84.2818 58.026C84.0765 58.026 83.9038 57.956 83.7638 57.816C83.6238 57.676 83.5538 57.508 83.5538 57.312C83.5538 57.1253 83.6238 56.962 83.7638 56.822C83.9038 56.682 84.0765 56.612 84.2818 56.612C84.4871 56.612 84.6598 56.682 84.7998 56.822C84.9398 56.9527 85.0098 57.1113 85.0098 57.298C85.0098 57.5033 84.9398 57.676 84.7998 57.816C84.6598 57.956 84.4871 58.026 84.2818 58.026ZM90.7896 67.07C90.0616 67.07 89.4082 66.9113 88.8296 66.594C88.2602 66.2767 87.8122 65.8333 87.4856 65.264C87.1589 64.6853 86.9956 64.0367 86.9956 63.318C86.9956 62.5993 87.1589 61.9553 87.4856 61.386C87.8122 60.8167 88.2602 60.3733 88.8296 60.056C89.4082 59.7387 90.0616 59.58 90.7896 59.58C91.4242 59.58 91.9889 59.706 92.4836 59.958C92.9876 60.2007 93.3842 60.56 93.6736 61.036L92.9316 61.54C92.6889 61.176 92.3809 60.9053 92.0076 60.728C91.6342 60.5413 91.2282 60.448 90.7896 60.448C90.2576 60.448 89.7769 60.5693 89.3476 60.812C88.9276 61.0453 88.5962 61.3813 88.3536 61.82C88.1202 62.2587 88.0036 62.758 88.0036 63.318C88.0036 63.8873 88.1202 64.3913 88.3536 64.83C88.5962 65.2593 88.9276 65.5953 89.3476 65.838C89.7769 66.0713 90.2576 66.188 90.7896 66.188C91.2282 66.188 91.6342 66.0993 92.0076 65.922C92.3809 65.7447 92.6889 65.474 92.9316 65.11L93.6736 65.614C93.3842 66.09 92.9876 66.454 92.4836 66.706C91.9796 66.9487 91.4149 67.07 90.7896 67.07ZM95.8262 59.636H96.8202V67H95.8262V59.636ZM96.3302 58.026C96.1249 58.026 95.9522 57.956 95.8122 57.816C95.6722 57.676 95.6022 57.508 95.6022 57.312C95.6022 57.1253 95.6722 56.962 95.8122 56.822C95.9522 56.682 96.1249 56.612 96.3302 56.612C96.5356 56.612 96.7082 56.682 96.8482 56.822C96.9882 56.9527 97.0582 57.1113 97.0582 57.298C97.0582 57.5033 96.9882 57.676 96.8482 57.816C96.7082 57.956 96.5356 58.026 96.3302 58.026ZM103.538 59.58C104.462 59.58 105.195 59.8507 105.736 60.392C106.287 60.924 106.562 61.7033 106.562 62.73V67H105.568V62.828C105.568 62.0627 105.377 61.4793 104.994 61.078C104.611 60.6767 104.065 60.476 103.356 60.476C102.563 60.476 101.933 60.714 101.466 61.19C101.009 61.6567 100.78 62.3053 100.78 63.136V67H99.786V59.636H100.738V60.994C101.009 60.546 101.382 60.2007 101.858 59.958C102.343 59.706 102.903 59.58 103.538 59.58ZM116.306 59.636V66.104C116.306 67.3547 115.998 68.2787 115.382 68.876C114.775 69.4827 113.856 69.786 112.624 69.786C111.943 69.786 111.294 69.6833 110.678 69.478C110.071 69.282 109.577 69.0067 109.194 68.652L109.698 67.896C110.053 68.2133 110.482 68.4607 110.986 68.638C111.499 68.8153 112.036 68.904 112.596 68.904C113.529 68.904 114.215 68.6847 114.654 68.246C115.093 67.8167 115.312 67.1447 115.312 66.23V65.292C115.004 65.7587 114.598 66.1133 114.094 66.356C113.599 66.5987 113.049 66.72 112.442 66.72C111.751 66.72 111.121 66.5707 110.552 66.272C109.992 65.964 109.549 65.5393 109.222 64.998C108.905 64.4473 108.746 63.8267 108.746 63.136C108.746 62.4453 108.905 61.8293 109.222 61.288C109.549 60.7467 109.992 60.3267 110.552 60.028C111.112 59.7293 111.742 59.58 112.442 59.58C113.067 59.58 113.632 59.706 114.136 59.958C114.64 60.21 115.046 60.574 115.354 61.05V59.636H116.306ZM112.54 65.838C113.072 65.838 113.553 65.726 113.982 65.502C114.411 65.2687 114.743 64.9467 114.976 64.536C115.219 64.1253 115.34 63.6587 115.34 63.136C115.34 62.6133 115.219 62.1513 114.976 61.75C114.743 61.3393 114.411 61.022 113.982 60.798C113.562 60.5647 113.081 60.448 112.54 60.448C112.008 60.448 111.527 60.56 111.098 60.784C110.678 61.008 110.347 61.3253 110.104 61.736C109.871 62.1467 109.754 62.6133 109.754 63.136C109.754 63.6587 109.871 64.1253 110.104 64.536C110.347 64.9467 110.678 65.2687 111.098 65.502C111.527 65.726 112.008 65.838 112.54 65.838ZM132.334 59.58C133.258 59.58 133.981 59.846 134.504 60.378C135.036 60.91 135.302 61.694 135.302 62.73V67H134.308V62.828C134.308 62.0627 134.121 61.4793 133.748 61.078C133.384 60.6767 132.866 60.476 132.194 60.476C131.428 60.476 130.826 60.714 130.388 61.19C129.949 61.6567 129.73 62.3053 129.73 63.136V67H128.736V62.828C128.736 62.0627 128.549 61.4793 128.176 61.078C127.812 60.6767 127.289 60.476 126.608 60.476C125.852 60.476 125.25 60.714 124.802 61.19C124.363 61.6567 124.144 62.3053 124.144 63.136V67H123.15V59.636H124.102V60.98C124.363 60.532 124.727 60.1867 125.194 59.944C125.66 59.7013 126.197 59.58 126.804 59.58C127.42 59.58 127.952 59.7107 128.4 59.972C128.857 60.2333 129.198 60.6207 129.422 61.134C129.692 60.6487 130.08 60.2707 130.584 60C131.097 59.72 131.68 59.58 132.334 59.58ZM141.235 67.07C140.525 67.07 139.886 66.9113 139.317 66.594C138.747 66.2673 138.299 65.8193 137.973 65.25C137.646 64.6807 137.483 64.0367 137.483 63.318C137.483 62.5993 137.646 61.9553 137.973 61.386C138.299 60.8167 138.747 60.3733 139.317 60.056C139.886 59.7387 140.525 59.58 141.235 59.58C141.944 59.58 142.583 59.7387 143.153 60.056C143.722 60.3733 144.165 60.8167 144.483 61.386C144.809 61.9553 144.973 62.5993 144.973 63.318C144.973 64.0367 144.809 64.6807 144.483 65.25C144.165 65.8193 143.722 66.2673 143.153 66.594C142.583 66.9113 141.944 67.07 141.235 67.07ZM141.235 66.188C141.757 66.188 142.224 66.0713 142.635 65.838C143.055 65.5953 143.381 65.2547 143.615 64.816C143.848 64.3773 143.965 63.878 143.965 63.318C143.965 62.758 143.848 62.2587 143.615 61.82C143.381 61.3813 143.055 61.0453 142.635 60.812C142.224 60.5693 141.757 60.448 141.235 60.448C140.712 60.448 140.241 60.5693 139.821 60.812C139.41 61.0453 139.083 61.3813 138.841 61.82C138.607 62.2587 138.491 62.758 138.491 63.318C138.491 63.878 138.607 64.3773 138.841 64.816C139.083 65.2547 139.41 65.5953 139.821 65.838C140.241 66.0713 140.712 66.188 141.235 66.188ZM153.922 56.612V67H152.97V65.544C152.671 66.0387 152.275 66.4167 151.78 66.678C151.295 66.9393 150.744 67.07 150.128 67.07C149.437 67.07 148.812 66.9113 148.252 66.594C147.692 66.2767 147.253 65.8333 146.936 65.264C146.619 64.6947 146.46 64.046 146.46 63.318C146.46 62.59 146.619 61.9413 146.936 61.372C147.253 60.8027 147.692 60.364 148.252 60.056C148.812 59.7387 149.437 59.58 150.128 59.58C150.725 59.58 151.262 59.706 151.738 59.958C152.223 60.2007 152.62 60.56 152.928 61.036V56.612H153.922ZM150.212 66.188C150.725 66.188 151.187 66.0713 151.598 65.838C152.018 65.5953 152.345 65.2547 152.578 64.816C152.821 64.3773 152.942 63.878 152.942 63.318C152.942 62.758 152.821 62.2587 152.578 61.82C152.345 61.3813 152.018 61.0453 151.598 60.812C151.187 60.5693 150.725 60.448 150.212 60.448C149.689 60.448 149.218 60.5693 148.798 60.812C148.387 61.0453 148.061 61.3813 147.818 61.82C147.585 62.2587 147.468 62.758 147.468 63.318C147.468 63.878 147.585 64.3773 147.818 64.816C148.061 65.2547 148.387 65.5953 148.798 65.838C149.218 66.0713 149.689 66.188 150.212 66.188ZM163.302 63.626H157.142C157.198 64.3913 157.492 65.012 158.024 65.488C158.556 65.9547 159.228 66.188 160.04 66.188C160.498 66.188 160.918 66.1087 161.3 65.95C161.683 65.782 162.014 65.5393 162.294 65.222L162.854 65.866C162.528 66.258 162.117 66.5567 161.622 66.762C161.137 66.9673 160.6 67.07 160.012 67.07C159.256 67.07 158.584 66.9113 157.996 66.594C157.418 66.2673 156.965 65.8193 156.638 65.25C156.312 64.6807 156.148 64.0367 156.148 63.318C156.148 62.5993 156.302 61.9553 156.61 61.386C156.928 60.8167 157.357 60.3733 157.898 60.056C158.449 59.7387 159.065 59.58 159.746 59.58C160.428 59.58 161.039 59.7387 161.58 60.056C162.122 60.3733 162.546 60.8167 162.854 61.386C163.162 61.946 163.316 62.59 163.316 63.318L163.302 63.626ZM159.746 60.434C159.037 60.434 158.44 60.6627 157.954 61.12C157.478 61.568 157.208 62.156 157.142 62.884H162.364C162.299 62.156 162.024 61.568 161.538 61.12C161.062 60.6627 160.465 60.434 159.746 60.434ZM165.54 56.612H166.534V67H165.54V56.612ZM177.241 66.552C177.055 66.72 176.821 66.8507 176.541 66.944C176.271 67.028 175.986 67.07 175.687 67.07C174.997 67.07 174.465 66.8833 174.091 66.51C173.718 66.1367 173.531 65.6093 173.531 64.928V60.476H172.215V59.636H173.531V58.026H174.525V59.636H176.765V60.476H174.525V64.872C174.525 65.3107 174.633 65.6467 174.847 65.88C175.071 66.104 175.389 66.216 175.799 66.216C176.005 66.216 176.201 66.1833 176.387 66.118C176.583 66.0527 176.751 65.9593 176.891 65.838L177.241 66.552ZM182.001 67.07C181.292 67.07 180.652 66.9113 180.083 66.594C179.514 66.2673 179.066 65.8193 178.739 65.25C178.412 64.6807 178.249 64.0367 178.249 63.318C178.249 62.5993 178.412 61.9553 178.739 61.386C179.066 60.8167 179.514 60.3733 180.083 60.056C180.652 59.7387 181.292 59.58 182.001 59.58C182.71 59.58 183.35 59.7387 183.919 60.056C184.488 60.3733 184.932 60.8167 185.249 61.386C185.576 61.9553 185.739 62.5993 185.739 63.318C185.739 64.0367 185.576 64.6807 185.249 65.25C184.932 65.8193 184.488 66.2673 183.919 66.594C183.35 66.9113 182.71 67.07 182.001 67.07ZM182.001 66.188C182.524 66.188 182.99 66.0713 183.401 65.838C183.821 65.5953 184.148 65.2547 184.381 64.816C184.614 64.3773 184.731 63.878 184.731 63.318C184.731 62.758 184.614 62.2587 184.381 61.82C184.148 61.3813 183.821 61.0453 183.401 60.812C182.99 60.5693 182.524 60.448 182.001 60.448C181.478 60.448 181.007 60.5693 180.587 60.812C180.176 61.0453 179.85 61.3813 179.607 61.82C179.374 62.2587 179.257 62.758 179.257 63.318C179.257 63.878 179.374 64.3773 179.607 64.816C179.85 65.2547 180.176 65.5953 180.587 65.838C181.007 66.0713 181.478 66.188 182.001 66.188ZM194.408 59.58C195.37 59.58 196.107 59.8227 196.62 60.308C197.134 60.784 197.39 61.4933 197.39 62.436V67H196.438V65.852C196.214 66.2347 195.883 66.5333 195.444 66.748C195.015 66.9627 194.502 67.07 193.904 67.07C193.083 67.07 192.43 66.874 191.944 66.482C191.459 66.09 191.216 65.572 191.216 64.928C191.216 64.3027 191.44 63.7987 191.888 63.416C192.346 63.0333 193.069 62.842 194.058 62.842H196.396V62.394C196.396 61.7593 196.219 61.2787 195.864 60.952C195.51 60.616 194.992 60.448 194.31 60.448C193.844 60.448 193.396 60.5273 192.966 60.686C192.537 60.8353 192.168 61.0453 191.86 61.316L191.412 60.574C191.786 60.2567 192.234 60.014 192.756 59.846C193.279 59.6687 193.83 59.58 194.408 59.58ZM194.058 66.286C194.618 66.286 195.099 66.16 195.5 65.908C195.902 65.6467 196.2 65.2733 196.396 64.788V63.584H194.086C192.826 63.584 192.196 64.0227 192.196 64.9C192.196 65.3293 192.36 65.67 192.686 65.922C193.013 66.1647 193.47 66.286 194.058 66.286ZM204.084 59.58C204.775 59.58 205.4 59.7387 205.96 60.056C206.52 60.364 206.959 60.8027 207.276 61.372C207.594 61.9413 207.752 62.59 207.752 63.318C207.752 64.0553 207.594 64.7087 207.276 65.278C206.959 65.8473 206.52 66.2907 205.96 66.608C205.41 66.916 204.784 67.07 204.084 67.07C203.487 67.07 202.946 66.9487 202.46 66.706C201.984 66.454 201.592 66.09 201.284 65.614V69.716H200.29V59.636H201.242V61.092C201.541 60.6067 201.933 60.2333 202.418 59.972C202.913 59.7107 203.468 59.58 204.084 59.58ZM204.014 66.188C204.528 66.188 204.994 66.0713 205.414 65.838C205.834 65.5953 206.161 65.2547 206.394 64.816C206.637 64.3773 206.758 63.878 206.758 63.318C206.758 62.758 206.637 62.2633 206.394 61.834C206.161 61.3953 205.834 61.0547 205.414 60.812C204.994 60.5693 204.528 60.448 204.014 60.448C203.492 60.448 203.02 60.5693 202.6 60.812C202.19 61.0547 201.863 61.3953 201.62 61.834C201.387 62.2633 201.27 62.758 201.27 63.318C201.27 63.878 201.387 64.3773 201.62 64.816C201.863 65.2547 202.19 65.5953 202.6 65.838C203.02 66.0713 203.492 66.188 204.014 66.188ZM213.773 59.58C214.463 59.58 215.089 59.7387 215.649 60.056C216.209 60.364 216.647 60.8027 216.965 61.372C217.282 61.9413 217.441 62.59 217.441 63.318C217.441 64.0553 217.282 64.7087 216.965 65.278C216.647 65.8473 216.209 66.2907 215.649 66.608C215.098 66.916 214.473 67.07 213.773 67.07C213.175 67.07 212.634 66.9487 212.149 66.706C211.673 66.454 211.281 66.09 210.973 65.614V69.716H209.979V59.636H210.931V61.092C211.229 60.6067 211.621 60.2333 212.107 59.972C212.601 59.7107 213.157 59.58 213.773 59.58ZM213.703 66.188C214.216 66.188 214.683 66.0713 215.103 65.838C215.523 65.5953 215.849 65.2547 216.083 64.816C216.325 64.3773 216.447 63.878 216.447 63.318C216.447 62.758 216.325 62.2633 216.083 61.834C215.849 61.3953 215.523 61.0547 215.103 60.812C214.683 60.5693 214.216 60.448 213.703 60.448C213.18 60.448 212.709 60.5693 212.289 60.812C211.878 61.0547 211.551 61.3953 211.309 61.834C211.075 62.2633 210.959 62.758 210.959 63.318C210.959 63.878 211.075 64.3773 211.309 64.816C211.551 65.2547 211.878 65.5953 212.289 65.838C212.709 66.0713 213.18 66.188 213.703 66.188ZM219.667 56.612H220.661V67H219.667V56.612ZM229.815 59.636L226.133 67.882C225.834 68.5727 225.489 69.0627 225.097 69.352C224.705 69.6413 224.233 69.786 223.683 69.786C223.328 69.786 222.997 69.73 222.689 69.618C222.381 69.506 222.115 69.338 221.891 69.114L222.353 68.372C222.726 68.7453 223.174 68.932 223.697 68.932C224.033 68.932 224.317 68.8387 224.551 68.652C224.793 68.4653 225.017 68.148 225.223 67.7L225.545 66.986L222.255 59.636H223.291L226.063 65.894L228.835 59.636H229.815Z" fill="#737373"/>
<path d="M410.992 57.9995L415.992 62.9995L420.992 57.9995L422.992 58.9995L415.992 65.9995L408.992 58.9995L410.992 57.9995Z" fill="#737373"/>
<rect x="1.5" y="37.5" width="450" height="49" rx="4.5" stroke="#DDDDDD"/>
<defs>
<clipPath id="clip0">
<rect y="162.837" width="450" height="50" rx="5" fill="white"/>
</clipPath>
<clipPath id="clip1">
<rect x="1" y="223.543" width="448" height="49.4565" rx="5" fill="white"/>
</clipPath>
</defs>
</svg>
