<svg width="336" height="360" viewBox="0 0 336 360" fill="none" xmlns="http://www.w3.org/2000/svg">
<rect width="336" height="360" fill="white"/>
<rect x="15" y="24" width="304" height="152" stroke="#D2D3D3" stroke-width="0.8" stroke-linecap="round" stroke-linejoin="round" stroke-dasharray="2 4"/>
<path d="M168 88C173.523 88 178 83.5228 178 78C178 72.4772 173.523 68 168 68C162.477 68 158 72.4772 158 78C158 83.5228 162.477 88 168 88Z" stroke="#57595A" stroke-width="2" stroke-linecap="round" stroke-linejoin="round"/>
<path d="M168 74V82" stroke="#57595A" stroke-width="2" stroke-linecap="round" stroke-linejoin="round"/>
<path d="M164 78H172" stroke="#57595A" stroke-width="2" stroke-linecap="round" stroke-linejoin="round"/>
<path d="M107.455 114H104.004V103.818H107.524C108.535 103.818 109.403 104.022 110.129 104.43C110.858 104.834 111.419 105.416 111.81 106.175C112.201 106.934 112.396 107.842 112.396 108.899C112.396 109.96 112.199 110.871 111.805 111.634C111.414 112.396 110.848 112.981 110.109 113.388C109.374 113.796 108.489 114 107.455 114ZM105.849 112.404H107.365C108.074 112.404 108.666 112.275 109.14 112.016C109.614 111.754 109.97 111.365 110.209 110.848C110.447 110.328 110.567 109.678 110.567 108.899C110.567 108.12 110.447 107.474 110.209 106.96C109.97 106.443 109.617 106.057 109.15 105.802C108.686 105.543 108.109 105.414 107.42 105.414H105.849V112.404ZM113.929 114V106.364H115.674V107.636H115.754C115.893 107.196 116.132 106.856 116.47 106.617C116.811 106.375 117.201 106.254 117.638 106.254C117.737 106.254 117.849 106.259 117.971 106.269C118.097 106.276 118.202 106.287 118.284 106.304V107.96C118.208 107.933 118.087 107.91 117.921 107.89C117.759 107.867 117.602 107.855 117.449 107.855C117.121 107.855 116.826 107.926 116.564 108.069C116.306 108.208 116.102 108.402 115.953 108.651C115.804 108.899 115.729 109.186 115.729 109.511V114H113.929ZM122.357 114.149C121.611 114.149 120.964 113.985 120.418 113.657C119.871 113.329 119.447 112.87 119.145 112.28C118.847 111.69 118.697 111 118.697 110.212C118.697 109.423 118.847 108.732 119.145 108.138C119.447 107.545 119.871 107.085 120.418 106.756C120.964 106.428 121.611 106.264 122.357 106.264C123.102 106.264 123.749 106.428 124.295 106.756C124.842 107.085 125.265 107.545 125.563 108.138C125.865 108.732 126.016 109.423 126.016 110.212C126.016 111 125.865 111.69 125.563 112.28C125.265 112.87 124.842 113.329 124.295 113.657C123.749 113.985 123.102 114.149 122.357 114.149ZM122.366 112.707C122.771 112.707 123.109 112.596 123.381 112.374C123.652 112.149 123.855 111.847 123.987 111.469C124.123 111.092 124.191 110.671 124.191 110.207C124.191 109.739 124.123 109.317 123.987 108.939C123.855 108.558 123.652 108.254 123.381 108.029C123.109 107.804 122.771 107.691 122.366 107.691C121.952 107.691 121.607 107.804 121.332 108.029C121.061 108.254 120.857 108.558 120.721 108.939C120.588 109.317 120.522 109.739 120.522 110.207C120.522 110.671 120.588 111.092 120.721 111.469C120.857 111.847 121.061 112.149 121.332 112.374C121.607 112.596 121.952 112.707 122.366 112.707ZM127.403 116.864V106.364H129.173V107.626H129.277C129.37 107.441 129.501 107.244 129.67 107.035C129.839 106.823 130.068 106.642 130.356 106.493C130.645 106.34 131.013 106.264 131.46 106.264C132.05 106.264 132.582 106.415 133.056 106.717C133.533 107.015 133.911 107.457 134.189 108.044C134.471 108.627 134.612 109.343 134.612 110.192C134.612 111.03 134.474 111.743 134.199 112.33C133.924 112.916 133.55 113.364 133.076 113.672C132.602 113.98 132.065 114.134 131.465 114.134C131.027 114.134 130.665 114.061 130.376 113.915C130.088 113.77 129.856 113.594 129.68 113.388C129.508 113.18 129.374 112.982 129.277 112.797H129.203V116.864H127.403ZM129.168 110.182C129.168 110.676 129.238 111.108 129.377 111.479C129.519 111.851 129.723 112.141 129.988 112.349C130.257 112.555 130.582 112.658 130.963 112.658C131.361 112.658 131.694 112.552 131.962 112.339C132.231 112.124 132.433 111.831 132.569 111.46C132.708 111.085 132.777 110.659 132.777 110.182C132.777 109.708 132.709 109.287 132.574 108.919C132.438 108.551 132.236 108.263 131.967 108.054C131.699 107.845 131.364 107.741 130.963 107.741C130.578 107.741 130.252 107.842 129.983 108.044C129.715 108.246 129.511 108.53 129.372 108.894C129.236 109.259 129.168 109.688 129.168 110.182ZM140.464 116.864C140.219 116.864 139.992 116.844 139.783 116.804C139.578 116.768 139.414 116.724 139.291 116.675L139.709 115.273C139.971 115.349 140.204 115.385 140.41 115.382C140.615 115.379 140.796 115.314 140.952 115.188C141.111 115.066 141.245 114.86 141.354 114.572L141.508 114.159L138.739 106.364H140.648L142.408 112.131H142.488L144.253 106.364H146.167L143.109 114.925C142.967 115.329 142.778 115.675 142.543 115.964C142.307 116.255 142.019 116.478 141.677 116.63C141.339 116.786 140.935 116.864 140.464 116.864ZM150.343 114.149C149.598 114.149 148.951 113.985 148.404 113.657C147.858 113.329 147.433 112.87 147.132 112.28C146.833 111.69 146.684 111 146.684 110.212C146.684 109.423 146.833 108.732 147.132 108.138C147.433 107.545 147.858 107.085 148.404 106.756C148.951 106.428 149.598 106.264 150.343 106.264C151.089 106.264 151.735 106.428 152.282 106.756C152.829 107.085 153.252 107.545 153.55 108.138C153.852 108.732 154.003 109.423 154.003 110.212C154.003 111 153.852 111.69 153.55 112.28C153.252 112.87 152.829 113.329 152.282 113.657C151.735 113.985 151.089 114.149 150.343 114.149ZM150.353 112.707C150.758 112.707 151.096 112.596 151.368 112.374C151.639 112.149 151.842 111.847 151.974 111.469C152.11 111.092 152.178 110.671 152.178 110.207C152.178 109.739 152.11 109.317 151.974 108.939C151.842 108.558 151.639 108.254 151.368 108.029C151.096 107.804 150.758 107.691 150.353 107.691C149.939 107.691 149.594 107.804 149.319 108.029C149.047 108.254 148.844 108.558 148.708 108.939C148.575 109.317 148.509 109.739 148.509 110.207C148.509 110.671 148.575 111.092 148.708 111.469C148.844 111.847 149.047 112.149 149.319 112.374C149.594 112.596 149.939 112.707 150.353 112.707ZM160.257 110.788V106.364H162.057V114H160.312V112.643H160.232C160.06 113.07 159.777 113.42 159.382 113.692C158.991 113.964 158.509 114.099 157.935 114.099C157.435 114.099 156.993 113.988 156.608 113.766C156.227 113.541 155.929 113.214 155.713 112.787C155.498 112.356 155.39 111.836 155.39 111.226V106.364H157.19V110.947C157.19 111.431 157.322 111.816 157.587 112.101C157.853 112.386 158.201 112.528 158.632 112.528C158.897 112.528 159.154 112.464 159.402 112.335C159.651 112.205 159.855 112.013 160.014 111.758C160.176 111.499 160.257 111.176 160.257 110.788ZM163.768 114V106.364H165.513V107.636H165.592C165.731 107.196 165.97 106.856 166.308 106.617C166.649 106.375 167.039 106.254 167.476 106.254C167.576 106.254 167.687 106.259 167.81 106.269C167.935 106.276 168.04 106.287 168.123 106.304V107.96C168.046 107.933 167.926 107.91 167.76 107.89C167.597 107.867 167.44 107.855 167.287 107.855C166.959 107.855 166.664 107.926 166.403 108.069C166.144 108.208 165.94 108.402 165.791 108.651C165.642 108.899 165.567 109.186 165.567 109.511V114H163.768ZM176.379 106.364V107.756H171.865V106.364H176.379ZM172.993 114V105.643C172.993 105.129 173.099 104.701 173.311 104.36C173.527 104.019 173.815 103.763 174.177 103.594C174.538 103.425 174.939 103.341 175.38 103.341C175.691 103.341 175.968 103.366 176.21 103.415C176.452 103.465 176.631 103.51 176.747 103.55L176.389 104.942C176.313 104.919 176.217 104.895 176.101 104.872C175.985 104.846 175.855 104.832 175.713 104.832C175.378 104.832 175.141 104.914 175.002 105.076C174.866 105.235 174.798 105.464 174.798 105.762V114H172.993ZM177.648 114V106.364H179.448V114H177.648ZM178.553 105.28C178.268 105.28 178.023 105.185 177.817 104.996C177.612 104.804 177.509 104.574 177.509 104.305C177.509 104.034 177.612 103.803 177.817 103.614C178.023 103.422 178.268 103.326 178.553 103.326C178.842 103.326 179.087 103.422 179.289 103.614C179.495 103.803 179.597 104.034 179.597 104.305C179.597 104.574 179.495 104.804 179.289 104.996C179.087 105.185 178.842 105.28 178.553 105.28ZM182.958 103.818V114H181.159V103.818H182.958ZM188.05 114.149C187.284 114.149 186.623 113.99 186.066 113.672C185.513 113.35 185.087 112.896 184.788 112.31C184.49 111.72 184.341 111.025 184.341 110.227C184.341 109.441 184.49 108.752 184.788 108.158C185.09 107.562 185.511 107.098 186.051 106.766C186.592 106.432 187.226 106.264 187.955 106.264C188.426 106.264 188.87 106.34 189.288 106.493C189.709 106.642 190.08 106.874 190.401 107.189C190.726 107.504 190.981 107.905 191.167 108.392C191.353 108.876 191.445 109.453 191.445 110.122V110.674H185.186V109.461H189.72C189.717 109.116 189.642 108.81 189.497 108.541C189.351 108.269 189.147 108.056 188.885 107.9C188.627 107.744 188.325 107.666 187.98 107.666C187.612 107.666 187.289 107.756 187.011 107.935C186.732 108.11 186.515 108.342 186.36 108.631C186.207 108.916 186.129 109.229 186.126 109.57V110.629C186.126 111.073 186.207 111.455 186.369 111.773C186.532 112.088 186.759 112.33 187.051 112.499C187.342 112.664 187.684 112.747 188.075 112.747C188.337 112.747 188.574 112.711 188.786 112.638C188.998 112.562 189.182 112.451 189.337 112.305C189.493 112.159 189.611 111.978 189.69 111.763L191.371 111.952C191.265 112.396 191.063 112.784 190.764 113.115C190.469 113.443 190.092 113.698 189.631 113.881C189.17 114.06 188.643 114.149 188.05 114.149ZM198.864 108.382L197.223 108.561C197.176 108.395 197.095 108.24 196.979 108.094C196.867 107.948 196.714 107.83 196.522 107.741C196.33 107.651 196.094 107.607 195.816 107.607C195.441 107.607 195.127 107.688 194.871 107.85C194.619 108.013 194.495 108.223 194.498 108.482C194.495 108.704 194.576 108.884 194.742 109.023C194.911 109.163 195.19 109.277 195.577 109.366L196.88 109.645C197.602 109.801 198.139 110.048 198.491 110.386C198.845 110.724 199.024 111.166 199.028 111.713C199.024 112.194 198.883 112.618 198.605 112.986C198.33 113.35 197.947 113.635 197.457 113.841C196.966 114.046 196.403 114.149 195.766 114.149C194.832 114.149 194.079 113.954 193.509 113.562C192.939 113.168 192.599 112.62 192.49 111.917L194.245 111.748C194.324 112.093 194.493 112.353 194.752 112.528C195.011 112.704 195.347 112.792 195.761 112.792C196.189 112.792 196.532 112.704 196.79 112.528C197.052 112.353 197.183 112.136 197.183 111.877C197.183 111.658 197.099 111.478 196.93 111.335C196.764 111.193 196.505 111.083 196.154 111.007L194.851 110.734C194.119 110.581 193.577 110.324 193.226 109.963C192.874 109.598 192.7 109.138 192.704 108.581C192.7 108.11 192.828 107.703 193.087 107.358C193.348 107.01 193.711 106.741 194.175 106.553C194.643 106.36 195.181 106.264 195.791 106.264C196.686 106.264 197.39 106.455 197.904 106.836C198.421 107.217 198.741 107.732 198.864 108.382ZM205.504 109.526V114H203.704V103.818H205.464V107.661H205.554C205.733 107.23 206.009 106.891 206.384 106.642C206.762 106.39 207.242 106.264 207.826 106.264C208.356 106.264 208.818 106.375 209.213 106.597C209.607 106.819 209.912 107.144 210.128 107.572C210.346 107.999 210.456 108.521 210.456 109.138V114H208.656V109.416C208.656 108.902 208.523 108.503 208.258 108.218C207.996 107.93 207.628 107.786 207.155 107.786C206.836 107.786 206.551 107.855 206.299 107.994C206.051 108.13 205.855 108.327 205.713 108.586C205.574 108.844 205.504 109.158 205.504 109.526ZM215.531 114.149C214.765 114.149 214.104 113.99 213.547 113.672C212.994 113.35 212.568 112.896 212.27 112.31C211.971 111.72 211.822 111.025 211.822 110.227C211.822 109.441 211.971 108.752 212.27 108.158C212.571 107.562 212.992 107.098 213.532 106.766C214.073 106.432 214.707 106.264 215.436 106.264C215.907 106.264 216.351 106.34 216.769 106.493C217.19 106.642 217.561 106.874 217.882 107.189C218.207 107.504 218.462 107.905 218.648 108.392C218.834 108.876 218.926 109.453 218.926 110.122V110.674H212.667V109.461H217.201C217.198 109.116 217.123 108.81 216.978 108.541C216.832 108.269 216.628 108.056 216.366 107.9C216.108 107.744 215.806 107.666 215.461 107.666C215.093 107.666 214.77 107.756 214.492 107.935C214.213 108.11 213.996 108.342 213.841 108.631C213.688 108.916 213.61 109.229 213.607 109.57V110.629C213.607 111.073 213.688 111.455 213.85 111.773C214.013 112.088 214.24 112.33 214.532 112.499C214.823 112.664 215.165 112.747 215.556 112.747C215.818 112.747 216.055 112.711 216.267 112.638C216.479 112.562 216.663 112.451 216.819 112.305C216.974 112.159 217.092 111.978 217.171 111.763L218.852 111.952C218.746 112.396 218.544 112.784 218.245 113.115C217.95 113.443 217.573 113.698 217.112 113.881C216.651 114.06 216.124 114.149 215.531 114.149ZM220.309 114V106.364H222.054V107.636H222.134C222.273 107.196 222.511 106.856 222.849 106.617C223.191 106.375 223.58 106.254 224.018 106.254C224.117 106.254 224.228 106.259 224.351 106.269C224.477 106.276 224.581 106.287 224.664 106.304V107.96C224.588 107.933 224.467 107.91 224.301 107.89C224.139 107.867 223.981 107.855 223.829 107.855C223.501 107.855 223.206 107.926 222.944 108.069C222.685 108.208 222.482 108.402 222.332 108.651C222.183 108.899 222.109 109.186 222.109 109.511V114H220.309ZM228.786 114.149C228.02 114.149 227.359 113.99 226.802 113.672C226.249 113.35 225.823 112.896 225.525 112.31C225.226 111.72 225.077 111.025 225.077 110.227C225.077 109.441 225.226 108.752 225.525 108.158C225.826 107.562 226.247 107.098 226.787 106.766C227.328 106.432 227.962 106.264 228.692 106.264C229.162 106.264 229.606 106.34 230.024 106.493C230.445 106.642 230.816 106.874 231.138 107.189C231.462 107.504 231.718 107.905 231.903 108.392C232.089 108.876 232.182 109.453 232.182 110.122V110.674H225.922V109.461H230.456C230.453 109.116 230.379 108.81 230.233 108.541C230.087 108.269 229.883 108.056 229.621 107.9C229.363 107.744 229.061 107.666 228.716 107.666C228.349 107.666 228.025 107.756 227.747 107.935C227.469 108.11 227.251 108.342 227.096 108.631C226.943 108.916 226.865 109.229 226.862 109.57V110.629C226.862 111.073 226.943 111.455 227.106 111.773C227.268 112.088 227.495 112.33 227.787 112.499C228.078 112.664 228.42 112.747 228.811 112.747C229.073 112.747 229.31 112.711 229.522 112.638C229.734 112.562 229.918 112.451 230.074 112.305C230.229 112.159 230.347 111.978 230.427 111.763L232.107 111.952C232.001 112.396 231.799 112.784 231.501 113.115C231.206 113.443 230.828 113.698 230.367 113.881C229.906 114.06 229.379 114.149 228.786 114.149Z" fill="#363939"/>
<path d="M109.205 132V126.182H111.239C111.644 126.182 111.978 126.252 112.241 126.392C112.505 126.53 112.701 126.717 112.83 126.952C112.958 127.185 113.023 127.443 113.023 127.727C113.023 127.977 112.978 128.184 112.889 128.347C112.802 128.509 112.687 128.638 112.543 128.733C112.401 128.828 112.246 128.898 112.08 128.943V129C112.258 129.011 112.437 129.074 112.616 129.188C112.796 129.301 112.947 129.464 113.068 129.676C113.189 129.888 113.25 130.148 113.25 130.455C113.25 130.746 113.184 131.009 113.051 131.241C112.919 131.474 112.709 131.659 112.423 131.795C112.137 131.932 111.765 132 111.307 132H109.205ZM109.909 131.375H111.307C111.767 131.375 112.094 131.286 112.287 131.108C112.482 130.928 112.58 130.71 112.58 130.455C112.58 130.258 112.529 130.076 112.429 129.909C112.329 129.741 112.186 129.606 112 129.506C111.814 129.403 111.595 129.352 111.341 129.352H109.909V131.375ZM109.909 128.739H111.216C111.428 128.739 111.619 128.697 111.79 128.614C111.962 128.53 112.098 128.413 112.199 128.261C112.301 128.11 112.352 127.932 112.352 127.727C112.352 127.472 112.263 127.255 112.085 127.077C111.907 126.897 111.625 126.807 111.239 126.807H109.909V128.739ZM114.317 132V127.636H114.964V128.295H115.01C115.089 128.08 115.233 127.904 115.442 127.77C115.65 127.635 115.885 127.568 116.146 127.568C116.196 127.568 116.257 127.569 116.331 127.571C116.405 127.573 116.461 127.576 116.499 127.58V128.261C116.476 128.256 116.424 128.247 116.342 128.236C116.263 128.223 116.179 128.216 116.089 128.216C115.877 128.216 115.688 128.26 115.521 128.349C115.357 128.437 115.226 128.558 115.129 128.713C115.035 128.866 114.987 129.042 114.987 129.239V132H114.317ZM118.933 132.091C118.539 132.091 118.194 131.997 117.896 131.81C117.601 131.622 117.37 131.36 117.203 131.023C117.038 130.686 116.956 130.292 116.956 129.841C116.956 129.386 117.038 128.99 117.203 128.651C117.37 128.312 117.601 128.048 117.896 127.861C118.194 127.673 118.539 127.58 118.933 127.58C119.327 127.58 119.672 127.673 119.967 127.861C120.265 128.048 120.496 128.312 120.661 128.651C120.827 128.99 120.911 129.386 120.911 129.841C120.911 130.292 120.827 130.686 120.661 131.023C120.496 131.36 120.265 131.622 119.967 131.81C119.672 131.997 119.327 132.091 118.933 132.091ZM118.933 131.489C119.232 131.489 119.479 131.412 119.672 131.259C119.865 131.105 120.008 130.903 120.101 130.653C120.194 130.403 120.24 130.133 120.24 129.841C120.24 129.549 120.194 129.277 120.101 129.026C120.008 128.774 119.865 128.57 119.672 128.415C119.479 128.259 119.232 128.182 118.933 128.182C118.634 128.182 118.388 128.259 118.195 128.415C118.001 128.57 117.858 128.774 117.766 129.026C117.673 129.277 117.626 129.549 117.626 129.841C117.626 130.133 117.673 130.403 117.766 130.653C117.858 130.903 118.001 131.105 118.195 131.259C118.388 131.412 118.634 131.489 118.933 131.489ZM122.774 132L121.445 127.636H122.149L123.092 130.977H123.138L124.07 127.636H124.786L125.706 130.966H125.751L126.695 127.636H127.399L126.07 132H125.411L124.456 128.648H124.388L123.433 132H122.774ZM131.376 128.614L130.774 128.784C130.736 128.684 130.68 128.586 130.607 128.491C130.535 128.395 130.436 128.315 130.311 128.253C130.186 128.19 130.026 128.159 129.831 128.159C129.564 128.159 129.341 128.221 129.163 128.344C128.987 128.465 128.899 128.619 128.899 128.807C128.899 128.973 128.96 129.105 129.081 129.202C129.202 129.298 129.392 129.379 129.649 129.443L130.297 129.602C130.687 129.697 130.978 129.842 131.169 130.037C131.36 130.23 131.456 130.479 131.456 130.784C131.456 131.034 131.384 131.258 131.24 131.455C131.098 131.652 130.899 131.807 130.643 131.92C130.388 132.034 130.09 132.091 129.751 132.091C129.306 132.091 128.938 131.994 128.646 131.801C128.355 131.608 128.17 131.326 128.092 130.955L128.729 130.795C128.789 131.03 128.904 131.206 129.072 131.324C129.243 131.441 129.465 131.5 129.74 131.5C130.053 131.5 130.301 131.434 130.484 131.301C130.67 131.167 130.763 131.006 130.763 130.818C130.763 130.667 130.71 130.54 130.604 130.438C130.498 130.333 130.335 130.256 130.115 130.205L129.388 130.034C128.988 129.939 128.695 129.793 128.507 129.594C128.321 129.393 128.229 129.142 128.229 128.841C128.229 128.595 128.298 128.377 128.436 128.188C128.576 127.998 128.767 127.849 129.007 127.741C129.25 127.634 129.524 127.58 129.831 127.58C130.263 127.58 130.602 127.674 130.848 127.864C131.096 128.053 131.272 128.303 131.376 128.614ZM134.295 132.091C133.874 132.091 133.512 131.998 133.207 131.812C132.904 131.625 132.67 131.364 132.505 131.028C132.342 130.691 132.261 130.299 132.261 129.852C132.261 129.405 132.342 129.011 132.505 128.67C132.67 128.328 132.899 128.061 133.192 127.869C133.488 127.676 133.833 127.58 134.227 127.58C134.454 127.58 134.678 127.617 134.9 127.693C135.121 127.769 135.323 127.892 135.505 128.062C135.687 128.231 135.832 128.455 135.94 128.733C136.048 129.011 136.102 129.354 136.102 129.761V130.045H132.738V129.466H135.42C135.42 129.22 135.371 129 135.272 128.807C135.175 128.614 135.037 128.461 134.857 128.349C134.679 128.238 134.469 128.182 134.227 128.182C133.96 128.182 133.728 128.248 133.533 128.381C133.34 128.511 133.192 128.682 133.087 128.892C132.983 129.102 132.931 129.328 132.931 129.568V129.955C132.931 130.284 132.988 130.563 133.102 130.793C133.217 131.02 133.377 131.193 133.582 131.312C133.786 131.43 134.024 131.489 134.295 131.489C134.471 131.489 134.63 131.464 134.772 131.415C134.916 131.364 135.04 131.288 135.144 131.188C135.248 131.085 135.329 130.958 135.386 130.807L136.033 130.989C135.965 131.208 135.851 131.402 135.69 131.568C135.529 131.733 135.33 131.862 135.093 131.955C134.856 132.045 134.59 132.091 134.295 132.091ZM141.315 127.636V128.205H138.962V127.636H141.315ZM139.667 132V127.034C139.667 126.784 139.726 126.576 139.843 126.409C139.96 126.242 140.113 126.117 140.3 126.034C140.488 125.951 140.686 125.909 140.894 125.909C141.059 125.909 141.193 125.922 141.298 125.949C141.402 125.975 141.479 126 141.531 126.023L141.337 126.602C141.303 126.591 141.256 126.577 141.195 126.56C141.137 126.543 141.059 126.534 140.962 126.534C140.741 126.534 140.581 126.59 140.482 126.702C140.386 126.813 140.337 126.977 140.337 127.193V132H139.667ZM142.254 132V127.636H142.925V132H142.254ZM142.595 126.909C142.464 126.909 142.352 126.865 142.257 126.776C142.164 126.687 142.118 126.58 142.118 126.455C142.118 126.33 142.164 126.223 142.257 126.134C142.352 126.045 142.464 126 142.595 126C142.726 126 142.838 126.045 142.93 126.134C143.025 126.223 143.072 126.33 143.072 126.455C143.072 126.58 143.025 126.687 142.93 126.776C142.838 126.865 142.726 126.909 142.595 126.909ZM144.823 126.182V132H144.153V126.182H144.823ZM147.881 132.091C147.46 132.091 147.098 131.998 146.793 131.812C146.49 131.625 146.256 131.364 146.091 131.028C145.928 130.691 145.847 130.299 145.847 129.852C145.847 129.405 145.928 129.011 146.091 128.67C146.256 128.328 146.485 128.061 146.778 127.869C147.074 127.676 147.419 127.58 147.812 127.58C148.04 127.58 148.264 127.617 148.486 127.693C148.707 127.769 148.909 127.892 149.091 128.062C149.273 128.231 149.418 128.455 149.526 128.733C149.634 129.011 149.688 129.354 149.688 129.761V130.045H146.324V129.466H149.006C149.006 129.22 148.956 129 148.858 128.807C148.761 128.614 148.623 128.461 148.443 128.349C148.265 128.238 148.055 128.182 147.812 128.182C147.545 128.182 147.314 128.248 147.119 128.381C146.926 128.511 146.777 128.682 146.673 128.892C146.569 129.102 146.517 129.328 146.517 129.568V129.955C146.517 130.284 146.574 130.563 146.688 130.793C146.803 131.02 146.963 131.193 147.168 131.312C147.372 131.43 147.61 131.489 147.881 131.489C148.057 131.489 148.216 131.464 148.358 131.415C148.502 131.364 148.626 131.288 148.73 131.188C148.834 131.085 148.915 130.958 148.972 130.807L149.619 130.989C149.551 131.208 149.437 131.402 149.276 131.568C149.115 131.733 148.916 131.862 148.679 131.955C148.442 132.045 148.176 132.091 147.881 132.091Z" fill="#1681EC"/>
<path d="M154.901 127.636V128.205H152.548V127.636H154.901ZM153.253 132V127.034C153.253 126.784 153.312 126.576 153.429 126.409C153.546 126.242 153.699 126.117 153.886 126.034C154.074 125.951 154.272 125.909 154.48 125.909C154.645 125.909 154.779 125.922 154.884 125.949C154.988 125.975 155.065 126 155.116 126.023L154.923 126.602C154.889 126.591 154.842 126.577 154.781 126.56C154.723 126.543 154.645 126.534 154.548 126.534C154.327 126.534 154.167 126.59 154.068 126.702C153.972 126.813 153.923 126.977 153.923 127.193V132H153.253ZM155.84 132V127.636H156.488V128.295H156.533C156.613 128.08 156.757 127.904 156.965 127.77C157.174 127.635 157.408 127.568 157.67 127.568C157.719 127.568 157.781 127.569 157.854 127.571C157.928 127.573 157.984 127.576 158.022 127.58V128.261C157.999 128.256 157.947 128.247 157.866 128.236C157.786 128.223 157.702 128.216 157.613 128.216C157.401 128.216 157.211 128.26 157.045 128.349C156.88 128.437 156.749 128.558 156.653 128.713C156.558 128.866 156.511 129.042 156.511 129.239V132H155.84ZM160.457 132.091C160.063 132.091 159.717 131.997 159.42 131.81C159.124 131.622 158.893 131.36 158.727 131.023C158.562 130.686 158.479 130.292 158.479 129.841C158.479 129.386 158.562 128.99 158.727 128.651C158.893 128.312 159.124 128.048 159.42 127.861C159.717 127.673 160.063 127.58 160.457 127.58C160.851 127.58 161.195 127.673 161.491 127.861C161.788 128.048 162.019 128.312 162.184 128.651C162.351 128.99 162.434 129.386 162.434 129.841C162.434 130.292 162.351 130.686 162.184 131.023C162.019 131.36 161.788 131.622 161.491 131.81C161.195 131.997 160.851 132.091 160.457 132.091ZM160.457 131.489C160.756 131.489 161.002 131.412 161.195 131.259C161.388 131.105 161.531 130.903 161.624 130.653C161.717 130.403 161.763 130.133 161.763 129.841C161.763 129.549 161.717 129.277 161.624 129.026C161.531 128.774 161.388 128.57 161.195 128.415C161.002 128.259 160.756 128.182 160.457 128.182C160.157 128.182 159.911 128.259 159.718 128.415C159.525 128.57 159.382 128.774 159.289 129.026C159.196 129.277 159.15 129.549 159.15 129.841C159.15 130.133 159.196 130.403 159.289 130.653C159.382 130.903 159.525 131.105 159.718 131.259C159.911 131.412 160.157 131.489 160.457 131.489ZM163.457 132V127.636H164.105V128.318H164.162C164.253 128.085 164.4 127.904 164.602 127.776C164.805 127.645 165.048 127.58 165.332 127.58C165.62 127.58 165.86 127.645 166.051 127.776C166.244 127.904 166.395 128.085 166.503 128.318H166.548C166.66 128.093 166.828 127.914 167.051 127.781C167.275 127.647 167.543 127.58 167.855 127.58C168.245 127.58 168.564 127.702 168.812 127.946C169.061 128.188 169.185 128.566 169.185 129.08V132H168.514V129.08C168.514 128.758 168.426 128.527 168.25 128.389C168.074 128.251 167.866 128.182 167.628 128.182C167.321 128.182 167.083 128.275 166.915 128.46C166.746 128.644 166.662 128.877 166.662 129.159V132H165.98V129.011C165.98 128.763 165.9 128.563 165.739 128.412C165.578 128.259 165.37 128.182 165.116 128.182C164.942 128.182 164.779 128.228 164.628 128.321C164.478 128.414 164.357 128.543 164.264 128.707C164.173 128.87 164.128 129.059 164.128 129.273V132H163.457ZM173.092 133.636C172.979 133.636 172.877 133.627 172.788 133.608C172.699 133.591 172.638 133.574 172.604 133.557L172.774 132.966C172.937 133.008 173.081 133.023 173.206 133.011C173.331 133 173.442 132.944 173.538 132.844C173.637 132.745 173.727 132.585 173.808 132.364L173.933 132.023L172.32 127.636H173.047L174.251 131.114H174.297L175.501 127.636H176.229L174.376 132.636C174.293 132.862 174.19 133.048 174.067 133.196C173.944 133.346 173.801 133.456 173.638 133.528C173.477 133.6 173.295 133.636 173.092 133.636ZM178.73 132.091C178.336 132.091 177.991 131.997 177.693 131.81C177.398 131.622 177.167 131.36 177 131.023C176.835 130.686 176.753 130.292 176.753 129.841C176.753 129.386 176.835 128.99 177 128.651C177.167 128.312 177.398 128.048 177.693 127.861C177.991 127.673 178.336 127.58 178.73 127.58C179.124 127.58 179.469 127.673 179.764 127.861C180.062 128.048 180.293 128.312 180.457 128.651C180.624 128.99 180.707 129.386 180.707 129.841C180.707 130.292 180.624 130.686 180.457 131.023C180.293 131.36 180.062 131.622 179.764 131.81C179.469 131.997 179.124 132.091 178.73 132.091ZM178.73 131.489C179.029 131.489 179.276 131.412 179.469 131.259C179.662 131.105 179.805 130.903 179.898 130.653C179.991 130.403 180.037 130.133 180.037 129.841C180.037 129.549 179.991 129.277 179.898 129.026C179.805 128.774 179.662 128.57 179.469 128.415C179.276 128.259 179.029 128.182 178.73 128.182C178.431 128.182 178.185 128.259 177.991 128.415C177.798 128.57 177.655 128.774 177.562 129.026C177.47 129.277 177.423 129.549 177.423 129.841C177.423 130.133 177.47 130.403 177.562 130.653C177.655 130.903 177.798 131.105 177.991 131.259C178.185 131.412 178.431 131.489 178.73 131.489ZM184.481 130.216V127.636H185.151V132H184.481V131.261H184.435C184.333 131.483 184.174 131.671 183.958 131.827C183.742 131.98 183.469 132.057 183.14 132.057C182.867 132.057 182.625 131.997 182.413 131.878C182.201 131.757 182.034 131.575 181.913 131.332C181.791 131.088 181.731 130.78 181.731 130.409V127.636H182.401V130.364C182.401 130.682 182.49 130.936 182.668 131.125C182.848 131.314 183.077 131.409 183.356 131.409C183.522 131.409 183.692 131.366 183.864 131.281C184.039 131.196 184.184 131.065 184.302 130.889C184.421 130.713 184.481 130.489 184.481 130.216ZM186.379 132V127.636H187.027V128.295H187.072C187.152 128.08 187.296 127.904 187.504 127.77C187.713 127.635 187.947 127.568 188.209 127.568C188.258 127.568 188.32 127.569 188.393 127.571C188.467 127.573 188.523 127.576 188.561 127.58V128.261C188.538 128.256 188.486 128.247 188.405 128.236C188.325 128.223 188.241 128.216 188.152 128.216C187.94 128.216 187.75 128.26 187.584 128.349C187.419 128.437 187.288 128.558 187.192 128.713C187.097 128.866 187.05 129.042 187.05 129.239V132H186.379ZM193.379 132.091C192.969 132.091 192.617 131.994 192.322 131.801C192.026 131.608 191.799 131.342 191.64 131.003C191.481 130.664 191.401 130.277 191.401 129.841C191.401 129.398 191.483 129.007 191.646 128.668C191.81 128.327 192.04 128.061 192.333 127.869C192.629 127.676 192.973 127.58 193.367 127.58C193.674 127.58 193.951 127.636 194.197 127.75C194.443 127.864 194.645 128.023 194.802 128.227C194.959 128.432 195.057 128.67 195.094 128.943H194.424C194.373 128.744 194.259 128.568 194.083 128.415C193.909 128.259 193.674 128.182 193.379 128.182C193.117 128.182 192.888 128.25 192.691 128.386C192.496 128.521 192.344 128.711 192.234 128.957C192.126 129.202 192.072 129.489 192.072 129.818C192.072 130.155 192.125 130.449 192.231 130.699C192.339 130.949 192.49 131.143 192.685 131.281C192.882 131.42 193.113 131.489 193.379 131.489C193.553 131.489 193.711 131.458 193.853 131.398C193.995 131.337 194.115 131.25 194.214 131.136C194.312 131.023 194.382 130.886 194.424 130.727H195.094C195.057 130.985 194.963 131.217 194.813 131.423C194.665 131.628 194.469 131.791 194.225 131.912C193.983 132.031 193.701 132.091 193.379 132.091ZM197.847 132.091C197.453 132.091 197.108 131.997 196.81 131.81C196.515 131.622 196.284 131.36 196.117 131.023C195.952 130.686 195.87 130.292 195.87 129.841C195.87 129.386 195.952 128.99 196.117 128.651C196.284 128.312 196.515 128.048 196.81 127.861C197.108 127.673 197.453 127.58 197.847 127.58C198.241 127.58 198.586 127.673 198.881 127.861C199.179 128.048 199.41 128.312 199.575 128.651C199.741 128.99 199.825 129.386 199.825 129.841C199.825 130.292 199.741 130.686 199.575 131.023C199.41 131.36 199.179 131.622 198.881 131.81C198.586 131.997 198.241 132.091 197.847 132.091ZM197.847 131.489C198.147 131.489 198.393 131.412 198.586 131.259C198.779 131.105 198.922 130.903 199.015 130.653C199.108 130.403 199.154 130.133 199.154 129.841C199.154 129.549 199.108 129.277 199.015 129.026C198.922 128.774 198.779 128.57 198.586 128.415C198.393 128.259 198.147 128.182 197.847 128.182C197.548 128.182 197.302 128.259 197.109 128.415C196.915 128.57 196.772 128.774 196.68 129.026C196.587 129.277 196.54 129.549 196.54 129.841C196.54 130.133 196.587 130.403 196.68 130.653C196.772 130.903 196.915 131.105 197.109 131.259C197.302 131.412 197.548 131.489 197.847 131.489ZM200.848 132V127.636H201.496V128.318H201.553C201.643 128.085 201.79 127.904 201.993 127.776C202.196 127.645 202.439 127.58 202.723 127.58C203.011 127.58 203.25 127.645 203.442 127.776C203.635 127.904 203.786 128.085 203.893 128.318H203.939C204.051 128.093 204.218 127.914 204.442 127.781C204.665 127.647 204.933 127.58 205.246 127.58C205.636 127.58 205.955 127.702 206.203 127.946C206.451 128.188 206.575 128.566 206.575 129.08V132H205.905V129.08C205.905 128.758 205.817 128.527 205.641 128.389C205.464 128.251 205.257 128.182 205.018 128.182C204.712 128.182 204.474 128.275 204.305 128.46C204.137 128.644 204.053 128.877 204.053 129.159V132H203.371V129.011C203.371 128.763 203.29 128.563 203.129 128.412C202.968 128.259 202.761 128.182 202.507 128.182C202.333 128.182 202.17 128.228 202.018 128.321C201.869 128.414 201.748 128.543 201.655 128.707C201.564 128.87 201.518 129.059 201.518 129.273V132H200.848ZM207.801 133.636V127.636H208.449V128.33H208.528C208.578 128.254 208.646 128.157 208.733 128.04C208.822 127.92 208.949 127.814 209.114 127.722C209.28 127.627 209.506 127.58 209.79 127.58C210.157 127.58 210.481 127.671 210.761 127.855C211.042 128.039 211.26 128.299 211.418 128.636C211.575 128.973 211.653 129.371 211.653 129.83C211.653 130.292 211.575 130.692 211.418 131.031C211.26 131.368 211.043 131.63 210.764 131.815C210.486 131.999 210.165 132.091 209.801 132.091C209.521 132.091 209.296 132.045 209.128 131.952C208.959 131.857 208.83 131.75 208.739 131.631C208.648 131.509 208.578 131.409 208.528 131.33H208.472V133.636H207.801ZM208.46 129.818C208.46 130.148 208.509 130.438 208.605 130.69C208.702 130.94 208.843 131.136 209.028 131.278C209.214 131.419 209.441 131.489 209.71 131.489C209.991 131.489 210.224 131.415 210.412 131.267C210.601 131.117 210.743 130.917 210.838 130.665C210.935 130.411 210.983 130.129 210.983 129.818C210.983 129.511 210.936 129.235 210.841 128.989C210.748 128.741 210.607 128.545 210.418 128.401C210.23 128.255 209.994 128.182 209.71 128.182C209.438 128.182 209.208 128.251 209.023 128.389C208.837 128.526 208.697 128.717 208.602 128.963C208.508 129.207 208.46 129.492 208.46 129.818ZM215.426 130.216V127.636H216.097V132H215.426V131.261H215.381C215.278 131.483 215.119 131.671 214.903 131.827C214.688 131.98 214.415 132.057 214.085 132.057C213.812 132.057 213.57 131.997 213.358 131.878C213.146 131.757 212.979 131.575 212.858 131.332C212.737 131.088 212.676 130.78 212.676 130.409V127.636H213.347V130.364C213.347 130.682 213.436 130.936 213.614 131.125C213.794 131.314 214.023 131.409 214.301 131.409C214.468 131.409 214.637 131.366 214.81 131.281C214.984 131.196 215.13 131.065 215.247 130.889C215.366 130.713 215.426 130.489 215.426 130.216ZM219.222 127.636V128.205H216.961V127.636H219.222ZM217.62 126.591H218.29V130.75C218.29 130.939 218.318 131.081 218.373 131.176C218.43 131.269 218.502 131.331 218.589 131.364C218.678 131.394 218.772 131.409 218.87 131.409C218.944 131.409 219.004 131.405 219.052 131.398C219.099 131.388 219.137 131.381 219.165 131.375L219.302 131.977C219.256 131.994 219.193 132.011 219.112 132.028C219.03 132.047 218.927 132.057 218.802 132.057C218.612 132.057 218.427 132.016 218.245 131.935C218.065 131.853 217.915 131.729 217.796 131.562C217.679 131.396 217.62 131.186 217.62 130.932V126.591ZM222.013 132.091C221.593 132.091 221.23 131.998 220.925 131.812C220.622 131.625 220.388 131.364 220.224 131.028C220.061 130.691 219.979 130.299 219.979 129.852C219.979 129.405 220.061 129.011 220.224 128.67C220.388 128.328 220.618 128.061 220.911 127.869C221.207 127.676 221.551 127.58 221.945 127.58C222.173 127.58 222.397 127.617 222.619 127.693C222.84 127.769 223.042 127.892 223.224 128.062C223.406 128.231 223.55 128.455 223.658 128.733C223.766 129.011 223.82 129.354 223.82 129.761V130.045H220.457V129.466H223.138C223.138 129.22 223.089 129 222.991 128.807C222.894 128.614 222.756 128.461 222.576 128.349C222.398 128.238 222.188 128.182 221.945 128.182C221.678 128.182 221.447 128.248 221.252 128.381C221.059 128.511 220.91 128.682 220.806 128.892C220.702 129.102 220.65 129.328 220.65 129.568V129.955C220.65 130.284 220.707 130.563 220.82 130.793C220.936 131.02 221.096 131.193 221.3 131.312C221.505 131.43 221.743 131.489 222.013 131.489C222.19 131.489 222.349 131.464 222.491 131.415C222.635 131.364 222.759 131.288 222.863 131.188C222.967 131.085 223.048 130.958 223.104 130.807L223.752 130.989C223.684 131.208 223.569 131.402 223.408 131.568C223.247 131.733 223.049 131.862 222.812 131.955C222.575 132.045 222.309 132.091 222.013 132.091ZM224.84 132V127.636H225.488V128.295H225.533C225.613 128.08 225.757 127.904 225.965 127.77C226.174 127.635 226.408 127.568 226.67 127.568C226.719 127.568 226.781 127.569 226.854 127.571C226.928 127.573 226.984 127.576 227.022 127.58V128.261C226.999 128.256 226.947 128.247 226.866 128.236C226.786 128.223 226.702 128.216 226.613 128.216C226.401 128.216 226.211 128.26 226.045 128.349C225.88 128.437 225.749 128.558 225.653 128.713C225.558 128.866 225.511 129.042 225.511 129.239V132H224.84Z" fill="#57595A"/>
<rect x="15.25" y="192.25" width="303.5" height="71.5" rx="4.75" stroke="#D2D3D3" stroke-width="0.5"/>
<rect x="24.15" y="201.15" width="35.7" height="35.7" rx="2.85" stroke="#D2D3D3" stroke-width="0.3"/>
<path d="M34.9998 206.333H43.1665L51.3332 214.5V227.333C51.3332 227.952 51.0873 228.546 50.6498 228.983C50.2122 229.421 49.6187 229.667 48.9998 229.667H34.9998C34.381 229.667 33.7875 229.421 33.3499 228.983C32.9123 228.546 32.6665 227.952 32.6665 227.333V208.667C32.6665 208.048 32.9123 207.454 33.3499 207.017C33.7875 206.579 34.381 206.333 34.9998 206.333Z" stroke="#298BED" stroke-width="0.8" stroke-linecap="round" stroke-linejoin="round"/>
<path d="M43.1665 206.333V214.5H51.3332" stroke="#298BED" stroke-width="0.8" stroke-linecap="round" stroke-linejoin="round"/>
<path d="M70.0568 214V205.273H71.0625V208.494H71.1477C71.2216 208.381 71.3239 208.236 71.4545 208.06C71.5881 207.881 71.7784 207.722 72.0256 207.582C72.2756 207.44 72.6136 207.369 73.0398 207.369C73.5909 207.369 74.0767 207.507 74.4972 207.783C74.9176 208.058 75.2457 208.449 75.4815 208.955C75.7173 209.46 75.8352 210.057 75.8352 210.744C75.8352 211.438 75.7173 212.038 75.4815 212.547C75.2457 213.053 74.919 213.445 74.5014 213.723C74.0838 213.999 73.6023 214.136 73.0568 214.136C72.6364 214.136 72.2997 214.067 72.0469 213.928C71.794 213.786 71.5994 213.625 71.4631 213.446C71.3267 213.264 71.2216 213.114 71.1477 212.994H71.0284V214H70.0568ZM71.0455 210.727C71.0455 211.222 71.1179 211.658 71.2628 212.036C71.4077 212.411 71.6193 212.705 71.8977 212.918C72.1761 213.128 72.517 213.233 72.9205 213.233C73.3409 213.233 73.6918 213.122 73.973 212.901C74.2571 212.676 74.4702 212.375 74.6122 211.997C74.7571 211.616 74.8295 211.193 74.8295 210.727C74.8295 210.267 74.7585 209.852 74.6165 209.483C74.4773 209.111 74.2656 208.817 73.9815 208.601C73.7003 208.382 73.3466 208.273 72.9205 208.273C72.5114 208.273 72.1676 208.376 71.8892 208.584C71.6108 208.788 71.4006 209.075 71.2585 209.445C71.1165 209.811 71.0455 210.239 71.0455 210.727ZM79.2997 214.153C78.8849 214.153 78.5085 214.075 78.1705 213.919C77.8324 213.76 77.5639 213.531 77.3651 213.233C77.1662 212.932 77.0668 212.568 77.0668 212.142C77.0668 211.767 77.1406 211.463 77.2884 211.23C77.4361 210.994 77.6335 210.81 77.8807 210.676C78.1278 210.543 78.4006 210.443 78.6989 210.378C79 210.31 79.3026 210.256 79.6065 210.216C80.0043 210.165 80.3267 210.126 80.5739 210.101C80.8239 210.072 81.0057 210.026 81.1193 209.96C81.2358 209.895 81.294 209.781 81.294 209.619V209.585C81.294 209.165 81.179 208.838 80.9489 208.605C80.7216 208.372 80.3764 208.256 79.9134 208.256C79.4332 208.256 79.0568 208.361 78.7841 208.571C78.5114 208.781 78.3196 209.006 78.2088 209.244L77.2543 208.903C77.4247 208.506 77.652 208.196 77.9361 207.974C78.223 207.75 78.5355 207.594 78.8736 207.506C79.2145 207.415 79.5497 207.369 79.8793 207.369C80.0895 207.369 80.331 207.395 80.6037 207.446C80.8793 207.494 81.1449 207.595 81.4006 207.749C81.6591 207.902 81.8736 208.134 82.044 208.443C82.2145 208.753 82.2997 209.168 82.2997 209.688V214H81.294V213.114H81.2429C81.1747 213.256 81.0611 213.408 80.902 213.57C80.7429 213.732 80.5313 213.869 80.267 213.983C80.0028 214.097 79.6804 214.153 79.2997 214.153ZM79.4531 213.25C79.8509 213.25 80.1861 213.172 80.4588 213.016C80.7344 212.859 80.9418 212.658 81.081 212.411C81.223 212.163 81.294 211.903 81.294 211.631V210.71C81.2514 210.761 81.1577 210.808 81.0128 210.851C80.8707 210.891 80.706 210.926 80.5185 210.957C80.3338 210.986 80.1534 211.011 79.9773 211.034C79.804 211.054 79.6634 211.071 79.5554 211.085C79.294 211.119 79.0497 211.175 78.8224 211.251C78.598 211.325 78.4162 211.437 78.277 211.588C78.1406 211.736 78.0724 211.937 78.0724 212.193C78.0724 212.543 78.2017 212.807 78.4602 212.986C78.7216 213.162 79.0526 213.25 79.4531 213.25ZM86.7944 214.136C86.1808 214.136 85.6523 213.991 85.2092 213.702C84.766 213.412 84.4251 213.013 84.1864 212.504C83.9478 211.996 83.8285 211.415 83.8285 210.761C83.8285 210.097 83.9506 209.51 84.195 209.001C84.4421 208.49 84.7859 208.091 85.2262 207.804C85.6694 207.514 86.1864 207.369 86.7773 207.369C87.2376 207.369 87.6523 207.455 88.0217 207.625C88.391 207.795 88.6935 208.034 88.9293 208.341C89.1651 208.648 89.3114 209.006 89.3683 209.415H88.3626C88.2859 209.116 88.1154 208.852 87.8512 208.622C87.5898 208.389 87.2376 208.273 86.7944 208.273C86.4023 208.273 86.0586 208.375 85.7631 208.58C85.4705 208.781 85.2418 209.067 85.0771 209.436C84.9151 209.803 84.8342 210.233 84.8342 210.727C84.8342 211.233 84.9137 211.673 85.0728 212.048C85.2347 212.423 85.462 212.714 85.7546 212.922C86.0501 213.129 86.3967 213.233 86.7944 213.233C87.0558 213.233 87.293 213.188 87.506 213.097C87.7191 213.006 87.8995 212.875 88.0472 212.705C88.195 212.534 88.3001 212.33 88.3626 212.091H89.3683C89.3114 212.477 89.1708 212.825 88.9464 213.135C88.7248 213.442 88.4308 213.686 88.0643 213.868C87.7006 214.047 87.2773 214.136 86.7944 214.136ZM91.7759 211.614L91.7589 210.369H91.9634L94.8271 207.455H96.0714L93.0202 210.54H92.935L91.7759 211.614ZM90.8384 214V205.273H91.8441V214H90.8384ZM94.9975 214L92.4407 210.761L93.1566 210.062L96.2759 214H94.9975ZM101.491 211.324V207.455H102.496V214H101.491V212.892H101.423C101.269 213.224 101.031 213.507 100.707 213.74C100.383 213.97 99.9737 214.085 99.4794 214.085C99.0703 214.085 98.7067 213.996 98.3885 213.817C98.0703 213.635 97.8203 213.362 97.6385 212.999C97.4567 212.632 97.3658 212.17 97.3658 211.614V207.455H98.3714V211.545C98.3714 212.023 98.505 212.403 98.772 212.688C99.0419 212.972 99.3857 213.114 99.8033 213.114C100.053 213.114 100.308 213.05 100.566 212.922C100.827 212.794 101.046 212.598 101.222 212.334C101.401 212.07 101.491 211.733 101.491 211.324ZM104.338 216.455V207.455H105.31V208.494H105.429C105.503 208.381 105.605 208.236 105.736 208.06C105.87 207.881 106.06 207.722 106.307 207.582C106.557 207.44 106.895 207.369 107.321 207.369C107.873 207.369 108.358 207.507 108.779 207.783C109.199 208.058 109.527 208.449 109.763 208.955C109.999 209.46 110.117 210.057 110.117 210.744C110.117 211.438 109.999 212.038 109.763 212.547C109.527 213.053 109.201 213.445 108.783 213.723C108.365 213.999 107.884 214.136 107.338 214.136C106.918 214.136 106.581 214.067 106.328 213.928C106.076 213.786 105.881 213.625 105.745 213.446C105.608 213.264 105.503 213.114 105.429 212.994H105.344V216.455H104.338ZM105.327 210.727C105.327 211.222 105.4 211.658 105.544 212.036C105.689 212.411 105.901 212.705 106.179 212.918C106.458 213.128 106.799 213.233 107.202 213.233C107.623 213.233 107.973 213.122 108.255 212.901C108.539 212.676 108.752 212.375 108.894 211.997C109.039 211.616 109.111 211.193 109.111 210.727C109.111 210.267 109.04 209.852 108.898 209.483C108.759 209.111 108.547 208.817 108.263 208.601C107.982 208.382 107.628 208.273 107.202 208.273C106.793 208.273 106.449 208.376 106.171 208.584C105.892 208.788 105.682 209.075 105.54 209.445C105.398 209.811 105.327 210.239 105.327 210.727ZM112.384 214.068C112.174 214.068 111.993 213.993 111.843 213.842C111.692 213.692 111.617 213.511 111.617 213.301C111.617 213.091 111.692 212.911 111.843 212.76C111.993 212.609 112.174 212.534 112.384 212.534C112.594 212.534 112.775 212.609 112.925 212.76C113.076 212.911 113.151 213.091 113.151 213.301C113.151 213.44 113.115 213.568 113.044 213.685C112.976 213.801 112.884 213.895 112.767 213.966C112.654 214.034 112.526 214.068 112.384 214.068ZM119.592 208.92L118.689 209.176C118.632 209.026 118.548 208.879 118.437 208.737C118.329 208.592 118.181 208.473 117.994 208.379C117.806 208.286 117.566 208.239 117.274 208.239C116.873 208.239 116.539 208.331 116.272 208.516C116.008 208.697 115.876 208.929 115.876 209.21C115.876 209.46 115.967 209.658 116.149 209.803C116.331 209.947 116.615 210.068 117.001 210.165L117.973 210.403C118.558 210.545 118.994 210.763 119.281 211.055C119.568 211.345 119.711 211.719 119.711 212.176C119.711 212.551 119.603 212.886 119.387 213.182C119.174 213.477 118.876 213.71 118.493 213.881C118.109 214.051 117.663 214.136 117.154 214.136C116.487 214.136 115.934 213.991 115.497 213.702C115.059 213.412 114.782 212.989 114.666 212.432L115.62 212.193C115.711 212.545 115.883 212.81 116.136 212.986C116.392 213.162 116.725 213.25 117.137 213.25C117.606 213.25 117.978 213.151 118.254 212.952C118.532 212.75 118.672 212.509 118.672 212.227C118.672 212 118.592 211.81 118.433 211.656C118.274 211.5 118.029 211.384 117.7 211.307L116.609 211.051C116.01 210.909 115.569 210.689 115.288 210.391C115.01 210.089 114.87 209.713 114.87 209.261C114.87 208.892 114.974 208.565 115.181 208.281C115.392 207.997 115.677 207.774 116.038 207.612C116.402 207.45 116.814 207.369 117.274 207.369C117.922 207.369 118.43 207.511 118.799 207.795C119.172 208.08 119.436 208.455 119.592 208.92ZM125.691 216.455V212.994H125.606C125.532 213.114 125.427 213.264 125.29 213.446C125.154 213.625 124.96 213.786 124.707 213.928C124.454 214.067 124.117 214.136 123.697 214.136C123.151 214.136 122.67 213.999 122.252 213.723C121.835 213.445 121.508 213.053 121.272 212.547C121.036 212.038 120.918 211.438 120.918 210.744C120.918 210.057 121.036 209.46 121.272 208.955C121.508 208.449 121.836 208.058 122.256 207.783C122.677 207.507 123.163 207.369 123.714 207.369C124.14 207.369 124.477 207.44 124.724 207.582C124.974 207.722 125.164 207.881 125.295 208.06C125.428 208.236 125.532 208.381 125.606 208.494H125.725V207.455H126.697V216.455H125.691ZM123.833 213.233C124.237 213.233 124.577 213.128 124.856 212.918C125.134 212.705 125.346 212.411 125.491 212.036C125.636 211.658 125.708 211.222 125.708 210.727C125.708 210.239 125.637 209.811 125.495 209.445C125.353 209.075 125.143 208.788 124.864 208.584C124.586 208.376 124.242 208.273 123.833 208.273C123.407 208.273 123.052 208.382 122.768 208.601C122.487 208.817 122.275 209.111 122.133 209.483C121.994 209.852 121.924 210.267 121.924 210.727C121.924 211.193 121.995 211.616 122.137 211.997C122.282 212.375 122.495 212.676 122.776 212.901C123.06 213.122 123.413 213.233 123.833 213.233ZM129.543 205.273V214H128.538V205.273H129.543Z" fill="#363939"/>
<path d="M69.6023 229V228.489L71.5227 226.386C71.7481 226.14 71.9337 225.926 72.0795 225.744C72.2254 225.561 72.3333 225.388 72.4034 225.227C72.4754 225.064 72.5114 224.894 72.5114 224.716C72.5114 224.511 72.4621 224.334 72.3636 224.185C72.267 224.035 72.1345 223.92 71.9659 223.838C71.7973 223.757 71.608 223.716 71.3977 223.716C71.1742 223.716 70.9792 223.762 70.8125 223.855C70.6477 223.946 70.5199 224.074 70.429 224.239C70.34 224.403 70.2955 224.597 70.2955 224.818H69.625C69.625 224.477 69.7036 224.178 69.8608 223.92C70.018 223.663 70.232 223.462 70.5028 223.318C70.7756 223.174 71.0814 223.102 71.4205 223.102C71.7614 223.102 72.0634 223.174 72.3267 223.318C72.59 223.462 72.7964 223.656 72.946 223.901C73.0956 224.145 73.1705 224.417 73.1705 224.716C73.1705 224.93 73.1316 225.139 73.054 225.344C72.9782 225.546 72.8456 225.773 72.6562 226.023C72.4688 226.271 72.2083 226.574 71.875 226.932L70.5682 228.33V228.375H73.2727V229H69.6023ZM74.946 229.045C74.8059 229.045 74.6856 228.995 74.5852 228.895C74.4848 228.795 74.4347 228.674 74.4347 228.534C74.4347 228.394 74.4848 228.274 74.5852 228.173C74.6856 228.073 74.8059 228.023 74.946 228.023C75.0862 228.023 75.2064 228.073 75.3068 228.173C75.4072 228.274 75.4574 228.394 75.4574 228.534C75.4574 228.627 75.4337 228.712 75.3864 228.79C75.3409 228.867 75.2794 228.93 75.2017 228.977C75.1259 229.023 75.0407 229.045 74.946 229.045ZM78.3963 229.08C78.0213 229.08 77.687 229.015 77.3935 228.886C77.1018 228.758 76.8698 228.579 76.6974 228.349C76.527 228.118 76.4342 227.85 76.419 227.545H77.1349C77.1501 227.733 77.2145 227.895 77.3281 228.031C77.4418 228.166 77.5904 228.27 77.7741 228.344C77.9579 228.418 78.1615 228.455 78.3849 228.455C78.6349 228.455 78.8565 228.411 79.0497 228.324C79.2429 228.237 79.3944 228.116 79.5043 227.96C79.6141 227.805 79.669 227.625 79.669 227.42C79.669 227.206 79.616 227.018 79.5099 226.855C79.4039 226.69 79.2486 226.562 79.044 226.469C78.8395 226.376 78.5895 226.33 78.294 226.33H77.8281V225.705H78.294C78.5251 225.705 78.7277 225.663 78.902 225.58C79.0781 225.496 79.2154 225.379 79.3139 225.227C79.4143 225.076 79.4645 224.898 79.4645 224.693C79.4645 224.496 79.4209 224.325 79.3338 224.179C79.2467 224.033 79.1236 223.92 78.9645 223.838C78.8073 223.757 78.6217 223.716 78.4077 223.716C78.2069 223.716 78.0175 223.753 77.8395 223.827C77.6634 223.899 77.5194 224.004 77.4077 224.142C77.2959 224.278 77.2353 224.443 77.2259 224.636H76.544C76.5554 224.331 76.6473 224.064 76.8196 223.835C76.992 223.604 77.2173 223.424 77.4957 223.295C77.776 223.167 78.0838 223.102 78.419 223.102C78.7789 223.102 79.0876 223.175 79.3452 223.321C79.6027 223.465 79.8007 223.655 79.9389 223.892C80.0772 224.129 80.1463 224.384 80.1463 224.659C80.1463 224.987 80.0601 225.266 79.8878 225.497C79.7173 225.728 79.4853 225.888 79.1918 225.977V226.023C79.5592 226.083 79.8461 226.24 80.0526 226.491C80.259 226.741 80.3622 227.051 80.3622 227.42C80.3622 227.737 80.276 228.021 80.1037 228.273C79.9332 228.523 79.7003 228.72 79.4048 228.864C79.1094 229.008 78.7732 229.08 78.3963 229.08ZM87.8537 225C87.7912 224.809 87.7088 224.637 87.6065 224.486C87.5062 224.332 87.3859 224.202 87.2457 224.094C87.1075 223.986 86.9503 223.903 86.7741 223.847C86.598 223.79 86.4048 223.761 86.1946 223.761C85.8499 223.761 85.5365 223.85 85.2543 224.028C84.9721 224.206 84.7476 224.469 84.581 224.815C84.4143 225.162 84.331 225.587 84.331 226.091C84.331 226.595 84.4152 227.02 84.5838 227.366C84.7524 227.713 84.9806 227.975 85.2685 228.153C85.5563 228.331 85.8802 228.42 86.2401 228.42C86.5734 228.42 86.867 228.349 87.1207 228.207C87.3764 228.063 87.5753 227.861 87.7173 227.599C87.8613 227.336 87.9332 227.027 87.9332 226.67L88.1491 226.716H86.3991V226.091H88.6151V226.716C88.6151 227.195 88.5128 227.612 88.3082 227.966C88.1056 228.32 87.8253 228.595 87.4673 228.79C87.1113 228.983 86.7022 229.08 86.2401 229.08C85.7249 229.08 85.2723 228.958 84.8821 228.716C84.4938 228.473 84.1908 228.129 83.973 227.682C83.7571 227.235 83.6491 226.705 83.6491 226.091C83.6491 225.631 83.7107 225.217 83.8338 224.849C83.9588 224.48 84.1349 224.166 84.3622 223.906C84.5895 223.647 84.8584 223.448 85.169 223.31C85.4796 223.171 85.8215 223.102 86.1946 223.102C86.5014 223.102 86.7874 223.149 87.0526 223.241C87.3196 223.332 87.5573 223.462 87.7656 223.631C87.9759 223.797 88.151 223.997 88.2912 224.23C88.4313 224.461 88.5279 224.718 88.581 225H87.8537ZM90.0043 229V224.636H90.6747V229H90.0043ZM90.3452 223.909C90.2145 223.909 90.1018 223.865 90.0071 223.776C89.9143 223.687 89.8679 223.58 89.8679 223.455C89.8679 223.33 89.9143 223.223 90.0071 223.134C90.1018 223.045 90.2145 223 90.3452 223C90.4759 223 90.5876 223.045 90.6804 223.134C90.7751 223.223 90.8224 223.33 90.8224 223.455C90.8224 223.58 90.7751 223.687 90.6804 223.776C90.5876 223.865 90.4759 223.909 90.3452 223.909ZM91.9936 229V223.182H94.0277C94.433 223.182 94.7673 223.252 95.0305 223.392C95.2938 223.53 95.4898 223.717 95.6186 223.952C95.7474 224.185 95.8118 224.443 95.8118 224.727C95.8118 224.977 95.7673 225.184 95.6783 225.347C95.5911 225.509 95.4756 225.638 95.3317 225.733C95.1896 225.828 95.0353 225.898 94.8686 225.943V226C95.0466 226.011 95.2256 226.074 95.4055 226.188C95.5855 226.301 95.736 226.464 95.8572 226.676C95.9785 226.888 96.0391 227.148 96.0391 227.455C96.0391 227.746 95.9728 228.009 95.8402 228.241C95.7076 228.474 95.4983 228.659 95.2124 228.795C94.9264 228.932 94.5542 229 94.0959 229H91.9936ZM92.6982 228.375H94.0959C94.5561 228.375 94.8828 228.286 95.076 228.108C95.2711 227.928 95.3686 227.71 95.3686 227.455C95.3686 227.258 95.3184 227.076 95.218 226.909C95.1177 226.741 94.9747 226.606 94.7891 226.506C94.6035 226.403 94.3838 226.352 94.13 226.352H92.6982V228.375ZM92.6982 225.739H94.005C94.2171 225.739 94.4084 225.697 94.5788 225.614C94.7512 225.53 94.8875 225.413 94.9879 225.261C95.0902 225.11 95.1413 224.932 95.1413 224.727C95.1413 224.472 95.0523 224.255 94.8743 224.077C94.6963 223.897 94.4141 223.807 94.0277 223.807H92.6982V225.739Z" fill="#57595A"/>
<path d="M293.333 205L286 212.333L282.667 209" stroke="#3F57FF" stroke-linecap="round" stroke-linejoin="round"/>
<g clip-path="url(#clip0_2334_141)">
<rect x="67" y="242" width="201" height="8" rx="4" fill="#F6F6F6"/>
<rect x="67" y="242" width="201" height="8" rx="4" fill="#000B44"/>
</g>
<path d="M276.038 243.182V249H275.334V243.92H275.3L273.879 244.864V244.148L275.334 243.182H276.038ZM279.609 249.08C279.181 249.08 278.817 248.963 278.516 248.73C278.214 248.495 277.984 248.155 277.825 247.71C277.666 247.263 277.587 246.723 277.587 246.091C277.587 245.462 277.666 244.925 277.825 244.48C277.986 244.033 278.217 243.692 278.518 243.457C278.821 243.221 279.185 243.102 279.609 243.102C280.034 243.102 280.396 243.221 280.697 243.457C281 243.692 281.232 244.033 281.391 244.48C281.552 244.925 281.632 245.462 281.632 246.091C281.632 246.723 281.553 247.263 281.393 247.71C281.234 248.155 281.004 248.495 280.703 248.73C280.402 248.963 280.037 249.08 279.609 249.08ZM279.609 248.455C280.034 248.455 280.363 248.25 280.598 247.841C280.833 247.432 280.95 246.848 280.95 246.091C280.95 245.587 280.896 245.158 280.788 244.804C280.682 244.45 280.529 244.18 280.328 243.994C280.129 243.809 279.89 243.716 279.609 243.716C279.189 243.716 278.86 243.923 278.624 244.338C278.387 244.751 278.268 245.335 278.268 246.091C278.268 246.595 278.321 247.023 278.428 247.375C278.534 247.727 278.686 247.995 278.885 248.179C279.086 248.363 279.327 248.455 279.609 248.455ZM284.609 249.08C284.181 249.08 283.817 248.963 283.516 248.73C283.214 248.495 282.984 248.155 282.825 247.71C282.666 247.263 282.587 246.723 282.587 246.091C282.587 245.462 282.666 244.925 282.825 244.48C282.986 244.033 283.217 243.692 283.518 243.457C283.821 243.221 284.185 243.102 284.609 243.102C285.034 243.102 285.396 243.221 285.697 243.457C286 243.692 286.232 244.033 286.391 244.48C286.552 244.925 286.632 245.462 286.632 246.091C286.632 246.723 286.553 247.263 286.393 247.71C286.234 248.155 286.004 248.495 285.703 248.73C285.402 248.963 285.037 249.08 284.609 249.08ZM284.609 248.455C285.034 248.455 285.363 248.25 285.598 247.841C285.833 247.432 285.95 246.848 285.95 246.091C285.95 245.587 285.896 245.158 285.788 244.804C285.682 244.45 285.529 244.18 285.328 243.994C285.129 243.809 284.89 243.716 284.609 243.716C284.189 243.716 283.86 243.923 283.624 244.338C283.387 244.751 283.268 245.335 283.268 246.091C283.268 246.595 283.321 247.023 283.428 247.375C283.534 247.727 283.686 247.995 283.885 248.179C284.086 248.363 284.327 248.455 284.609 248.455ZM290.678 247.909V247.602C290.678 247.39 290.721 247.196 290.808 247.02C290.897 246.842 291.026 246.7 291.195 246.594C291.365 246.486 291.571 246.432 291.814 246.432C292.06 246.432 292.267 246.486 292.433 246.594C292.6 246.7 292.726 246.842 292.811 247.02C292.896 247.196 292.939 247.39 292.939 247.602V247.909C292.939 248.121 292.895 248.316 292.808 248.494C292.723 248.67 292.596 248.812 292.428 248.92C292.261 249.027 292.056 249.08 291.814 249.08C291.568 249.08 291.36 249.027 291.192 248.92C291.023 248.812 290.895 248.67 290.808 248.494C290.721 248.316 290.678 248.121 290.678 247.909ZM291.257 247.602V247.909C291.257 248.085 291.299 248.243 291.382 248.384C291.465 248.522 291.609 248.591 291.814 248.591C292.013 248.591 292.153 248.522 292.234 248.384C292.318 248.243 292.359 248.085 292.359 247.909V247.602C292.359 247.426 292.32 247.269 292.24 247.131C292.161 246.991 292.018 246.92 291.814 246.92C291.615 246.92 291.472 246.991 291.385 247.131C291.3 247.269 291.257 247.426 291.257 247.602ZM287.78 244.58V244.273C287.78 244.061 287.823 243.866 287.911 243.69C288 243.512 288.128 243.37 288.297 243.264C288.467 243.156 288.674 243.102 288.916 243.102C289.162 243.102 289.369 243.156 289.536 243.264C289.702 243.37 289.828 243.512 289.913 243.69C289.999 243.866 290.041 244.061 290.041 244.273V244.58C290.041 244.792 289.998 244.987 289.911 245.165C289.825 245.341 289.698 245.483 289.53 245.591C289.363 245.697 289.159 245.75 288.916 245.75C288.67 245.75 288.463 245.697 288.294 245.591C288.125 245.483 287.998 245.341 287.911 245.165C287.823 244.987 287.78 244.792 287.78 244.58ZM288.359 244.273V244.58C288.359 244.756 288.401 244.914 288.484 245.054C288.568 245.192 288.712 245.261 288.916 245.261C289.115 245.261 289.255 245.192 289.337 245.054C289.42 244.914 289.462 244.756 289.462 244.58V244.273C289.462 244.097 289.422 243.939 289.342 243.801C289.263 243.661 289.121 243.591 288.916 243.591C288.717 243.591 288.574 243.661 288.487 243.801C288.402 243.939 288.359 244.097 288.359 244.273ZM287.996 249L291.996 243.182H292.643L288.643 249H287.996Z" fill="#797A7B"/>
<rect x="15.25" y="272.25" width="303.5" height="71.5" rx="4.75" stroke="#D2D3D3" stroke-width="0.5"/>
<rect x="24.15" y="281.15" width="35.7" height="35.7" rx="2.85" stroke="#D2D3D3" stroke-width="0.3"/>
<path d="M34.9998 286.333H43.1665L51.3332 294.5V307.333C51.3332 307.952 51.0873 308.546 50.6498 308.983C50.2122 309.421 49.6187 309.667 48.9998 309.667H34.9998C34.381 309.667 33.7875 309.421 33.3499 308.983C32.9123 308.546 32.6665 307.952 32.6665 307.333V288.667C32.6665 288.048 32.9123 287.454 33.3499 287.017C33.7875 286.579 34.381 286.333 34.9998 286.333Z" stroke="#298BED" stroke-width="0.8" stroke-linecap="round" stroke-linejoin="round"/>
<path d="M43.1665 286.333V294.5H51.3332" stroke="#298BED" stroke-width="0.8" stroke-linecap="round" stroke-linejoin="round"/>
<path d="M69.9205 294V287.455H70.892V288.477H70.9773C71.1136 288.128 71.3338 287.857 71.6378 287.663C71.9418 287.467 72.3068 287.369 72.733 287.369C73.1648 287.369 73.5241 287.467 73.8111 287.663C74.1009 287.857 74.3267 288.128 74.4886 288.477H74.5568C74.7244 288.139 74.9759 287.871 75.3111 287.672C75.6463 287.47 76.0483 287.369 76.517 287.369C77.1023 287.369 77.581 287.553 77.9531 287.919C78.3253 288.283 78.5114 288.849 78.5114 289.619V294H77.5057V289.619C77.5057 289.136 77.3736 288.791 77.1094 288.584C76.8452 288.376 76.5341 288.273 76.1761 288.273C75.7159 288.273 75.3594 288.412 75.1065 288.69C74.8537 288.966 74.7273 289.315 74.7273 289.739V294H73.7045V289.517C73.7045 289.145 73.5838 288.845 73.3423 288.618C73.1009 288.388 72.7898 288.273 72.4091 288.273C72.1477 288.273 71.9034 288.342 71.6761 288.482C71.4517 288.621 71.2699 288.814 71.1307 289.061C70.9943 289.305 70.9261 289.588 70.9261 289.909V294H69.9205ZM80.7635 296.455C80.593 296.455 80.4411 296.44 80.3075 296.412C80.174 296.386 80.0817 296.361 80.0305 296.335L80.2862 295.449C80.5305 295.511 80.7464 295.534 80.9339 295.517C81.1214 295.5 81.2876 295.416 81.4325 295.266C81.5803 295.118 81.7152 294.878 81.8374 294.545L82.0249 294.034L79.6044 287.455H80.6953L82.5021 292.67H82.5703L84.3771 287.455H85.468L82.6896 294.955C82.5646 295.293 82.4098 295.572 82.2251 295.794C82.0405 296.018 81.826 296.185 81.5817 296.293C81.3402 296.401 81.0675 296.455 80.7635 296.455ZM90.3633 294V294.938H84.9087V294H90.3633ZM91.8228 294V287.455H92.7944V288.477H92.8796C93.016 288.128 93.2362 287.857 93.5401 287.663C93.8441 287.467 94.2092 287.369 94.6353 287.369C95.0671 287.369 95.4265 287.467 95.7134 287.663C96.0032 287.857 96.229 288.128 96.391 288.477H96.4592C96.6268 288.139 96.8782 287.871 97.2134 287.672C97.5487 287.47 97.9506 287.369 98.4194 287.369C99.0046 287.369 99.4833 287.553 99.8555 287.919C100.228 288.283 100.414 288.849 100.414 289.619V294H99.408V289.619C99.408 289.136 99.2759 288.791 99.0117 288.584C98.7475 288.376 98.4364 288.273 98.0785 288.273C97.6183 288.273 97.2617 288.412 97.0089 288.69C96.756 288.966 96.6296 289.315 96.6296 289.739V294H95.6069V289.517C95.6069 289.145 95.4862 288.845 95.2447 288.618C95.0032 288.388 94.6921 288.273 94.3114 288.273C94.0501 288.273 93.8058 288.342 93.5785 288.482C93.354 288.621 93.1722 288.814 93.033 289.061C92.8967 289.305 92.8285 289.588 92.8285 289.909V294H91.8228ZM104.912 294.136C104.321 294.136 103.802 293.996 103.356 293.714C102.913 293.433 102.566 293.04 102.316 292.534C102.069 292.028 101.946 291.437 101.946 290.761C101.946 290.08 102.069 289.484 102.316 288.976C102.566 288.467 102.913 288.072 103.356 287.791C103.802 287.51 104.321 287.369 104.912 287.369C105.502 287.369 106.02 287.51 106.463 287.791C106.909 288.072 107.255 288.467 107.502 288.976C107.752 289.484 107.877 290.08 107.877 290.761C107.877 291.437 107.752 292.028 107.502 292.534C107.255 293.04 106.909 293.433 106.463 293.714C106.02 293.996 105.502 294.136 104.912 294.136ZM104.912 293.233C105.36 293.233 105.73 293.118 106.02 292.888C106.309 292.658 106.524 292.355 106.663 291.98C106.802 291.605 106.872 291.199 106.872 290.761C106.872 290.324 106.802 289.916 106.663 289.538C106.524 289.161 106.309 288.855 106.02 288.622C105.73 288.389 105.36 288.273 104.912 288.273C104.463 288.273 104.093 288.389 103.804 288.622C103.514 288.855 103.299 289.161 103.16 289.538C103.021 289.916 102.951 290.324 102.951 290.761C102.951 291.199 103.021 291.605 103.16 291.98C103.299 292.355 103.514 292.658 103.804 292.888C104.093 293.118 104.463 293.233 104.912 293.233ZM114.531 287.455L112.11 294H111.087L108.667 287.455H109.758L111.565 292.67H111.633L113.44 287.455H114.531ZM115.858 294V287.455H116.864V294H115.858ZM116.369 286.364C116.173 286.364 116.004 286.297 115.862 286.163C115.723 286.03 115.653 285.869 115.653 285.682C115.653 285.494 115.723 285.334 115.862 285.2C116.004 285.067 116.173 285 116.369 285C116.565 285 116.733 285.067 116.872 285.2C117.014 285.334 117.085 285.494 117.085 285.682C117.085 285.869 117.014 286.03 116.872 286.163C116.733 286.297 116.565 286.364 116.369 286.364ZM121.45 294.136C120.819 294.136 120.275 293.997 119.818 293.719C119.363 293.438 119.012 293.045 118.765 292.543C118.521 292.037 118.399 291.449 118.399 290.778C118.399 290.108 118.521 289.517 118.765 289.006C119.012 288.491 119.356 288.091 119.797 287.804C120.24 287.514 120.757 287.369 121.348 287.369C121.689 287.369 122.025 287.426 122.358 287.54C122.69 287.653 122.993 287.838 123.265 288.094C123.538 288.347 123.755 288.682 123.917 289.099C124.079 289.517 124.16 290.031 124.16 290.642V291.068H119.115V290.199H123.137C123.137 289.83 123.064 289.5 122.916 289.21C122.771 288.92 122.564 288.692 122.294 288.524C122.027 288.357 121.711 288.273 121.348 288.273C120.947 288.273 120.6 288.372 120.308 288.571C120.018 288.767 119.795 289.023 119.639 289.338C119.483 289.653 119.404 289.991 119.404 290.352V290.932C119.404 291.426 119.49 291.845 119.66 292.189C119.833 292.53 120.074 292.79 120.38 292.969C120.687 293.145 121.044 293.233 121.45 293.233C121.714 293.233 121.953 293.196 122.166 293.122C122.382 293.045 122.568 292.932 122.724 292.781C122.88 292.628 123.001 292.437 123.086 292.21L124.058 292.483C123.956 292.812 123.784 293.102 123.542 293.352C123.301 293.599 123.002 293.793 122.647 293.932C122.292 294.068 121.893 294.136 121.45 294.136ZM126.423 294.068C126.213 294.068 126.032 293.993 125.882 293.842C125.731 293.692 125.656 293.511 125.656 293.301C125.656 293.091 125.731 292.911 125.882 292.76C126.032 292.609 126.213 292.534 126.423 292.534C126.633 292.534 126.814 292.609 126.964 292.76C127.115 292.911 127.19 293.091 127.19 293.301C127.19 293.44 127.154 293.568 127.083 293.685C127.015 293.801 126.923 293.895 126.806 293.966C126.693 294.034 126.565 294.068 126.423 294.068ZM128.995 294V287.455H129.966V288.477H130.051C130.188 288.128 130.408 287.857 130.712 287.663C131.016 287.467 131.381 287.369 131.807 287.369C132.239 287.369 132.598 287.467 132.885 287.663C133.175 287.857 133.401 288.128 133.563 288.477H133.631C133.799 288.139 134.05 287.871 134.385 287.672C134.721 287.47 135.123 287.369 135.591 287.369C136.176 287.369 136.655 287.553 137.027 287.919C137.4 288.283 137.586 288.849 137.586 289.619V294H136.58V289.619C136.58 289.136 136.448 288.791 136.184 288.584C135.919 288.376 135.608 288.273 135.25 288.273C134.79 288.273 134.434 288.412 134.181 288.69C133.928 288.966 133.801 289.315 133.801 289.739V294H132.779V289.517C132.779 289.145 132.658 288.845 132.417 288.618C132.175 288.388 131.864 288.273 131.483 288.273C131.222 288.273 130.978 288.342 130.75 288.482C130.526 288.621 130.344 288.814 130.205 289.061C130.069 289.305 130 289.588 130 289.909V294H128.995ZM139.424 296.455V287.455H140.396V288.494H140.515C140.589 288.381 140.691 288.236 140.822 288.06C140.956 287.881 141.146 287.722 141.393 287.582C141.643 287.44 141.981 287.369 142.407 287.369C142.958 287.369 143.444 287.507 143.865 287.783C144.285 288.058 144.613 288.449 144.849 288.955C145.085 289.46 145.203 290.057 145.203 290.744C145.203 291.438 145.085 292.038 144.849 292.547C144.613 293.053 144.287 293.445 143.869 293.723C143.451 293.999 142.97 294.136 142.424 294.136C142.004 294.136 141.667 294.067 141.414 293.928C141.162 293.786 140.967 293.625 140.831 293.446C140.694 293.264 140.589 293.114 140.515 292.994H140.43V296.455H139.424ZM140.413 290.727C140.413 291.222 140.485 291.658 140.63 292.036C140.775 292.411 140.987 292.705 141.265 292.918C141.544 293.128 141.885 293.233 142.288 293.233C142.708 293.233 143.059 293.122 143.341 292.901C143.625 292.676 143.838 292.375 143.98 291.997C144.125 291.616 144.197 291.193 144.197 290.727C144.197 290.267 144.126 289.852 143.984 289.483C143.845 289.111 143.633 288.817 143.349 288.601C143.068 288.382 142.714 288.273 142.288 288.273C141.879 288.273 141.535 288.376 141.257 288.584C140.978 288.788 140.768 289.075 140.626 289.445C140.484 289.811 140.413 290.239 140.413 290.727ZM146.515 292.21V291.341L150.35 285.273H150.981V286.619H150.555L147.657 291.205V291.273H152.822V292.21H146.515ZM150.623 294V291.946V291.541V285.273H151.629V294H150.623Z" fill="#363939"/>
<path d="M71.4545 303.102C71.6932 303.104 71.9318 303.15 72.1705 303.239C72.4091 303.328 72.6269 303.475 72.8239 303.682C73.0208 303.886 73.179 304.166 73.2983 304.52C73.4176 304.874 73.4773 305.318 73.4773 305.852C73.4773 306.369 73.428 306.829 73.3295 307.23C73.233 307.63 73.0928 307.967 72.9091 308.241C72.7273 308.516 72.5057 308.724 72.2443 308.866C71.9848 309.009 71.6913 309.08 71.3636 309.08C71.0379 309.08 70.7472 309.015 70.4915 308.886C70.2377 308.756 70.0294 308.575 69.8665 308.344C69.7055 308.111 69.6023 307.841 69.5568 307.534H70.25C70.3125 307.801 70.4366 308.022 70.6222 308.196C70.8097 308.368 71.0568 308.455 71.3636 308.455C71.8125 308.455 72.1667 308.259 72.4261 307.866C72.6875 307.474 72.8182 306.92 72.8182 306.205H72.7727C72.6667 306.364 72.5407 306.501 72.3949 306.616C72.2491 306.732 72.0871 306.821 71.9091 306.884C71.7311 306.946 71.5417 306.977 71.3409 306.977C71.0076 306.977 70.7017 306.895 70.4233 306.73C70.1468 306.563 69.9252 306.335 69.7585 306.045C69.5938 305.754 69.5114 305.42 69.5114 305.045C69.5114 304.689 69.5909 304.364 69.75 304.068C69.911 303.771 70.1364 303.534 70.4261 303.358C70.7178 303.182 71.0606 303.097 71.4545 303.102ZM71.4545 303.727C71.2159 303.727 71.0009 303.787 70.8097 303.906C70.6203 304.024 70.4697 304.183 70.358 304.384C70.2481 304.582 70.1932 304.803 70.1932 305.045C70.1932 305.288 70.2462 305.509 70.3523 305.707C70.4602 305.904 70.607 306.062 70.7926 306.179C70.9801 306.295 71.1932 306.352 71.4318 306.352C71.6117 306.352 71.7794 306.317 71.9347 306.247C72.09 306.175 72.2254 306.078 72.3409 305.955C72.4583 305.83 72.5502 305.688 72.6165 305.531C72.6828 305.372 72.7159 305.206 72.7159 305.034C72.7159 304.807 72.661 304.594 72.5511 304.395C72.4432 304.196 72.2936 304.035 72.1023 303.912C71.9129 303.789 71.697 303.727 71.4545 303.727ZM74.62 309L77.2223 303.852V303.807H74.2223V303.182H77.9496V303.841L75.3587 309H74.62ZM80.8416 309.08C80.4666 309.08 80.1323 309.015 79.8388 308.886C79.5471 308.758 79.3151 308.579 79.1428 308.349C78.9723 308.118 78.8795 307.85 78.8643 307.545H79.5803C79.5954 307.733 79.6598 307.895 79.7734 308.031C79.8871 308.166 80.0357 308.27 80.2195 308.344C80.4032 308.418 80.6068 308.455 80.8303 308.455C81.0803 308.455 81.3018 308.411 81.495 308.324C81.6882 308.237 81.8397 308.116 81.9496 307.96C82.0594 307.805 82.1143 307.625 82.1143 307.42C82.1143 307.206 82.0613 307.018 81.9553 306.855C81.8492 306.69 81.6939 306.562 81.4893 306.469C81.2848 306.376 81.0348 306.33 80.7393 306.33H80.2734V305.705H80.7393C80.9704 305.705 81.1731 305.663 81.3473 305.58C81.5234 305.496 81.6607 305.379 81.7592 305.227C81.8596 305.076 81.9098 304.898 81.9098 304.693C81.9098 304.496 81.8662 304.325 81.7791 304.179C81.692 304.033 81.5689 303.92 81.4098 303.838C81.2526 303.757 81.067 303.716 80.853 303.716C80.6522 303.716 80.4628 303.753 80.2848 303.827C80.1087 303.899 79.9647 304.004 79.853 304.142C79.7412 304.278 79.6806 304.443 79.6712 304.636H78.9893C79.0007 304.331 79.0926 304.064 79.2649 303.835C79.4373 303.604 79.6626 303.424 79.9411 303.295C80.2214 303.167 80.5291 303.102 80.8643 303.102C81.2242 303.102 81.5329 303.175 81.7905 303.321C82.0481 303.465 82.246 303.655 82.3842 303.892C82.5225 304.129 82.5916 304.384 82.5916 304.659C82.5916 304.987 82.5054 305.266 82.3331 305.497C82.1626 305.728 81.9306 305.888 81.6371 305.977V306.023C82.0045 306.083 82.2914 306.24 82.4979 306.491C82.7043 306.741 82.8075 307.051 82.8075 307.42C82.8075 307.737 82.7214 308.021 82.549 308.273C82.3786 308.523 82.1456 308.72 81.8501 308.864C81.5547 309.008 81.2185 309.08 80.8416 309.08ZM86.3217 303.182H87.1626L89.1399 308.011H89.2081L91.1854 303.182H92.0263V309H91.3672V304.58H91.3104L89.4922 309H88.8558L87.0376 304.58H86.9808V309H86.3217V303.182ZM93.348 309V304.636H94.0185V309H93.348ZM93.6889 303.909C93.5582 303.909 93.4455 303.865 93.3509 303.776C93.258 303.687 93.2116 303.58 93.2116 303.455C93.2116 303.33 93.258 303.223 93.3509 303.134C93.4455 303.045 93.5582 303 93.6889 303C93.8196 303 93.9313 303.045 94.0241 303.134C94.1188 303.223 94.1662 303.33 94.1662 303.455C94.1662 303.58 94.1188 303.687 94.0241 303.776C93.9313 303.865 93.8196 303.909 93.6889 303.909ZM95.3374 309V303.182H97.3714C97.7768 303.182 98.111 303.252 98.3743 303.392C98.6375 303.53 98.8336 303.717 98.9624 303.952C99.0911 304.185 99.1555 304.443 99.1555 304.727C99.1555 304.977 99.111 305.184 99.022 305.347C98.9349 305.509 98.8194 305.638 98.6754 305.733C98.5334 305.828 98.379 305.898 98.2124 305.943V306C98.3904 306.011 98.5694 306.074 98.7493 306.188C98.9292 306.301 99.0798 306.464 99.201 306.676C99.3222 306.888 99.3828 307.148 99.3828 307.455C99.3828 307.746 99.3165 308.009 99.1839 308.241C99.0514 308.474 98.8421 308.659 98.5561 308.795C98.2701 308.932 97.898 309 97.4396 309H95.3374ZM96.0419 308.375H97.4396C97.8999 308.375 98.2266 308.286 98.4197 308.108C98.6148 307.928 98.7124 307.71 98.7124 307.455C98.7124 307.258 98.6622 307.076 98.5618 306.909C98.4614 306.741 98.3184 306.606 98.1328 306.506C97.9472 306.403 97.7275 306.352 97.4737 306.352H96.0419V308.375ZM96.0419 305.739H97.3487C97.5608 305.739 97.7521 305.697 97.9226 305.614C98.0949 305.53 98.2313 305.413 98.3317 305.261C98.4339 305.11 98.4851 304.932 98.4851 304.727C98.4851 304.472 98.3961 304.255 98.218 304.077C98.04 303.897 97.7578 303.807 97.3714 303.807H96.0419V305.739Z" fill="#57595A"/>
<path d="M282 285H283.333H294" stroke="#363939" stroke-width="0.8" stroke-linecap="round" stroke-linejoin="round"/>
<path d="M285.333 285V283.667C285.333 283.313 285.474 282.974 285.724 282.724C285.974 282.474 286.313 282.333 286.667 282.333H289.333C289.687 282.333 290.026 282.474 290.276 282.724C290.526 282.974 290.667 283.313 290.667 283.667V285M292.667 285V294.333C292.667 294.687 292.526 295.026 292.276 295.276C292.026 295.526 291.687 295.667 291.333 295.667H284.667C284.313 295.667 283.974 295.526 283.724 295.276C283.474 295.026 283.333 294.687 283.333 294.333V285H292.667Z" stroke="#363939" stroke-width="0.8" stroke-linecap="round" stroke-linejoin="round"/>
<path d="M286.667 288.333V292.333" stroke="#363939" stroke-width="0.8" stroke-linecap="round" stroke-linejoin="round"/>
<path d="M289.333 288.333V292.333" stroke="#363939" stroke-width="0.8" stroke-linecap="round" stroke-linejoin="round"/>
<rect x="67" y="322" width="201" height="8" rx="4" fill="#F6F6F6"/>
<rect x="67" y="322" width="60" height="8" rx="4" fill="#000B44"/>
<path d="M277.771 329.08C277.396 329.08 277.062 329.015 276.768 328.886C276.477 328.758 276.245 328.579 276.072 328.349C275.902 328.118 275.809 327.85 275.794 327.545H276.51C276.525 327.733 276.589 327.895 276.703 328.031C276.817 328.166 276.965 328.27 277.149 328.344C277.333 328.418 277.536 328.455 277.76 328.455C278.01 328.455 278.232 328.411 278.425 328.324C278.618 328.237 278.769 328.116 278.879 327.96C278.989 327.805 279.044 327.625 279.044 327.42C279.044 327.206 278.991 327.018 278.885 326.855C278.779 326.69 278.624 326.562 278.419 326.469C278.214 326.376 277.964 326.33 277.669 326.33H277.203V325.705H277.669C277.9 325.705 278.103 325.663 278.277 325.58C278.453 325.496 278.59 325.379 278.689 325.227C278.789 325.076 278.839 324.898 278.839 324.693C278.839 324.496 278.796 324.325 278.709 324.179C278.622 324.033 278.499 323.92 278.339 323.838C278.182 323.757 277.997 323.716 277.783 323.716C277.582 323.716 277.393 323.753 277.214 323.827C277.038 323.899 276.894 324.004 276.783 324.142C276.671 324.278 276.61 324.443 276.601 324.636H275.919C275.93 324.331 276.022 324.064 276.195 323.835C276.367 323.604 276.592 323.424 276.871 323.295C277.151 323.167 277.459 323.102 277.794 323.102C278.154 323.102 278.463 323.175 278.72 323.321C278.978 323.465 279.176 323.655 279.314 323.892C279.452 324.129 279.521 324.384 279.521 324.659C279.521 324.987 279.435 325.266 279.263 325.497C279.092 325.728 278.86 325.888 278.567 325.977V326.023C278.934 326.083 279.221 326.24 279.428 326.491C279.634 326.741 279.737 327.051 279.737 327.42C279.737 327.737 279.651 328.021 279.479 328.273C279.308 328.523 279.075 328.72 278.78 328.864C278.484 329.008 278.148 329.08 277.771 329.08ZM282.797 329.08C282.369 329.08 282.004 328.963 281.703 328.73C281.402 328.495 281.172 328.155 281.013 327.71C280.854 327.263 280.774 326.723 280.774 326.091C280.774 325.462 280.854 324.925 281.013 324.48C281.174 324.033 281.405 323.692 281.706 323.457C282.009 323.221 282.373 323.102 282.797 323.102C283.221 323.102 283.584 323.221 283.885 323.457C284.188 323.692 284.419 324.033 284.578 324.48C284.739 324.925 284.82 325.462 284.82 326.091C284.82 326.723 284.74 327.263 284.581 327.71C284.422 328.155 284.192 328.495 283.891 328.73C283.589 328.963 283.225 329.08 282.797 329.08ZM282.797 328.455C283.221 328.455 283.551 328.25 283.786 327.841C284.02 327.432 284.138 326.848 284.138 326.091C284.138 325.587 284.084 325.158 283.976 324.804C283.87 324.45 283.716 324.18 283.516 323.994C283.317 323.809 283.077 323.716 282.797 323.716C282.376 323.716 282.048 323.923 281.811 324.338C281.574 324.751 281.456 325.335 281.456 326.091C281.456 326.595 281.509 327.023 281.615 327.375C281.721 327.727 281.874 327.995 282.072 328.179C282.273 328.363 282.515 328.455 282.797 328.455ZM288.865 327.909V327.602C288.865 327.39 288.909 327.196 288.996 327.02C289.085 326.842 289.214 326.7 289.382 326.594C289.553 326.486 289.759 326.432 290.001 326.432C290.248 326.432 290.454 326.486 290.621 326.594C290.787 326.7 290.913 326.842 290.999 327.02C291.084 327.196 291.126 327.39 291.126 327.602V327.909C291.126 328.121 291.083 328.316 290.996 328.494C290.911 328.67 290.784 328.812 290.615 328.92C290.448 329.027 290.244 329.08 290.001 329.08C289.755 329.08 289.548 329.027 289.379 328.92C289.211 328.812 289.083 328.67 288.996 328.494C288.909 328.316 288.865 328.121 288.865 327.909ZM289.445 327.602V327.909C289.445 328.085 289.486 328.243 289.57 328.384C289.653 328.522 289.797 328.591 290.001 328.591C290.2 328.591 290.34 328.522 290.422 328.384C290.505 328.243 290.547 328.085 290.547 327.909V327.602C290.547 327.426 290.507 327.269 290.428 327.131C290.348 326.991 290.206 326.92 290.001 326.92C289.803 326.92 289.66 326.991 289.572 327.131C289.487 327.269 289.445 327.426 289.445 327.602ZM285.967 324.58V324.273C285.967 324.061 286.011 323.866 286.098 323.69C286.187 323.512 286.316 323.37 286.484 323.264C286.655 323.156 286.861 323.102 287.104 323.102C287.35 323.102 287.556 323.156 287.723 323.264C287.89 323.37 288.016 323.512 288.101 323.69C288.186 323.866 288.229 324.061 288.229 324.273V324.58C288.229 324.792 288.185 324.987 288.098 325.165C288.013 325.341 287.886 325.483 287.717 325.591C287.551 325.697 287.346 325.75 287.104 325.75C286.857 325.75 286.65 325.697 286.482 325.591C286.313 325.483 286.185 325.341 286.098 325.165C286.011 324.987 285.967 324.792 285.967 324.58ZM286.547 324.273V324.58C286.547 324.756 286.589 324.914 286.672 325.054C286.755 325.192 286.899 325.261 287.104 325.261C287.303 325.261 287.443 325.192 287.524 325.054C287.607 324.914 287.649 324.756 287.649 324.58V324.273C287.649 324.097 287.609 323.939 287.53 323.801C287.45 323.661 287.308 323.591 287.104 323.591C286.905 323.591 286.762 323.661 286.675 323.801C286.589 323.939 286.547 324.097 286.547 324.273ZM286.183 329L290.183 323.182H290.831L286.831 329H286.183Z" fill="#797A7B"/>
<defs>
<clipPath id="clip0_2334_141">
<rect x="67" y="242" width="201" height="8" rx="4" fill="white"/>
</clipPath>
</defs>
</svg>
