<svg width="655" height="200" viewBox="0 0 655 200" fill="none" xmlns="http://www.w3.org/2000/svg">
<rect width="655" height="200" fill="white"/>
<rect x="15" y="24" width="304" height="152" stroke="#D2D3D3" stroke-width="0.8" stroke-linecap="round" stroke-linejoin="round" stroke-dasharray="2 4"/>
<path d="M168 88C173.523 88 178 83.5228 178 78C178 72.4772 173.523 68 168 68C162.477 68 158 72.4772 158 78C158 83.5228 162.477 88 168 88Z" stroke="#57595A" stroke-width="2" stroke-linecap="round" stroke-linejoin="round"/>
<path d="M168 74V82" stroke="#57595A" stroke-width="2" stroke-linecap="round" stroke-linejoin="round"/>
<path d="M164 78H172" stroke="#57595A" stroke-width="2" stroke-linecap="round" stroke-linejoin="round"/>
<path d="M107.455 114H104.004V103.818H107.524C108.535 103.818 109.403 104.022 110.129 104.43C110.858 104.834 111.419 105.416 111.81 106.175C112.201 106.934 112.396 107.842 112.396 108.899C112.396 109.96 112.199 110.871 111.805 111.634C111.414 112.396 110.848 112.981 110.109 113.388C109.374 113.796 108.489 114 107.455 114ZM105.849 112.404H107.365C108.074 112.404 108.666 112.275 109.14 112.016C109.614 111.754 109.97 111.365 110.209 110.848C110.447 110.328 110.567 109.678 110.567 108.899C110.567 108.12 110.447 107.474 110.209 106.96C109.97 106.443 109.617 106.057 109.15 105.802C108.686 105.543 108.109 105.414 107.42 105.414H105.849V112.404ZM113.929 114V106.364H115.674V107.636H115.754C115.893 107.196 116.132 106.856 116.47 106.617C116.811 106.375 117.201 106.254 117.638 106.254C117.737 106.254 117.849 106.259 117.971 106.269C118.097 106.276 118.202 106.287 118.284 106.304V107.96C118.208 107.933 118.087 107.91 117.921 107.89C117.759 107.867 117.602 107.855 117.449 107.855C117.121 107.855 116.826 107.926 116.564 108.069C116.306 108.208 116.102 108.402 115.953 108.651C115.804 108.899 115.729 109.186 115.729 109.511V114H113.929ZM122.357 114.149C121.611 114.149 120.964 113.985 120.418 113.657C119.871 113.329 119.447 112.87 119.145 112.28C118.847 111.69 118.697 111 118.697 110.212C118.697 109.423 118.847 108.732 119.145 108.138C119.447 107.545 119.871 107.085 120.418 106.756C120.964 106.428 121.611 106.264 122.357 106.264C123.102 106.264 123.749 106.428 124.295 106.756C124.842 107.085 125.265 107.545 125.563 108.138C125.865 108.732 126.016 109.423 126.016 110.212C126.016 111 125.865 111.69 125.563 112.28C125.265 112.87 124.842 113.329 124.295 113.657C123.749 113.985 123.102 114.149 122.357 114.149ZM122.366 112.707C122.771 112.707 123.109 112.596 123.381 112.374C123.652 112.149 123.855 111.847 123.987 111.469C124.123 111.092 124.191 110.671 124.191 110.207C124.191 109.739 124.123 109.317 123.987 108.939C123.855 108.558 123.652 108.254 123.381 108.029C123.109 107.804 122.771 107.691 122.366 107.691C121.952 107.691 121.607 107.804 121.332 108.029C121.061 108.254 120.857 108.558 120.721 108.939C120.588 109.317 120.522 109.739 120.522 110.207C120.522 110.671 120.588 111.092 120.721 111.469C120.857 111.847 121.061 112.149 121.332 112.374C121.607 112.596 121.952 112.707 122.366 112.707ZM127.403 116.864V106.364H129.173V107.626H129.277C129.37 107.441 129.501 107.244 129.67 107.035C129.839 106.823 130.068 106.642 130.356 106.493C130.645 106.34 131.013 106.264 131.46 106.264C132.05 106.264 132.582 106.415 133.056 106.717C133.533 107.015 133.911 107.457 134.189 108.044C134.471 108.627 134.612 109.343 134.612 110.192C134.612 111.03 134.474 111.743 134.199 112.33C133.924 112.916 133.55 113.364 133.076 113.672C132.602 113.98 132.065 114.134 131.465 114.134C131.027 114.134 130.665 114.061 130.376 113.915C130.088 113.77 129.856 113.594 129.68 113.388C129.508 113.18 129.374 112.982 129.277 112.797H129.203V116.864H127.403ZM129.168 110.182C129.168 110.676 129.238 111.108 129.377 111.479C129.519 111.851 129.723 112.141 129.988 112.349C130.257 112.555 130.582 112.658 130.963 112.658C131.361 112.658 131.694 112.552 131.962 112.339C132.231 112.124 132.433 111.831 132.569 111.46C132.708 111.085 132.777 110.659 132.777 110.182C132.777 109.708 132.709 109.287 132.574 108.919C132.438 108.551 132.236 108.263 131.967 108.054C131.699 107.845 131.364 107.741 130.963 107.741C130.578 107.741 130.252 107.842 129.983 108.044C129.715 108.246 129.511 108.53 129.372 108.894C129.236 109.259 129.168 109.688 129.168 110.182ZM140.464 116.864C140.219 116.864 139.992 116.844 139.783 116.804C139.578 116.768 139.414 116.724 139.291 116.675L139.709 115.273C139.971 115.349 140.204 115.385 140.41 115.382C140.615 115.379 140.796 115.314 140.952 115.188C141.111 115.066 141.245 114.86 141.354 114.572L141.508 114.159L138.739 106.364H140.648L142.408 112.131H142.488L144.253 106.364H146.167L143.109 114.925C142.967 115.329 142.778 115.675 142.543 115.964C142.307 116.255 142.019 116.478 141.677 116.63C141.339 116.786 140.935 116.864 140.464 116.864ZM150.343 114.149C149.598 114.149 148.951 113.985 148.404 113.657C147.858 113.329 147.433 112.87 147.132 112.28C146.833 111.69 146.684 111 146.684 110.212C146.684 109.423 146.833 108.732 147.132 108.138C147.433 107.545 147.858 107.085 148.404 106.756C148.951 106.428 149.598 106.264 150.343 106.264C151.089 106.264 151.735 106.428 152.282 106.756C152.829 107.085 153.252 107.545 153.55 108.138C153.852 108.732 154.003 109.423 154.003 110.212C154.003 111 153.852 111.69 153.55 112.28C153.252 112.87 152.829 113.329 152.282 113.657C151.735 113.985 151.089 114.149 150.343 114.149ZM150.353 112.707C150.758 112.707 151.096 112.596 151.368 112.374C151.639 112.149 151.842 111.847 151.974 111.469C152.11 111.092 152.178 110.671 152.178 110.207C152.178 109.739 152.11 109.317 151.974 108.939C151.842 108.558 151.639 108.254 151.368 108.029C151.096 107.804 150.758 107.691 150.353 107.691C149.939 107.691 149.594 107.804 149.319 108.029C149.047 108.254 148.844 108.558 148.708 108.939C148.575 109.317 148.509 109.739 148.509 110.207C148.509 110.671 148.575 111.092 148.708 111.469C148.844 111.847 149.047 112.149 149.319 112.374C149.594 112.596 149.939 112.707 150.353 112.707ZM160.257 110.788V106.364H162.057V114H160.312V112.643H160.232C160.06 113.07 159.777 113.42 159.382 113.692C158.991 113.964 158.509 114.099 157.935 114.099C157.435 114.099 156.993 113.988 156.608 113.766C156.227 113.541 155.929 113.214 155.713 112.787C155.498 112.356 155.39 111.836 155.39 111.226V106.364H157.19V110.947C157.19 111.431 157.322 111.816 157.587 112.101C157.853 112.386 158.201 112.528 158.632 112.528C158.897 112.528 159.154 112.464 159.402 112.335C159.651 112.205 159.855 112.013 160.014 111.758C160.176 111.499 160.257 111.176 160.257 110.788ZM163.768 114V106.364H165.513V107.636H165.592C165.731 107.196 165.97 106.856 166.308 106.617C166.649 106.375 167.039 106.254 167.476 106.254C167.576 106.254 167.687 106.259 167.81 106.269C167.935 106.276 168.04 106.287 168.123 106.304V107.96C168.046 107.933 167.926 107.91 167.76 107.89C167.597 107.867 167.44 107.855 167.287 107.855C166.959 107.855 166.664 107.926 166.403 108.069C166.144 108.208 165.94 108.402 165.791 108.651C165.642 108.899 165.567 109.186 165.567 109.511V114H163.768ZM176.379 106.364V107.756H171.865V106.364H176.379ZM172.993 114V105.643C172.993 105.129 173.099 104.701 173.311 104.36C173.527 104.019 173.815 103.763 174.177 103.594C174.538 103.425 174.939 103.341 175.38 103.341C175.691 103.341 175.968 103.366 176.21 103.415C176.452 103.465 176.631 103.51 176.747 103.55L176.389 104.942C176.313 104.919 176.217 104.895 176.101 104.872C175.985 104.846 175.855 104.832 175.713 104.832C175.378 104.832 175.141 104.914 175.002 105.076C174.866 105.235 174.798 105.464 174.798 105.762V114H172.993ZM177.648 114V106.364H179.448V114H177.648ZM178.553 105.28C178.268 105.28 178.023 105.185 177.817 104.996C177.612 104.804 177.509 104.574 177.509 104.305C177.509 104.034 177.612 103.803 177.817 103.614C178.023 103.422 178.268 103.326 178.553 103.326C178.842 103.326 179.087 103.422 179.289 103.614C179.495 103.803 179.597 104.034 179.597 104.305C179.597 104.574 179.495 104.804 179.289 104.996C179.087 105.185 178.842 105.28 178.553 105.28ZM182.958 103.818V114H181.159V103.818H182.958ZM188.05 114.149C187.284 114.149 186.623 113.99 186.066 113.672C185.513 113.35 185.087 112.896 184.788 112.31C184.49 111.72 184.341 111.025 184.341 110.227C184.341 109.441 184.49 108.752 184.788 108.158C185.09 107.562 185.511 107.098 186.051 106.766C186.592 106.432 187.226 106.264 187.955 106.264C188.426 106.264 188.87 106.34 189.288 106.493C189.709 106.642 190.08 106.874 190.401 107.189C190.726 107.504 190.981 107.905 191.167 108.392C191.353 108.876 191.445 109.453 191.445 110.122V110.674H185.186V109.461H189.72C189.717 109.116 189.642 108.81 189.497 108.541C189.351 108.269 189.147 108.056 188.885 107.9C188.627 107.744 188.325 107.666 187.98 107.666C187.612 107.666 187.289 107.756 187.011 107.935C186.732 108.11 186.515 108.342 186.36 108.631C186.207 108.916 186.129 109.229 186.126 109.57V110.629C186.126 111.073 186.207 111.455 186.369 111.773C186.532 112.088 186.759 112.33 187.051 112.499C187.342 112.664 187.684 112.747 188.075 112.747C188.337 112.747 188.574 112.711 188.786 112.638C188.998 112.562 189.182 112.451 189.337 112.305C189.493 112.159 189.611 111.978 189.69 111.763L191.371 111.952C191.265 112.396 191.063 112.784 190.764 113.115C190.469 113.443 190.092 113.698 189.631 113.881C189.17 114.06 188.643 114.149 188.05 114.149ZM198.864 108.382L197.223 108.561C197.176 108.395 197.095 108.24 196.979 108.094C196.867 107.948 196.714 107.83 196.522 107.741C196.33 107.651 196.094 107.607 195.816 107.607C195.441 107.607 195.127 107.688 194.871 107.85C194.619 108.013 194.495 108.223 194.498 108.482C194.495 108.704 194.576 108.884 194.742 109.023C194.911 109.163 195.19 109.277 195.577 109.366L196.88 109.645C197.602 109.801 198.139 110.048 198.491 110.386C198.845 110.724 199.024 111.166 199.028 111.713C199.024 112.194 198.883 112.618 198.605 112.986C198.33 113.35 197.947 113.635 197.457 113.841C196.966 114.046 196.403 114.149 195.766 114.149C194.832 114.149 194.079 113.954 193.509 113.562C192.939 113.168 192.599 112.62 192.49 111.917L194.245 111.748C194.324 112.093 194.493 112.353 194.752 112.528C195.011 112.704 195.347 112.792 195.761 112.792C196.189 112.792 196.532 112.704 196.79 112.528C197.052 112.353 197.183 112.136 197.183 111.877C197.183 111.658 197.099 111.478 196.93 111.335C196.764 111.193 196.505 111.083 196.154 111.007L194.851 110.734C194.119 110.581 193.577 110.324 193.226 109.963C192.874 109.598 192.7 109.138 192.704 108.581C192.7 108.11 192.828 107.703 193.087 107.358C193.348 107.01 193.711 106.741 194.175 106.553C194.643 106.36 195.181 106.264 195.791 106.264C196.686 106.264 197.39 106.455 197.904 106.836C198.421 107.217 198.741 107.732 198.864 108.382ZM205.504 109.526V114H203.704V103.818H205.464V107.661H205.554C205.733 107.23 206.009 106.891 206.384 106.642C206.762 106.39 207.242 106.264 207.826 106.264C208.356 106.264 208.818 106.375 209.213 106.597C209.607 106.819 209.912 107.144 210.128 107.572C210.346 107.999 210.456 108.521 210.456 109.138V114H208.656V109.416C208.656 108.902 208.523 108.503 208.258 108.218C207.996 107.93 207.628 107.786 207.155 107.786C206.836 107.786 206.551 107.855 206.299 107.994C206.051 108.13 205.855 108.327 205.713 108.586C205.574 108.844 205.504 109.158 205.504 109.526ZM215.531 114.149C214.765 114.149 214.104 113.99 213.547 113.672C212.994 113.35 212.568 112.896 212.27 112.31C211.971 111.72 211.822 111.025 211.822 110.227C211.822 109.441 211.971 108.752 212.27 108.158C212.571 107.562 212.992 107.098 213.532 106.766C214.073 106.432 214.707 106.264 215.436 106.264C215.907 106.264 216.351 106.34 216.769 106.493C217.19 106.642 217.561 106.874 217.882 107.189C218.207 107.504 218.462 107.905 218.648 108.392C218.834 108.876 218.926 109.453 218.926 110.122V110.674H212.667V109.461H217.201C217.198 109.116 217.123 108.81 216.978 108.541C216.832 108.269 216.628 108.056 216.366 107.9C216.108 107.744 215.806 107.666 215.461 107.666C215.093 107.666 214.77 107.756 214.492 107.935C214.213 108.11 213.996 108.342 213.841 108.631C213.688 108.916 213.61 109.229 213.607 109.57V110.629C213.607 111.073 213.688 111.455 213.85 111.773C214.013 112.088 214.24 112.33 214.532 112.499C214.823 112.664 215.165 112.747 215.556 112.747C215.818 112.747 216.055 112.711 216.267 112.638C216.479 112.562 216.663 112.451 216.819 112.305C216.974 112.159 217.092 111.978 217.171 111.763L218.852 111.952C218.746 112.396 218.544 112.784 218.245 113.115C217.95 113.443 217.573 113.698 217.112 113.881C216.651 114.06 216.124 114.149 215.531 114.149ZM220.309 114V106.364H222.054V107.636H222.134C222.273 107.196 222.511 106.856 222.849 106.617C223.191 106.375 223.58 106.254 224.018 106.254C224.117 106.254 224.228 106.259 224.351 106.269C224.477 106.276 224.581 106.287 224.664 106.304V107.96C224.588 107.933 224.467 107.91 224.301 107.89C224.139 107.867 223.981 107.855 223.829 107.855C223.501 107.855 223.206 107.926 222.944 108.069C222.685 108.208 222.482 108.402 222.332 108.651C222.183 108.899 222.109 109.186 222.109 109.511V114H220.309ZM228.786 114.149C228.02 114.149 227.359 113.99 226.802 113.672C226.249 113.35 225.823 112.896 225.525 112.31C225.226 111.72 225.077 111.025 225.077 110.227C225.077 109.441 225.226 108.752 225.525 108.158C225.826 107.562 226.247 107.098 226.787 106.766C227.328 106.432 227.962 106.264 228.692 106.264C229.162 106.264 229.606 106.34 230.024 106.493C230.445 106.642 230.816 106.874 231.138 107.189C231.462 107.504 231.718 107.905 231.903 108.392C232.089 108.876 232.182 109.453 232.182 110.122V110.674H225.922V109.461H230.456C230.453 109.116 230.379 108.81 230.233 108.541C230.087 108.269 229.883 108.056 229.621 107.9C229.363 107.744 229.061 107.666 228.716 107.666C228.349 107.666 228.025 107.756 227.747 107.935C227.469 108.11 227.251 108.342 227.096 108.631C226.943 108.916 226.865 109.229 226.862 109.57V110.629C226.862 111.073 226.943 111.455 227.106 111.773C227.268 112.088 227.495 112.33 227.787 112.499C228.078 112.664 228.42 112.747 228.811 112.747C229.073 112.747 229.31 112.711 229.522 112.638C229.734 112.562 229.918 112.451 230.074 112.305C230.229 112.159 230.347 111.978 230.427 111.763L232.107 111.952C232.001 112.396 231.799 112.784 231.501 113.115C231.206 113.443 230.828 113.698 230.367 113.881C229.906 114.06 229.379 114.149 228.786 114.149Z" fill="#363939"/>
<path d="M109.205 132V126.182H111.239C111.644 126.182 111.978 126.252 112.241 126.392C112.505 126.53 112.701 126.717 112.83 126.952C112.958 127.185 113.023 127.443 113.023 127.727C113.023 127.977 112.978 128.184 112.889 128.347C112.802 128.509 112.687 128.638 112.543 128.733C112.401 128.828 112.246 128.898 112.08 128.943V129C112.258 129.011 112.437 129.074 112.616 129.188C112.796 129.301 112.947 129.464 113.068 129.676C113.189 129.888 113.25 130.148 113.25 130.455C113.25 130.746 113.184 131.009 113.051 131.241C112.919 131.474 112.709 131.659 112.423 131.795C112.137 131.932 111.765 132 111.307 132H109.205ZM109.909 131.375H111.307C111.767 131.375 112.094 131.286 112.287 131.108C112.482 130.928 112.58 130.71 112.58 130.455C112.58 130.258 112.529 130.076 112.429 129.909C112.329 129.741 112.186 129.606 112 129.506C111.814 129.403 111.595 129.352 111.341 129.352H109.909V131.375ZM109.909 128.739H111.216C111.428 128.739 111.619 128.697 111.79 128.614C111.962 128.53 112.098 128.413 112.199 128.261C112.301 128.11 112.352 127.932 112.352 127.727C112.352 127.472 112.263 127.255 112.085 127.077C111.907 126.897 111.625 126.807 111.239 126.807H109.909V128.739ZM114.317 132V127.636H114.964V128.295H115.01C115.089 128.08 115.233 127.904 115.442 127.77C115.65 127.635 115.885 127.568 116.146 127.568C116.196 127.568 116.257 127.569 116.331 127.571C116.405 127.573 116.461 127.576 116.499 127.58V128.261C116.476 128.256 116.424 128.247 116.342 128.236C116.263 128.223 116.179 128.216 116.089 128.216C115.877 128.216 115.688 128.26 115.521 128.349C115.357 128.437 115.226 128.558 115.129 128.713C115.035 128.866 114.987 129.042 114.987 129.239V132H114.317ZM118.933 132.091C118.539 132.091 118.194 131.997 117.896 131.81C117.601 131.622 117.37 131.36 117.203 131.023C117.038 130.686 116.956 130.292 116.956 129.841C116.956 129.386 117.038 128.99 117.203 128.651C117.37 128.312 117.601 128.048 117.896 127.861C118.194 127.673 118.539 127.58 118.933 127.58C119.327 127.58 119.672 127.673 119.967 127.861C120.265 128.048 120.496 128.312 120.661 128.651C120.827 128.99 120.911 129.386 120.911 129.841C120.911 130.292 120.827 130.686 120.661 131.023C120.496 131.36 120.265 131.622 119.967 131.81C119.672 131.997 119.327 132.091 118.933 132.091ZM118.933 131.489C119.232 131.489 119.479 131.412 119.672 131.259C119.865 131.105 120.008 130.903 120.101 130.653C120.194 130.403 120.24 130.133 120.24 129.841C120.24 129.549 120.194 129.277 120.101 129.026C120.008 128.774 119.865 128.57 119.672 128.415C119.479 128.259 119.232 128.182 118.933 128.182C118.634 128.182 118.388 128.259 118.195 128.415C118.001 128.57 117.858 128.774 117.766 129.026C117.673 129.277 117.626 129.549 117.626 129.841C117.626 130.133 117.673 130.403 117.766 130.653C117.858 130.903 118.001 131.105 118.195 131.259C118.388 131.412 118.634 131.489 118.933 131.489ZM122.774 132L121.445 127.636H122.149L123.092 130.977H123.138L124.07 127.636H124.786L125.706 130.966H125.751L126.695 127.636H127.399L126.07 132H125.411L124.456 128.648H124.388L123.433 132H122.774ZM131.376 128.614L130.774 128.784C130.736 128.684 130.68 128.586 130.607 128.491C130.535 128.395 130.436 128.315 130.311 128.253C130.186 128.19 130.026 128.159 129.831 128.159C129.564 128.159 129.341 128.221 129.163 128.344C128.987 128.465 128.899 128.619 128.899 128.807C128.899 128.973 128.96 129.105 129.081 129.202C129.202 129.298 129.392 129.379 129.649 129.443L130.297 129.602C130.687 129.697 130.978 129.842 131.169 130.037C131.36 130.23 131.456 130.479 131.456 130.784C131.456 131.034 131.384 131.258 131.24 131.455C131.098 131.652 130.899 131.807 130.643 131.92C130.388 132.034 130.09 132.091 129.751 132.091C129.306 132.091 128.938 131.994 128.646 131.801C128.355 131.608 128.17 131.326 128.092 130.955L128.729 130.795C128.789 131.03 128.904 131.206 129.072 131.324C129.243 131.441 129.465 131.5 129.74 131.5C130.053 131.5 130.301 131.434 130.484 131.301C130.67 131.167 130.763 131.006 130.763 130.818C130.763 130.667 130.71 130.54 130.604 130.438C130.498 130.333 130.335 130.256 130.115 130.205L129.388 130.034C128.988 129.939 128.695 129.793 128.507 129.594C128.321 129.393 128.229 129.142 128.229 128.841C128.229 128.595 128.298 128.377 128.436 128.188C128.576 127.998 128.767 127.849 129.007 127.741C129.25 127.634 129.524 127.58 129.831 127.58C130.263 127.58 130.602 127.674 130.848 127.864C131.096 128.053 131.272 128.303 131.376 128.614ZM134.295 132.091C133.874 132.091 133.512 131.998 133.207 131.812C132.904 131.625 132.67 131.364 132.505 131.028C132.342 130.691 132.261 130.299 132.261 129.852C132.261 129.405 132.342 129.011 132.505 128.67C132.67 128.328 132.899 128.061 133.192 127.869C133.488 127.676 133.833 127.58 134.227 127.58C134.454 127.58 134.678 127.617 134.9 127.693C135.121 127.769 135.323 127.892 135.505 128.062C135.687 128.231 135.832 128.455 135.94 128.733C136.048 129.011 136.102 129.354 136.102 129.761V130.045H132.738V129.466H135.42C135.42 129.22 135.371 129 135.272 128.807C135.175 128.614 135.037 128.461 134.857 128.349C134.679 128.238 134.469 128.182 134.227 128.182C133.96 128.182 133.728 128.248 133.533 128.381C133.34 128.511 133.192 128.682 133.087 128.892C132.983 129.102 132.931 129.328 132.931 129.568V129.955C132.931 130.284 132.988 130.563 133.102 130.793C133.217 131.02 133.377 131.193 133.582 131.312C133.786 131.43 134.024 131.489 134.295 131.489C134.471 131.489 134.63 131.464 134.772 131.415C134.916 131.364 135.04 131.288 135.144 131.188C135.248 131.085 135.329 130.958 135.386 130.807L136.033 130.989C135.965 131.208 135.851 131.402 135.69 131.568C135.529 131.733 135.33 131.862 135.093 131.955C134.856 132.045 134.59 132.091 134.295 132.091ZM141.315 127.636V128.205H138.962V127.636H141.315ZM139.667 132V127.034C139.667 126.784 139.726 126.576 139.843 126.409C139.96 126.242 140.113 126.117 140.3 126.034C140.488 125.951 140.686 125.909 140.894 125.909C141.059 125.909 141.193 125.922 141.298 125.949C141.402 125.975 141.479 126 141.531 126.023L141.337 126.602C141.303 126.591 141.256 126.577 141.195 126.56C141.137 126.543 141.059 126.534 140.962 126.534C140.741 126.534 140.581 126.59 140.482 126.702C140.386 126.813 140.337 126.977 140.337 127.193V132H139.667ZM142.254 132V127.636H142.925V132H142.254ZM142.595 126.909C142.464 126.909 142.352 126.865 142.257 126.776C142.164 126.687 142.118 126.58 142.118 126.455C142.118 126.33 142.164 126.223 142.257 126.134C142.352 126.045 142.464 126 142.595 126C142.726 126 142.838 126.045 142.93 126.134C143.025 126.223 143.072 126.33 143.072 126.455C143.072 126.58 143.025 126.687 142.93 126.776C142.838 126.865 142.726 126.909 142.595 126.909ZM144.823 126.182V132H144.153V126.182H144.823ZM147.881 132.091C147.46 132.091 147.098 131.998 146.793 131.812C146.49 131.625 146.256 131.364 146.091 131.028C145.928 130.691 145.847 130.299 145.847 129.852C145.847 129.405 145.928 129.011 146.091 128.67C146.256 128.328 146.485 128.061 146.778 127.869C147.074 127.676 147.419 127.58 147.812 127.58C148.04 127.58 148.264 127.617 148.486 127.693C148.707 127.769 148.909 127.892 149.091 128.062C149.273 128.231 149.418 128.455 149.526 128.733C149.634 129.011 149.688 129.354 149.688 129.761V130.045H146.324V129.466H149.006C149.006 129.22 148.956 129 148.858 128.807C148.761 128.614 148.623 128.461 148.443 128.349C148.265 128.238 148.055 128.182 147.812 128.182C147.545 128.182 147.314 128.248 147.119 128.381C146.926 128.511 146.777 128.682 146.673 128.892C146.569 129.102 146.517 129.328 146.517 129.568V129.955C146.517 130.284 146.574 130.563 146.688 130.793C146.803 131.02 146.963 131.193 147.168 131.312C147.372 131.43 147.61 131.489 147.881 131.489C148.057 131.489 148.216 131.464 148.358 131.415C148.502 131.364 148.626 131.288 148.73 131.188C148.834 131.085 148.915 130.958 148.972 130.807L149.619 130.989C149.551 131.208 149.437 131.402 149.276 131.568C149.115 131.733 148.916 131.862 148.679 131.955C148.442 132.045 148.176 132.091 147.881 132.091Z" fill="#1681EC"/>
<path d="M154.901 127.636V128.205H152.548V127.636H154.901ZM153.253 132V127.034C153.253 126.784 153.312 126.576 153.429 126.409C153.546 126.242 153.699 126.117 153.886 126.034C154.074 125.951 154.272 125.909 154.48 125.909C154.645 125.909 154.779 125.922 154.884 125.949C154.988 125.975 155.065 126 155.116 126.023L154.923 126.602C154.889 126.591 154.842 126.577 154.781 126.56C154.723 126.543 154.645 126.534 154.548 126.534C154.327 126.534 154.167 126.59 154.068 126.702C153.972 126.813 153.923 126.977 153.923 127.193V132H153.253ZM155.84 132V127.636H156.488V128.295H156.533C156.613 128.08 156.757 127.904 156.965 127.77C157.174 127.635 157.408 127.568 157.67 127.568C157.719 127.568 157.781 127.569 157.854 127.571C157.928 127.573 157.984 127.576 158.022 127.58V128.261C157.999 128.256 157.947 128.247 157.866 128.236C157.786 128.223 157.702 128.216 157.613 128.216C157.401 128.216 157.211 128.26 157.045 128.349C156.88 128.437 156.749 128.558 156.653 128.713C156.558 128.866 156.511 129.042 156.511 129.239V132H155.84ZM160.457 132.091C160.063 132.091 159.717 131.997 159.42 131.81C159.124 131.622 158.893 131.36 158.727 131.023C158.562 130.686 158.479 130.292 158.479 129.841C158.479 129.386 158.562 128.99 158.727 128.651C158.893 128.312 159.124 128.048 159.42 127.861C159.717 127.673 160.063 127.58 160.457 127.58C160.851 127.58 161.195 127.673 161.491 127.861C161.788 128.048 162.019 128.312 162.184 128.651C162.351 128.99 162.434 129.386 162.434 129.841C162.434 130.292 162.351 130.686 162.184 131.023C162.019 131.36 161.788 131.622 161.491 131.81C161.195 131.997 160.851 132.091 160.457 132.091ZM160.457 131.489C160.756 131.489 161.002 131.412 161.195 131.259C161.388 131.105 161.531 130.903 161.624 130.653C161.717 130.403 161.763 130.133 161.763 129.841C161.763 129.549 161.717 129.277 161.624 129.026C161.531 128.774 161.388 128.57 161.195 128.415C161.002 128.259 160.756 128.182 160.457 128.182C160.157 128.182 159.911 128.259 159.718 128.415C159.525 128.57 159.382 128.774 159.289 129.026C159.196 129.277 159.15 129.549 159.15 129.841C159.15 130.133 159.196 130.403 159.289 130.653C159.382 130.903 159.525 131.105 159.718 131.259C159.911 131.412 160.157 131.489 160.457 131.489ZM163.457 132V127.636H164.105V128.318H164.162C164.253 128.085 164.4 127.904 164.602 127.776C164.805 127.645 165.048 127.58 165.332 127.58C165.62 127.58 165.86 127.645 166.051 127.776C166.244 127.904 166.395 128.085 166.503 128.318H166.548C166.66 128.093 166.828 127.914 167.051 127.781C167.275 127.647 167.543 127.58 167.855 127.58C168.245 127.58 168.564 127.702 168.812 127.946C169.061 128.188 169.185 128.566 169.185 129.08V132H168.514V129.08C168.514 128.758 168.426 128.527 168.25 128.389C168.074 128.251 167.866 128.182 167.628 128.182C167.321 128.182 167.083 128.275 166.915 128.46C166.746 128.644 166.662 128.877 166.662 129.159V132H165.98V129.011C165.98 128.763 165.9 128.563 165.739 128.412C165.578 128.259 165.37 128.182 165.116 128.182C164.942 128.182 164.779 128.228 164.628 128.321C164.478 128.414 164.357 128.543 164.264 128.707C164.173 128.87 164.128 129.059 164.128 129.273V132H163.457ZM173.092 133.636C172.979 133.636 172.877 133.627 172.788 133.608C172.699 133.591 172.638 133.574 172.604 133.557L172.774 132.966C172.937 133.008 173.081 133.023 173.206 133.011C173.331 133 173.442 132.944 173.538 132.844C173.637 132.745 173.727 132.585 173.808 132.364L173.933 132.023L172.32 127.636H173.047L174.251 131.114H174.297L175.501 127.636H176.229L174.376 132.636C174.293 132.862 174.19 133.048 174.067 133.196C173.944 133.346 173.801 133.456 173.638 133.528C173.477 133.6 173.295 133.636 173.092 133.636ZM178.73 132.091C178.336 132.091 177.991 131.997 177.693 131.81C177.398 131.622 177.167 131.36 177 131.023C176.835 130.686 176.753 130.292 176.753 129.841C176.753 129.386 176.835 128.99 177 128.651C177.167 128.312 177.398 128.048 177.693 127.861C177.991 127.673 178.336 127.58 178.73 127.58C179.124 127.58 179.469 127.673 179.764 127.861C180.062 128.048 180.293 128.312 180.457 128.651C180.624 128.99 180.707 129.386 180.707 129.841C180.707 130.292 180.624 130.686 180.457 131.023C180.293 131.36 180.062 131.622 179.764 131.81C179.469 131.997 179.124 132.091 178.73 132.091ZM178.73 131.489C179.029 131.489 179.276 131.412 179.469 131.259C179.662 131.105 179.805 130.903 179.898 130.653C179.991 130.403 180.037 130.133 180.037 129.841C180.037 129.549 179.991 129.277 179.898 129.026C179.805 128.774 179.662 128.57 179.469 128.415C179.276 128.259 179.029 128.182 178.73 128.182C178.431 128.182 178.185 128.259 177.991 128.415C177.798 128.57 177.655 128.774 177.562 129.026C177.47 129.277 177.423 129.549 177.423 129.841C177.423 130.133 177.47 130.403 177.562 130.653C177.655 130.903 177.798 131.105 177.991 131.259C178.185 131.412 178.431 131.489 178.73 131.489ZM184.481 130.216V127.636H185.151V132H184.481V131.261H184.435C184.333 131.483 184.174 131.671 183.958 131.827C183.742 131.98 183.469 132.057 183.14 132.057C182.867 132.057 182.625 131.997 182.413 131.878C182.201 131.757 182.034 131.575 181.913 131.332C181.791 131.088 181.731 130.78 181.731 130.409V127.636H182.401V130.364C182.401 130.682 182.49 130.936 182.668 131.125C182.848 131.314 183.077 131.409 183.356 131.409C183.522 131.409 183.692 131.366 183.864 131.281C184.039 131.196 184.184 131.065 184.302 130.889C184.421 130.713 184.481 130.489 184.481 130.216ZM186.379 132V127.636H187.027V128.295H187.072C187.152 128.08 187.296 127.904 187.504 127.77C187.713 127.635 187.947 127.568 188.209 127.568C188.258 127.568 188.32 127.569 188.393 127.571C188.467 127.573 188.523 127.576 188.561 127.58V128.261C188.538 128.256 188.486 128.247 188.405 128.236C188.325 128.223 188.241 128.216 188.152 128.216C187.94 128.216 187.75 128.26 187.584 128.349C187.419 128.437 187.288 128.558 187.192 128.713C187.097 128.866 187.05 129.042 187.05 129.239V132H186.379ZM193.379 132.091C192.969 132.091 192.617 131.994 192.322 131.801C192.026 131.608 191.799 131.342 191.64 131.003C191.481 130.664 191.401 130.277 191.401 129.841C191.401 129.398 191.483 129.007 191.646 128.668C191.81 128.327 192.04 128.061 192.333 127.869C192.629 127.676 192.973 127.58 193.367 127.58C193.674 127.58 193.951 127.636 194.197 127.75C194.443 127.864 194.645 128.023 194.802 128.227C194.959 128.432 195.057 128.67 195.094 128.943H194.424C194.373 128.744 194.259 128.568 194.083 128.415C193.909 128.259 193.674 128.182 193.379 128.182C193.117 128.182 192.888 128.25 192.691 128.386C192.496 128.521 192.344 128.711 192.234 128.957C192.126 129.202 192.072 129.489 192.072 129.818C192.072 130.155 192.125 130.449 192.231 130.699C192.339 130.949 192.49 131.143 192.685 131.281C192.882 131.42 193.113 131.489 193.379 131.489C193.553 131.489 193.711 131.458 193.853 131.398C193.995 131.337 194.115 131.25 194.214 131.136C194.312 131.023 194.382 130.886 194.424 130.727H195.094C195.057 130.985 194.963 131.217 194.813 131.423C194.665 131.628 194.469 131.791 194.225 131.912C193.983 132.031 193.701 132.091 193.379 132.091ZM197.847 132.091C197.453 132.091 197.108 131.997 196.81 131.81C196.515 131.622 196.284 131.36 196.117 131.023C195.952 130.686 195.87 130.292 195.87 129.841C195.87 129.386 195.952 128.99 196.117 128.651C196.284 128.312 196.515 128.048 196.81 127.861C197.108 127.673 197.453 127.58 197.847 127.58C198.241 127.58 198.586 127.673 198.881 127.861C199.179 128.048 199.41 128.312 199.575 128.651C199.741 128.99 199.825 129.386 199.825 129.841C199.825 130.292 199.741 130.686 199.575 131.023C199.41 131.36 199.179 131.622 198.881 131.81C198.586 131.997 198.241 132.091 197.847 132.091ZM197.847 131.489C198.147 131.489 198.393 131.412 198.586 131.259C198.779 131.105 198.922 130.903 199.015 130.653C199.108 130.403 199.154 130.133 199.154 129.841C199.154 129.549 199.108 129.277 199.015 129.026C198.922 128.774 198.779 128.57 198.586 128.415C198.393 128.259 198.147 128.182 197.847 128.182C197.548 128.182 197.302 128.259 197.109 128.415C196.915 128.57 196.772 128.774 196.68 129.026C196.587 129.277 196.54 129.549 196.54 129.841C196.54 130.133 196.587 130.403 196.68 130.653C196.772 130.903 196.915 131.105 197.109 131.259C197.302 131.412 197.548 131.489 197.847 131.489ZM200.848 132V127.636H201.496V128.318H201.553C201.643 128.085 201.79 127.904 201.993 127.776C202.196 127.645 202.439 127.58 202.723 127.58C203.011 127.58 203.25 127.645 203.442 127.776C203.635 127.904 203.786 128.085 203.893 128.318H203.939C204.051 128.093 204.218 127.914 204.442 127.781C204.665 127.647 204.933 127.58 205.246 127.58C205.636 127.58 205.955 127.702 206.203 127.946C206.451 128.188 206.575 128.566 206.575 129.08V132H205.905V129.08C205.905 128.758 205.817 128.527 205.641 128.389C205.464 128.251 205.257 128.182 205.018 128.182C204.712 128.182 204.474 128.275 204.305 128.46C204.137 128.644 204.053 128.877 204.053 129.159V132H203.371V129.011C203.371 128.763 203.29 128.563 203.129 128.412C202.968 128.259 202.761 128.182 202.507 128.182C202.333 128.182 202.17 128.228 202.018 128.321C201.869 128.414 201.748 128.543 201.655 128.707C201.564 128.87 201.518 129.059 201.518 129.273V132H200.848ZM207.801 133.636V127.636H208.449V128.33H208.528C208.578 128.254 208.646 128.157 208.733 128.04C208.822 127.92 208.949 127.814 209.114 127.722C209.28 127.627 209.506 127.58 209.79 127.58C210.157 127.58 210.481 127.671 210.761 127.855C211.042 128.039 211.26 128.299 211.418 128.636C211.575 128.973 211.653 129.371 211.653 129.83C211.653 130.292 211.575 130.692 211.418 131.031C211.26 131.368 211.043 131.63 210.764 131.815C210.486 131.999 210.165 132.091 209.801 132.091C209.521 132.091 209.296 132.045 209.128 131.952C208.959 131.857 208.83 131.75 208.739 131.631C208.648 131.509 208.578 131.409 208.528 131.33H208.472V133.636H207.801ZM208.46 129.818C208.46 130.148 208.509 130.438 208.605 130.69C208.702 130.94 208.843 131.136 209.028 131.278C209.214 131.419 209.441 131.489 209.71 131.489C209.991 131.489 210.224 131.415 210.412 131.267C210.601 131.117 210.743 130.917 210.838 130.665C210.935 130.411 210.983 130.129 210.983 129.818C210.983 129.511 210.936 129.235 210.841 128.989C210.748 128.741 210.607 128.545 210.418 128.401C210.23 128.255 209.994 128.182 209.71 128.182C209.438 128.182 209.208 128.251 209.023 128.389C208.837 128.526 208.697 128.717 208.602 128.963C208.508 129.207 208.46 129.492 208.46 129.818ZM215.426 130.216V127.636H216.097V132H215.426V131.261H215.381C215.278 131.483 215.119 131.671 214.903 131.827C214.688 131.98 214.415 132.057 214.085 132.057C213.812 132.057 213.57 131.997 213.358 131.878C213.146 131.757 212.979 131.575 212.858 131.332C212.737 131.088 212.676 130.78 212.676 130.409V127.636H213.347V130.364C213.347 130.682 213.436 130.936 213.614 131.125C213.794 131.314 214.023 131.409 214.301 131.409C214.468 131.409 214.637 131.366 214.81 131.281C214.984 131.196 215.13 131.065 215.247 130.889C215.366 130.713 215.426 130.489 215.426 130.216ZM219.222 127.636V128.205H216.961V127.636H219.222ZM217.62 126.591H218.29V130.75C218.29 130.939 218.318 131.081 218.373 131.176C218.43 131.269 218.502 131.331 218.589 131.364C218.678 131.394 218.772 131.409 218.87 131.409C218.944 131.409 219.004 131.405 219.052 131.398C219.099 131.388 219.137 131.381 219.165 131.375L219.302 131.977C219.256 131.994 219.193 132.011 219.112 132.028C219.03 132.047 218.927 132.057 218.802 132.057C218.612 132.057 218.427 132.016 218.245 131.935C218.065 131.853 217.915 131.729 217.796 131.562C217.679 131.396 217.62 131.186 217.62 130.932V126.591ZM222.013 132.091C221.593 132.091 221.23 131.998 220.925 131.812C220.622 131.625 220.388 131.364 220.224 131.028C220.061 130.691 219.979 130.299 219.979 129.852C219.979 129.405 220.061 129.011 220.224 128.67C220.388 128.328 220.618 128.061 220.911 127.869C221.207 127.676 221.551 127.58 221.945 127.58C222.173 127.58 222.397 127.617 222.619 127.693C222.84 127.769 223.042 127.892 223.224 128.062C223.406 128.231 223.55 128.455 223.658 128.733C223.766 129.011 223.82 129.354 223.82 129.761V130.045H220.457V129.466H223.138C223.138 129.22 223.089 129 222.991 128.807C222.894 128.614 222.756 128.461 222.576 128.349C222.398 128.238 222.188 128.182 221.945 128.182C221.678 128.182 221.447 128.248 221.252 128.381C221.059 128.511 220.91 128.682 220.806 128.892C220.702 129.102 220.65 129.328 220.65 129.568V129.955C220.65 130.284 220.707 130.563 220.82 130.793C220.936 131.02 221.096 131.193 221.3 131.312C221.505 131.43 221.743 131.489 222.013 131.489C222.19 131.489 222.349 131.464 222.491 131.415C222.635 131.364 222.759 131.288 222.863 131.188C222.967 131.085 223.048 130.958 223.104 130.807L223.752 130.989C223.684 131.208 223.569 131.402 223.408 131.568C223.247 131.733 223.049 131.862 222.812 131.955C222.575 132.045 222.309 132.091 222.013 132.091ZM224.84 132V127.636H225.488V128.295H225.533C225.613 128.08 225.757 127.904 225.965 127.77C226.174 127.635 226.408 127.568 226.67 127.568C226.719 127.568 226.781 127.569 226.854 127.571C226.928 127.573 226.984 127.576 227.022 127.58V128.261C226.999 128.256 226.947 128.247 226.866 128.236C226.786 128.223 226.702 128.216 226.613 128.216C226.401 128.216 226.211 128.26 226.045 128.349C225.88 128.437 225.749 128.558 225.653 128.713C225.558 128.866 225.511 129.042 225.511 129.239V132H224.84Z" fill="#57595A"/>
<rect x="335.25" y="24.25" width="303.5" height="71.5" rx="4.75" stroke="#D2D3D3" stroke-width="0.5"/>
<rect x="344.15" y="33.15" width="35.7" height="35.7" rx="2.85" stroke="#D2D3D3" stroke-width="0.3"/>
<path d="M355 38.3333H363.167L371.334 46.5V59.3333C371.334 59.9522 371.088 60.5456 370.65 60.9832C370.213 61.4208 369.619 61.6666 369 61.6666H355C354.381 61.6666 353.788 61.4208 353.35 60.9832C352.913 60.5456 352.667 59.9522 352.667 59.3333V40.6666C352.667 40.0478 352.913 39.4543 353.35 39.0167C353.788 38.5791 354.381 38.3333 355 38.3333Z" stroke="#298BED" stroke-width="0.8" stroke-linecap="round" stroke-linejoin="round"/>
<path d="M363.167 38.3333V46.5H371.334" stroke="#298BED" stroke-width="0.8" stroke-linecap="round" stroke-linejoin="round"/>
<path d="M390.057 46V37.2727H391.062V40.4943H391.148C391.222 40.3807 391.324 40.2358 391.455 40.0597C391.588 39.8807 391.778 39.7216 392.026 39.5824C392.276 39.4403 392.614 39.3693 393.04 39.3693C393.591 39.3693 394.077 39.5071 394.497 39.7827C394.918 40.0582 395.246 40.4489 395.482 40.9545C395.717 41.4602 395.835 42.0568 395.835 42.7443C395.835 43.4375 395.717 44.0384 395.482 44.5469C395.246 45.0526 394.919 45.4446 394.501 45.723C394.084 45.9986 393.602 46.1364 393.057 46.1364C392.636 46.1364 392.3 46.0668 392.047 45.9276C391.794 45.7855 391.599 45.625 391.463 45.446C391.327 45.2642 391.222 45.1136 391.148 44.9943H391.028V46H390.057ZM391.045 42.7273C391.045 43.2216 391.118 43.6577 391.263 44.0355C391.408 44.4105 391.619 44.7045 391.898 44.9176C392.176 45.1278 392.517 45.233 392.92 45.233C393.341 45.233 393.692 45.1222 393.973 44.9006C394.257 44.6761 394.47 44.375 394.612 43.9972C394.757 43.6165 394.83 43.1932 394.83 42.7273C394.83 42.267 394.759 41.8523 394.616 41.483C394.477 41.1108 394.266 40.8168 393.982 40.6009C393.7 40.3821 393.347 40.2727 392.92 40.2727C392.511 40.2727 392.168 40.3764 391.889 40.5838C391.611 40.7884 391.401 41.0753 391.259 41.4446C391.116 41.8111 391.045 42.2386 391.045 42.7273ZM399.3 46.1534C398.885 46.1534 398.509 46.0753 398.17 45.919C397.832 45.7599 397.564 45.5312 397.365 45.233C397.166 44.9318 397.067 44.5682 397.067 44.142C397.067 43.767 397.141 43.4631 397.288 43.2301C397.436 42.9943 397.634 42.8097 397.881 42.6761C398.128 42.5426 398.401 42.4432 398.699 42.3778C399 42.3097 399.303 42.2557 399.607 42.2159C400.004 42.1648 400.327 42.1264 400.574 42.1009C400.824 42.0724 401.006 42.0256 401.119 41.9602C401.236 41.8949 401.294 41.7812 401.294 41.6193V41.5852C401.294 41.1648 401.179 40.8381 400.949 40.6051C400.722 40.3722 400.376 40.2557 399.913 40.2557C399.433 40.2557 399.057 40.3608 398.784 40.571C398.511 40.7812 398.32 41.0057 398.209 41.2443L397.254 40.9034C397.425 40.5057 397.652 40.196 397.936 39.9744C398.223 39.75 398.536 39.5937 398.874 39.5057C399.214 39.4148 399.55 39.3693 399.879 39.3693C400.089 39.3693 400.331 39.3949 400.604 39.446C400.879 39.4943 401.145 39.5952 401.401 39.7486C401.659 39.902 401.874 40.1335 402.044 40.4432C402.214 40.7528 402.3 41.1676 402.3 41.6875V46H401.294V45.1136H401.243C401.175 45.2557 401.061 45.4077 400.902 45.5696C400.743 45.7315 400.531 45.8693 400.267 45.983C400.003 46.0966 399.68 46.1534 399.3 46.1534ZM399.453 45.25C399.851 45.25 400.186 45.1719 400.459 45.0156C400.734 44.8594 400.942 44.6577 401.081 44.4105C401.223 44.1634 401.294 43.9034 401.294 43.6307V42.7102C401.251 42.7614 401.158 42.8082 401.013 42.8509C400.871 42.8906 400.706 42.9261 400.518 42.9574C400.334 42.9858 400.153 43.0114 399.977 43.0341C399.804 43.054 399.663 43.071 399.555 43.0852C399.294 43.1193 399.05 43.1747 398.822 43.2514C398.598 43.3253 398.416 43.4375 398.277 43.5881C398.141 43.7358 398.072 43.9375 398.072 44.1932C398.072 44.5426 398.202 44.8068 398.46 44.9858C398.722 45.1619 399.053 45.25 399.453 45.25ZM406.794 46.1364C406.181 46.1364 405.652 45.9915 405.209 45.7017C404.766 45.4119 404.425 45.0128 404.186 44.5043C403.948 43.9957 403.828 43.4148 403.828 42.7614C403.828 42.0966 403.951 41.5099 404.195 41.0014C404.442 40.4901 404.786 40.0909 405.226 39.804C405.669 39.5142 406.186 39.3693 406.777 39.3693C407.238 39.3693 407.652 39.4545 408.022 39.625C408.391 39.7955 408.694 40.0341 408.929 40.3409C409.165 40.6477 409.311 41.0057 409.368 41.4148H408.363C408.286 41.1165 408.115 40.8523 407.851 40.6222C407.59 40.3892 407.238 40.2727 406.794 40.2727C406.402 40.2727 406.059 40.375 405.763 40.5795C405.471 40.7812 405.242 41.0668 405.077 41.4361C404.915 41.8026 404.834 42.233 404.834 42.7273C404.834 43.233 404.914 43.6733 405.073 44.0483C405.235 44.4233 405.462 44.7145 405.755 44.9219C406.05 45.1293 406.397 45.233 406.794 45.233C407.056 45.233 407.293 45.1875 407.506 45.0966C407.719 45.0057 407.9 44.875 408.047 44.7045C408.195 44.5341 408.3 44.3295 408.363 44.0909H409.368C409.311 44.4773 409.171 44.8253 408.946 45.1349C408.725 45.4418 408.431 45.6861 408.064 45.8679C407.701 46.0469 407.277 46.1364 406.794 46.1364ZM411.776 43.6136L411.759 42.3693H411.963L414.827 39.4545H416.071L413.02 42.5398H412.935L411.776 43.6136ZM410.838 46V37.2727H411.844V46H410.838ZM414.998 46L412.441 42.7614L413.157 42.0625L416.276 46H414.998ZM421.491 43.3239V39.4545H422.496V46H421.491V44.892H421.423C421.269 45.2244 421.031 45.5071 420.707 45.7401C420.383 45.9702 419.974 46.0852 419.479 46.0852C419.07 46.0852 418.707 45.9957 418.388 45.8168C418.07 45.6349 417.82 45.3622 417.638 44.9986C417.457 44.6321 417.366 44.1705 417.366 43.6136V39.4545H418.371V43.5455C418.371 44.0227 418.505 44.4034 418.772 44.6875C419.042 44.9716 419.386 45.1136 419.803 45.1136C420.053 45.1136 420.308 45.0497 420.566 44.9219C420.827 44.794 421.046 44.598 421.222 44.3338C421.401 44.0696 421.491 43.733 421.491 43.3239ZM424.338 48.4545V39.4545H425.31V40.4943H425.429C425.503 40.3807 425.605 40.2358 425.736 40.0597C425.87 39.8807 426.06 39.7216 426.307 39.5824C426.557 39.4403 426.895 39.3693 427.321 39.3693C427.873 39.3693 428.358 39.5071 428.779 39.7827C429.199 40.0582 429.527 40.4489 429.763 40.9545C429.999 41.4602 430.117 42.0568 430.117 42.7443C430.117 43.4375 429.999 44.0384 429.763 44.5469C429.527 45.0526 429.201 45.4446 428.783 45.723C428.365 45.9986 427.884 46.1364 427.338 46.1364C426.918 46.1364 426.581 46.0668 426.328 45.9276C426.076 45.7855 425.881 45.625 425.745 45.446C425.608 45.2642 425.503 45.1136 425.429 44.9943H425.344V48.4545H424.338ZM425.327 42.7273C425.327 43.2216 425.4 43.6577 425.544 44.0355C425.689 44.4105 425.901 44.7045 426.179 44.9176C426.458 45.1278 426.799 45.233 427.202 45.233C427.623 45.233 427.973 45.1222 428.255 44.9006C428.539 44.6761 428.752 44.375 428.894 43.9972C429.039 43.6165 429.111 43.1932 429.111 42.7273C429.111 42.267 429.04 41.8523 428.898 41.483C428.759 41.1108 428.547 40.8168 428.263 40.6009C427.982 40.3821 427.628 40.2727 427.202 40.2727C426.793 40.2727 426.449 40.3764 426.171 40.5838C425.892 40.7884 425.682 41.0753 425.54 41.4446C425.398 41.8111 425.327 42.2386 425.327 42.7273ZM432.384 46.0682C432.174 46.0682 431.993 45.9929 431.843 45.8423C431.692 45.6918 431.617 45.5114 431.617 45.3011C431.617 45.0909 431.692 44.9105 431.843 44.7599C431.993 44.6094 432.174 44.5341 432.384 44.5341C432.594 44.5341 432.775 44.6094 432.925 44.7599C433.076 44.9105 433.151 45.0909 433.151 45.3011C433.151 45.4403 433.115 45.5682 433.044 45.6847C432.976 45.8011 432.884 45.8949 432.767 45.9659C432.654 46.0341 432.526 46.0682 432.384 46.0682ZM439.592 40.9205L438.689 41.1761C438.632 41.0256 438.548 40.8793 438.437 40.7372C438.329 40.5923 438.181 40.473 437.994 40.3793C437.806 40.2855 437.566 40.2386 437.274 40.2386C436.873 40.2386 436.539 40.331 436.272 40.5156C436.008 40.6974 435.876 40.929 435.876 41.2102C435.876 41.4602 435.967 41.6577 436.149 41.8026C436.331 41.9474 436.615 42.0682 437.001 42.1648L437.973 42.4034C438.558 42.5455 438.994 42.7628 439.281 43.0554C439.568 43.3452 439.711 43.7187 439.711 44.1761C439.711 44.5511 439.603 44.8864 439.387 45.1818C439.174 45.4773 438.876 45.7102 438.493 45.8807C438.109 46.0511 437.663 46.1364 437.154 46.1364C436.487 46.1364 435.934 45.9915 435.497 45.7017C435.059 45.4119 434.782 44.9886 434.666 44.4318L435.62 44.1932C435.711 44.5455 435.883 44.8097 436.136 44.9858C436.392 45.1619 436.725 45.25 437.137 45.25C437.606 45.25 437.978 45.1506 438.254 44.9517C438.532 44.75 438.672 44.5085 438.672 44.2273C438.672 44 438.592 43.8097 438.433 43.6562C438.274 43.5 438.029 43.3835 437.7 43.3068L436.609 43.0511C436.01 42.9091 435.569 42.6889 435.288 42.3906C435.01 42.0895 434.87 41.7131 434.87 41.2614C434.87 40.892 434.974 40.5653 435.181 40.2812C435.392 39.9972 435.677 39.7741 436.038 39.6122C436.402 39.4503 436.814 39.3693 437.274 39.3693C437.922 39.3693 438.43 39.5114 438.799 39.7955C439.172 40.0795 439.436 40.4545 439.592 40.9205ZM445.691 48.4545V44.9943H445.606C445.532 45.1136 445.427 45.2642 445.29 45.446C445.154 45.625 444.96 45.7855 444.707 45.9276C444.454 46.0668 444.117 46.1364 443.697 46.1364C443.151 46.1364 442.67 45.9986 442.252 45.723C441.835 45.4446 441.508 45.0526 441.272 44.5469C441.036 44.0384 440.918 43.4375 440.918 42.7443C440.918 42.0568 441.036 41.4602 441.272 40.9545C441.508 40.4489 441.836 40.0582 442.256 39.7827C442.677 39.5071 443.163 39.3693 443.714 39.3693C444.14 39.3693 444.477 39.4403 444.724 39.5824C444.974 39.7216 445.164 39.8807 445.295 40.0597C445.428 40.2358 445.532 40.3807 445.606 40.4943H445.725V39.4545H446.697V48.4545H445.691ZM443.833 45.233C444.237 45.233 444.577 45.1278 444.856 44.9176C445.134 44.7045 445.346 44.4105 445.491 44.0355C445.636 43.6577 445.708 43.2216 445.708 42.7273C445.708 42.2386 445.637 41.8111 445.495 41.4446C445.353 41.0753 445.143 40.7884 444.864 40.5838C444.586 40.3764 444.242 40.2727 443.833 40.2727C443.407 40.2727 443.052 40.3821 442.768 40.6009C442.487 40.8168 442.275 41.1108 442.133 41.483C441.994 41.8523 441.924 42.267 441.924 42.7273C441.924 43.1932 441.995 43.6165 442.137 43.9972C442.282 44.375 442.495 44.6761 442.776 44.9006C443.06 45.1222 443.413 45.233 443.833 45.233ZM449.543 37.2727V46H448.538V37.2727H449.543Z" fill="#363939"/>
<path d="M389.602 61V60.4886L391.523 58.3864C391.748 58.1402 391.934 57.9261 392.08 57.7443C392.225 57.5606 392.333 57.3883 392.403 57.2273C392.475 57.0644 392.511 56.8939 392.511 56.7159C392.511 56.5114 392.462 56.3343 392.364 56.1847C392.267 56.035 392.134 55.9195 391.966 55.8381C391.797 55.7566 391.608 55.7159 391.398 55.7159C391.174 55.7159 390.979 55.7623 390.812 55.8551C390.648 55.946 390.52 56.0739 390.429 56.2386C390.34 56.4034 390.295 56.5966 390.295 56.8182H389.625C389.625 56.4773 389.704 56.178 389.861 55.9205C390.018 55.6629 390.232 55.4621 390.503 55.3182C390.776 55.1742 391.081 55.1023 391.42 55.1023C391.761 55.1023 392.063 55.1742 392.327 55.3182C392.59 55.4621 392.796 55.6562 392.946 55.9006C393.096 56.1449 393.17 56.4167 393.17 56.7159C393.17 56.9299 393.132 57.1392 393.054 57.3438C392.978 57.5464 392.846 57.7727 392.656 58.0227C392.469 58.2708 392.208 58.5739 391.875 58.9318L390.568 60.3295V60.375H393.273V61H389.602ZM394.946 61.0455C394.806 61.0455 394.686 60.9953 394.585 60.8949C394.485 60.7945 394.435 60.6742 394.435 60.5341C394.435 60.3939 394.485 60.2737 394.585 60.1733C394.686 60.0729 394.806 60.0227 394.946 60.0227C395.086 60.0227 395.206 60.0729 395.307 60.1733C395.407 60.2737 395.457 60.3939 395.457 60.5341C395.457 60.6269 395.434 60.7121 395.386 60.7898C395.341 60.8674 395.279 60.9299 395.202 60.9773C395.126 61.0227 395.041 61.0455 394.946 61.0455ZM398.396 61.0795C398.021 61.0795 397.687 61.0152 397.393 60.8864C397.102 60.7576 396.87 60.5786 396.697 60.3494C396.527 60.1184 396.434 59.8504 396.419 59.5455H397.135C397.15 59.733 397.214 59.8949 397.328 60.0312C397.442 60.1657 397.59 60.2699 397.774 60.3438C397.958 60.4176 398.161 60.4545 398.385 60.4545C398.635 60.4545 398.857 60.411 399.05 60.3239C399.243 60.2367 399.394 60.1155 399.504 59.9602C399.614 59.8049 399.669 59.625 399.669 59.4205C399.669 59.2064 399.616 59.018 399.51 58.8551C399.404 58.6903 399.249 58.5616 399.044 58.4688C398.839 58.3759 398.589 58.3295 398.294 58.3295H397.828V57.7045H398.294C398.525 57.7045 398.728 57.6629 398.902 57.5795C399.078 57.4962 399.215 57.3788 399.314 57.2273C399.414 57.0758 399.464 56.8977 399.464 56.6932C399.464 56.4962 399.421 56.3248 399.334 56.179C399.247 56.0331 399.124 55.9195 398.964 55.8381C398.807 55.7566 398.622 55.7159 398.408 55.7159C398.207 55.7159 398.018 55.7528 397.839 55.8267C397.663 55.8987 397.519 56.0038 397.408 56.142C397.296 56.2784 397.235 56.4432 397.226 56.6364H396.544C396.555 56.3314 396.647 56.0644 396.82 55.8352C396.992 55.6042 397.217 55.4242 397.496 55.2955C397.776 55.1667 398.084 55.1023 398.419 55.1023C398.779 55.1023 399.088 55.1752 399.345 55.321C399.603 55.465 399.801 55.6553 399.939 55.892C400.077 56.1288 400.146 56.3845 400.146 56.6591C400.146 56.9867 400.06 57.2661 399.888 57.4972C399.717 57.7282 399.485 57.8883 399.192 57.9773V58.0227C399.559 58.0833 399.846 58.2396 400.053 58.4915C400.259 58.7415 400.362 59.0511 400.362 59.4205C400.362 59.7367 400.276 60.0208 400.104 60.2727C399.933 60.5227 399.7 60.7197 399.405 60.8636C399.109 61.0076 398.773 61.0795 398.396 61.0795ZM407.854 57C407.791 56.8087 407.709 56.6373 407.607 56.4858C407.506 56.3324 407.386 56.2017 407.246 56.0938C407.107 55.9858 406.95 55.9034 406.774 55.8466C406.598 55.7898 406.405 55.7614 406.195 55.7614C405.85 55.7614 405.536 55.8504 405.254 56.0284C404.972 56.2064 404.748 56.4688 404.581 56.8153C404.414 57.1619 404.331 57.5871 404.331 58.0909C404.331 58.5947 404.415 59.0199 404.584 59.3665C404.752 59.7131 404.981 59.9754 405.268 60.1534C405.556 60.3314 405.88 60.4205 406.24 60.4205C406.573 60.4205 406.867 60.3494 407.121 60.2074C407.376 60.0634 407.575 59.8608 407.717 59.5994C407.861 59.3362 407.933 59.0265 407.933 58.6705L408.149 58.7159H406.399V58.0909H408.615V58.7159C408.615 59.1951 408.513 59.6117 408.308 59.9659C408.106 60.3201 407.825 60.5947 407.467 60.7898C407.111 60.983 406.702 61.0795 406.24 61.0795C405.725 61.0795 405.272 60.9583 404.882 60.7159C404.494 60.4735 404.191 60.1288 403.973 59.6818C403.757 59.2348 403.649 58.7045 403.649 58.0909C403.649 57.6307 403.711 57.2169 403.834 56.8494C403.959 56.4801 404.135 56.1657 404.362 55.9062C404.589 55.6468 404.858 55.4479 405.169 55.3097C405.48 55.1714 405.821 55.1023 406.195 55.1023C406.501 55.1023 406.787 55.1487 407.053 55.2415C407.32 55.3324 407.557 55.4621 407.766 55.6307C407.976 55.7973 408.151 55.9972 408.291 56.2301C408.431 56.4612 408.528 56.7178 408.581 57H407.854ZM410.004 61V56.6364H410.675V61H410.004ZM410.345 55.9091C410.214 55.9091 410.102 55.8646 410.007 55.7756C409.914 55.6866 409.868 55.5795 409.868 55.4545C409.868 55.3295 409.914 55.2225 410.007 55.1335C410.102 55.0445 410.214 55 410.345 55C410.476 55 410.588 55.0445 410.68 55.1335C410.775 55.2225 410.822 55.3295 410.822 55.4545C410.822 55.5795 410.775 55.6866 410.68 55.7756C410.588 55.8646 410.476 55.9091 410.345 55.9091ZM411.994 61V55.1818H414.028C414.433 55.1818 414.767 55.2519 415.031 55.392C415.294 55.5303 415.49 55.7169 415.619 55.9517C415.747 56.1847 415.812 56.4432 415.812 56.7273C415.812 56.9773 415.767 57.1837 415.678 57.3466C415.591 57.5095 415.476 57.6383 415.332 57.733C415.19 57.8277 415.035 57.8977 414.869 57.9432V58C415.047 58.0114 415.226 58.0739 415.406 58.1875C415.585 58.3011 415.736 58.464 415.857 58.6761C415.978 58.8883 416.039 59.1477 416.039 59.4545C416.039 59.7462 415.973 60.0085 415.84 60.2415C415.708 60.4744 415.498 60.6591 415.212 60.7955C414.926 60.9318 414.554 61 414.096 61H411.994ZM412.698 60.375H414.096C414.556 60.375 414.883 60.286 415.076 60.108C415.271 59.928 415.369 59.7102 415.369 59.4545C415.369 59.2576 415.318 59.0758 415.218 58.9091C415.118 58.7405 414.975 58.6061 414.789 58.5057C414.603 58.4034 414.384 58.3523 414.13 58.3523H412.698V60.375ZM412.698 57.7386H414.005C414.217 57.7386 414.408 57.697 414.579 57.6136C414.751 57.5303 414.888 57.4129 414.988 57.2614C415.09 57.1098 415.141 56.9318 415.141 56.7273C415.141 56.4716 415.052 56.2547 414.874 56.0767C414.696 55.8968 414.414 55.8068 414.028 55.8068H412.698V57.7386Z" fill="#57595A"/>
<path d="M613.334 37L606 44.3333L602.667 41" stroke="#3F57FF" stroke-linecap="round" stroke-linejoin="round"/>
<g clip-path="url(#clip0_2334_141)">
<rect x="387" y="74" width="201" height="8" rx="4" fill="#F6F6F6"/>
<rect x="387" y="74" width="201" height="8" rx="4" fill="#000B44"/>
</g>
<path d="M596.038 75.1818V81H595.334V75.9205H595.3L593.879 76.8636V76.1477L595.334 75.1818H596.038ZM599.609 81.0795C599.181 81.0795 598.817 80.9631 598.516 80.7301C598.214 80.4953 597.984 80.1553 597.825 79.7102C597.666 79.2633 597.587 78.7235 597.587 78.0909C597.587 77.4621 597.666 76.9252 597.825 76.4801C597.986 76.0331 598.217 75.6922 598.518 75.4574C598.821 75.2206 599.185 75.1023 599.609 75.1023C600.034 75.1023 600.396 75.2206 600.697 75.4574C601 75.6922 601.232 76.0331 601.391 76.4801C601.552 76.9252 601.632 77.4621 601.632 78.0909C601.632 78.7235 601.553 79.2633 601.393 79.7102C601.234 80.1553 601.004 80.4953 600.703 80.7301C600.402 80.9631 600.037 81.0795 599.609 81.0795ZM599.609 80.4545C600.034 80.4545 600.363 80.25 600.598 79.8409C600.833 79.4318 600.95 78.8485 600.95 78.0909C600.95 77.5871 600.896 77.1581 600.788 76.804C600.682 76.4498 600.529 76.1799 600.328 75.9943C600.129 75.8087 599.89 75.7159 599.609 75.7159C599.189 75.7159 598.86 75.9233 598.624 76.3381C598.387 76.7509 598.268 77.3352 598.268 78.0909C598.268 78.5947 598.321 79.0227 598.428 79.375C598.534 79.7273 598.686 79.9953 598.885 80.179C599.086 80.3627 599.327 80.4545 599.609 80.4545ZM604.609 81.0795C604.181 81.0795 603.817 80.9631 603.516 80.7301C603.214 80.4953 602.984 80.1553 602.825 79.7102C602.666 79.2633 602.587 78.7235 602.587 78.0909C602.587 77.4621 602.666 76.9252 602.825 76.4801C602.986 76.0331 603.217 75.6922 603.518 75.4574C603.821 75.2206 604.185 75.1023 604.609 75.1023C605.034 75.1023 605.396 75.2206 605.697 75.4574C606 75.6922 606.232 76.0331 606.391 76.4801C606.552 76.9252 606.632 77.4621 606.632 78.0909C606.632 78.7235 606.553 79.2633 606.393 79.7102C606.234 80.1553 606.004 80.4953 605.703 80.7301C605.402 80.9631 605.037 81.0795 604.609 81.0795ZM604.609 80.4545C605.034 80.4545 605.363 80.25 605.598 79.8409C605.833 79.4318 605.95 78.8485 605.95 78.0909C605.95 77.5871 605.896 77.1581 605.788 76.804C605.682 76.4498 605.529 76.1799 605.328 75.9943C605.129 75.8087 604.89 75.7159 604.609 75.7159C604.189 75.7159 603.86 75.9233 603.624 76.3381C603.387 76.7509 603.268 77.3352 603.268 78.0909C603.268 78.5947 603.321 79.0227 603.428 79.375C603.534 79.7273 603.686 79.9953 603.885 80.179C604.086 80.3627 604.327 80.4545 604.609 80.4545ZM610.678 79.9091V79.6023C610.678 79.3902 610.721 79.196 610.808 79.0199C610.897 78.8419 611.026 78.6998 611.195 78.5938C611.365 78.4858 611.571 78.4318 611.814 78.4318C612.06 78.4318 612.267 78.4858 612.433 78.5938C612.6 78.6998 612.726 78.8419 612.811 79.0199C612.896 79.196 612.939 79.3902 612.939 79.6023V79.9091C612.939 80.1212 612.895 80.3163 612.808 80.4943C612.723 80.6705 612.596 80.8125 612.428 80.9205C612.261 81.0265 612.056 81.0795 611.814 81.0795C611.568 81.0795 611.36 81.0265 611.192 80.9205C611.023 80.8125 610.895 80.6705 610.808 80.4943C610.721 80.3163 610.678 80.1212 610.678 79.9091ZM611.257 79.6023V79.9091C611.257 80.0852 611.299 80.2434 611.382 80.3835C611.465 80.5218 611.609 80.5909 611.814 80.5909C612.013 80.5909 612.153 80.5218 612.234 80.3835C612.318 80.2434 612.359 80.0852 612.359 79.9091V79.6023C612.359 79.4261 612.32 79.2689 612.24 79.1307C612.161 78.9905 612.018 78.9205 611.814 78.9205C611.615 78.9205 611.472 78.9905 611.385 79.1307C611.3 79.2689 611.257 79.4261 611.257 79.6023ZM607.78 76.5795V76.2727C607.78 76.0606 607.823 75.8665 607.911 75.6903C608 75.5123 608.128 75.3703 608.297 75.2642C608.467 75.1562 608.674 75.1023 608.916 75.1023C609.162 75.1023 609.369 75.1562 609.536 75.2642C609.702 75.3703 609.828 75.5123 609.913 75.6903C609.999 75.8665 610.041 76.0606 610.041 76.2727V76.5795C610.041 76.7917 609.998 76.9867 609.911 77.1648C609.825 77.3409 609.698 77.483 609.53 77.5909C609.363 77.697 609.159 77.75 608.916 77.75C608.67 77.75 608.463 77.697 608.294 77.5909C608.125 77.483 607.998 77.3409 607.911 77.1648C607.823 76.9867 607.78 76.7917 607.78 76.5795ZM608.359 76.2727V76.5795C608.359 76.7557 608.401 76.9138 608.484 77.054C608.568 77.1922 608.712 77.2614 608.916 77.2614C609.115 77.2614 609.255 77.1922 609.337 77.054C609.42 76.9138 609.462 76.7557 609.462 76.5795V76.2727C609.462 76.0966 609.422 75.9394 609.342 75.8011C609.263 75.661 609.121 75.5909 608.916 75.5909C608.717 75.5909 608.574 75.661 608.487 75.8011C608.402 75.9394 608.359 76.0966 608.359 76.2727ZM607.996 81L611.996 75.1818H612.643L608.643 81H607.996Z" fill="#797A7B"/>
<rect x="335.25" y="104.25" width="303.5" height="71.5" rx="4.75" stroke="#D2D3D3" stroke-width="0.5"/>
<rect x="344.15" y="113.15" width="35.7" height="35.7" rx="2.85" stroke="#D2D3D3" stroke-width="0.3"/>
<path d="M355 118.333H363.167L371.334 126.5V139.333C371.334 139.952 371.088 140.546 370.65 140.983C370.213 141.421 369.619 141.667 369 141.667H355C354.381 141.667 353.788 141.421 353.35 140.983C352.913 140.546 352.667 139.952 352.667 139.333V120.667C352.667 120.048 352.913 119.454 353.35 119.017C353.788 118.579 354.381 118.333 355 118.333Z" stroke="#298BED" stroke-width="0.8" stroke-linecap="round" stroke-linejoin="round"/>
<path d="M363.167 118.333V126.5H371.334" stroke="#298BED" stroke-width="0.8" stroke-linecap="round" stroke-linejoin="round"/>
<path d="M389.92 126V119.455H390.892V120.477H390.977C391.114 120.128 391.334 119.857 391.638 119.663C391.942 119.467 392.307 119.369 392.733 119.369C393.165 119.369 393.524 119.467 393.811 119.663C394.101 119.857 394.327 120.128 394.489 120.477H394.557C394.724 120.139 394.976 119.871 395.311 119.672C395.646 119.47 396.048 119.369 396.517 119.369C397.102 119.369 397.581 119.553 397.953 119.919C398.325 120.283 398.511 120.849 398.511 121.619V126H397.506V121.619C397.506 121.136 397.374 120.791 397.109 120.584C396.845 120.376 396.534 120.273 396.176 120.273C395.716 120.273 395.359 120.412 395.107 120.69C394.854 120.966 394.727 121.315 394.727 121.739V126H393.705V121.517C393.705 121.145 393.584 120.845 393.342 120.618C393.101 120.388 392.79 120.273 392.409 120.273C392.148 120.273 391.903 120.342 391.676 120.482C391.452 120.621 391.27 120.814 391.131 121.061C390.994 121.305 390.926 121.588 390.926 121.909V126H389.92ZM400.763 128.455C400.593 128.455 400.441 128.44 400.308 128.412C400.174 128.386 400.082 128.361 400.031 128.335L400.286 127.449C400.531 127.511 400.746 127.534 400.934 127.517C401.121 127.5 401.288 127.416 401.433 127.266C401.58 127.118 401.715 126.878 401.837 126.545L402.025 126.034L399.604 119.455H400.695L402.502 124.67H402.57L404.377 119.455H405.468L402.69 126.955C402.565 127.293 402.41 127.572 402.225 127.794C402.04 128.018 401.826 128.185 401.582 128.293C401.34 128.401 401.067 128.455 400.763 128.455ZM410.363 126V126.938H404.909V126H410.363ZM411.823 126V119.455H412.794V120.477H412.88C413.016 120.128 413.236 119.857 413.54 119.663C413.844 119.467 414.209 119.369 414.635 119.369C415.067 119.369 415.426 119.467 415.713 119.663C416.003 119.857 416.229 120.128 416.391 120.477H416.459C416.627 120.139 416.878 119.871 417.213 119.672C417.549 119.47 417.951 119.369 418.419 119.369C419.005 119.369 419.483 119.553 419.855 119.919C420.228 120.283 420.414 120.849 420.414 121.619V126H419.408V121.619C419.408 121.136 419.276 120.791 419.012 120.584C418.748 120.376 418.436 120.273 418.078 120.273C417.618 120.273 417.262 120.412 417.009 120.69C416.756 120.966 416.63 121.315 416.63 121.739V126H415.607V121.517C415.607 121.145 415.486 120.845 415.245 120.618C415.003 120.388 414.692 120.273 414.311 120.273C414.05 120.273 413.806 120.342 413.578 120.482C413.354 120.621 413.172 120.814 413.033 121.061C412.897 121.305 412.828 121.588 412.828 121.909V126H411.823ZM424.912 126.136C424.321 126.136 423.802 125.996 423.356 125.714C422.913 125.433 422.566 125.04 422.316 124.534C422.069 124.028 421.946 123.437 421.946 122.761C421.946 122.08 422.069 121.484 422.316 120.976C422.566 120.467 422.913 120.072 423.356 119.791C423.802 119.51 424.321 119.369 424.912 119.369C425.502 119.369 426.02 119.51 426.463 119.791C426.909 120.072 427.255 120.467 427.502 120.976C427.752 121.484 427.877 122.08 427.877 122.761C427.877 123.437 427.752 124.028 427.502 124.534C427.255 125.04 426.909 125.433 426.463 125.714C426.02 125.996 425.502 126.136 424.912 126.136ZM424.912 125.233C425.36 125.233 425.73 125.118 426.02 124.888C426.309 124.658 426.524 124.355 426.663 123.98C426.802 123.605 426.872 123.199 426.872 122.761C426.872 122.324 426.802 121.916 426.663 121.538C426.524 121.161 426.309 120.855 426.02 120.622C425.73 120.389 425.36 120.273 424.912 120.273C424.463 120.273 424.093 120.389 423.804 120.622C423.514 120.855 423.299 121.161 423.16 121.538C423.021 121.916 422.951 122.324 422.951 122.761C422.951 123.199 423.021 123.605 423.16 123.98C423.299 124.355 423.514 124.658 423.804 124.888C424.093 125.118 424.463 125.233 424.912 125.233ZM434.531 119.455L432.11 126H431.087L428.667 119.455H429.758L431.565 124.67H431.633L433.44 119.455H434.531ZM435.858 126V119.455H436.864V126H435.858ZM436.369 118.364C436.173 118.364 436.004 118.297 435.862 118.163C435.723 118.03 435.653 117.869 435.653 117.682C435.653 117.494 435.723 117.334 435.862 117.2C436.004 117.067 436.173 117 436.369 117C436.565 117 436.733 117.067 436.872 117.2C437.014 117.334 437.085 117.494 437.085 117.682C437.085 117.869 437.014 118.03 436.872 118.163C436.733 118.297 436.565 118.364 436.369 118.364ZM441.45 126.136C440.819 126.136 440.275 125.997 439.818 125.719C439.363 125.438 439.012 125.045 438.765 124.543C438.521 124.037 438.399 123.449 438.399 122.778C438.399 122.108 438.521 121.517 438.765 121.006C439.012 120.491 439.356 120.091 439.797 119.804C440.24 119.514 440.757 119.369 441.348 119.369C441.689 119.369 442.025 119.426 442.358 119.54C442.69 119.653 442.993 119.838 443.265 120.094C443.538 120.347 443.755 120.682 443.917 121.099C444.079 121.517 444.16 122.031 444.16 122.642V123.068H439.115V122.199H443.137C443.137 121.83 443.064 121.5 442.916 121.21C442.771 120.92 442.564 120.692 442.294 120.524C442.027 120.357 441.711 120.273 441.348 120.273C440.947 120.273 440.6 120.372 440.308 120.571C440.018 120.767 439.795 121.023 439.639 121.338C439.483 121.653 439.404 121.991 439.404 122.352V122.932C439.404 123.426 439.49 123.845 439.66 124.189C439.833 124.53 440.074 124.79 440.38 124.969C440.687 125.145 441.044 125.233 441.45 125.233C441.714 125.233 441.953 125.196 442.166 125.122C442.382 125.045 442.568 124.932 442.724 124.781C442.88 124.628 443.001 124.437 443.086 124.21L444.058 124.483C443.956 124.812 443.784 125.102 443.542 125.352C443.301 125.599 443.002 125.793 442.647 125.932C442.292 126.068 441.893 126.136 441.45 126.136ZM446.423 126.068C446.213 126.068 446.032 125.993 445.882 125.842C445.731 125.692 445.656 125.511 445.656 125.301C445.656 125.091 445.731 124.911 445.882 124.76C446.032 124.609 446.213 124.534 446.423 124.534C446.633 124.534 446.814 124.609 446.964 124.76C447.115 124.911 447.19 125.091 447.19 125.301C447.19 125.44 447.154 125.568 447.083 125.685C447.015 125.801 446.923 125.895 446.806 125.966C446.693 126.034 446.565 126.068 446.423 126.068ZM448.995 126V119.455H449.966V120.477H450.051C450.188 120.128 450.408 119.857 450.712 119.663C451.016 119.467 451.381 119.369 451.807 119.369C452.239 119.369 452.598 119.467 452.885 119.663C453.175 119.857 453.401 120.128 453.563 120.477H453.631C453.799 120.139 454.05 119.871 454.385 119.672C454.721 119.47 455.123 119.369 455.591 119.369C456.176 119.369 456.655 119.553 457.027 119.919C457.4 120.283 457.586 120.849 457.586 121.619V126H456.58V121.619C456.58 121.136 456.448 120.791 456.184 120.584C455.919 120.376 455.608 120.273 455.25 120.273C454.79 120.273 454.434 120.412 454.181 120.69C453.928 120.966 453.801 121.315 453.801 121.739V126H452.779V121.517C452.779 121.145 452.658 120.845 452.417 120.618C452.175 120.388 451.864 120.273 451.483 120.273C451.222 120.273 450.978 120.342 450.75 120.482C450.526 120.621 450.344 120.814 450.205 121.061C450.069 121.305 450 121.588 450 121.909V126H448.995ZM459.424 128.455V119.455H460.396V120.494H460.515C460.589 120.381 460.691 120.236 460.822 120.06C460.956 119.881 461.146 119.722 461.393 119.582C461.643 119.44 461.981 119.369 462.407 119.369C462.958 119.369 463.444 119.507 463.865 119.783C464.285 120.058 464.613 120.449 464.849 120.955C465.085 121.46 465.203 122.057 465.203 122.744C465.203 123.438 465.085 124.038 464.849 124.547C464.613 125.053 464.287 125.445 463.869 125.723C463.451 125.999 462.97 126.136 462.424 126.136C462.004 126.136 461.667 126.067 461.414 125.928C461.162 125.786 460.967 125.625 460.831 125.446C460.694 125.264 460.589 125.114 460.515 124.994H460.43V128.455H459.424ZM460.413 122.727C460.413 123.222 460.485 123.658 460.63 124.036C460.775 124.411 460.987 124.705 461.265 124.918C461.544 125.128 461.885 125.233 462.288 125.233C462.708 125.233 463.059 125.122 463.341 124.901C463.625 124.676 463.838 124.375 463.98 123.997C464.125 123.616 464.197 123.193 464.197 122.727C464.197 122.267 464.126 121.852 463.984 121.483C463.845 121.111 463.633 120.817 463.349 120.601C463.068 120.382 462.714 120.273 462.288 120.273C461.879 120.273 461.535 120.376 461.257 120.584C460.978 120.788 460.768 121.075 460.626 121.445C460.484 121.811 460.413 122.239 460.413 122.727ZM466.515 124.21V123.341L470.35 117.273H470.981V118.619H470.555L467.657 123.205V123.273H472.822V124.21H466.515ZM470.623 126V123.946V123.541V117.273H471.629V126H470.623Z" fill="#363939"/>
<path d="M391.455 135.102C391.693 135.104 391.932 135.15 392.17 135.239C392.409 135.328 392.627 135.475 392.824 135.682C393.021 135.886 393.179 136.166 393.298 136.52C393.418 136.874 393.477 137.318 393.477 137.852C393.477 138.369 393.428 138.829 393.33 139.23C393.233 139.63 393.093 139.967 392.909 140.241C392.727 140.516 392.506 140.724 392.244 140.866C391.985 141.009 391.691 141.08 391.364 141.08C391.038 141.08 390.747 141.015 390.491 140.886C390.238 140.756 390.029 140.575 389.866 140.344C389.705 140.111 389.602 139.841 389.557 139.534H390.25C390.312 139.801 390.437 140.022 390.622 140.196C390.81 140.368 391.057 140.455 391.364 140.455C391.813 140.455 392.167 140.259 392.426 139.866C392.688 139.474 392.818 138.92 392.818 138.205H392.773C392.667 138.364 392.541 138.501 392.395 138.616C392.249 138.732 392.087 138.821 391.909 138.884C391.731 138.946 391.542 138.977 391.341 138.977C391.008 138.977 390.702 138.895 390.423 138.73C390.147 138.563 389.925 138.335 389.759 138.045C389.594 137.754 389.511 137.42 389.511 137.045C389.511 136.689 389.591 136.364 389.75 136.068C389.911 135.771 390.136 135.534 390.426 135.358C390.718 135.182 391.061 135.097 391.455 135.102ZM391.455 135.727C391.216 135.727 391.001 135.787 390.81 135.906C390.62 136.024 390.47 136.183 390.358 136.384C390.248 136.582 390.193 136.803 390.193 137.045C390.193 137.288 390.246 137.509 390.352 137.707C390.46 137.904 390.607 138.062 390.793 138.179C390.98 138.295 391.193 138.352 391.432 138.352C391.612 138.352 391.779 138.317 391.935 138.247C392.09 138.175 392.225 138.078 392.341 137.955C392.458 137.83 392.55 137.688 392.616 137.531C392.683 137.372 392.716 137.206 392.716 137.034C392.716 136.807 392.661 136.594 392.551 136.395C392.443 136.196 392.294 136.035 392.102 135.912C391.913 135.789 391.697 135.727 391.455 135.727ZM394.62 141L397.222 135.852V135.807H394.222V135.182H397.95V135.841L395.359 141H394.62ZM400.842 141.08C400.467 141.08 400.132 141.015 399.839 140.886C399.547 140.758 399.315 140.579 399.143 140.349C398.972 140.118 398.879 139.85 398.864 139.545H399.58C399.595 139.733 399.66 139.895 399.773 140.031C399.887 140.166 400.036 140.27 400.219 140.344C400.403 140.418 400.607 140.455 400.83 140.455C401.08 140.455 401.302 140.411 401.495 140.324C401.688 140.237 401.84 140.116 401.95 139.96C402.059 139.805 402.114 139.625 402.114 139.42C402.114 139.206 402.061 139.018 401.955 138.855C401.849 138.69 401.694 138.562 401.489 138.469C401.285 138.376 401.035 138.33 400.739 138.33H400.273V137.705H400.739C400.97 137.705 401.173 137.663 401.347 137.58C401.523 137.496 401.661 137.379 401.759 137.227C401.86 137.076 401.91 136.898 401.91 136.693C401.91 136.496 401.866 136.325 401.779 136.179C401.692 136.033 401.569 135.92 401.41 135.838C401.253 135.757 401.067 135.716 400.853 135.716C400.652 135.716 400.463 135.753 400.285 135.827C400.109 135.899 399.965 136.004 399.853 136.142C399.741 136.278 399.681 136.443 399.671 136.636H398.989C399.001 136.331 399.093 136.064 399.265 135.835C399.437 135.604 399.663 135.424 399.941 135.295C400.221 135.167 400.529 135.102 400.864 135.102C401.224 135.102 401.533 135.175 401.79 135.321C402.048 135.465 402.246 135.655 402.384 135.892C402.522 136.129 402.592 136.384 402.592 136.659C402.592 136.987 402.505 137.266 402.333 137.497C402.163 137.728 401.931 137.888 401.637 137.977V138.023C402.004 138.083 402.291 138.24 402.498 138.491C402.704 138.741 402.808 139.051 402.808 139.42C402.808 139.737 402.721 140.021 402.549 140.273C402.379 140.523 402.146 140.72 401.85 140.864C401.555 141.008 401.219 141.08 400.842 141.08ZM406.322 135.182H407.163L409.14 140.011H409.208L411.185 135.182H412.026V141H411.367V136.58H411.31L409.492 141H408.856L407.038 136.58H406.981V141H406.322V135.182ZM413.348 141V136.636H414.018V141H413.348ZM413.689 135.909C413.558 135.909 413.446 135.865 413.351 135.776C413.258 135.687 413.212 135.58 413.212 135.455C413.212 135.33 413.258 135.223 413.351 135.134C413.446 135.045 413.558 135 413.689 135C413.82 135 413.931 135.045 414.024 135.134C414.119 135.223 414.166 135.33 414.166 135.455C414.166 135.58 414.119 135.687 414.024 135.776C413.931 135.865 413.82 135.909 413.689 135.909ZM415.337 141V135.182H417.371C417.777 135.182 418.111 135.252 418.374 135.392C418.638 135.53 418.834 135.717 418.962 135.952C419.091 136.185 419.156 136.443 419.156 136.727C419.156 136.977 419.111 137.184 419.022 137.347C418.935 137.509 418.819 137.638 418.675 137.733C418.533 137.828 418.379 137.898 418.212 137.943V138C418.39 138.011 418.569 138.074 418.749 138.188C418.929 138.301 419.08 138.464 419.201 138.676C419.322 138.888 419.383 139.148 419.383 139.455C419.383 139.746 419.317 140.009 419.184 140.241C419.051 140.474 418.842 140.659 418.556 140.795C418.27 140.932 417.898 141 417.44 141H415.337ZM416.042 140.375H417.44C417.9 140.375 418.227 140.286 418.42 140.108C418.615 139.928 418.712 139.71 418.712 139.455C418.712 139.258 418.662 139.076 418.562 138.909C418.461 138.741 418.318 138.606 418.133 138.506C417.947 138.403 417.728 138.352 417.474 138.352H416.042V140.375ZM416.042 137.739H417.349C417.561 137.739 417.752 137.697 417.923 137.614C418.095 137.53 418.231 137.413 418.332 137.261C418.434 137.11 418.485 136.932 418.485 136.727C418.485 136.472 418.396 136.255 418.218 136.077C418.04 135.897 417.758 135.807 417.371 135.807H416.042V137.739Z" fill="#57595A"/>
<path d="M602 117H603.333H614" stroke="#363939" stroke-width="0.8" stroke-linecap="round" stroke-linejoin="round"/>
<path d="M605.333 117V115.667C605.333 115.313 605.473 114.974 605.724 114.724C605.974 114.474 606.313 114.333 606.666 114.333H609.333C609.687 114.333 610.026 114.474 610.276 114.724C610.526 114.974 610.666 115.313 610.666 115.667V117M612.666 117V126.333C612.666 126.687 612.526 127.026 612.276 127.276C612.026 127.526 611.687 127.667 611.333 127.667H604.666C604.313 127.667 603.974 127.526 603.724 127.276C603.473 127.026 603.333 126.687 603.333 126.333V117H612.666Z" stroke="#363939" stroke-width="0.8" stroke-linecap="round" stroke-linejoin="round"/>
<path d="M606.667 120.333V124.333" stroke="#363939" stroke-width="0.8" stroke-linecap="round" stroke-linejoin="round"/>
<path d="M609.333 120.333V124.333" stroke="#363939" stroke-width="0.8" stroke-linecap="round" stroke-linejoin="round"/>
<rect x="387" y="154" width="201" height="8" rx="4" fill="#F6F6F6"/>
<rect x="387" y="154" width="60" height="8" rx="4" fill="#000B44"/>
<path d="M597.771 161.08C597.396 161.08 597.062 161.015 596.768 160.886C596.477 160.758 596.245 160.579 596.072 160.349C595.902 160.118 595.809 159.85 595.794 159.545H596.51C596.525 159.733 596.589 159.895 596.703 160.031C596.817 160.166 596.965 160.27 597.149 160.344C597.333 160.418 597.536 160.455 597.76 160.455C598.01 160.455 598.232 160.411 598.425 160.324C598.618 160.237 598.769 160.116 598.879 159.96C598.989 159.805 599.044 159.625 599.044 159.42C599.044 159.206 598.991 159.018 598.885 158.855C598.779 158.69 598.624 158.562 598.419 158.469C598.214 158.376 597.964 158.33 597.669 158.33H597.203V157.705H597.669C597.9 157.705 598.103 157.663 598.277 157.58C598.453 157.496 598.59 157.379 598.689 157.227C598.789 157.076 598.839 156.898 598.839 156.693C598.839 156.496 598.796 156.325 598.709 156.179C598.622 156.033 598.499 155.92 598.339 155.838C598.182 155.757 597.997 155.716 597.783 155.716C597.582 155.716 597.393 155.753 597.214 155.827C597.038 155.899 596.894 156.004 596.783 156.142C596.671 156.278 596.61 156.443 596.601 156.636H595.919C595.93 156.331 596.022 156.064 596.195 155.835C596.367 155.604 596.592 155.424 596.871 155.295C597.151 155.167 597.459 155.102 597.794 155.102C598.154 155.102 598.463 155.175 598.72 155.321C598.978 155.465 599.176 155.655 599.314 155.892C599.452 156.129 599.521 156.384 599.521 156.659C599.521 156.987 599.435 157.266 599.263 157.497C599.092 157.728 598.86 157.888 598.567 157.977V158.023C598.934 158.083 599.221 158.24 599.428 158.491C599.634 158.741 599.737 159.051 599.737 159.42C599.737 159.737 599.651 160.021 599.479 160.273C599.308 160.523 599.075 160.72 598.78 160.864C598.484 161.008 598.148 161.08 597.771 161.08ZM602.797 161.08C602.369 161.08 602.004 160.963 601.703 160.73C601.402 160.495 601.172 160.155 601.013 159.71C600.854 159.263 600.774 158.723 600.774 158.091C600.774 157.462 600.854 156.925 601.013 156.48C601.174 156.033 601.405 155.692 601.706 155.457C602.009 155.221 602.373 155.102 602.797 155.102C603.221 155.102 603.584 155.221 603.885 155.457C604.188 155.692 604.419 156.033 604.578 156.48C604.739 156.925 604.82 157.462 604.82 158.091C604.82 158.723 604.74 159.263 604.581 159.71C604.422 160.155 604.192 160.495 603.891 160.73C603.589 160.963 603.225 161.08 602.797 161.08ZM602.797 160.455C603.221 160.455 603.551 160.25 603.786 159.841C604.02 159.432 604.138 158.848 604.138 158.091C604.138 157.587 604.084 157.158 603.976 156.804C603.87 156.45 603.716 156.18 603.516 155.994C603.317 155.809 603.077 155.716 602.797 155.716C602.376 155.716 602.048 155.923 601.811 156.338C601.574 156.751 601.456 157.335 601.456 158.091C601.456 158.595 601.509 159.023 601.615 159.375C601.721 159.727 601.874 159.995 602.072 160.179C602.273 160.363 602.515 160.455 602.797 160.455ZM608.865 159.909V159.602C608.865 159.39 608.909 159.196 608.996 159.02C609.085 158.842 609.214 158.7 609.382 158.594C609.553 158.486 609.759 158.432 610.001 158.432C610.248 158.432 610.454 158.486 610.621 158.594C610.787 158.7 610.913 158.842 610.999 159.02C611.084 159.196 611.126 159.39 611.126 159.602V159.909C611.126 160.121 611.083 160.316 610.996 160.494C610.911 160.67 610.784 160.812 610.615 160.92C610.448 161.027 610.244 161.08 610.001 161.08C609.755 161.08 609.548 161.027 609.379 160.92C609.211 160.812 609.083 160.67 608.996 160.494C608.909 160.316 608.865 160.121 608.865 159.909ZM609.445 159.602V159.909C609.445 160.085 609.486 160.243 609.57 160.384C609.653 160.522 609.797 160.591 610.001 160.591C610.2 160.591 610.34 160.522 610.422 160.384C610.505 160.243 610.547 160.085 610.547 159.909V159.602C610.547 159.426 610.507 159.269 610.428 159.131C610.348 158.991 610.206 158.92 610.001 158.92C609.803 158.92 609.66 158.991 609.572 159.131C609.487 159.269 609.445 159.426 609.445 159.602ZM605.967 156.58V156.273C605.967 156.061 606.011 155.866 606.098 155.69C606.187 155.512 606.316 155.37 606.484 155.264C606.655 155.156 606.861 155.102 607.104 155.102C607.35 155.102 607.556 155.156 607.723 155.264C607.89 155.37 608.016 155.512 608.101 155.69C608.186 155.866 608.229 156.061 608.229 156.273V156.58C608.229 156.792 608.185 156.987 608.098 157.165C608.013 157.341 607.886 157.483 607.717 157.591C607.551 157.697 607.346 157.75 607.104 157.75C606.857 157.75 606.65 157.697 606.482 157.591C606.313 157.483 606.185 157.341 606.098 157.165C606.011 156.987 605.967 156.792 605.967 156.58ZM606.547 156.273V156.58C606.547 156.756 606.589 156.914 606.672 157.054C606.755 157.192 606.899 157.261 607.104 157.261C607.303 157.261 607.443 157.192 607.524 157.054C607.607 156.914 607.649 156.756 607.649 156.58V156.273C607.649 156.097 607.609 155.939 607.53 155.801C607.45 155.661 607.308 155.591 607.104 155.591C606.905 155.591 606.762 155.661 606.675 155.801C606.589 155.939 606.547 156.097 606.547 156.273ZM606.183 161L610.183 155.182H610.831L606.831 161H606.183Z" fill="#797A7B"/>
<defs>
<clipPath id="clip0_2334_141">
<rect x="387" y="74" width="201" height="8" rx="4" fill="white"/>
</clipPath>
</defs>
</svg>
