<svg width="771" height="464" viewBox="0 0 771 464" fill="none" xmlns="http://www.w3.org/2000/svg">
<g filter="url(#filter0_ddd)">
<rect x="51" y="29" width="691" height="368" rx="12" fill="white"/>
<line x1="29.3401" y1="104.035" x2="711.66" y2="104.314" stroke="#EBEBEB" stroke-width="1.18605"/>
<rect x="72" y="131" width="630" height="70" rx="9.06383" fill="#222B2A"/>
<path d="M96.656 159.174H99.554C101.354 159.174 102.722 159.684 103.658 160.704C104.606 161.724 105.08 163.17 105.08 165.042C105.08 166.914 104.606 168.378 103.658 169.434C102.722 170.478 101.372 171 99.608 171H96.656V159.174ZM99.446 169.902C100.862 169.902 101.924 169.482 102.632 168.642C103.352 167.79 103.712 166.59 103.712 165.042C103.712 163.518 103.352 162.342 102.632 161.514C101.924 160.686 100.862 160.272 99.446 160.272H97.988V169.902H99.446ZM114.229 166.14C114.229 166.452 114.211 166.716 114.175 166.932H108.145C108.205 167.952 108.517 168.744 109.081 169.308C109.657 169.872 110.359 170.154 111.187 170.154C111.955 170.154 112.693 169.92 113.401 169.452L113.887 170.316C113.455 170.592 113.011 170.814 112.555 170.982C112.099 171.138 111.589 171.216 111.025 171.216C110.257 171.216 109.555 171.036 108.919 170.676C108.295 170.304 107.797 169.77 107.425 169.074C107.065 168.378 106.885 167.568 106.885 166.644C106.885 165.732 107.065 164.928 107.425 164.232C107.797 163.536 108.283 163.002 108.883 162.63C109.483 162.246 110.119 162.054 110.791 162.054C111.871 162.054 112.711 162.42 113.311 163.152C113.923 163.872 114.229 164.868 114.229 166.14ZM113.059 165.978C113.059 165.054 112.861 164.346 112.465 163.854C112.069 163.362 111.517 163.116 110.809 163.116C110.161 163.116 109.585 163.362 109.081 163.854C108.577 164.346 108.277 165.054 108.181 165.978H113.059ZM119.165 159.012C118.325 159.012 117.905 159.6 117.905 160.776V162.27H119.795V163.35H117.905V171H116.591V163.35H115.403V162.36L116.591 162.27V160.758C116.591 159.858 116.795 159.162 117.203 158.67C117.623 158.178 118.241 157.932 119.057 157.932C119.525 157.932 119.993 158.028 120.461 158.22L120.173 159.228C119.837 159.084 119.501 159.012 119.165 159.012ZM123.137 171.216C122.393 171.216 121.781 171 121.301 170.568C120.821 170.136 120.581 169.53 120.581 168.75C120.581 167.802 121.013 167.076 121.877 166.572C122.741 166.056 124.121 165.696 126.017 165.492C126.017 164.808 125.873 164.25 125.585 163.818C125.309 163.374 124.829 163.152 124.145 163.152C123.317 163.152 122.435 163.47 121.499 164.106L120.977 163.206C122.129 162.438 123.257 162.054 124.361 162.054C125.369 162.054 126.113 162.372 126.593 163.008C127.073 163.632 127.313 164.496 127.313 165.6V171H126.233L126.125 169.938H126.071C125.039 170.79 124.061 171.216 123.137 171.216ZM123.479 170.154C123.899 170.154 124.307 170.058 124.703 169.866C125.111 169.662 125.549 169.35 126.017 168.93V166.374C124.517 166.554 123.449 166.83 122.813 167.202C122.189 167.574 121.877 168.066 121.877 168.678C121.877 169.17 122.027 169.542 122.327 169.794C122.627 170.034 123.011 170.154 123.479 170.154ZM132.695 171.216C131.795 171.216 131.129 170.934 130.697 170.37C130.265 169.794 130.049 168.942 130.049 167.814V162.27H131.345V167.652C131.345 168.492 131.483 169.11 131.759 169.506C132.035 169.89 132.479 170.082 133.091 170.082C133.535 170.082 133.937 169.962 134.297 169.722C134.669 169.482 135.083 169.086 135.539 168.534V162.27H136.853V171H135.755L135.647 169.614H135.593C135.149 170.13 134.693 170.526 134.225 170.802C133.769 171.078 133.259 171.216 132.695 171.216ZM141.317 171.216C140.825 171.216 140.465 171.066 140.237 170.766C140.009 170.454 139.895 169.998 139.895 169.398V158.148H141.191V169.506C141.191 169.71 141.227 169.866 141.299 169.974C141.383 170.07 141.485 170.118 141.605 170.118C141.701 170.118 141.809 170.106 141.929 170.082L142.109 171.09C141.881 171.174 141.617 171.216 141.317 171.216ZM147.041 171.216C146.177 171.216 145.559 170.97 145.187 170.478C144.815 169.986 144.629 169.284 144.629 168.372V163.35H143.315V162.36L144.683 162.27L144.845 159.804H145.943V162.27H148.337V163.35H145.943V168.408C145.943 168.984 146.045 169.416 146.249 169.704C146.465 169.992 146.825 170.136 147.329 170.136C147.581 170.136 147.917 170.058 148.337 169.902L148.607 170.892C147.959 171.108 147.437 171.216 147.041 171.216ZM153.958 162.27H155.038L155.146 163.314H155.2C156.22 162.474 157.162 162.054 158.026 162.054C159.142 162.054 159.994 162.456 160.582 163.26C161.182 164.052 161.482 165.132 161.482 166.5C161.482 167.46 161.308 168.3 160.96 169.02C160.612 169.728 160.15 170.274 159.574 170.658C158.998 171.03 158.374 171.216 157.702 171.216C156.922 171.216 156.094 170.874 155.218 170.19L155.254 171.738V174.744H153.958V162.27ZM157.486 170.1C157.99 170.1 158.44 169.956 158.836 169.668C159.244 169.368 159.562 168.948 159.79 168.408C160.018 167.868 160.132 167.238 160.132 166.518C160.132 165.474 159.934 164.658 159.538 164.07C159.154 163.47 158.548 163.17 157.72 163.17C156.988 163.17 156.166 163.59 155.254 164.43V169.146C155.65 169.482 156.04 169.728 156.424 169.884C156.808 170.028 157.162 170.1 157.486 170.1ZM163.889 162.27H164.969L165.077 163.872H165.131C165.431 163.308 165.797 162.864 166.229 162.54C166.661 162.216 167.123 162.054 167.615 162.054C167.963 162.054 168.263 162.114 168.515 162.234L168.263 163.386C167.951 163.29 167.675 163.242 167.435 163.242C167.027 163.242 166.619 163.41 166.211 163.746C165.815 164.082 165.473 164.604 165.185 165.312V171H163.889V162.27ZM170.007 162.27H171.303V171H170.007V162.27ZM170.673 160.398C170.409 160.398 170.193 160.314 170.025 160.146C169.857 159.978 169.773 159.756 169.773 159.48C169.773 159.216 169.857 159.006 170.025 158.85C170.193 158.682 170.409 158.598 170.673 158.598C170.937 158.598 171.153 158.682 171.321 158.85C171.489 159.006 171.573 159.216 171.573 159.48C171.573 159.756 171.489 159.978 171.321 160.146C171.153 160.314 170.937 160.398 170.673 160.398ZM177.75 171.216C176.982 171.216 176.286 171.036 175.662 170.676C175.05 170.304 174.564 169.776 174.204 169.092C173.856 168.408 173.682 167.592 173.682 166.644C173.682 165.708 173.868 164.892 174.24 164.196C174.624 163.5 175.134 162.972 175.77 162.612C176.406 162.24 177.096 162.054 177.84 162.054C178.788 162.054 179.634 162.402 180.378 163.098L179.694 163.962C179.406 163.698 179.118 163.5 178.83 163.368C178.542 163.224 178.23 163.152 177.894 163.152C177.354 163.152 176.868 163.302 176.436 163.602C176.004 163.89 175.662 164.298 175.41 164.826C175.17 165.354 175.05 165.96 175.05 166.644C175.05 167.688 175.308 168.528 175.824 169.164C176.34 169.8 177.018 170.118 177.858 170.118C178.614 170.118 179.322 169.818 179.982 169.218L180.558 170.1C180.162 170.448 179.724 170.724 179.244 170.928C178.764 171.12 178.266 171.216 177.75 171.216ZM182.54 162.27H183.836V171H182.54V162.27ZM183.206 160.398C182.942 160.398 182.726 160.314 182.558 160.146C182.39 159.978 182.306 159.756 182.306 159.48C182.306 159.216 182.39 159.006 182.558 158.85C182.726 158.682 182.942 158.598 183.206 158.598C183.47 158.598 183.686 158.682 183.854 158.85C184.022 159.006 184.106 159.216 184.106 159.48C184.106 159.756 184.022 159.978 183.854 160.146C183.686 160.314 183.47 160.398 183.206 160.398ZM186.899 162.27H187.979L188.087 163.566H188.141C188.621 163.086 189.089 162.714 189.545 162.45C190.013 162.186 190.523 162.054 191.075 162.054C191.987 162.054 192.659 162.342 193.091 162.918C193.523 163.482 193.739 164.328 193.739 165.456V171H192.425V165.618C192.425 164.778 192.287 164.166 192.011 163.782C191.747 163.398 191.309 163.206 190.697 163.206C190.265 163.206 189.863 163.32 189.491 163.548C189.119 163.764 188.687 164.118 188.195 164.61V171H186.899V162.27ZM199.589 175.068C198.497 175.068 197.621 174.858 196.961 174.438C196.313 174.018 195.989 173.442 195.989 172.71C195.989 172.338 196.097 171.978 196.313 171.63C196.541 171.282 196.859 170.97 197.267 170.694V170.622C197.039 170.478 196.853 170.286 196.709 170.046C196.565 169.806 196.493 169.524 196.493 169.2C196.493 168.864 196.583 168.558 196.763 168.282C196.955 167.994 197.183 167.76 197.447 167.58V167.508C197.135 167.256 196.871 166.926 196.655 166.518C196.439 166.11 196.331 165.66 196.331 165.168C196.331 164.556 196.475 164.016 196.763 163.548C197.051 163.068 197.441 162.702 197.933 162.45C198.425 162.186 198.965 162.054 199.553 162.054C199.949 162.054 200.351 162.126 200.759 162.27H203.783V163.296H201.929C202.157 163.512 202.343 163.788 202.487 164.124C202.631 164.46 202.703 164.814 202.703 165.186C202.703 165.786 202.565 166.32 202.289 166.788C202.013 167.244 201.635 167.598 201.155 167.85C200.675 168.102 200.141 168.228 199.553 168.228C199.073 168.228 198.629 168.126 198.221 167.922C198.029 168.078 197.879 168.24 197.771 168.408C197.675 168.564 197.627 168.762 197.627 169.002C197.627 169.314 197.741 169.56 197.969 169.74C198.209 169.908 198.611 169.992 199.175 169.992H200.921C201.941 169.992 202.697 170.16 203.189 170.496C203.681 170.832 203.927 171.354 203.927 172.062C203.927 172.59 203.747 173.082 203.387 173.538C203.027 174.006 202.517 174.378 201.857 174.654C201.197 174.93 200.441 175.068 199.589 175.068ZM199.553 167.328C200.093 167.328 200.549 167.13 200.921 166.734C201.305 166.326 201.497 165.804 201.497 165.168C201.497 164.52 201.311 164.004 200.939 163.62C200.567 163.224 200.105 163.026 199.553 163.026C199.001 163.026 198.533 163.224 198.149 163.62C197.777 164.004 197.591 164.52 197.591 165.168C197.591 165.804 197.777 166.326 198.149 166.734C198.533 167.13 199.001 167.328 199.553 167.328ZM199.769 174.132C200.321 174.132 200.813 174.042 201.245 173.862C201.689 173.694 202.031 173.46 202.271 173.16C202.511 172.872 202.631 172.566 202.631 172.242C202.631 171.834 202.481 171.54 202.181 171.36C201.881 171.192 201.425 171.108 200.813 171.108H199.211C198.839 171.108 198.467 171.06 198.095 170.964C197.459 171.408 197.141 171.93 197.141 172.53C197.141 173.022 197.375 173.412 197.843 173.7C198.311 173.988 198.953 174.132 199.769 174.132ZM209.276 162.27H210.356L210.464 163.566H210.518C211.442 162.558 212.348 162.054 213.236 162.054C214.472 162.054 215.276 162.618 215.648 163.746C216.152 163.194 216.638 162.774 217.106 162.486C217.574 162.198 218.054 162.054 218.546 162.054C220.31 162.054 221.192 163.188 221.192 165.456V171H219.878V165.618C219.878 164.778 219.74 164.166 219.464 163.782C219.188 163.398 218.756 163.206 218.168 163.206C217.484 163.206 216.722 163.674 215.882 164.61V171H214.568V165.618C214.568 164.79 214.43 164.184 214.154 163.8C213.878 163.404 213.452 163.206 212.876 163.206C212.192 163.206 211.424 163.674 210.572 164.61V171H209.276V162.27ZM227.46 171.216C226.74 171.216 226.074 171.036 225.462 170.676C224.85 170.304 224.358 169.776 223.986 169.092C223.626 168.396 223.446 167.58 223.446 166.644C223.446 165.708 223.626 164.892 223.986 164.196C224.358 163.5 224.85 162.972 225.462 162.612C226.074 162.24 226.74 162.054 227.46 162.054C228.18 162.054 228.846 162.24 229.458 162.612C230.07 162.972 230.556 163.5 230.916 164.196C231.288 164.892 231.474 165.708 231.474 166.644C231.474 167.58 231.288 168.396 230.916 169.092C230.556 169.776 230.07 170.304 229.458 170.676C228.846 171.036 228.18 171.216 227.46 171.216ZM227.46 170.118C227.976 170.118 228.432 169.974 228.828 169.686C229.236 169.398 229.554 168.99 229.782 168.462C230.01 167.934 230.124 167.328 230.124 166.644C230.124 165.96 230.01 165.354 229.782 164.826C229.554 164.298 229.236 163.89 228.828 163.602C228.432 163.302 227.976 163.152 227.46 163.152C226.944 163.152 226.482 163.302 226.074 163.602C225.678 163.89 225.366 164.298 225.138 164.826C224.922 165.354 224.814 165.96 224.814 166.644C224.814 167.688 225.06 168.528 225.552 169.164C226.044 169.8 226.68 170.118 227.46 170.118ZM236.784 171.216C235.68 171.216 234.804 170.814 234.156 170.01C233.52 169.206 233.202 168.084 233.202 166.644C233.202 165.732 233.376 164.928 233.724 164.232C234.072 163.536 234.534 163.002 235.11 162.63C235.698 162.246 236.328 162.054 237 162.054C237.468 162.054 237.888 162.138 238.26 162.306C238.632 162.474 239.04 162.732 239.484 163.08L239.43 161.568V158.148H240.726V171H239.646L239.538 169.938H239.484C239.112 170.322 238.692 170.634 238.224 170.874C237.768 171.102 237.288 171.216 236.784 171.216ZM237.072 170.1C237.492 170.1 237.888 169.998 238.26 169.794C238.644 169.59 239.034 169.278 239.43 168.858V164.124C239.046 163.788 238.674 163.548 238.314 163.404C237.954 163.248 237.582 163.17 237.198 163.17C236.706 163.17 236.256 163.32 235.848 163.62C235.452 163.92 235.134 164.334 234.894 164.862C234.666 165.39 234.552 165.984 234.552 166.644C234.552 167.724 234.768 168.57 235.2 169.182C235.644 169.794 236.268 170.1 237.072 170.1ZM250.442 166.14C250.442 166.452 250.424 166.716 250.388 166.932H244.358C244.418 167.952 244.73 168.744 245.294 169.308C245.87 169.872 246.572 170.154 247.4 170.154C248.168 170.154 248.906 169.92 249.614 169.452L250.1 170.316C249.668 170.592 249.224 170.814 248.768 170.982C248.312 171.138 247.802 171.216 247.238 171.216C246.47 171.216 245.768 171.036 245.132 170.676C244.508 170.304 244.01 169.77 243.638 169.074C243.278 168.378 243.098 167.568 243.098 166.644C243.098 165.732 243.278 164.928 243.638 164.232C244.01 163.536 244.496 163.002 245.096 162.63C245.696 162.246 246.332 162.054 247.004 162.054C248.084 162.054 248.924 162.42 249.524 163.152C250.136 163.872 250.442 164.868 250.442 166.14ZM249.272 165.978C249.272 165.054 249.074 164.346 248.678 163.854C248.282 163.362 247.73 163.116 247.022 163.116C246.374 163.116 245.798 163.362 245.294 163.854C244.79 164.346 244.49 165.054 244.394 165.978H249.272ZM254.063 171.216C253.571 171.216 253.211 171.066 252.983 170.766C252.755 170.454 252.641 169.998 252.641 169.398V158.148H253.937V169.506C253.937 169.71 253.973 169.866 254.045 169.974C254.129 170.07 254.231 170.118 254.351 170.118C254.447 170.118 254.555 170.106 254.675 170.082L254.855 171.09C254.627 171.174 254.363 171.216 254.063 171.216Z" fill="white"/>
<path d="M320.334 167.76H318.732V171H317.49V167.76H312.306V166.914L317.328 159.516H318.732V166.716H320.334V167.76ZM317.49 166.716V163.152C317.49 162.696 317.52 161.976 317.58 160.992H317.508C317.268 161.424 317.082 161.742 316.95 161.946L316.572 162.576L313.71 166.716H317.49ZM325.993 162.27H327.073L327.181 163.872H327.235C327.535 163.308 327.901 162.864 328.333 162.54C328.765 162.216 329.227 162.054 329.719 162.054C330.067 162.054 330.367 162.114 330.619 162.234L330.367 163.386C330.055 163.29 329.779 163.242 329.539 163.242C329.131 163.242 328.723 163.41 328.315 163.746C327.919 164.082 327.577 164.604 327.289 165.312V171H325.993V162.27ZM334.63 171.216C333.73 171.216 333.064 170.934 332.632 170.37C332.2 169.794 331.984 168.942 331.984 167.814V162.27H333.28V167.652C333.28 168.492 333.418 169.11 333.694 169.506C333.97 169.89 334.414 170.082 335.026 170.082C335.47 170.082 335.872 169.962 336.232 169.722C336.604 169.482 337.018 169.086 337.474 168.534V162.27H338.788V171H337.69L337.582 169.614H337.528C337.084 170.13 336.628 170.526 336.16 170.802C335.704 171.078 335.194 171.216 334.63 171.216ZM343.253 171.216C342.761 171.216 342.401 171.066 342.173 170.766C341.945 170.454 341.831 169.998 341.831 169.398V158.148H343.127V169.506C343.127 169.71 343.163 169.866 343.235 169.974C343.319 170.07 343.421 170.118 343.541 170.118C343.637 170.118 343.745 170.106 343.865 170.082L344.045 171.09C343.817 171.174 343.553 171.216 343.253 171.216ZM352.991 166.14C352.991 166.452 352.973 166.716 352.937 166.932H346.907C346.967 167.952 347.279 168.744 347.843 169.308C348.419 169.872 349.121 170.154 349.949 170.154C350.717 170.154 351.455 169.92 352.163 169.452L352.649 170.316C352.217 170.592 351.773 170.814 351.317 170.982C350.861 171.138 350.351 171.216 349.787 171.216C349.019 171.216 348.317 171.036 347.681 170.676C347.057 170.304 346.559 169.77 346.187 169.074C345.827 168.378 345.647 167.568 345.647 166.644C345.647 165.732 345.827 164.928 346.187 164.232C346.559 163.536 347.045 163.002 347.645 162.63C348.245 162.246 348.881 162.054 349.553 162.054C350.633 162.054 351.473 162.42 352.073 163.152C352.685 163.872 352.991 164.868 352.991 166.14ZM351.821 165.978C351.821 165.054 351.623 164.346 351.227 163.854C350.831 163.362 350.279 163.116 349.571 163.116C348.923 163.116 348.347 163.362 347.843 163.854C347.339 164.346 347.039 165.054 346.943 165.978H351.821ZM357.422 171.216C356.822 171.216 356.24 171.108 355.676 170.892C355.112 170.664 354.614 170.37 354.182 170.01L354.848 169.128C355.28 169.476 355.7 169.74 356.108 169.92C356.516 170.1 356.972 170.19 357.476 170.19C358.052 170.19 358.496 170.052 358.808 169.776C359.12 169.5 359.276 169.152 359.276 168.732C359.276 168.312 359.096 167.976 358.736 167.724C358.388 167.472 357.89 167.232 357.242 167.004C356.414 166.704 355.766 166.38 355.298 166.032C354.83 165.672 354.596 165.162 354.596 164.502C354.596 163.794 354.86 163.212 355.388 162.756C355.928 162.288 356.654 162.054 357.566 162.054C358.058 162.054 358.532 162.144 358.988 162.324C359.444 162.504 359.852 162.738 360.212 163.026L359.582 163.872C359.234 163.62 358.904 163.428 358.592 163.296C358.28 163.164 357.938 163.098 357.566 163.098C357.014 163.098 356.594 163.23 356.306 163.494C356.018 163.746 355.874 164.058 355.874 164.43C355.874 164.694 355.958 164.922 356.126 165.114C356.306 165.306 356.522 165.462 356.774 165.582C357.026 165.69 357.38 165.834 357.836 166.014C358.448 166.242 358.928 166.446 359.276 166.626C359.624 166.806 359.924 167.064 360.176 167.4C360.428 167.724 360.554 168.144 360.554 168.66C360.554 169.128 360.428 169.56 360.176 169.956C359.936 170.34 359.576 170.646 359.096 170.874C358.628 171.102 358.07 171.216 357.422 171.216Z" fill="white"/>
<path d="M423.656 159.174H425.024L429.488 166.842L430.784 169.272H430.856L430.802 168.48C430.79 168.288 430.766 167.886 430.73 167.274C430.694 166.65 430.676 166.086 430.676 165.582V159.174H431.936V171H430.568L426.104 163.332L424.808 160.902H424.736L424.79 161.766C424.874 162.81 424.916 163.728 424.916 164.52V171H423.656V159.174ZM438.75 158.22H439.722L434.736 173.88H433.764L438.75 158.22ZM446.229 167.274H441.819L440.613 171H439.263L443.313 159.174H444.789L448.821 171H447.417L446.229 167.274ZM445.887 166.212L445.275 164.304C444.795 162.804 444.387 161.466 444.051 160.29H443.979C443.583 161.742 443.181 163.08 442.773 164.304L442.161 166.212H445.887Z" fill="white"/>
<g clip-path="url(#clip0)">
<path d="M613.786 165C613.43 165 613.143 165.288 613.143 165.643V172.071C613.143 172.426 612.855 172.714 612.5 172.714H600.929C600.573 172.714 600.286 172.426 600.286 172.071V159.214C600.286 158.859 600.573 158.572 600.929 158.572H608.643C608.998 158.572 609.286 158.284 609.286 157.929C609.286 157.574 608.998 157.286 608.643 157.286H600.929C599.863 157.286 599 158.149 599 159.214V172.071C599 173.136 599.863 174 600.929 174H612.5C613.565 174 614.428 173.136 614.428 172.071V165.643C614.428 165.288 614.141 165 613.786 165Z" fill="white"/>
<path d="M616.279 156.721C615.818 156.259 615.192 156 614.539 156C613.886 155.998 613.259 156.258 612.799 156.721L604.331 165.188C604.261 165.259 604.208 165.345 604.176 165.44L602.891 169.297C602.778 169.634 602.96 169.998 603.297 170.11C603.363 170.132 603.431 170.143 603.5 170.143C603.569 170.143 603.638 170.132 603.703 170.11L607.56 168.824C607.655 168.793 607.741 168.739 607.812 168.669L616.279 160.201C617.24 159.24 617.24 157.682 616.279 156.721Z" fill="white"/>
</g>
<g clip-path="url(#clip1)">
<path d="M575 159.635C571.561 159.635 568.442 161.517 566.141 164.573C565.953 164.823 565.953 165.173 566.141 165.423C568.442 168.483 571.561 170.365 575 170.365C578.439 170.365 581.558 168.483 583.859 165.427C584.047 165.177 584.047 164.827 583.859 164.577C581.558 161.517 578.439 159.635 575 159.635ZM575.247 168.778C572.964 168.921 571.079 167.04 571.222 164.753C571.34 162.868 572.868 161.34 574.753 161.222C577.036 161.079 578.921 162.96 578.778 165.247C578.656 167.128 577.128 168.656 575.247 168.778ZM575.133 167.033C573.903 167.11 572.886 166.097 572.967 164.867C573.03 163.851 573.855 163.03 574.871 162.964C576.101 162.886 577.117 163.899 577.036 165.129C576.97 166.149 576.145 166.97 575.133 167.033Z" fill="white"/>
</g>
<g clip-path="url(#clip2)">
<rect x="72" y="219" width="630" height="70" rx="9.06383" fill="#F3F4F4"/>
<path d="M96.656 247.174H103.37V248.308H97.988V252.484H102.542V253.6H97.988V259H96.656V247.174ZM108.456 259.216C107.736 259.216 107.07 259.036 106.458 258.676C105.846 258.304 105.354 257.776 104.982 257.092C104.622 256.396 104.442 255.58 104.442 254.644C104.442 253.708 104.622 252.892 104.982 252.196C105.354 251.5 105.846 250.972 106.458 250.612C107.07 250.24 107.736 250.054 108.456 250.054C109.176 250.054 109.842 250.24 110.454 250.612C111.066 250.972 111.552 251.5 111.912 252.196C112.284 252.892 112.47 253.708 112.47 254.644C112.47 255.58 112.284 256.396 111.912 257.092C111.552 257.776 111.066 258.304 110.454 258.676C109.842 259.036 109.176 259.216 108.456 259.216ZM108.456 258.118C108.972 258.118 109.428 257.974 109.824 257.686C110.232 257.398 110.55 256.99 110.778 256.462C111.006 255.934 111.12 255.328 111.12 254.644C111.12 253.96 111.006 253.354 110.778 252.826C110.55 252.298 110.232 251.89 109.824 251.602C109.428 251.302 108.972 251.152 108.456 251.152C107.94 251.152 107.478 251.302 107.07 251.602C106.674 251.89 106.362 252.298 106.134 252.826C105.918 253.354 105.81 253.96 105.81 254.644C105.81 255.688 106.056 256.528 106.548 257.164C107.04 257.8 107.676 258.118 108.456 258.118ZM114.846 250.27H115.926L116.034 251.872H116.088C116.388 251.308 116.754 250.864 117.186 250.54C117.618 250.216 118.08 250.054 118.572 250.054C118.92 250.054 119.22 250.114 119.472 250.234L119.22 251.386C118.908 251.29 118.632 251.242 118.392 251.242C117.984 251.242 117.576 251.41 117.168 251.746C116.772 252.082 116.43 252.604 116.142 253.312V259H114.846V250.27ZM127.915 259.216C127.099 259.216 126.337 259.06 125.629 258.748C124.933 258.436 124.327 258.004 123.811 257.452L124.621 256.534C125.053 257.002 125.557 257.374 126.133 257.65C126.709 257.914 127.309 258.046 127.933 258.046C128.737 258.046 129.367 257.86 129.823 257.488C130.291 257.116 130.525 256.618 130.525 255.994C130.525 255.598 130.441 255.268 130.273 255.004C130.105 254.74 129.889 254.53 129.625 254.374C129.361 254.218 128.989 254.032 128.509 253.816L126.799 253.06C126.103 252.76 125.527 252.376 125.071 251.908C124.627 251.44 124.405 250.816 124.405 250.036C124.405 249.448 124.561 248.92 124.873 248.452C125.185 247.984 125.617 247.618 126.169 247.354C126.733 247.09 127.357 246.958 128.041 246.958C128.725 246.958 129.361 247.09 129.949 247.354C130.549 247.618 131.059 247.972 131.479 248.416L130.759 249.262C129.979 248.506 129.073 248.128 128.041 248.128C127.345 248.128 126.787 248.296 126.367 248.632C125.947 248.968 125.737 249.412 125.737 249.964C125.737 250.336 125.833 250.648 126.025 250.9C126.217 251.152 126.439 251.35 126.691 251.494C126.943 251.638 127.285 251.806 127.717 251.998L129.427 252.754C130.207 253.078 130.807 253.48 131.227 253.96C131.659 254.44 131.875 255.088 131.875 255.904C131.875 256.528 131.713 257.092 131.389 257.596C131.065 258.1 130.603 258.496 130.003 258.784C129.403 259.072 128.707 259.216 127.915 259.216ZM135.534 259.216C135.042 259.216 134.682 259.066 134.454 258.766C134.226 258.454 134.112 257.998 134.112 257.398V246.148H135.408V257.506C135.408 257.71 135.444 257.866 135.516 257.974C135.6 258.07 135.702 258.118 135.822 258.118C135.918 258.118 136.026 258.106 136.146 258.082L136.326 259.09C136.098 259.174 135.834 259.216 135.534 259.216ZM138.612 250.27H139.908V259H138.612V250.27ZM139.278 248.398C139.014 248.398 138.798 248.314 138.63 248.146C138.462 247.978 138.378 247.756 138.378 247.48C138.378 247.216 138.462 247.006 138.63 246.85C138.798 246.682 139.014 246.598 139.278 246.598C139.542 246.598 139.758 246.682 139.926 246.85C140.094 247.006 140.178 247.216 140.178 247.48C140.178 247.756 140.094 247.978 139.926 248.146C139.758 248.314 139.542 248.398 139.278 248.398ZM142.971 250.27H144.051L144.159 251.566H144.213C144.693 251.086 145.161 250.714 145.617 250.45C146.085 250.186 146.595 250.054 147.147 250.054C148.059 250.054 148.731 250.342 149.163 250.918C149.595 251.482 149.811 252.328 149.811 253.456V259H148.497V253.618C148.497 252.778 148.359 252.166 148.083 251.782C147.819 251.398 147.381 251.206 146.769 251.206C146.337 251.206 145.935 251.32 145.563 251.548C145.191 251.764 144.759 252.118 144.267 252.61V259H142.971V250.27ZM155.661 263.068C154.569 263.068 153.693 262.858 153.033 262.438C152.385 262.018 152.061 261.442 152.061 260.71C152.061 260.338 152.169 259.978 152.385 259.63C152.613 259.282 152.931 258.97 153.339 258.694V258.622C153.111 258.478 152.925 258.286 152.781 258.046C152.637 257.806 152.565 257.524 152.565 257.2C152.565 256.864 152.655 256.558 152.835 256.282C153.027 255.994 153.255 255.76 153.519 255.58V255.508C153.207 255.256 152.943 254.926 152.727 254.518C152.511 254.11 152.403 253.66 152.403 253.168C152.403 252.556 152.547 252.016 152.835 251.548C153.123 251.068 153.513 250.702 154.005 250.45C154.497 250.186 155.037 250.054 155.625 250.054C156.021 250.054 156.423 250.126 156.831 250.27H159.855V251.296H158.001C158.229 251.512 158.415 251.788 158.559 252.124C158.703 252.46 158.775 252.814 158.775 253.186C158.775 253.786 158.637 254.32 158.361 254.788C158.085 255.244 157.707 255.598 157.227 255.85C156.747 256.102 156.213 256.228 155.625 256.228C155.145 256.228 154.701 256.126 154.293 255.922C154.101 256.078 153.951 256.24 153.843 256.408C153.747 256.564 153.699 256.762 153.699 257.002C153.699 257.314 153.813 257.56 154.041 257.74C154.281 257.908 154.683 257.992 155.247 257.992H156.993C158.013 257.992 158.769 258.16 159.261 258.496C159.753 258.832 159.999 259.354 159.999 260.062C159.999 260.59 159.819 261.082 159.459 261.538C159.099 262.006 158.589 262.378 157.929 262.654C157.269 262.93 156.513 263.068 155.661 263.068ZM155.625 255.328C156.165 255.328 156.621 255.13 156.993 254.734C157.377 254.326 157.569 253.804 157.569 253.168C157.569 252.52 157.383 252.004 157.011 251.62C156.639 251.224 156.177 251.026 155.625 251.026C155.073 251.026 154.605 251.224 154.221 251.62C153.849 252.004 153.663 252.52 153.663 253.168C153.663 253.804 153.849 254.326 154.221 254.734C154.605 255.13 155.073 255.328 155.625 255.328ZM155.841 262.132C156.393 262.132 156.885 262.042 157.317 261.862C157.761 261.694 158.103 261.46 158.343 261.16C158.583 260.872 158.703 260.566 158.703 260.242C158.703 259.834 158.553 259.54 158.253 259.36C157.953 259.192 157.497 259.108 156.885 259.108H155.283C154.911 259.108 154.539 259.06 154.167 258.964C153.531 259.408 153.213 259.93 153.213 260.53C153.213 261.022 153.447 261.412 153.915 261.7C154.383 261.988 155.025 262.132 155.841 262.132ZM163.977 259.216C163.377 259.216 162.795 259.108 162.231 258.892C161.667 258.664 161.169 258.37 160.737 258.01L161.403 257.128C161.835 257.476 162.255 257.74 162.663 257.92C163.071 258.1 163.527 258.19 164.031 258.19C164.607 258.19 165.051 258.052 165.363 257.776C165.675 257.5 165.831 257.152 165.831 256.732C165.831 256.312 165.651 255.976 165.291 255.724C164.943 255.472 164.445 255.232 163.797 255.004C162.969 254.704 162.321 254.38 161.853 254.032C161.385 253.672 161.151 253.162 161.151 252.502C161.151 251.794 161.415 251.212 161.943 250.756C162.483 250.288 163.209 250.054 164.121 250.054C164.613 250.054 165.087 250.144 165.543 250.324C165.999 250.504 166.407 250.738 166.767 251.026L166.137 251.872C165.789 251.62 165.459 251.428 165.147 251.296C164.835 251.164 164.493 251.098 164.121 251.098C163.569 251.098 163.149 251.23 162.861 251.494C162.573 251.746 162.429 252.058 162.429 252.43C162.429 252.694 162.513 252.922 162.681 253.114C162.861 253.306 163.077 253.462 163.329 253.582C163.581 253.69 163.935 253.834 164.391 254.014C165.003 254.242 165.483 254.446 165.831 254.626C166.179 254.806 166.479 255.064 166.731 255.4C166.983 255.724 167.109 256.144 167.109 256.66C167.109 257.128 166.983 257.56 166.731 257.956C166.491 258.34 166.131 258.646 165.651 258.874C165.183 259.102 164.625 259.216 163.977 259.216ZM169.233 246.148H170.529V249.712L170.493 251.548C170.973 251.068 171.441 250.702 171.897 250.45C172.353 250.186 172.857 250.054 173.409 250.054C174.321 250.054 174.993 250.342 175.425 250.918C175.857 251.482 176.073 252.328 176.073 253.456V259H174.759V253.618C174.759 252.778 174.621 252.166 174.345 251.782C174.081 251.398 173.643 251.206 173.031 251.206C172.599 251.206 172.197 251.32 171.825 251.548C171.453 251.764 171.021 252.118 170.529 252.61V259H169.233V246.148ZM182.284 259.216C181.564 259.216 180.898 259.036 180.286 258.676C179.674 258.304 179.182 257.776 178.81 257.092C178.45 256.396 178.27 255.58 178.27 254.644C178.27 253.708 178.45 252.892 178.81 252.196C179.182 251.5 179.674 250.972 180.286 250.612C180.898 250.24 181.564 250.054 182.284 250.054C183.004 250.054 183.67 250.24 184.282 250.612C184.894 250.972 185.38 251.5 185.74 252.196C186.112 252.892 186.298 253.708 186.298 254.644C186.298 255.58 186.112 256.396 185.74 257.092C185.38 257.776 184.894 258.304 184.282 258.676C183.67 259.036 183.004 259.216 182.284 259.216ZM182.284 258.118C182.8 258.118 183.256 257.974 183.652 257.686C184.06 257.398 184.378 256.99 184.606 256.462C184.834 255.934 184.948 255.328 184.948 254.644C184.948 253.96 184.834 253.354 184.606 252.826C184.378 252.298 184.06 251.89 183.652 251.602C183.256 251.302 182.8 251.152 182.284 251.152C181.768 251.152 181.306 251.302 180.898 251.602C180.502 251.89 180.19 252.298 179.962 252.826C179.746 253.354 179.638 253.96 179.638 254.644C179.638 255.688 179.884 256.528 180.376 257.164C180.868 257.8 181.504 258.118 182.284 258.118ZM191.039 259.216C190.175 259.216 189.557 258.97 189.185 258.478C188.813 257.986 188.627 257.284 188.627 256.372V251.35H187.313V250.36L188.681 250.27L188.843 247.804H189.941V250.27H192.335V251.35H189.941V256.408C189.941 256.984 190.043 257.416 190.247 257.704C190.463 257.992 190.823 258.136 191.327 258.136C191.579 258.136 191.915 258.058 192.335 257.902L192.605 258.892C191.957 259.108 191.435 259.216 191.039 259.216ZM200.784 254.14C200.784 254.452 200.766 254.716 200.73 254.932H194.7C194.76 255.952 195.072 256.744 195.636 257.308C196.212 257.872 196.914 258.154 197.742 258.154C198.51 258.154 199.248 257.92 199.956 257.452L200.442 258.316C200.01 258.592 199.566 258.814 199.11 258.982C198.654 259.138 198.144 259.216 197.58 259.216C196.812 259.216 196.11 259.036 195.474 258.676C194.85 258.304 194.352 257.77 193.98 257.074C193.62 256.378 193.44 255.568 193.44 254.644C193.44 253.732 193.62 252.928 193.98 252.232C194.352 251.536 194.838 251.002 195.438 250.63C196.038 250.246 196.674 250.054 197.346 250.054C198.426 250.054 199.266 250.42 199.866 251.152C200.478 251.872 200.784 252.868 200.784 254.14ZM199.614 253.978C199.614 253.054 199.416 252.346 199.02 251.854C198.624 251.362 198.072 251.116 197.364 251.116C196.716 251.116 196.14 251.362 195.636 251.854C195.132 252.346 194.832 253.054 194.736 253.978H199.614ZM202.983 250.27H204.063L204.171 251.872H204.225C204.525 251.308 204.891 250.864 205.323 250.54C205.755 250.216 206.217 250.054 206.709 250.054C207.057 250.054 207.357 250.114 207.609 250.234L207.357 251.386C207.045 251.29 206.769 251.242 206.529 251.242C206.121 251.242 205.713 251.41 205.305 251.746C204.909 252.082 204.567 252.604 204.279 253.312V259H202.983V250.27ZM211.28 259.216C210.68 259.216 210.098 259.108 209.534 258.892C208.97 258.664 208.472 258.37 208.04 258.01L208.706 257.128C209.138 257.476 209.558 257.74 209.966 257.92C210.374 258.1 210.83 258.19 211.334 258.19C211.91 258.19 212.354 258.052 212.666 257.776C212.978 257.5 213.134 257.152 213.134 256.732C213.134 256.312 212.954 255.976 212.594 255.724C212.246 255.472 211.748 255.232 211.1 255.004C210.272 254.704 209.624 254.38 209.156 254.032C208.688 253.672 208.454 253.162 208.454 252.502C208.454 251.794 208.718 251.212 209.246 250.756C209.786 250.288 210.512 250.054 211.424 250.054C211.916 250.054 212.39 250.144 212.846 250.324C213.302 250.504 213.71 250.738 214.07 251.026L213.44 251.872C213.092 251.62 212.762 251.428 212.45 251.296C212.138 251.164 211.796 251.098 211.424 251.098C210.872 251.098 210.452 251.23 210.164 251.494C209.876 251.746 209.732 252.058 209.732 252.43C209.732 252.694 209.816 252.922 209.984 253.114C210.164 253.306 210.38 253.462 210.632 253.582C210.884 253.69 211.238 253.834 211.694 254.014C212.306 254.242 212.786 254.446 213.134 254.626C213.482 254.806 213.782 255.064 214.034 255.4C214.286 255.724 214.412 256.144 214.412 256.66C214.412 257.128 214.286 257.56 214.034 257.956C213.794 258.34 213.434 258.646 212.954 258.874C212.486 259.102 211.928 259.216 211.28 259.216Z" fill="#222B2A"/>
<path d="M316.23 259.216C314.718 259.216 313.47 258.676 312.486 257.596L313.152 256.732C313.572 257.164 314.016 257.506 314.484 257.758C314.964 257.998 315.522 258.118 316.158 258.118C316.89 258.118 317.484 257.92 317.94 257.524C318.396 257.116 318.624 256.576 318.624 255.904C318.624 254.32 317.37 253.528 314.862 253.528V252.502C316.038 252.502 316.89 252.298 317.418 251.89C317.946 251.482 318.21 250.942 318.21 250.27C318.21 249.694 318.024 249.238 317.652 248.902C317.28 248.554 316.776 248.38 316.14 248.38C315.228 248.38 314.394 248.776 313.638 249.568L312.918 248.722C313.926 247.774 315.012 247.3 316.176 247.3C317.172 247.3 317.982 247.558 318.606 248.074C319.23 248.578 319.542 249.28 319.542 250.18C319.542 250.852 319.35 251.422 318.966 251.89C318.594 252.346 318.078 252.694 317.418 252.934V253.006C318.162 253.174 318.768 253.516 319.236 254.032C319.716 254.548 319.956 255.184 319.956 255.94C319.956 256.6 319.788 257.182 319.452 257.686C319.128 258.178 318.684 258.556 318.12 258.82C317.556 259.084 316.926 259.216 316.23 259.216ZM325.993 250.27H327.073L327.181 251.872H327.235C327.535 251.308 327.901 250.864 328.333 250.54C328.765 250.216 329.227 250.054 329.719 250.054C330.067 250.054 330.367 250.114 330.619 250.234L330.367 251.386C330.055 251.29 329.779 251.242 329.539 251.242C329.131 251.242 328.723 251.41 328.315 251.746C327.919 252.082 327.577 252.604 327.289 253.312V259H325.993V250.27ZM334.63 259.216C333.73 259.216 333.064 258.934 332.632 258.37C332.2 257.794 331.984 256.942 331.984 255.814V250.27H333.28V255.652C333.28 256.492 333.418 257.11 333.694 257.506C333.97 257.89 334.414 258.082 335.026 258.082C335.47 258.082 335.872 257.962 336.232 257.722C336.604 257.482 337.018 257.086 337.474 256.534V250.27H338.788V259H337.69L337.582 257.614H337.528C337.084 258.13 336.628 258.526 336.16 258.802C335.704 259.078 335.194 259.216 334.63 259.216ZM343.253 259.216C342.761 259.216 342.401 259.066 342.173 258.766C341.945 258.454 341.831 257.998 341.831 257.398V246.148H343.127V257.506C343.127 257.71 343.163 257.866 343.235 257.974C343.319 258.07 343.421 258.118 343.541 258.118C343.637 258.118 343.745 258.106 343.865 258.082L344.045 259.09C343.817 259.174 343.553 259.216 343.253 259.216ZM352.991 254.14C352.991 254.452 352.973 254.716 352.937 254.932H346.907C346.967 255.952 347.279 256.744 347.843 257.308C348.419 257.872 349.121 258.154 349.949 258.154C350.717 258.154 351.455 257.92 352.163 257.452L352.649 258.316C352.217 258.592 351.773 258.814 351.317 258.982C350.861 259.138 350.351 259.216 349.787 259.216C349.019 259.216 348.317 259.036 347.681 258.676C347.057 258.304 346.559 257.77 346.187 257.074C345.827 256.378 345.647 255.568 345.647 254.644C345.647 253.732 345.827 252.928 346.187 252.232C346.559 251.536 347.045 251.002 347.645 250.63C348.245 250.246 348.881 250.054 349.553 250.054C350.633 250.054 351.473 250.42 352.073 251.152C352.685 251.872 352.991 252.868 352.991 254.14ZM351.821 253.978C351.821 253.054 351.623 252.346 351.227 251.854C350.831 251.362 350.279 251.116 349.571 251.116C348.923 251.116 348.347 251.362 347.843 251.854C347.339 252.346 347.039 253.054 346.943 253.978H351.821ZM357.422 259.216C356.822 259.216 356.24 259.108 355.676 258.892C355.112 258.664 354.614 258.37 354.182 258.01L354.848 257.128C355.28 257.476 355.7 257.74 356.108 257.92C356.516 258.1 356.972 258.19 357.476 258.19C358.052 258.19 358.496 258.052 358.808 257.776C359.12 257.5 359.276 257.152 359.276 256.732C359.276 256.312 359.096 255.976 358.736 255.724C358.388 255.472 357.89 255.232 357.242 255.004C356.414 254.704 355.766 254.38 355.298 254.032C354.83 253.672 354.596 253.162 354.596 252.502C354.596 251.794 354.86 251.212 355.388 250.756C355.928 250.288 356.654 250.054 357.566 250.054C358.058 250.054 358.532 250.144 358.988 250.324C359.444 250.504 359.852 250.738 360.212 251.026L359.582 251.872C359.234 251.62 358.904 251.428 358.592 251.296C358.28 251.164 357.938 251.098 357.566 251.098C357.014 251.098 356.594 251.23 356.306 251.494C356.018 251.746 355.874 252.058 355.874 252.43C355.874 252.694 355.958 252.922 356.126 253.114C356.306 253.306 356.522 253.462 356.774 253.582C357.026 253.69 357.38 253.834 357.836 254.014C358.448 254.242 358.928 254.446 359.276 254.626C359.624 254.806 359.924 255.064 360.176 255.4C360.428 255.724 360.554 256.144 360.554 256.66C360.554 257.128 360.428 257.56 360.176 257.956C359.936 258.34 359.576 258.646 359.096 258.874C358.628 259.102 358.07 259.216 357.422 259.216Z" fill="#222222"/>
<path d="M422.72 258.226C424.076 256.858 425.126 255.76 425.87 254.932C426.614 254.104 427.184 253.342 427.58 252.646C427.988 251.95 428.192 251.296 428.192 250.684C428.192 249.988 428 249.43 427.616 249.01C427.232 248.59 426.668 248.38 425.924 248.38C425.468 248.38 425.024 248.506 424.592 248.758C424.172 249.01 423.782 249.352 423.422 249.784L422.648 249.028C423.152 248.476 423.68 248.05 424.232 247.75C424.784 247.45 425.402 247.3 426.086 247.3C427.13 247.3 427.958 247.606 428.57 248.218C429.182 248.818 429.488 249.622 429.488 250.63C429.488 251.326 429.29 252.04 428.894 252.772C428.51 253.504 428 254.242 427.364 254.986C426.728 255.73 425.822 256.72 424.646 257.956L425.078 257.938C425.75 257.89 426.248 257.866 426.572 257.866H430.046V259H422.72V258.226ZM439.377 259.216C438.609 259.216 437.913 259.036 437.289 258.676C436.677 258.304 436.191 257.776 435.831 257.092C435.483 256.408 435.309 255.592 435.309 254.644C435.309 253.708 435.495 252.892 435.867 252.196C436.251 251.5 436.761 250.972 437.397 250.612C438.033 250.24 438.723 250.054 439.467 250.054C440.415 250.054 441.261 250.402 442.005 251.098L441.321 251.962C441.033 251.698 440.745 251.5 440.457 251.368C440.169 251.224 439.857 251.152 439.521 251.152C438.981 251.152 438.495 251.302 438.063 251.602C437.631 251.89 437.289 252.298 437.037 252.826C436.797 253.354 436.677 253.96 436.677 254.644C436.677 255.688 436.935 256.528 437.451 257.164C437.967 257.8 438.645 258.118 439.485 258.118C440.241 258.118 440.949 257.818 441.609 257.218L442.185 258.1C441.789 258.448 441.351 258.724 440.871 258.928C440.391 259.12 439.893 259.216 439.377 259.216ZM445.589 259.216C445.097 259.216 444.737 259.066 444.509 258.766C444.281 258.454 444.167 257.998 444.167 257.398V246.148H445.463V257.506C445.463 257.71 445.499 257.866 445.571 257.974C445.655 258.07 445.757 258.118 445.877 258.118C445.973 258.118 446.081 258.106 446.201 258.082L446.381 259.09C446.153 259.174 445.889 259.216 445.589 259.216ZM448.667 250.27H449.963V259H448.667V250.27ZM449.333 248.398C449.069 248.398 448.853 248.314 448.685 248.146C448.517 247.978 448.433 247.756 448.433 247.48C448.433 247.216 448.517 247.006 448.685 246.85C448.853 246.682 449.069 246.598 449.333 246.598C449.597 246.598 449.813 246.682 449.981 246.85C450.149 247.006 450.233 247.216 450.233 247.48C450.233 247.756 450.149 247.978 449.981 248.146C449.813 248.314 449.597 248.398 449.333 248.398ZM459.686 254.14C459.686 254.452 459.668 254.716 459.632 254.932H453.602C453.662 255.952 453.974 256.744 454.538 257.308C455.114 257.872 455.816 258.154 456.644 258.154C457.412 258.154 458.15 257.92 458.858 257.452L459.344 258.316C458.912 258.592 458.468 258.814 458.012 258.982C457.556 259.138 457.046 259.216 456.482 259.216C455.714 259.216 455.012 259.036 454.376 258.676C453.752 258.304 453.254 257.77 452.882 257.074C452.522 256.378 452.342 255.568 452.342 254.644C452.342 253.732 452.522 252.928 452.882 252.232C453.254 251.536 453.74 251.002 454.34 250.63C454.94 250.246 455.576 250.054 456.248 250.054C457.328 250.054 458.168 250.42 458.768 251.152C459.38 251.872 459.686 252.868 459.686 254.14ZM458.516 253.978C458.516 253.054 458.318 252.346 457.922 251.854C457.526 251.362 456.974 251.116 456.266 251.116C455.618 251.116 455.042 251.362 454.538 251.854C454.034 252.346 453.734 253.054 453.638 253.978H458.516ZM461.885 250.27H462.965L463.073 251.566H463.127C463.607 251.086 464.075 250.714 464.531 250.45C464.999 250.186 465.509 250.054 466.061 250.054C466.973 250.054 467.645 250.342 468.077 250.918C468.509 251.482 468.725 252.328 468.725 253.456V259H467.411V253.618C467.411 252.778 467.273 252.166 466.997 251.782C466.733 251.398 466.295 251.206 465.683 251.206C465.251 251.206 464.849 251.32 464.477 251.548C464.105 251.764 463.673 252.118 463.181 252.61V259H461.885V250.27ZM474.305 259.216C473.441 259.216 472.823 258.97 472.451 258.478C472.079 257.986 471.893 257.284 471.893 256.372V251.35H470.579V250.36L471.947 250.27L472.109 247.804H473.207V250.27H475.601V251.35H473.207V256.408C473.207 256.984 473.309 257.416 473.513 257.704C473.729 257.992 474.089 258.136 474.593 258.136C474.845 258.136 475.181 258.058 475.601 257.902L475.871 258.892C475.223 259.108 474.701 259.216 474.305 259.216ZM479.797 259.216C479.197 259.216 478.615 259.108 478.051 258.892C477.487 258.664 476.989 258.37 476.557 258.01L477.223 257.128C477.655 257.476 478.075 257.74 478.483 257.92C478.891 258.1 479.347 258.19 479.851 258.19C480.427 258.19 480.871 258.052 481.183 257.776C481.495 257.5 481.651 257.152 481.651 256.732C481.651 256.312 481.471 255.976 481.111 255.724C480.763 255.472 480.265 255.232 479.617 255.004C478.789 254.704 478.141 254.38 477.673 254.032C477.205 253.672 476.971 253.162 476.971 252.502C476.971 251.794 477.235 251.212 477.763 250.756C478.303 250.288 479.029 250.054 479.941 250.054C480.433 250.054 480.907 250.144 481.363 250.324C481.819 250.504 482.227 250.738 482.587 251.026L481.957 251.872C481.609 251.62 481.279 251.428 480.967 251.296C480.655 251.164 480.313 251.098 479.941 251.098C479.389 251.098 478.969 251.23 478.681 251.494C478.393 251.746 478.249 252.058 478.249 252.43C478.249 252.694 478.333 252.922 478.501 253.114C478.681 253.306 478.897 253.462 479.149 253.582C479.401 253.69 479.755 253.834 480.211 254.014C480.823 254.242 481.303 254.446 481.651 254.626C481.999 254.806 482.299 255.064 482.551 255.4C482.803 255.724 482.929 256.144 482.929 256.66C482.929 257.128 482.803 257.56 482.551 257.956C482.311 258.34 481.951 258.646 481.471 258.874C481.003 259.102 480.445 259.216 479.797 259.216ZM490.079 259.216C489.587 259.216 489.227 259.066 488.999 258.766C488.771 258.454 488.657 257.998 488.657 257.398V246.148H489.953V257.506C489.953 257.71 489.989 257.866 490.061 257.974C490.145 258.07 490.247 258.118 490.367 258.118C490.463 258.118 490.571 258.106 490.691 258.082L490.871 259.09C490.643 259.174 490.379 259.216 490.079 259.216ZM493.157 250.27H494.453V259H493.157V250.27ZM493.823 248.398C493.559 248.398 493.343 248.314 493.175 248.146C493.007 247.978 492.923 247.756 492.923 247.48C492.923 247.216 493.007 247.006 493.175 246.85C493.343 246.682 493.559 246.598 493.823 246.598C494.087 246.598 494.303 246.682 494.471 246.85C494.639 247.006 494.723 247.216 494.723 247.48C494.723 247.756 494.639 247.978 494.471 248.146C494.303 248.314 494.087 248.398 493.823 248.398ZM497.516 250.27H498.596L498.704 251.566H498.758C499.238 251.086 499.706 250.714 500.162 250.45C500.63 250.186 501.14 250.054 501.692 250.054C502.604 250.054 503.276 250.342 503.708 250.918C504.14 251.482 504.356 252.328 504.356 253.456V259H503.042V253.618C503.042 252.778 502.904 252.166 502.628 251.782C502.364 251.398 501.926 251.206 501.314 251.206C500.882 251.206 500.48 251.32 500.108 251.548C499.736 251.764 499.304 252.118 498.812 252.61V259H497.516V250.27ZM507.29 246.148H508.568V255.04H508.622L512.492 250.27H513.95L511.034 253.762L514.346 259H512.924L510.278 254.68L508.568 256.696V259H507.29V246.148ZM522.422 254.14C522.422 254.452 522.404 254.716 522.368 254.932H516.338C516.398 255.952 516.71 256.744 517.274 257.308C517.85 257.872 518.552 258.154 519.38 258.154C520.148 258.154 520.886 257.92 521.594 257.452L522.08 258.316C521.648 258.592 521.204 258.814 520.748 258.982C520.292 259.138 519.782 259.216 519.218 259.216C518.45 259.216 517.748 259.036 517.112 258.676C516.488 258.304 515.99 257.77 515.618 257.074C515.258 256.378 515.078 255.568 515.078 254.644C515.078 253.732 515.258 252.928 515.618 252.232C515.99 251.536 516.476 251.002 517.076 250.63C517.676 250.246 518.312 250.054 518.984 250.054C520.064 250.054 520.904 250.42 521.504 251.152C522.116 251.872 522.422 252.868 522.422 254.14ZM521.252 253.978C521.252 253.054 521.054 252.346 520.658 251.854C520.262 251.362 519.71 251.116 519.002 251.116C518.354 251.116 517.778 251.362 517.274 251.854C516.77 252.346 516.47 253.054 516.374 253.978H521.252ZM527.556 259.216C526.452 259.216 525.576 258.814 524.928 258.01C524.292 257.206 523.974 256.084 523.974 254.644C523.974 253.732 524.148 252.928 524.496 252.232C524.844 251.536 525.306 251.002 525.882 250.63C526.47 250.246 527.1 250.054 527.772 250.054C528.24 250.054 528.66 250.138 529.032 250.306C529.404 250.474 529.812 250.732 530.256 251.08L530.202 249.568V246.148H531.498V259H530.418L530.31 257.938H530.256C529.884 258.322 529.464 258.634 528.996 258.874C528.54 259.102 528.06 259.216 527.556 259.216ZM527.844 258.1C528.264 258.1 528.66 257.998 529.032 257.794C529.416 257.59 529.806 257.278 530.202 256.858V252.124C529.818 251.788 529.446 251.548 529.086 251.404C528.726 251.248 528.354 251.17 527.97 251.17C527.478 251.17 527.028 251.32 526.62 251.62C526.224 251.92 525.906 252.334 525.666 252.862C525.438 253.39 525.324 253.984 525.324 254.644C525.324 255.724 525.54 256.57 525.972 257.182C526.416 257.794 527.04 258.1 527.844 258.1Z" fill="#222222"/>
<g clip-path="url(#clip3)">
<path d="M613.786 253C613.43 253 613.143 253.288 613.143 253.643V260.071C613.143 260.426 612.855 260.714 612.5 260.714H600.929C600.573 260.714 600.286 260.426 600.286 260.071V247.214C600.286 246.859 600.573 246.572 600.929 246.572H608.643C608.998 246.572 609.286 246.284 609.286 245.929C609.286 245.574 608.998 245.286 608.643 245.286H600.929C599.863 245.286 599 246.149 599 247.214V260.071C599 261.136 599.863 262 600.929 262H612.5C613.565 262 614.428 261.136 614.428 260.071V253.643C614.428 253.288 614.141 253 613.786 253Z" fill="#222B2A"/>
<path d="M616.279 244.721C615.818 244.259 615.192 244 614.539 244C613.886 243.998 613.259 244.258 612.799 244.721L604.331 253.188C604.261 253.259 604.208 253.345 604.176 253.44L602.891 257.297C602.778 257.634 602.96 257.998 603.297 258.11C603.363 258.132 603.431 258.143 603.5 258.143C603.569 258.143 603.638 258.132 603.703 258.11L607.56 256.824C607.655 256.793 607.741 256.739 607.812 256.669L616.279 248.201C617.24 247.24 617.24 245.682 616.279 244.721Z" fill="#222B2A"/>
</g>
<g clip-path="url(#clip4)">
<path d="M575 247.635C571.561 247.635 568.442 249.517 566.141 252.573C565.953 252.823 565.953 253.173 566.141 253.423C568.442 256.483 571.561 258.365 575 258.365C578.439 258.365 581.558 256.483 583.859 253.427C584.047 253.177 584.047 252.827 583.859 252.577C581.558 249.517 578.439 247.635 575 247.635ZM575.247 256.778C572.964 256.921 571.079 255.04 571.222 252.753C571.34 250.868 572.868 249.34 574.753 249.222C577.036 249.079 578.921 250.96 578.778 253.247C578.656 255.128 577.128 256.656 575.247 256.778ZM575.133 255.033C573.903 255.11 572.886 254.097 572.967 252.867C573.03 251.851 573.855 251.03 574.871 250.964C576.101 250.886 577.117 251.899 577.036 253.129C576.97 254.149 576.145 254.97 575.133 255.033Z" fill="#222B2A"/>
</g>
<path d="M646.906 246.25H643.812V245.688C643.812 244.756 643.057 244 642.125 244H639.875C638.943 244 638.188 244.756 638.188 245.688V246.25H635.094C634.317 246.25 633.688 246.88 633.688 247.656V248.781C633.688 249.092 633.939 249.344 634.25 249.344H647.75C648.061 249.344 648.312 249.092 648.312 248.781V247.656C648.312 246.88 647.683 246.25 646.906 246.25ZM639.312 245.688C639.312 245.377 639.565 245.125 639.875 245.125H642.125C642.435 245.125 642.688 245.377 642.688 245.688V246.25H639.312V245.688Z" fill="black"/>
<path d="M634.755 250.469C634.655 250.469 634.575 250.553 634.579 250.653L635.043 260.393C635.086 261.294 635.827 262 636.729 262H645.271C646.173 262 646.914 261.294 646.957 260.393L647.421 250.653C647.425 250.553 647.345 250.469 647.245 250.469H634.755ZM643.25 251.875C643.25 251.564 643.502 251.312 643.813 251.312C644.123 251.312 644.375 251.564 644.375 251.875V259.188C644.375 259.498 644.123 259.75 643.813 259.75C643.502 259.75 643.25 259.498 643.25 259.188V251.875ZM640.438 251.875C640.438 251.564 640.689 251.312 641 251.312C641.311 251.312 641.563 251.564 641.563 251.875V259.188C641.563 259.498 641.311 259.75 641 259.75C640.689 259.75 640.438 259.498 640.438 259.188V251.875ZM637.625 251.875C637.625 251.564 637.877 251.312 638.188 251.312C638.498 251.312 638.75 251.564 638.75 251.875V259.188C638.75 259.498 638.498 259.75 638.188 259.75C637.877 259.75 637.625 259.498 637.625 259.188V251.875Z" fill="black"/>
<path d="M681.414 246.812C678.342 246.812 675.989 245.935 674 244C672.01 245.935 669.657 246.812 666.586 246.812C666.586 251.851 665.543 259.069 674 262C682.456 259.069 681.414 251.851 681.414 246.812ZM673.386 255.679L670.916 253.209L672.021 252.103L673.386 253.467L675.978 250.874L677.084 251.98L673.386 255.679Z" fill="black"/>
</g>
<rect x="72" y="307" width="630" height="70" rx="9.06383" fill="#F3F4F4"/>
<path d="M95.018 335.174H96.44L98.42 341.69C98.612 342.374 98.75 342.842 98.834 343.094C99.038 343.862 99.284 344.702 99.572 345.614H99.644C99.776 345.218 100.052 344.306 100.472 342.878L100.814 341.69L102.794 335.174H104.144L100.364 347H98.834L95.018 335.174ZM112.102 342.14C112.102 342.452 112.084 342.716 112.048 342.932H106.018C106.078 343.952 106.39 344.744 106.954 345.308C107.53 345.872 108.232 346.154 109.06 346.154C109.828 346.154 110.566 345.92 111.274 345.452L111.76 346.316C111.328 346.592 110.884 346.814 110.428 346.982C109.972 347.138 109.462 347.216 108.898 347.216C108.13 347.216 107.428 347.036 106.792 346.676C106.168 346.304 105.67 345.77 105.298 345.074C104.938 344.378 104.758 343.568 104.758 342.644C104.758 341.732 104.938 340.928 105.298 340.232C105.67 339.536 106.156 339.002 106.756 338.63C107.356 338.246 107.992 338.054 108.664 338.054C109.744 338.054 110.584 338.42 111.184 339.152C111.796 339.872 112.102 340.868 112.102 342.14ZM110.932 341.978C110.932 341.054 110.734 340.346 110.338 339.854C109.942 339.362 109.39 339.116 108.682 339.116C108.034 339.116 107.458 339.362 106.954 339.854C106.45 340.346 106.15 341.054 106.054 341.978H110.932ZM114.301 338.27H115.381L115.489 339.872H115.543C115.843 339.308 116.209 338.864 116.641 338.54C117.073 338.216 117.535 338.054 118.027 338.054C118.375 338.054 118.675 338.114 118.927 338.234L118.675 339.386C118.363 339.29 118.087 339.242 117.847 339.242C117.439 339.242 117.031 339.41 116.623 339.746C116.227 340.082 115.885 340.604 115.597 341.312V347H114.301V338.27ZM120.419 338.27H121.715V347H120.419V338.27ZM121.085 336.398C120.821 336.398 120.605 336.314 120.437 336.146C120.269 335.978 120.185 335.756 120.185 335.48C120.185 335.216 120.269 335.006 120.437 334.85C120.605 334.682 120.821 334.598 121.085 334.598C121.349 334.598 121.565 334.682 121.733 334.85C121.901 335.006 121.985 335.216 121.985 335.48C121.985 335.756 121.901 335.978 121.733 336.146C121.565 336.314 121.349 336.398 121.085 336.398ZM127.55 335.012C126.71 335.012 126.29 335.6 126.29 336.776V338.27H128.18V339.35H126.29V347H124.976V339.35H123.788V338.36L124.976 338.27V336.758C124.976 335.858 125.18 335.162 125.588 334.67C126.008 334.178 126.626 333.932 127.442 333.932C127.91 333.932 128.378 334.028 128.846 334.22L128.558 335.228C128.222 335.084 127.886 335.012 127.55 335.012ZM129.893 338.27H131.189V347H129.893V338.27ZM130.559 336.398C130.295 336.398 130.079 336.314 129.911 336.146C129.743 335.978 129.659 335.756 129.659 335.48C129.659 335.216 129.743 335.006 129.911 334.85C130.079 334.682 130.295 334.598 130.559 334.598C130.823 334.598 131.039 334.682 131.207 334.85C131.375 335.006 131.459 335.216 131.459 335.48C131.459 335.756 131.375 335.978 131.207 336.146C131.039 336.314 130.823 336.398 130.559 336.398ZM140.913 342.14C140.913 342.452 140.895 342.716 140.859 342.932H134.829C134.889 343.952 135.201 344.744 135.765 345.308C136.341 345.872 137.043 346.154 137.871 346.154C138.639 346.154 139.377 345.92 140.085 345.452L140.571 346.316C140.139 346.592 139.695 346.814 139.239 346.982C138.783 347.138 138.273 347.216 137.709 347.216C136.941 347.216 136.239 347.036 135.603 346.676C134.979 346.304 134.481 345.77 134.109 345.074C133.749 344.378 133.569 343.568 133.569 342.644C133.569 341.732 133.749 340.928 134.109 340.232C134.481 339.536 134.967 339.002 135.567 338.63C136.167 338.246 136.803 338.054 137.475 338.054C138.555 338.054 139.395 338.42 139.995 339.152C140.607 339.872 140.913 340.868 140.913 342.14ZM139.743 341.978C139.743 341.054 139.545 340.346 139.149 339.854C138.753 339.362 138.201 339.116 137.493 339.116C136.845 339.116 136.269 339.362 135.765 339.854C135.261 340.346 134.961 341.054 134.865 341.978H139.743ZM146.046 347.216C144.942 347.216 144.066 346.814 143.418 346.01C142.782 345.206 142.464 344.084 142.464 342.644C142.464 341.732 142.638 340.928 142.986 340.232C143.334 339.536 143.796 339.002 144.372 338.63C144.96 338.246 145.59 338.054 146.262 338.054C146.73 338.054 147.15 338.138 147.522 338.306C147.894 338.474 148.302 338.732 148.746 339.08L148.692 337.568V334.148H149.988V347H148.908L148.8 345.938H148.746C148.374 346.322 147.954 346.634 147.486 346.874C147.03 347.102 146.55 347.216 146.046 347.216ZM146.334 346.1C146.754 346.1 147.15 345.998 147.522 345.794C147.906 345.59 148.296 345.278 148.692 344.858V340.124C148.308 339.788 147.936 339.548 147.576 339.404C147.216 339.248 146.844 339.17 146.46 339.17C145.968 339.17 145.518 339.32 145.11 339.62C144.714 339.92 144.396 340.334 144.156 340.862C143.928 341.39 143.814 341.984 143.814 342.644C143.814 343.724 144.03 344.57 144.462 345.182C144.906 345.794 145.53 346.1 146.334 346.1ZM159.581 347.216C158.477 347.216 157.601 346.814 156.953 346.01C156.317 345.206 155.999 344.084 155.999 342.644C155.999 341.732 156.173 340.928 156.521 340.232C156.869 339.536 157.331 339.002 157.907 338.63C158.495 338.246 159.125 338.054 159.797 338.054C160.265 338.054 160.685 338.138 161.057 338.306C161.429 338.474 161.837 338.732 162.281 339.08L162.227 337.568V334.148H163.523V347H162.443L162.335 345.938H162.281C161.909 346.322 161.489 346.634 161.021 346.874C160.565 347.102 160.085 347.216 159.581 347.216ZM159.869 346.1C160.289 346.1 160.685 345.998 161.057 345.794C161.441 345.59 161.831 345.278 162.227 344.858V340.124C161.843 339.788 161.471 339.548 161.111 339.404C160.751 339.248 160.379 339.17 159.995 339.17C159.503 339.17 159.053 339.32 158.645 339.62C158.249 339.92 157.931 340.334 157.691 340.862C157.463 341.39 157.349 341.984 157.349 342.644C157.349 343.724 157.565 344.57 157.997 345.182C158.441 345.794 159.065 346.1 159.869 346.1ZM173.239 342.14C173.239 342.452 173.221 342.716 173.185 342.932H167.155C167.215 343.952 167.527 344.744 168.091 345.308C168.667 345.872 169.369 346.154 170.197 346.154C170.965 346.154 171.703 345.92 172.411 345.452L172.897 346.316C172.465 346.592 172.021 346.814 171.565 346.982C171.109 347.138 170.599 347.216 170.035 347.216C169.267 347.216 168.565 347.036 167.929 346.676C167.305 346.304 166.807 345.77 166.435 345.074C166.075 344.378 165.895 343.568 165.895 342.644C165.895 341.732 166.075 340.928 166.435 340.232C166.807 339.536 167.293 339.002 167.893 338.63C168.493 338.246 169.129 338.054 169.801 338.054C170.881 338.054 171.721 338.42 172.321 339.152C172.933 339.872 173.239 340.868 173.239 342.14ZM172.069 341.978C172.069 341.054 171.871 340.346 171.475 339.854C171.079 339.362 170.527 339.116 169.819 339.116C169.171 339.116 168.595 339.362 168.091 339.854C167.587 340.346 167.287 341.054 167.191 341.978H172.069ZM177.172 347.216C176.428 347.216 175.816 347 175.336 346.568C174.856 346.136 174.616 345.53 174.616 344.75C174.616 343.802 175.048 343.076 175.912 342.572C176.776 342.056 178.156 341.696 180.052 341.492C180.052 340.808 179.908 340.25 179.62 339.818C179.344 339.374 178.864 339.152 178.18 339.152C177.352 339.152 176.47 339.47 175.534 340.106L175.012 339.206C176.164 338.438 177.292 338.054 178.396 338.054C179.404 338.054 180.148 338.372 180.628 339.008C181.108 339.632 181.348 340.496 181.348 341.6V347H180.268L180.16 345.938H180.106C179.074 346.79 178.096 347.216 177.172 347.216ZM177.514 346.154C177.934 346.154 178.342 346.058 178.738 345.866C179.146 345.662 179.584 345.35 180.052 344.93V342.374C178.552 342.554 177.484 342.83 176.848 343.202C176.224 343.574 175.912 344.066 175.912 344.678C175.912 345.17 176.062 345.542 176.362 345.794C176.662 346.034 177.046 346.154 177.514 346.154ZM185.632 347.216C185.14 347.216 184.78 347.066 184.552 346.766C184.324 346.454 184.21 345.998 184.21 345.398V334.148H185.506V345.506C185.506 345.71 185.542 345.866 185.614 345.974C185.698 346.07 185.8 346.118 185.92 346.118C186.016 346.118 186.124 346.106 186.244 346.082L186.424 347.09C186.196 347.174 185.932 347.216 185.632 347.216ZM194.293 347.216C193.549 347.216 192.937 347 192.457 346.568C191.977 346.136 191.737 345.53 191.737 344.75C191.737 343.802 192.169 343.076 193.033 342.572C193.897 342.056 195.277 341.696 197.173 341.492C197.173 340.808 197.029 340.25 196.741 339.818C196.465 339.374 195.985 339.152 195.301 339.152C194.473 339.152 193.591 339.47 192.655 340.106L192.133 339.206C193.285 338.438 194.413 338.054 195.517 338.054C196.525 338.054 197.269 338.372 197.749 339.008C198.229 339.632 198.469 340.496 198.469 341.6V347H197.389L197.281 345.938H197.227C196.195 346.79 195.217 347.216 194.293 347.216ZM194.635 346.154C195.055 346.154 195.463 346.058 195.859 345.866C196.267 345.662 196.705 345.35 197.173 344.93V342.374C195.673 342.554 194.605 342.83 193.969 343.202C193.345 343.574 193.033 344.066 193.033 344.678C193.033 345.17 193.183 345.542 193.483 345.794C193.783 346.034 194.167 346.154 194.635 346.154ZM203.748 347.216C202.884 347.216 202.266 346.97 201.894 346.478C201.522 345.986 201.336 345.284 201.336 344.372V339.35H200.022V338.36L201.39 338.27L201.552 335.804H202.65V338.27H205.044V339.35H202.65V344.408C202.65 344.984 202.752 345.416 202.956 345.704C203.172 345.992 203.532 346.136 204.036 346.136C204.288 346.136 204.624 346.058 205.044 345.902L205.314 346.892C204.666 347.108 204.144 347.216 203.748 347.216ZM213.563 347.216C212.423 347.216 211.535 346.694 210.899 345.65C210.263 344.606 209.945 343.13 209.945 341.222C209.945 339.314 210.263 337.85 210.899 336.83C211.535 335.81 212.423 335.3 213.563 335.3C214.703 335.3 215.591 335.81 216.227 336.83C216.863 337.85 217.181 339.314 217.181 341.222C217.181 343.13 216.863 344.606 216.227 345.65C215.591 346.694 214.703 347.216 213.563 347.216ZM213.563 346.154C214.295 346.154 214.865 345.746 215.273 344.93C215.693 344.102 215.903 342.866 215.903 341.222C215.903 339.578 215.693 338.36 215.273 337.568C214.865 336.764 214.295 336.362 213.563 336.362C212.831 336.362 212.255 336.764 211.835 337.568C211.427 338.36 211.223 339.578 211.223 341.222C211.223 342.866 211.427 344.102 211.835 344.93C212.255 345.746 212.831 346.154 213.563 346.154Z" fill="#222B2A"/>
<path d="M312.882 345.902H315.528V337.172H313.44V336.326C314.412 336.158 315.21 335.888 315.834 335.516H316.842V345.902H319.236V347H312.882V345.902ZM325.255 338.27H326.335L326.443 339.872H326.497C326.797 339.308 327.163 338.864 327.595 338.54C328.027 338.216 328.489 338.054 328.981 338.054C329.329 338.054 329.629 338.114 329.881 338.234L329.629 339.386C329.317 339.29 329.041 339.242 328.801 339.242C328.393 339.242 327.985 339.41 327.577 339.746C327.181 340.082 326.839 340.604 326.551 341.312V347H325.255V338.27ZM333.892 347.216C332.992 347.216 332.326 346.934 331.894 346.37C331.462 345.794 331.246 344.942 331.246 343.814V338.27H332.542V343.652C332.542 344.492 332.68 345.11 332.956 345.506C333.232 345.89 333.676 346.082 334.288 346.082C334.732 346.082 335.134 345.962 335.494 345.722C335.866 345.482 336.28 345.086 336.736 344.534V338.27H338.05V347H336.952L336.844 345.614H336.79C336.346 346.13 335.89 346.526 335.422 346.802C334.966 347.078 334.456 347.216 333.892 347.216ZM342.515 347.216C342.023 347.216 341.663 347.066 341.435 346.766C341.207 346.454 341.093 345.998 341.093 345.398V334.148H342.389V345.506C342.389 345.71 342.425 345.866 342.497 345.974C342.581 346.07 342.683 346.118 342.803 346.118C342.899 346.118 343.007 346.106 343.127 346.082L343.307 347.09C343.079 347.174 342.815 347.216 342.515 347.216ZM352.253 342.14C352.253 342.452 352.235 342.716 352.199 342.932H346.169C346.229 343.952 346.541 344.744 347.105 345.308C347.681 345.872 348.383 346.154 349.211 346.154C349.979 346.154 350.717 345.92 351.425 345.452L351.911 346.316C351.479 346.592 351.035 346.814 350.579 346.982C350.123 347.138 349.613 347.216 349.049 347.216C348.281 347.216 347.579 347.036 346.943 346.676C346.319 346.304 345.821 345.77 345.449 345.074C345.089 344.378 344.909 343.568 344.909 342.644C344.909 341.732 345.089 340.928 345.449 340.232C345.821 339.536 346.307 339.002 346.907 338.63C347.507 338.246 348.143 338.054 348.814 338.054C349.895 338.054 350.735 338.42 351.335 339.152C351.947 339.872 352.253 340.868 352.253 342.14ZM351.083 341.978C351.083 341.054 350.885 340.346 350.489 339.854C350.093 339.362 349.541 339.116 348.833 339.116C348.185 339.116 347.609 339.362 347.105 339.854C346.601 340.346 346.301 341.054 346.205 341.978H351.083Z" fill="#222222"/>
<path opacity="0.88" d="M430.334 343.76H428.732V347H427.49V343.76H422.306V342.914L427.328 335.516H428.732V342.716H430.334V343.76ZM427.49 342.716V339.152C427.49 338.696 427.52 337.976 427.58 336.992H427.508C427.268 337.424 427.082 337.742 426.95 337.946L426.572 338.576L423.71 342.716H427.49ZM439.377 347.216C438.609 347.216 437.913 347.036 437.289 346.676C436.677 346.304 436.191 345.776 435.831 345.092C435.483 344.408 435.309 343.592 435.309 342.644C435.309 341.708 435.495 340.892 435.867 340.196C436.251 339.5 436.761 338.972 437.397 338.612C438.033 338.24 438.723 338.054 439.467 338.054C440.415 338.054 441.261 338.402 442.005 339.098L441.321 339.962C441.033 339.698 440.745 339.5 440.457 339.368C440.169 339.224 439.857 339.152 439.521 339.152C438.981 339.152 438.495 339.302 438.063 339.602C437.631 339.89 437.289 340.298 437.037 340.826C436.797 341.354 436.677 341.96 436.677 342.644C436.677 343.688 436.935 344.528 437.451 345.164C437.967 345.8 438.645 346.118 439.485 346.118C440.241 346.118 440.949 345.818 441.609 345.218L442.185 346.1C441.789 346.448 441.351 346.724 440.871 346.928C440.391 347.12 439.893 347.216 439.377 347.216ZM445.589 347.216C445.097 347.216 444.737 347.066 444.509 346.766C444.281 346.454 444.167 345.998 444.167 345.398V334.148H445.463V345.506C445.463 345.71 445.499 345.866 445.571 345.974C445.655 346.07 445.757 346.118 445.877 346.118C445.973 346.118 446.081 346.106 446.201 346.082L446.381 347.09C446.153 347.174 445.889 347.216 445.589 347.216ZM448.667 338.27H449.963V347H448.667V338.27ZM449.333 336.398C449.069 336.398 448.853 336.314 448.685 336.146C448.517 335.978 448.433 335.756 448.433 335.48C448.433 335.216 448.517 335.006 448.685 334.85C448.853 334.682 449.069 334.598 449.333 334.598C449.597 334.598 449.813 334.682 449.981 334.85C450.149 335.006 450.233 335.216 450.233 335.48C450.233 335.756 450.149 335.978 449.981 336.146C449.813 336.314 449.597 336.398 449.333 336.398ZM459.686 342.14C459.686 342.452 459.668 342.716 459.632 342.932H453.602C453.662 343.952 453.974 344.744 454.538 345.308C455.114 345.872 455.816 346.154 456.644 346.154C457.412 346.154 458.15 345.92 458.858 345.452L459.344 346.316C458.912 346.592 458.468 346.814 458.012 346.982C457.556 347.138 457.046 347.216 456.482 347.216C455.714 347.216 455.012 347.036 454.376 346.676C453.752 346.304 453.254 345.77 452.882 345.074C452.522 344.378 452.342 343.568 452.342 342.644C452.342 341.732 452.522 340.928 452.882 340.232C453.254 339.536 453.74 339.002 454.34 338.63C454.94 338.246 455.576 338.054 456.248 338.054C457.328 338.054 458.168 338.42 458.768 339.152C459.38 339.872 459.686 340.868 459.686 342.14ZM458.516 341.978C458.516 341.054 458.318 340.346 457.922 339.854C457.526 339.362 456.974 339.116 456.266 339.116C455.618 339.116 455.042 339.362 454.538 339.854C454.034 340.346 453.734 341.054 453.638 341.978H458.516ZM461.885 338.27H462.965L463.073 339.566H463.127C463.607 339.086 464.075 338.714 464.531 338.45C464.999 338.186 465.509 338.054 466.061 338.054C466.973 338.054 467.645 338.342 468.077 338.918C468.509 339.482 468.725 340.328 468.725 341.456V347H467.411V341.618C467.411 340.778 467.273 340.166 466.997 339.782C466.733 339.398 466.295 339.206 465.683 339.206C465.251 339.206 464.849 339.32 464.477 339.548C464.105 339.764 463.673 340.118 463.181 340.61V347H461.885V338.27ZM474.305 347.216C473.441 347.216 472.823 346.97 472.451 346.478C472.079 345.986 471.893 345.284 471.893 344.372V339.35H470.579V338.36L471.947 338.27L472.109 335.804H473.207V338.27H475.601V339.35H473.207V344.408C473.207 344.984 473.309 345.416 473.513 345.704C473.729 345.992 474.089 346.136 474.593 346.136C474.845 346.136 475.181 346.058 475.601 345.902L475.871 346.892C475.223 347.108 474.701 347.216 474.305 347.216ZM479.797 347.216C479.197 347.216 478.615 347.108 478.051 346.892C477.487 346.664 476.989 346.37 476.557 346.01L477.223 345.128C477.655 345.476 478.075 345.74 478.483 345.92C478.891 346.1 479.347 346.19 479.851 346.19C480.427 346.19 480.871 346.052 481.183 345.776C481.495 345.5 481.651 345.152 481.651 344.732C481.651 344.312 481.471 343.976 481.111 343.724C480.763 343.472 480.265 343.232 479.617 343.004C478.789 342.704 478.141 342.38 477.673 342.032C477.205 341.672 476.971 341.162 476.971 340.502C476.971 339.794 477.235 339.212 477.763 338.756C478.303 338.288 479.029 338.054 479.941 338.054C480.433 338.054 480.907 338.144 481.363 338.324C481.819 338.504 482.227 338.738 482.587 339.026L481.957 339.872C481.609 339.62 481.279 339.428 480.967 339.296C480.655 339.164 480.313 339.098 479.941 339.098C479.389 339.098 478.969 339.23 478.681 339.494C478.393 339.746 478.249 340.058 478.249 340.43C478.249 340.694 478.333 340.922 478.501 341.114C478.681 341.306 478.897 341.462 479.149 341.582C479.401 341.69 479.755 341.834 480.211 342.014C480.823 342.242 481.303 342.446 481.651 342.626C481.999 342.806 482.299 343.064 482.551 343.4C482.803 343.724 482.929 344.144 482.929 344.66C482.929 345.128 482.803 345.56 482.551 345.956C482.311 346.34 481.951 346.646 481.471 346.874C481.003 347.102 480.445 347.216 479.797 347.216ZM490.079 347.216C489.587 347.216 489.227 347.066 488.999 346.766C488.771 346.454 488.657 345.998 488.657 345.398V334.148H489.953V345.506C489.953 345.71 489.989 345.866 490.061 345.974C490.145 346.07 490.247 346.118 490.367 346.118C490.463 346.118 490.571 346.106 490.691 346.082L490.871 347.09C490.643 347.174 490.379 347.216 490.079 347.216ZM493.157 338.27H494.453V347H493.157V338.27ZM493.823 336.398C493.559 336.398 493.343 336.314 493.175 336.146C493.007 335.978 492.923 335.756 492.923 335.48C492.923 335.216 493.007 335.006 493.175 334.85C493.343 334.682 493.559 334.598 493.823 334.598C494.087 334.598 494.303 334.682 494.471 334.85C494.639 335.006 494.723 335.216 494.723 335.48C494.723 335.756 494.639 335.978 494.471 336.146C494.303 336.314 494.087 336.398 493.823 336.398ZM497.516 338.27H498.596L498.704 339.566H498.758C499.238 339.086 499.706 338.714 500.162 338.45C500.63 338.186 501.14 338.054 501.692 338.054C502.604 338.054 503.276 338.342 503.708 338.918C504.14 339.482 504.356 340.328 504.356 341.456V347H503.042V341.618C503.042 340.778 502.904 340.166 502.628 339.782C502.364 339.398 501.926 339.206 501.314 339.206C500.882 339.206 500.48 339.32 500.108 339.548C499.736 339.764 499.304 340.118 498.812 340.61V347H497.516V338.27ZM507.29 334.148H508.568V343.04H508.622L512.492 338.27H513.95L511.034 341.762L514.346 347H512.924L510.278 342.68L508.568 344.696V347H507.29V334.148ZM522.422 342.14C522.422 342.452 522.404 342.716 522.368 342.932H516.338C516.398 343.952 516.71 344.744 517.274 345.308C517.85 345.872 518.552 346.154 519.38 346.154C520.148 346.154 520.886 345.92 521.594 345.452L522.08 346.316C521.648 346.592 521.204 346.814 520.748 346.982C520.292 347.138 519.782 347.216 519.218 347.216C518.45 347.216 517.748 347.036 517.112 346.676C516.488 346.304 515.99 345.77 515.618 345.074C515.258 344.378 515.078 343.568 515.078 342.644C515.078 341.732 515.258 340.928 515.618 340.232C515.99 339.536 516.476 339.002 517.076 338.63C517.676 338.246 518.312 338.054 518.984 338.054C520.064 338.054 520.904 338.42 521.504 339.152C522.116 339.872 522.422 340.868 522.422 342.14ZM521.252 341.978C521.252 341.054 521.054 340.346 520.658 339.854C520.262 339.362 519.71 339.116 519.002 339.116C518.354 339.116 517.778 339.362 517.274 339.854C516.77 340.346 516.47 341.054 516.374 341.978H521.252ZM527.556 347.216C526.452 347.216 525.576 346.814 524.928 346.01C524.292 345.206 523.974 344.084 523.974 342.644C523.974 341.732 524.148 340.928 524.496 340.232C524.844 339.536 525.306 339.002 525.882 338.63C526.47 338.246 527.1 338.054 527.772 338.054C528.24 338.054 528.66 338.138 529.032 338.306C529.404 338.474 529.812 338.732 530.256 339.08L530.202 337.568V334.148H531.498V347H530.418L530.31 345.938H530.256C529.884 346.322 529.464 346.634 528.996 346.874C528.54 347.102 528.06 347.216 527.556 347.216ZM527.844 346.1C528.264 346.1 528.66 345.998 529.032 345.794C529.416 345.59 529.806 345.278 530.202 344.858V340.124C529.818 339.788 529.446 339.548 529.086 339.404C528.726 339.248 528.354 339.17 527.97 339.17C527.478 339.17 527.028 339.32 526.62 339.62C526.224 339.92 525.906 340.334 525.666 340.862C525.438 341.39 525.324 341.984 525.324 342.644C525.324 343.724 525.54 344.57 525.972 345.182C526.416 345.794 527.04 346.1 527.844 346.1Z" fill="#222222"/>
<g clip-path="url(#clip5)">
<path d="M611.786 341C611.43 341 611.143 341.288 611.143 341.643V348.071C611.143 348.426 610.855 348.714 610.5 348.714H598.929C598.573 348.714 598.286 348.426 598.286 348.071V335.214C598.286 334.859 598.573 334.572 598.929 334.572H606.643C606.998 334.572 607.286 334.284 607.286 333.929C607.286 333.574 606.998 333.286 606.643 333.286H598.929C597.863 333.286 597 334.149 597 335.214V348.071C597 349.136 597.863 350 598.929 350H610.5C611.565 350 612.428 349.136 612.428 348.071V341.643C612.428 341.288 612.141 341 611.786 341Z" fill="#222B2A"/>
<path d="M614.279 332.721C613.818 332.259 613.192 332 612.539 332C611.886 331.998 611.259 332.258 610.799 332.721L602.331 341.188C602.261 341.259 602.208 341.345 602.176 341.44L600.891 345.297C600.778 345.634 600.96 345.998 601.297 346.11C601.363 346.132 601.431 346.143 601.5 346.143C601.569 346.143 601.638 346.132 601.703 346.11L605.56 344.824C605.655 344.793 605.741 344.739 605.812 344.669L614.279 336.201C615.24 335.24 615.24 333.682 614.279 332.721Z" fill="#222B2A"/>
</g>
<g clip-path="url(#clip6)">
<path d="M573 335.635C569.561 335.635 566.442 337.517 564.141 340.573C563.953 340.823 563.953 341.173 564.141 341.423C566.442 344.483 569.561 346.365 573 346.365C576.439 346.365 579.558 344.483 581.859 341.427C582.047 341.177 582.047 340.827 581.859 340.577C579.558 337.517 576.439 335.635 573 335.635ZM573.247 344.778C570.964 344.921 569.079 343.04 569.222 340.753C569.34 338.868 570.868 337.34 572.753 337.222C575.036 337.079 576.921 338.96 576.778 341.247C576.656 343.128 575.128 344.656 573.247 344.778ZM573.133 343.033C571.903 343.11 570.886 342.097 570.967 340.867C571.03 339.851 571.855 339.03 572.871 338.964C574.101 338.886 575.117 339.899 575.036 341.129C574.97 342.149 574.145 342.97 573.133 343.033Z" fill="#222B2A"/>
</g>
<path d="M644.906 334.25H641.812V333.688C641.812 332.756 641.057 332 640.125 332H637.875C636.943 332 636.188 332.756 636.188 333.688V334.25H633.094C632.317 334.25 631.688 334.88 631.688 335.656V336.781C631.688 337.092 631.939 337.344 632.25 337.344H645.75C646.061 337.344 646.312 337.092 646.312 336.781V335.656C646.312 334.88 645.683 334.25 644.906 334.25ZM637.312 333.688C637.312 333.377 637.565 333.125 637.875 333.125H640.125C640.435 333.125 640.688 333.377 640.688 333.688V334.25H637.312V333.688Z" fill="black"/>
<path d="M632.755 338.469C632.655 338.469 632.575 338.553 632.579 338.653L633.043 348.393C633.086 349.294 633.827 350 634.729 350H643.271C644.173 350 644.914 349.294 644.957 348.393L645.421 338.653C645.425 338.553 645.345 338.469 645.245 338.469H632.755ZM641.25 339.875C641.25 339.564 641.502 339.312 641.813 339.312C642.123 339.312 642.375 339.564 642.375 339.875V347.188C642.375 347.498 642.123 347.75 641.813 347.75C641.502 347.75 641.25 347.498 641.25 347.188V339.875ZM638.438 339.875C638.438 339.564 638.689 339.312 639 339.312C639.311 339.312 639.563 339.564 639.563 339.875V347.188C639.563 347.498 639.311 347.75 639 347.75C638.689 347.75 638.438 347.498 638.438 347.188V339.875ZM635.625 339.875C635.625 339.564 635.877 339.312 636.188 339.312C636.498 339.312 636.75 339.564 636.75 339.875V347.188C636.75 347.498 636.498 347.75 636.188 347.75C635.877 347.75 635.625 347.498 635.625 347.188V339.875Z" fill="black"/>
<path d="M679.414 334.812C676.342 334.812 673.989 333.935 672 332C670.01 333.935 667.657 334.812 664.586 334.812C664.586 339.851 663.543 347.069 672 350C680.456 347.069 679.414 339.851 679.414 334.812ZM671.386 343.679L668.916 341.209L670.021 340.103L671.386 341.467L673.978 338.874L675.084 339.98L671.386 343.679Z" fill="black"/>
</g>
<path d="M78.2736 65.28H81.1056L83.9856 73.272L84.5616 75.024L85.0416 76.44H85.1376C85.3936 75.672 85.5536 75.176 85.6176 74.952L86.1696 73.272L89.0016 65.28H91.8336V81H89.5776V73.176C89.5776 72.312 89.6656 70.88 89.8416 68.88L89.8896 68.328H89.7936L88.5456 71.952L85.7856 79.464H84.2736L81.5136 71.952L80.2656 68.328H80.1696L80.2176 68.88C80.3936 70.88 80.4816 72.312 80.4816 73.176V81H78.2736V65.28ZM96.2809 85.92C95.7529 85.92 95.2649 85.84 94.8169 85.68L95.2729 83.784C95.6409 83.896 95.9289 83.952 96.1369 83.952C97.2889 83.952 98.1129 83.208 98.6089 81.72L98.8489 80.928L94.1929 69.264H96.6649L98.8489 75.336L99.5689 77.52L99.9289 78.648H100.025C100.201 78.072 100.337 77.576 100.433 77.16L100.961 75.336L102.857 69.264H105.209L100.889 81.72C100.393 83.096 99.7929 84.136 99.0889 84.84C98.3849 85.56 97.4489 85.92 96.2809 85.92ZM112.159 69.264H114.151L114.343 70.56H114.415C115.679 69.504 116.887 68.976 118.039 68.976C119.511 68.976 120.647 69.512 121.447 70.584C122.263 71.656 122.671 73.112 122.671 74.952C122.671 76.248 122.439 77.376 121.975 78.336C121.511 79.28 120.895 80.008 120.127 80.52C119.359 81.032 118.527 81.288 117.631 81.288C116.607 81.288 115.567 80.848 114.511 79.968L114.583 81.96V85.776H112.159V69.264ZM117.151 79.272C118.047 79.272 118.775 78.896 119.335 78.144C119.895 77.376 120.175 76.32 120.175 74.976C120.175 72.32 119.247 70.992 117.391 70.992C116.527 70.992 115.591 71.472 114.583 72.432V78.192C115.431 78.912 116.287 79.272 117.151 79.272ZM125.589 69.264H127.581L127.773 71.376H127.845C128.261 70.624 128.757 70.04 129.333 69.624C129.925 69.192 130.541 68.976 131.181 68.976C131.709 68.976 132.141 69.056 132.477 69.216L132.045 71.328C131.613 71.2 131.221 71.136 130.869 71.136C130.341 71.136 129.821 71.344 129.309 71.76C128.797 72.16 128.365 72.8 128.013 73.68V81H125.589V69.264ZM134.284 69.264H136.708V81H134.284V69.264ZM135.508 67.056C135.076 67.056 134.716 66.92 134.428 66.648C134.156 66.376 134.02 66.024 134.02 65.592C134.02 65.176 134.156 64.832 134.428 64.56C134.716 64.288 135.076 64.152 135.508 64.152C135.94 64.152 136.292 64.288 136.564 64.56C136.852 64.832 136.996 65.176 136.996 65.592C136.996 66.024 136.852 66.376 136.564 66.648C136.292 66.92 135.94 67.056 135.508 67.056ZM145.177 81.288C144.121 81.288 143.169 81.048 142.321 80.568C141.473 80.072 140.801 79.36 140.305 78.432C139.825 77.504 139.585 76.408 139.585 75.144C139.585 73.88 139.849 72.784 140.377 71.856C140.905 70.928 141.609 70.216 142.489 69.72C143.369 69.224 144.329 68.976 145.369 68.976C146.649 68.976 147.793 69.424 148.801 70.32L147.601 71.904C147.249 71.6 146.905 71.368 146.569 71.208C146.233 71.048 145.873 70.968 145.489 70.968C144.481 70.968 143.657 71.352 143.017 72.12C142.393 72.888 142.081 73.896 142.081 75.144C142.081 76.392 142.385 77.4 142.993 78.168C143.617 78.92 144.425 79.296 145.417 79.296C146.297 79.296 147.153 78.936 147.985 78.216L148.993 79.824C148.465 80.304 147.865 80.672 147.193 80.928C146.537 81.168 145.865 81.288 145.177 81.288ZM151.417 69.264H153.841V81H151.417V69.264ZM152.641 67.056C152.209 67.056 151.849 66.92 151.561 66.648C151.289 66.376 151.153 66.024 151.153 65.592C151.153 65.176 151.289 64.832 151.561 64.56C151.849 64.288 152.209 64.152 152.641 64.152C153.073 64.152 153.425 64.288 153.697 64.56C153.985 64.832 154.129 65.176 154.129 65.592C154.129 66.024 153.985 66.376 153.697 66.648C153.425 66.92 153.073 67.056 152.641 67.056ZM157.534 69.264H159.526L159.718 70.896H159.79C160.414 70.288 161.03 69.816 161.638 69.48C162.262 69.144 162.942 68.976 163.678 68.976C166.078 68.976 167.278 70.52 167.278 73.608V81H164.854V73.92C164.854 72.912 164.694 72.184 164.374 71.736C164.07 71.288 163.566 71.064 162.862 71.064C162.334 71.064 161.862 71.192 161.446 71.448C161.03 71.688 160.534 72.096 159.958 72.672V81H157.534V69.264ZM174.855 86.28C173.399 86.28 172.223 86.008 171.327 85.464C170.431 84.936 169.983 84.176 169.983 83.184C169.983 82.688 170.127 82.216 170.415 81.768C170.719 81.336 171.143 80.952 171.687 80.616V80.52C170.983 80.072 170.631 79.424 170.631 78.576C170.631 78.144 170.751 77.736 170.991 77.352C171.247 76.968 171.559 76.648 171.927 76.392V76.296C171.495 75.96 171.127 75.52 170.823 74.976C170.535 74.432 170.391 73.832 170.391 73.176C170.391 72.328 170.591 71.584 170.991 70.944C171.407 70.304 171.959 69.816 172.647 69.48C173.351 69.144 174.111 68.976 174.927 68.976C175.535 68.976 176.103 69.072 176.631 69.264H180.783V71.088H178.527C178.767 71.344 178.959 71.664 179.103 72.048C179.247 72.416 179.319 72.816 179.319 73.248C179.319 74.496 178.903 75.48 178.071 76.2C177.239 76.92 176.191 77.28 174.927 77.28C174.351 77.28 173.799 77.16 173.271 76.92C173.063 77.112 172.903 77.304 172.791 77.496C172.679 77.672 172.623 77.896 172.623 78.168C172.623 78.536 172.775 78.824 173.079 79.032C173.383 79.224 173.887 79.32 174.591 79.32H176.775C178.183 79.32 179.231 79.552 179.919 80.016C180.623 80.48 180.975 81.2 180.975 82.176C180.975 82.928 180.719 83.616 180.207 84.24C179.711 84.864 178.999 85.36 178.071 85.728C177.143 86.096 176.071 86.28 174.855 86.28ZM174.927 75.72C175.567 75.72 176.095 75.488 176.511 75.024C176.943 74.56 177.159 73.944 177.159 73.176C177.159 72.408 176.943 71.8 176.511 71.352C176.095 70.904 175.567 70.68 174.927 70.68C174.287 70.68 173.751 70.904 173.319 71.352C172.903 71.8 172.695 72.408 172.695 73.176C172.695 73.944 172.903 74.56 173.319 75.024C173.751 75.488 174.287 75.72 174.927 75.72ZM175.215 84.672C175.871 84.672 176.455 84.576 176.967 84.384C177.495 84.192 177.903 83.928 178.191 83.592C178.479 83.272 178.623 82.928 178.623 82.56C178.623 82.08 178.439 81.744 178.071 81.552C177.719 81.36 177.175 81.264 176.439 81.264H174.639C174.047 81.264 173.527 81.208 173.079 81.096C172.391 81.608 172.047 82.184 172.047 82.824C172.047 83.4 172.327 83.848 172.887 84.168C173.447 84.504 174.223 84.672 175.215 84.672ZM187.933 69.264H189.925L190.117 70.896H190.189C190.765 70.304 191.341 69.84 191.917 69.504C192.509 69.152 193.141 68.976 193.813 68.976C195.429 68.976 196.509 69.696 197.053 71.136C197.709 70.432 198.333 69.896 198.925 69.528C199.533 69.16 200.181 68.976 200.869 68.976C202.069 68.976 202.965 69.376 203.557 70.176C204.165 70.96 204.469 72.104 204.469 73.608V81H202.045V73.92C202.045 72.912 201.885 72.184 201.565 71.736C201.261 71.288 200.765 71.064 200.077 71.064C199.277 71.064 198.389 71.6 197.413 72.672V81H194.989V73.92C194.989 72.912 194.829 72.184 194.509 71.736C194.205 71.288 193.709 71.064 193.021 71.064C192.221 71.064 191.333 71.6 190.357 72.672V81H187.933V69.264ZM212.723 81.288C211.747 81.288 210.835 81.04 209.987 80.544C209.139 80.048 208.459 79.336 207.947 78.408C207.451 77.48 207.203 76.392 207.203 75.144C207.203 73.88 207.451 72.784 207.947 71.856C208.459 70.928 209.131 70.216 209.963 69.72C210.811 69.224 211.731 68.976 212.723 68.976C213.715 68.976 214.627 69.224 215.459 69.72C216.307 70.216 216.979 70.928 217.475 71.856C217.987 72.784 218.243 73.88 218.243 75.144C218.243 76.392 217.987 77.48 217.475 78.408C216.979 79.336 216.307 80.048 215.459 80.544C214.611 81.04 213.699 81.288 212.723 81.288ZM212.723 79.296C213.651 79.296 214.387 78.92 214.931 78.168C215.475 77.4 215.747 76.392 215.747 75.144C215.747 73.896 215.467 72.888 214.907 72.12C214.363 71.352 213.635 70.968 212.723 70.968C211.811 70.968 211.075 71.352 210.515 72.12C209.971 72.888 209.699 73.896 209.699 75.144C209.699 76.392 209.971 77.4 210.515 78.168C211.059 78.92 211.795 79.296 212.723 79.296ZM225.176 81.288C223.704 81.288 222.528 80.744 221.648 79.656C220.784 78.568 220.352 77.064 220.352 75.144C220.352 73.912 220.584 72.832 221.048 71.904C221.512 70.96 222.128 70.24 222.896 69.744C223.664 69.232 224.488 68.976 225.368 68.976C225.992 68.976 226.544 69.088 227.024 69.312C227.504 69.52 228.008 69.848 228.536 70.296L228.44 68.352V63.984H230.864V81H228.872L228.68 79.68H228.608C228.128 80.16 227.592 80.552 227 80.856C226.408 81.144 225.8 81.288 225.176 81.288ZM225.752 79.272C226.248 79.272 226.712 79.16 227.144 78.936C227.576 78.696 228.008 78.328 228.44 77.832V72.072C227.64 71.352 226.776 70.992 225.848 70.992C225.288 70.992 224.776 71.16 224.312 71.496C223.864 71.832 223.504 72.312 223.232 72.936C222.976 73.56 222.848 74.288 222.848 75.12C222.848 76.448 223.096 77.472 223.592 78.192C224.104 78.912 224.824 79.272 225.752 79.272ZM243.862 74.52C243.862 74.968 243.83 75.384 243.766 75.768H236.014C236.126 76.952 236.526 77.856 237.214 78.48C237.918 79.088 238.766 79.392 239.758 79.392C240.702 79.392 241.638 79.096 242.566 78.504L243.406 80.04C242.158 80.872 240.838 81.288 239.446 81.288C238.374 81.288 237.406 81.04 236.542 80.544C235.678 80.048 234.99 79.336 234.478 78.408C233.982 77.48 233.734 76.392 233.734 75.144C233.734 73.912 233.982 72.832 234.478 71.904C234.99 70.96 235.654 70.24 236.47 69.744C237.286 69.232 238.158 68.976 239.086 68.976C240.606 68.976 241.782 69.48 242.614 70.488C243.446 71.48 243.862 72.824 243.862 74.52ZM241.75 74.088C241.75 73.064 241.526 72.272 241.078 71.712C240.63 71.152 239.982 70.872 239.134 70.872C238.398 70.872 237.742 71.144 237.166 71.688C236.59 72.232 236.222 73.032 236.062 74.088H241.75ZM249.021 81.288C248.173 81.288 247.557 81.032 247.173 80.52C246.789 80.008 246.597 79.256 246.597 78.264V63.984H249.021V78.408C249.021 78.712 249.077 78.936 249.189 79.08C249.301 79.224 249.437 79.296 249.597 79.296C249.741 79.296 249.885 79.28 250.029 79.248L250.341 81.072C249.973 81.216 249.533 81.288 249.021 81.288ZM256.117 81.288C255.333 81.288 254.549 81.136 253.765 80.832C252.981 80.528 252.293 80.136 251.701 79.656L252.853 78.096C253.413 78.528 253.957 78.864 254.485 79.104C255.013 79.328 255.581 79.44 256.189 79.44C256.861 79.44 257.373 79.296 257.725 79.008C258.077 78.704 258.253 78.32 258.253 77.856C258.253 77.376 258.037 77 257.605 76.728C257.173 76.44 256.525 76.136 255.661 75.816C254.621 75.432 253.797 74.992 253.189 74.496C252.581 73.984 252.277 73.288 252.277 72.408C252.277 71.4 252.653 70.576 253.405 69.936C254.157 69.296 255.173 68.976 256.453 68.976C257.829 68.976 259.093 69.432 260.245 70.344L259.117 71.856C258.669 71.52 258.237 71.264 257.821 71.088C257.405 70.912 256.965 70.824 256.501 70.824C255.877 70.824 255.397 70.96 255.061 71.232C254.741 71.504 254.581 71.856 254.581 72.288C254.581 72.608 254.693 72.88 254.917 73.104C255.141 73.312 255.397 73.48 255.685 73.608C255.989 73.736 256.461 73.92 257.101 74.16C257.805 74.416 258.389 74.68 258.853 74.952C259.333 75.208 259.733 75.56 260.053 76.008C260.389 76.456 260.557 77.024 260.557 77.712C260.557 78.384 260.381 78.992 260.029 79.536C259.693 80.064 259.189 80.488 258.517 80.808C257.845 81.128 257.045 81.288 256.117 81.288Z" fill="#010812"/>
<g clip-path="url(#clip7)">
<path d="M603.531 61.3437C603.531 58.5822 605.77 56.3437 608.531 56.3437H711.978C714.74 56.3437 716.978 58.5822 716.978 61.3437V82.1053C716.978 84.8667 714.74 87.1053 711.978 87.1053H608.531C605.77 87.1053 603.531 84.8667 603.531 82.1053V61.3437Z" fill="#000B44"/>
<path d="M639.542 65.9437V74.3437H637.946L633.758 69.2437V74.3437H631.838V65.9437H633.446L637.622 71.0437V65.9437H639.542ZM647.922 71.1397C647.922 71.1637 647.91 71.3317 647.886 71.6437H643.002C643.09 72.0437 643.298 72.3597 643.626 72.5917C643.954 72.8237 644.362 72.9397 644.85 72.9397C645.186 72.9397 645.482 72.8917 645.738 72.7957C646.002 72.6917 646.246 72.5317 646.47 72.3157L647.466 73.3957C646.858 74.0917 645.97 74.4397 644.802 74.4397C644.074 74.4397 643.43 74.2997 642.87 74.0197C642.31 73.7317 641.878 73.3357 641.574 72.8317C641.27 72.3277 641.118 71.7557 641.118 71.1157C641.118 70.4837 641.266 69.9157 641.562 69.4117C641.866 68.8997 642.278 68.5037 642.798 68.2237C643.326 67.9357 643.914 67.7917 644.562 67.7917C645.194 67.7917 645.766 67.9277 646.278 68.1997C646.79 68.4717 647.19 68.8637 647.478 69.3757C647.774 69.8797 647.922 70.4677 647.922 71.1397ZM644.574 69.2077C644.15 69.2077 643.794 69.3277 643.506 69.5677C643.218 69.8077 643.042 70.1357 642.978 70.5517H646.158C646.094 70.1437 645.918 69.8197 645.63 69.5797C645.342 69.3317 644.99 69.2077 644.574 69.2077ZM659.619 67.8877L657.279 74.3437H655.479L654.027 70.3357L652.527 74.3437H650.727L648.399 67.8877H650.163L651.687 72.2557L653.271 67.8877H654.855L656.391 72.2557L657.963 67.8877H659.619ZM672.556 67.7917C673.364 67.7917 674.004 68.0317 674.476 68.5117C674.956 68.9837 675.196 69.6957 675.196 70.6477V74.3437H673.324V70.9357C673.324 70.4237 673.216 70.0437 673 69.7957C672.792 69.5397 672.492 69.4117 672.1 69.4117C671.66 69.4117 671.312 69.5557 671.056 69.8437C670.8 70.1237 670.672 70.5437 670.672 71.1037V74.3437H668.8V70.9357C668.8 69.9197 668.392 69.4117 667.576 69.4117C667.144 69.4117 666.8 69.5557 666.544 69.8437C666.288 70.1237 666.16 70.5437 666.16 71.1037V74.3437H664.288V67.8877H666.076V68.6317C666.316 68.3597 666.608 68.1517 666.952 68.0077C667.304 67.8637 667.688 67.7917 668.104 67.7917C668.56 67.7917 668.972 67.8837 669.34 68.0677C669.708 68.2437 670.004 68.5037 670.228 68.8477C670.492 68.5117 670.824 68.2517 671.224 68.0677C671.632 67.8837 672.076 67.7917 672.556 67.7917ZM680.216 74.4397C679.536 74.4397 678.924 74.2997 678.38 74.0197C677.844 73.7317 677.424 73.3357 677.12 72.8317C676.816 72.3277 676.664 71.7557 676.664 71.1157C676.664 70.4757 676.816 69.9037 677.12 69.3997C677.424 68.8957 677.844 68.5037 678.38 68.2237C678.924 67.9357 679.536 67.7917 680.216 67.7917C680.896 67.7917 681.504 67.9357 682.04 68.2237C682.576 68.5037 682.996 68.8957 683.3 69.3997C683.604 69.9037 683.756 70.4757 683.756 71.1157C683.756 71.7557 683.604 72.3277 683.3 72.8317C682.996 73.3357 682.576 73.7317 682.04 74.0197C681.504 74.2997 680.896 74.4397 680.216 74.4397ZM680.216 72.9037C680.696 72.9037 681.088 72.7437 681.392 72.4237C681.704 72.0957 681.86 71.6597 681.86 71.1157C681.86 70.5717 681.704 70.1397 681.392 69.8197C681.088 69.4917 680.696 69.3277 680.216 69.3277C679.736 69.3277 679.34 69.4917 679.028 69.8197C678.716 70.1397 678.56 70.5717 678.56 71.1157C678.56 71.6597 678.716 72.0957 679.028 72.4237C679.34 72.7437 679.736 72.9037 680.216 72.9037ZM691.783 65.4397V74.3437H689.995V73.5997C689.531 74.1597 688.859 74.4397 687.979 74.4397C687.371 74.4397 686.819 74.3037 686.323 74.0317C685.835 73.7597 685.451 73.3717 685.171 72.8677C684.891 72.3637 684.751 71.7797 684.751 71.1157C684.751 70.4517 684.891 69.8677 685.171 69.3637C685.451 68.8597 685.835 68.4717 686.323 68.1997C686.819 67.9277 687.371 67.7917 687.979 67.7917C688.803 67.7917 689.447 68.0517 689.911 68.5717V65.4397H691.783ZM688.303 72.9037C688.775 72.9037 689.167 72.7437 689.479 72.4237C689.791 72.0957 689.947 71.6597 689.947 71.1157C689.947 70.5717 689.791 70.1397 689.479 69.8197C689.167 69.4917 688.775 69.3277 688.303 69.3277C687.823 69.3277 687.427 69.4917 687.115 69.8197C686.803 70.1397 686.647 70.5717 686.647 71.1157C686.647 71.6597 686.803 72.0957 687.115 72.4237C687.427 72.7437 687.823 72.9037 688.303 72.9037ZM700.04 71.1397C700.04 71.1637 700.028 71.3317 700.004 71.6437H695.12C695.208 72.0437 695.416 72.3597 695.744 72.5917C696.072 72.8237 696.48 72.9397 696.968 72.9397C697.304 72.9397 697.6 72.8917 697.856 72.7957C698.12 72.6917 698.364 72.5317 698.588 72.3157L699.584 73.3957C698.976 74.0917 698.088 74.4397 696.92 74.4397C696.192 74.4397 695.548 74.2997 694.988 74.0197C694.428 73.7317 693.996 73.3357 693.692 72.8317C693.388 72.3277 693.236 71.7557 693.236 71.1157C693.236 70.4837 693.384 69.9157 693.68 69.4117C693.984 68.8997 694.396 68.5037 694.916 68.2237C695.444 67.9357 696.032 67.7917 696.68 67.7917C697.312 67.7917 697.884 67.9277 698.396 68.1997C698.908 68.4717 699.308 68.8637 699.596 69.3757C699.892 69.8797 700.04 70.4677 700.04 71.1397ZM696.692 69.2077C696.268 69.2077 695.912 69.3277 695.624 69.5677C695.336 69.8077 695.16 70.1357 695.096 70.5517H698.276C698.212 70.1437 698.036 69.8197 697.748 69.5797C697.46 69.3317 697.108 69.2077 696.692 69.2077ZM701.486 65.4397H703.358V74.3437H701.486V65.4397Z" fill="white"/>
<path d="M622.27 70.87H618.125C617.99 70.87 617.881 70.7425 617.881 70.5852V65.7431C617.881 64.9566 617.335 64.3189 616.661 64.3189C615.988 64.3189 615.442 64.9566 615.442 65.7431V70.5852C615.442 70.7425 615.333 70.87 615.198 70.87H611.053C610.38 70.87 609.834 71.5077 609.834 72.2941C609.834 73.0806 610.38 73.7183 611.053 73.7183H615.198C615.333 73.7183 615.442 73.8458 615.442 74.0031V78.8452C615.442 79.6317 615.988 80.2694 616.661 80.2694C617.335 80.2694 617.881 79.6317 617.881 78.8452V74.0031C617.881 73.8458 617.99 73.7183 618.125 73.7183H622.27C622.943 73.7183 623.489 73.0806 623.489 72.2941C623.489 71.5077 622.943 70.87 622.27 70.87Z" fill="white"/>
</g>
<defs>
<filter id="filter0_ddd" x="0.874728" y="0.534884" width="769.59" height="462.884" filterUnits="userSpaceOnUse" color-interpolation-filters="sRGB">
<feFlood flood-opacity="0" result="BackgroundImageFix"/>
<feColorMatrix in="SourceAlpha" type="matrix" values="0 0 0 0 0 0 0 0 0 0 0 0 0 0 0 0 0 0 127 0" result="hardAlpha"/>
<feOffset/>
<feGaussianBlur stdDeviation="0.593023"/>
<feColorMatrix type="matrix" values="0 0 0 0 0 0 0 0 0 0 0 0 0 0 0 0 0 0 0.2 0"/>
<feBlend mode="normal" in2="BackgroundImageFix" result="effect1_dropShadow"/>
<feColorMatrix in="SourceAlpha" type="matrix" values="0 0 0 0 0 0 0 0 0 0 0 0 0 0 0 0 0 0 127 0" result="hardAlpha"/>
<feMorphology radius="9.48837" operator="erode" in="SourceAlpha" result="effect2_dropShadow"/>
<feOffset/>
<feGaussianBlur stdDeviation="18.9767"/>
<feColorMatrix type="matrix" values="0 0 0 0 0 0 0 0 0 0 0 0 0 0 0 0 0 0 0.12 0"/>
<feBlend mode="normal" in2="effect1_dropShadow" result="effect2_dropShadow"/>
<feColorMatrix in="SourceAlpha" type="matrix" values="0 0 0 0 0 0 0 0 0 0 0 0 0 0 0 0 0 0 127 0" result="hardAlpha"/>
<feMorphology radius="9.48837" operator="erode" in="SourceAlpha" result="effect3_dropShadow"/>
<feOffset dy="37.9535"/>
<feGaussianBlur stdDeviation="18.9767"/>
<feColorMatrix type="matrix" values="0 0 0 0 0 0 0 0 0 0 0 0 0 0 0 0 0 0 0.08 0"/>
<feBlend mode="normal" in2="effect2_dropShadow" result="effect3_dropShadow"/>
<feBlend mode="normal" in="SourceGraphic" in2="effect3_dropShadow" result="shape"/>
</filter>
<clipPath id="clip0">
<rect width="18" height="18" fill="white" transform="translate(599 156)"/>
</clipPath>
<clipPath id="clip1">
<rect width="18" height="18" fill="white" transform="translate(566 156)"/>
</clipPath>
<clipPath id="clip2">
<rect x="72" y="219" width="630" height="70" rx="9.06383" fill="white"/>
</clipPath>
<clipPath id="clip3">
<rect width="18" height="18" fill="white" transform="translate(599 244)"/>
</clipPath>
<clipPath id="clip4">
<rect width="18" height="18" fill="white" transform="translate(566 244)"/>
</clipPath>
<clipPath id="clip5">
<rect width="18" height="18" fill="white" transform="translate(597 332)"/>
</clipPath>
<clipPath id="clip6">
<rect width="18" height="18" fill="white" transform="translate(564 332)"/>
</clipPath>
<clipPath id="clip7">
<path d="M603.531 61.3437C603.531 58.5822 605.77 56.3437 608.531 56.3437H711.978C714.74 56.3437 716.978 58.5822 716.978 61.3437V82.1053C716.978 84.8667 714.74 87.1053 711.978 87.1053H608.531C605.77 87.1053 603.531 84.8667 603.531 82.1053V61.3437Z" fill="white"/>
</clipPath>
</defs>
</svg>
